<svg width="22" height="30" viewBox="0 0 22 30" fill="none" xmlns="http://www.w3.org/2000/svg">
<path d="M0.354602 30H21.0407C21.2365 30 21.3953 29.8412 21.3953 29.6454V27.2903C21.3953 24.4677 20.1326 21.8551 18.1043 20.0638C18.0791 20.034 18.049 20.0107 18.0154 19.9906C17.1637 19.2561 16.1806 18.6686 15.1018 18.2652C15.0747 18.2503 15.0459 18.2411 15.015 18.2336C14.884 18.1861 14.7554 18.1339 14.6217 18.092C14.9212 17.8752 15.2022 17.6374 15.4594 17.3774C15.6942 17.4374 15.9314 17.4726 16.1668 17.4726C16.933 17.4726 17.6763 17.1618 18.2231 16.5868C18.9634 15.8083 19.2017 14.6951 18.8452 13.6817C18.6691 13.1813 18.6788 12.6524 18.8725 12.1923C19.3309 11.1032 19.5634 9.94731 19.5634 8.75676C19.5634 7.05354 19.0805 5.41991 18.1723 3.99774L19.5163 3.55563C19.6617 3.50785 19.7601 3.37193 19.7601 3.21886C19.7601 3.06563 19.6617 2.92988 19.5163 2.8821L10.8084 0.0179206C10.7364 -0.00597352 10.6588 -0.00597352 10.5868 0.0179206L1.87898 2.88227C1.73353 2.93006 1.63519 3.06598 1.63519 3.21904C1.63519 3.37227 1.73353 3.50802 1.87898 3.55581L3.22293 3.99787C2.31489 5.41987 1.83205 7.05346 1.83205 8.75676C1.83205 9.94748 2.06442 11.1034 2.52273 12.1921C2.71648 12.6524 2.72618 13.1813 2.55009 13.6817C2.19358 14.6951 2.43183 15.8083 3.1722 16.5868C3.71917 17.1619 4.46214 17.4726 5.22848 17.4726C5.46392 17.4726 5.7011 17.4374 5.93589 17.3774C6.19303 17.6374 6.47413 17.8752 6.77359 18.092C6.63992 18.1339 6.51138 18.1861 6.38042 18.2336C6.34945 18.241 6.3206 18.2503 6.29339 18.2653C5.21446 18.6687 4.2312 19.2562 3.37937 19.991C3.346 20.011 3.31615 20.0341 3.29109 20.0636C1.26273 21.8549 0 24.4675 0 27.2903V29.6454C3.54602e-08 29.8412 0.158775 30 0.354602 30ZM18.8542 8.75676C18.8542 9.85225 18.6403 10.9155 18.2187 11.9172C17.9566 12.54 17.9415 13.2502 18.1761 13.9172C18.448 14.6894 18.2733 15.5048 17.7092 16.098C17.2524 16.5784 16.6369 16.806 16.0022 16.7534C16.7542 15.7763 17.2348 14.5954 17.3555 13.3208C17.3555 13.3206 17.3556 13.3205 17.3556 13.3204C17.3556 13.32 17.3556 13.3197 17.3556 13.3194C17.3557 13.3186 17.3559 13.3178 17.356 13.3171C17.356 13.3167 17.3558 13.3163 17.3558 13.3159C17.377 13.1104 17.388 12.8974 17.388 12.6828V9.026V4.25573L17.4746 4.22722C18.3746 5.56995 18.8542 7.12858 18.8542 8.75676ZM16.6788 8.68544C14.6231 8.70832 13.2461 7.24563 13.2321 7.23065C13.1667 7.15879 13.0746 7.11689 12.9774 7.11482C12.8781 7.11031 12.7863 7.15066 12.7181 7.21992C10.0132 9.94943 5.77121 9.04102 4.71649 8.75922V4.48913L10.5868 6.41998C10.6228 6.43193 10.6602 6.43782 10.6976 6.43782C10.735 6.43782 10.7724 6.43193 10.8084 6.41998L16.6788 4.489V8.68544ZM3.12459 3.21904L10.6976 0.727991L18.2707 3.21886L10.6976 5.70991L3.12459 3.21904ZM3.6861 16.098C3.12199 15.5048 2.94729 14.6894 3.21912 13.9172C3.45374 13.2502 3.43867 12.54 3.17653 11.917C2.75492 10.9159 2.54126 9.8526 2.54126 8.75676C2.54126 7.12865 3.02085 5.5699 3.9206 4.22733L4.00728 4.25586V9.026V12.6828C4.00728 12.8974 4.01828 13.1104 4.03945 13.3159C4.03949 13.3163 4.03927 13.3167 4.03932 13.3171C4.03938 13.3178 4.03955 13.3186 4.03962 13.3194C4.03966 13.3197 4.03962 13.32 4.03966 13.3204C4.03968 13.3205 4.03977 13.3206 4.03979 13.3208C4.16047 14.5952 4.641 15.7761 5.3929 16.7532C4.7585 16.8056 4.14284 16.5785 3.6861 16.098ZM6.33207 16.7636C6.32694 16.757 6.32112 16.7517 6.31553 16.7455C5.43587 15.7998 4.87074 14.5823 4.7454 13.2506C4.74534 13.25 4.74497 13.2495 4.74491 13.2489C4.74484 13.2484 4.74512 13.2479 4.74506 13.2473C4.72618 13.0644 4.71649 12.8747 4.71649 12.6828V9.49522C5.35356 9.65711 6.57294 9.89692 7.97979 9.84682C7.29171 10.0424 6.78333 10.6696 6.78333 11.4196C6.78333 11.6154 6.9421 11.7742 7.13793 11.7742C7.33376 11.7742 7.49253 11.6154 7.49253 11.4196C7.49253 10.9053 7.91103 10.4868 8.42527 10.4868C8.93951 10.4868 9.358 10.9053 9.358 11.4196C9.358 11.6154 9.51678 11.7742 9.71261 11.7742C9.90843 11.7742 10.0672 11.6154 10.0672 11.4196C10.0672 10.5906 9.44754 9.91027 8.64832 9.80018C10.0885 9.65118 11.6534 9.16216 12.9697 7.96115C13.5019 8.43436 14.8086 9.3993 16.6147 9.39913C16.636 9.39913 16.6575 9.39895 16.6788 9.39878V12.6828C16.6788 12.8747 16.6691 13.0644 16.6502 13.2473C16.6501 13.2479 16.6504 13.2484 16.6504 13.2489C16.6503 13.2495 16.6499 13.25 16.6499 13.2506C16.5245 14.5827 15.9591 15.8006 15.079 16.7464C15.0737 16.7523 15.0682 16.7573 15.0633 16.7635C14.4839 17.3814 13.7707 17.8829 12.9534 18.2188C12.9534 18.2188 12.9534 18.2188 12.9534 18.2188C12.9532 18.2189 12.953 18.2189 12.9529 18.219C11.5171 18.8094 9.87813 18.8094 8.44241 18.219C8.44226 18.2189 8.44213 18.2189 8.44198 18.2189C8.44196 18.2188 8.442 18.2189 8.44198 18.2189C7.62469 17.883 6.91146 17.3814 6.33207 16.7636ZM9.34277 23.2575C9.73555 23.5378 10.1164 23.7455 10.343 23.8606V25.6975C8.36841 25.5176 6.81588 23.8545 6.81588 21.8338V18.8291C7.07235 18.7428 7.33354 18.6671 7.60042 18.6042C7.71574 18.6646 7.83333 18.7215 7.95293 18.7756V21.249C7.95293 21.9215 8.4341 22.6165 9.34277 23.2575ZM9.75312 22.6792C9.04963 22.1828 8.66213 21.675 8.66213 21.249V19.0543C9.97492 19.4778 11.4203 19.4778 12.7331 19.0543V21.249C12.7331 21.675 12.3456 22.1828 11.6408 22.6803C11.2671 22.9467 10.8954 23.1459 10.6976 23.2452C10.4999 23.1459 10.1278 22.9464 9.75312 22.6792ZM11.0522 23.8606C11.2788 23.7456 11.6593 23.5381 12.0511 23.2586C12.9612 22.6165 13.4423 21.9215 13.4423 21.249V18.7756C13.562 18.7215 13.6796 18.6645 13.7949 18.6041C14.0618 18.667 14.323 18.7428 14.5794 18.829V21.8338C14.5794 23.8545 13.0269 25.5176 11.0522 25.6975V23.8606ZM3.91257 20.4687C4.56882 19.9145 5.30503 19.4509 6.10668 19.1018V21.8338C6.10668 24.3651 8.16624 26.4247 10.6976 26.4247C13.229 26.4247 15.2886 24.3651 15.2886 21.8338V19.1018C16.0902 19.4508 16.8265 19.9144 17.4827 20.4687V21.5027C17.4827 25.244 14.439 28.2878 10.6976 28.2878C6.9563 28.2878 3.91257 25.244 3.91257 21.5027V20.4687ZM0.709205 27.2903C0.709205 24.9431 1.65153 22.7523 3.20337 21.1279V21.5027C3.20337 25.635 6.56534 28.997 10.6976 28.997C14.8299 28.997 18.1919 25.635 18.1919 21.5027V21.128C19.7437 22.7524 20.6861 24.9432 20.6861 27.2903V29.2908H0.709205V27.2903Z" fill="#13AAA1"/>
<path d="M8.42561 11.8454C8.66067 11.8454 8.85122 11.6548 8.85122 11.4197C8.85122 11.1847 8.66067 10.9941 8.42561 10.9941C8.19055 10.9941 8 11.1847 8 11.4197C8 11.6548 8.19055 11.8454 8.42561 11.8454Z" fill="#13AAA1"/>
<path d="M12.9705 11.8454C13.2056 11.8454 13.3961 11.6548 13.3961 11.4197C13.3961 11.1847 13.2056 10.9941 12.9705 10.9941C12.7355 10.9941 12.5449 11.1847 12.5449 11.4197C12.5449 11.6548 12.7355 11.8454 12.9705 11.8454Z" fill="#13AAA1"/>
<path d="M10.6978 16.2835C11.4695 16.2835 12.1768 15.8236 12.4995 15.112C12.5804 14.9337 12.5014 14.7235 12.3231 14.6426C12.1447 14.5607 11.9345 14.6403 11.8537 14.819C11.6456 15.2779 11.1917 15.5743 10.6978 15.5743C10.2038 15.5743 9.74995 15.2779 9.54183 14.819C9.46097 14.6405 9.25043 14.561 9.07243 14.6426C8.89409 14.7235 8.81514 14.9337 8.896 15.112C9.21874 15.8236 9.92604 16.2835 10.6978 16.2835Z" fill="#13AAA1"/>
<path d="M11.6827 11.7739C11.8786 11.7739 12.0373 11.6151 12.0373 11.4193C12.0373 10.905 12.4558 10.4865 12.9701 10.4865C13.4843 10.4865 13.9028 10.905 13.9028 11.4193C13.9028 11.6151 14.0616 11.7739 14.2574 11.7739C14.4532 11.7739 14.612 11.6151 14.612 11.4193C14.612 10.5139 13.8754 9.77734 12.9701 9.77734C12.0647 9.77734 11.3281 10.5139 11.3281 11.4193C11.3281 11.6151 11.4869 11.7739 11.6827 11.7739Z" fill="#13AAA1"/>
</svg>
