<svg width="20" height="18" viewBox="0 0 20 18" fill="none" xmlns="http://www.w3.org/2000/svg">
<path d="M19.3813 12.1643C18.8466 11.5059 18.4265 11.0787 17.4958 11.1398C16.6405 11.1956 15.3539 11.6715 12.9064 12.8369C11.5693 13.4739 10.9758 13.1603 10.2887 12.7986C9.95722 12.6053 9.59924 12.4616 9.22614 12.3719C9.89225 12.1505 10.554 12.2239 11.1281 12.2882C11.4211 12.3364 11.719 12.3463 12.0145 12.3177C12.7229 12.1988 13.0178 11.8159 13.1409 11.5142C13.2181 11.3194 13.2528 11.1103 13.2426 10.9009C13.2323 10.6915 13.1775 10.4868 13.0817 10.3004C12.8765 10.0177 12.6125 10.0168 12.2785 10.0158C11.4472 10.0126 10.6214 9.88076 9.83038 9.62483C7.44015 8.93696 5.09882 9.96144 3.83871 11.2811C3.66647 11.429 3.46067 11.5325 3.23927 11.5826L3.23738 11.5784C3.17436 11.4336 3.0565 11.3197 2.90965 11.2617C2.7628 11.2037 2.59894 11.2063 2.45402 11.269L1.97079 11.4781C1.88183 11.3725 1.7614 11.2982 1.62716 11.2661C1.49292 11.234 1.35193 11.2457 1.22483 11.2995L0.387538 11.6573C0.236092 11.7254 0.11605 11.8483 0.0515629 12.0014C-0.0129241 12.1545 -0.0170714 12.3263 0.0399554 12.4823L1.73753 17.5867C1.76372 17.6653 1.80615 17.7376 1.86207 17.7989C1.91799 17.8601 1.98615 17.9089 2.06212 17.9421C2.145 17.9793 2.23468 17.999 2.32554 18C2.41639 18.0009 2.50645 17.983 2.59008 17.9475L3.83181 17.4181C3.93597 17.3736 4.02653 17.3023 4.09434 17.2115C4.16216 17.1207 4.20483 17.0136 4.21806 16.9011L4.78907 16.6529C4.91637 16.5975 5.02034 16.4994 5.08307 16.3755C5.14579 16.2516 5.16334 16.1097 5.13268 15.9743C5.85529 16.0574 6.56775 16.2129 7.25936 16.4382C8.23606 16.7171 9.29448 17.0192 10.4024 17.0192C11.0914 17.0243 11.7747 16.8937 12.4133 16.6349C12.4358 16.6254 12.4569 16.6129 12.476 16.5977C16.4313 13.4802 19.2256 12.5929 19.2532 12.5835C19.2946 12.5707 19.3322 12.548 19.3628 12.5173C19.3934 12.4866 19.416 12.4488 19.4286 12.4074C19.4412 12.3659 19.4434 12.322 19.435 12.2794C19.4267 12.2369 19.408 12.1971 19.3807 12.1634L19.3813 12.1643ZM3.68466 16.8674C3.67914 16.8814 3.67093 16.8941 3.66049 16.9048C3.65006 16.9156 3.6376 16.9242 3.62384 16.9302L2.38212 17.4595C2.36581 17.4664 2.34829 17.47 2.3306 17.47C2.3129 17.47 2.29538 17.4664 2.27908 17.4595C2.2701 17.4562 2.26194 17.451 2.25513 17.4442C2.24832 17.4375 2.24302 17.4294 2.23957 17.4204L0.542414 12.315C0.528417 12.2851 0.526057 12.2511 0.535796 12.2195C0.545534 12.188 0.566672 12.1612 0.595085 12.1444L1.43238 11.7875C1.44618 11.7816 1.46104 11.7785 1.47606 11.7785C1.49101 11.7786 1.50582 11.7814 1.51974 11.7869C1.54789 11.7981 1.57043 11.8201 1.58245 11.8479L3.68425 16.78C3.69008 16.7939 3.69314 16.8087 3.69325 16.8237C3.69336 16.8387 3.69051 16.8535 3.68487 16.8674H3.68466ZM4.61267 16.1304C4.60621 16.1467 4.5937 16.1598 4.57776 16.167L4.0891 16.3801L2.20362 11.9548L2.6647 11.7549C2.67268 11.7516 2.68124 11.7499 2.68988 11.7499C2.69853 11.7499 2.70709 11.7516 2.71507 11.7549C2.73136 11.7613 2.74449 11.7738 2.75165 11.7898L4.61183 16.0807C4.6187 16.0965 4.61886 16.1144 4.61267 16.1304ZM12.1788 16.1582C10.5224 16.8189 8.93729 16.3673 7.4042 15.9283C6.52991 15.6786 5.70035 15.442 4.90967 15.4342L3.45141 12.0719C3.73976 11.9971 4.00465 11.851 4.22161 11.6468C5.37116 10.4425 7.50641 9.50732 9.68408 10.1337C10.5222 10.4039 11.3971 10.5427 12.2777 10.545C12.5933 10.546 12.6138 10.5563 12.6497 10.6048C12.7388 10.8485 12.7326 11.1168 12.6326 11.3562C12.5601 11.4816 12.4579 11.5872 12.335 11.6638C12.2121 11.7404 12.0723 11.7855 11.9278 11.7952C11.6805 11.8131 11.4319 11.8018 11.1873 11.7616C10.2488 11.657 8.83048 11.5 7.61321 12.8375C7.56809 12.8873 7.54356 12.9523 7.54458 13.0195C7.54561 13.0867 7.57212 13.151 7.61874 13.1993C7.66536 13.2477 7.72862 13.2765 7.79569 13.28C7.86277 13.2835 7.92866 13.2613 7.98002 13.218L8.38738 12.8732C9.10387 12.7727 9.56034 13.0133 10.0427 13.2674C10.7534 13.6416 11.5583 14.0658 13.1346 13.3152C17.3623 11.3025 18.0127 11.3949 18.7302 12.209C17.8371 12.5494 15.4103 13.6163 12.1788 16.1582ZM2.91196 16.2755C2.93821 16.3399 2.93809 16.4121 2.91163 16.4764C2.88517 16.5407 2.83449 16.592 2.77053 16.6193C2.70657 16.6465 2.63446 16.6475 2.56977 16.6221C2.50508 16.5966 2.45299 16.5467 2.42476 16.4832L2.24689 16.065C2.22143 16.0008 2.22205 15.9292 2.24862 15.8654C2.2752 15.8016 2.32562 15.7508 2.38914 15.7237C2.45266 15.6966 2.52425 15.6954 2.58865 15.7203C2.65305 15.7452 2.70516 15.7944 2.73388 15.8572L2.91196 16.2755ZM12.4121 9.55729C13.3569 9.55729 14.2805 9.27703 15.0661 8.75195C15.8517 8.22686 16.464 7.48054 16.8256 6.60736C17.1871 5.73417 17.2817 4.77335 17.0974 3.84638C16.9131 2.91941 16.4581 2.06794 15.79 1.39963C15.1219 0.731329 14.2707 0.276208 13.344 0.0918225C12.4174 -0.0925626 11.4569 0.0020705 10.5839 0.363755C9.71104 0.725439 8.96495 1.33793 8.44004 2.12377C7.91512 2.90962 7.63495 3.83352 7.63495 4.77865C7.63644 6.04556 8.14022 7.26016 9.03578 8.15601C9.93134 9.05186 11.1456 9.5558 12.4121 9.55729ZM12.4121 0.529592C13.2522 0.529592 14.0734 0.778795 14.772 1.24569C15.4705 1.71258 16.0149 2.37619 16.3364 3.1526C16.6579 3.92902 16.7421 4.78336 16.5782 5.6076C16.4143 6.43183 16.0097 7.18894 15.4157 7.78318C14.8216 8.37742 14.0647 8.78211 13.2408 8.94606C12.4168 9.11001 11.5627 9.02586 10.7865 8.70426C10.0104 8.38266 9.34698 7.83805 8.88024 7.1393C8.41349 6.44054 8.16437 5.61903 8.16437 4.77865C8.16564 3.65212 8.61357 2.57209 9.4099 1.77552C10.2062 0.978941 11.2859 0.530865 12.4121 0.529592ZM12.4121 8.18304C13.0865 8.18904 13.7475 7.99448 14.3112 7.62404C14.8749 7.2536 15.3158 6.72398 15.5781 6.10242C15.8403 5.48085 15.912 4.79535 15.7841 4.13294C15.6562 3.47052 15.3345 2.86105 14.8597 2.38188C14.3849 1.90271 13.7785 1.57544 13.1175 1.44162C12.4564 1.3078 11.7705 1.37346 11.1469 1.63026C10.5232 1.88707 9.98985 2.32344 9.61453 2.88399C9.23921 3.44453 9.03885 4.10399 9.03887 4.77865C9.03592 5.67724 9.3894 6.54031 10.0218 7.17853C10.6542 7.81675 11.5138 8.178 12.4121 8.18304ZM12.4121 1.90385C12.9818 1.89784 13.5404 2.06134 14.017 2.37358C14.4936 2.68583 14.8667 3.13273 15.0889 3.65752C15.3111 4.18231 15.3723 4.76132 15.2649 5.321C15.1574 5.88069 14.8861 6.3958 14.4853 6.8009C14.0846 7.20601 13.5725 7.48284 13.0142 7.59623C12.4559 7.70962 11.8764 7.65445 11.3495 7.43773C10.8225 7.22102 10.3719 6.85253 10.0547 6.37908C9.7376 5.90562 9.56828 5.34856 9.56828 4.77865C9.56517 4.02046 9.86282 3.29199 10.3959 2.75306C10.9291 2.21412 11.6541 1.90872 12.4121 1.90385ZM11.2861 5.79789V5.46504C11.2851 5.42965 11.2913 5.39441 11.3041 5.36141C11.317 5.32841 11.3363 5.29833 11.361 5.27294C11.3857 5.24755 11.4152 5.22737 11.4478 5.21359C11.4804 5.1998 11.5154 5.1927 11.5508 5.1927C11.5862 5.1927 11.6213 5.1998 11.6539 5.21359C11.6865 5.22737 11.716 5.24755 11.7407 5.27294C11.7654 5.29833 11.7847 5.32841 11.7976 5.36141C11.8104 5.39441 11.8166 5.42965 11.8156 5.46504V5.79789C11.8156 5.84975 12.0338 6.01303 12.4121 6.01303C12.7904 6.01303 13.0088 5.84975 13.0088 5.79789V5.25848C13.0088 5.2244 13.0088 5.1922 12.9026 5.14809C12.732 5.09264 12.5557 5.05673 12.377 5.04104C12.1523 5.02097 11.9311 4.97293 11.7184 4.89803C11.5918 4.85737 11.4815 4.77724 11.4038 4.66938C11.326 4.56152 11.2848 4.43159 11.2861 4.29861V3.7594C11.2861 3.3954 11.6415 3.10855 12.1475 3.03391V2.76754C12.1465 2.73214 12.1526 2.6969 12.1654 2.66391C12.1783 2.63091 12.1976 2.60083 12.2223 2.57544C12.247 2.55005 12.2765 2.52987 12.3091 2.51609C12.3417 2.5023 12.3768 2.4952 12.4122 2.4952C12.4476 2.4952 12.4826 2.5023 12.5152 2.51609C12.5478 2.52987 12.5774 2.55005 12.602 2.57544C12.6267 2.60083 12.6461 2.63091 12.6589 2.66391C12.6718 2.6969 12.6779 2.73214 12.6769 2.76754V3.03391C13.1825 3.10855 13.5382 3.3954 13.5382 3.7594V4.09204C13.5392 4.12744 13.5331 4.16268 13.5202 4.19568C13.5074 4.22867 13.488 4.25875 13.4634 4.28414C13.4387 4.30954 13.4092 4.32972 13.3766 4.3435C13.3439 4.35728 13.3089 4.36438 13.2735 4.36438C13.2381 4.36438 13.2031 4.35728 13.1704 4.3435C13.1378 4.32972 13.1083 4.30954 13.0836 4.28414C13.059 4.25875 13.0396 4.22867 13.0268 4.19568C13.0139 4.16268 13.0078 4.12744 13.0088 4.09204V3.7594C13.0088 3.70755 12.7906 3.54426 12.4121 3.54426C12.0336 3.54426 11.8156 3.70755 11.8156 3.7594V4.29861C11.8156 4.33269 11.8156 4.36489 11.9217 4.409C12.0923 4.46445 12.2687 4.50036 12.4474 4.51605C12.672 4.53611 12.8933 4.58415 13.106 4.65906C13.2326 4.69972 13.3428 4.77984 13.4206 4.8877C13.4984 4.99556 13.5396 5.12549 13.5382 5.25848V5.79789C13.5382 6.16169 13.1829 6.44854 12.6769 6.52339V6.78954C12.6779 6.82494 12.6718 6.86018 12.6589 6.89318C12.6461 6.92617 12.6267 6.95626 12.602 6.98165C12.5774 7.00704 12.5478 7.02722 12.5152 7.041C12.4826 7.05478 12.4476 7.06188 12.4122 7.06188C12.3768 7.06188 12.3417 7.05478 12.3091 7.041C12.2765 7.02722 12.247 7.00704 12.2223 6.98165C12.1976 6.95626 12.1783 6.92617 12.1654 6.89318C12.1526 6.86018 12.1465 6.82494 12.1475 6.78954V6.52339C11.6417 6.44896 11.2861 6.16169 11.2861 5.79789Z" fill="#FE6032"/>
</svg>
