<svg width="18" height="18" viewBox="0 0 18 18" fill="none" xmlns="http://www.w3.org/2000/svg">
<path d="M12.3543 7.92059L8.87447 14.0943H15.833L12.3543 7.92059ZM8.23943 14.22L12.1408 7.29773C12.2358 7.12735 12.4713 7.12846 12.5652 7.29478L16.4605 14.2045C16.5746 14.3915 16.4389 14.5966 16.2575 14.5966H8.45075C8.26499 14.5962 8.14366 14.3882 8.23943 14.22ZM12.5991 5.56743L17.9668 15.0915C18.0618 15.2589 17.9412 15.4669 17.7554 15.4669V15.468H12.5991V16.8981C12.5991 17.5055 12.1163 18 11.5234 18H1.07677C0.483846 18 0 17.5055 0 16.8981V2.82151C0 2.80565 0.00216003 2.78906 0.00504006 2.77357C0.00612008 2.7673 0.00720009 2.76214 0.00900012 2.75587C0.0100801 2.75071 0.0122402 2.74444 0.0140402 2.73928L0.0349205 2.69392L0.0727209 2.64376L2.57979 0.0752305C2.62479 0.028027 2.68707 0 2.75548 0H11.5234C12.1163 0 12.5991 0.49453 12.5991 1.10191V5.56743ZM12.1091 15.468H6.95277C6.77025 15.468 6.63525 15.2629 6.74973 15.076L12.1091 5.56669V1.10191C12.1091 0.771481 11.846 0.501905 11.5234 0.501905H3.00028V1.97074C3.00028 2.57812 2.51751 3.07265 1.92458 3.07265H0.491046V16.8985C0.491046 17.2289 0.75421 17.4985 1.07677 17.4985H11.5234C11.846 17.4985 12.1091 17.2289 12.1091 16.8985V15.468ZM17.3321 14.9653L12.3543 6.13313L7.37649 14.9653H17.3321ZM2.49123 14.105C2.40951 13.9943 2.43219 13.8361 2.54019 13.7539C2.64927 13.6713 2.80264 13.6934 2.88292 13.8052L3.21268 14.2569L4.50042 12.4872C4.58106 12.3765 4.73514 12.3533 4.84314 12.4359C4.95114 12.5196 4.97382 12.6763 4.89318 12.787L3.4114 14.8223C3.31564 14.9572 3.11656 14.9646 3.0154 14.8263L2.49123 14.105ZM4.36182 13.9825C4.31898 13.852 4.38738 13.7097 4.5159 13.6658C4.64334 13.6219 4.7823 13.6931 4.82514 13.8236C5.19343 14.9495 4.36794 16.0794 3.23104 16.0794C2.30151 16.0794 1.54838 15.3068 1.54838 14.3557C1.54838 13.2852 2.48943 12.4731 3.52409 12.6572C3.61805 12.6738 3.71201 12.6999 3.80273 12.7346C3.92909 12.7825 3.99353 12.9271 3.94673 13.0565C3.89885 13.1864 3.75881 13.252 3.63245 13.2041C3.21088 13.0422 2.70795 13.1642 2.38863 13.4913C1.92242 13.9689 1.92242 14.7426 2.38863 15.2194C2.85808 15.7003 3.61409 15.694 4.07957 15.2194C4.40682 14.8857 4.5015 14.4103 4.36182 13.9825ZM5.61067 10.8173C5.47495 10.8173 5.36587 10.7045 5.36587 10.5655C5.36587 10.4275 5.47495 10.3147 5.61067 10.3147H7.8121C7.94674 10.3147 8.0569 10.4275 8.0569 10.5655C8.0569 10.7045 7.94674 10.8173 7.8121 10.8173H5.61067ZM5.61067 9.35403C5.47495 9.35403 5.36587 9.24118 5.36587 9.10326C5.36587 8.96423 5.47495 8.85249 5.61067 8.85249H8.90796C9.04368 8.85249 9.15276 8.96423 9.15276 9.10326C9.15276 9.24118 9.04368 9.35403 8.90796 9.35403H5.61067ZM2.49123 9.70621C2.40951 9.59557 2.43219 9.43848 2.54019 9.35513C2.64927 9.27253 2.80264 9.29539 2.88292 9.40639L3.21268 9.85814L4.50042 8.08949C4.58106 7.97775 4.73514 7.95562 4.84314 8.03823C4.95114 8.12084 4.97382 8.27867 4.89318 8.38931L3.4114 10.4235C3.31564 10.5596 3.11656 10.5655 3.0154 10.4275L2.49123 9.70621ZM4.36182 9.58488C4.31898 9.45323 4.38738 9.31088 4.5159 9.26699C4.64334 9.22311 4.7823 9.29428 4.82514 9.42594C5.19343 10.5507 4.36794 11.6806 3.23104 11.6806C2.30151 11.6806 1.54838 10.9092 1.54838 9.95698C1.54838 8.88642 2.48943 8.07548 3.52409 8.2595C3.61805 8.27609 3.71201 8.30117 3.80273 8.33694C3.92909 8.38488 3.99353 8.52944 3.94673 8.65778C3.89885 8.78722 3.75881 8.85323 3.63245 8.80529C3.21088 8.64413 2.70795 8.76546 2.38863 9.09367C1.92242 9.5705 1.92242 10.3438 2.38863 10.8207C2.85808 11.3026 3.61409 11.2953 4.07957 10.8207C4.40682 10.4869 4.5015 10.0116 4.36182 9.58488ZM2.49123 5.25175C2.40951 5.14112 2.43219 4.98402 2.54019 4.90141C2.64927 4.8177 2.80264 4.84093 2.88292 4.95157L3.21268 5.40406L4.50042 3.6343C4.58106 3.52366 4.73514 3.50043 4.84314 3.58304C4.95114 3.66564 4.97382 3.82348 4.89318 3.93411L3.4114 5.96939C3.31564 6.10436 3.11656 6.11137 3.0154 5.97345L2.49123 5.25175ZM4.36182 5.13079C4.31898 4.99914 4.38738 4.8579 4.5159 4.81401C4.64334 4.77013 4.7823 4.8402 4.82514 4.97185C5.19343 6.09662 4.36794 7.22655 3.23104 7.22655C2.30151 7.22655 1.54838 6.45507 1.54838 5.50289C1.54838 4.43233 2.48943 3.62139 3.52409 3.80541C3.61805 3.822 3.71201 3.84708 3.80273 3.88285C3.92909 3.93079 3.99353 4.07535 3.94673 4.20479C3.89885 4.3335 3.75881 4.39914 3.63245 4.3512C3.21088 4.19004 2.70795 4.31248 2.38863 4.63958C1.92242 5.11641 1.92242 5.88974 2.38863 6.36767C2.85808 6.84856 3.61409 6.84118 4.07957 6.36656C4.40682 6.03393 4.5015 5.5571 4.36182 5.13079ZM5.61067 15.215C5.47495 15.215 5.36587 15.1033 5.36587 14.9642C5.36587 14.8252 5.47495 14.7135 5.61067 14.7135H6.0812C6.21692 14.7135 6.326 14.8252 6.326 14.9642C6.326 15.1033 6.21692 15.215 6.0812 15.215H5.61067ZM5.61067 13.7528C5.47495 13.7528 5.36587 13.64 5.36587 13.5009C5.36587 13.363 5.47495 13.2502 5.61067 13.2502H5.94548C6.0812 13.2502 6.19028 13.363 6.19028 13.5009C6.19028 13.64 6.0812 13.7528 5.94548 13.7528H5.61067ZM5.61067 4.89957C5.47495 4.89957 5.36587 4.78783 5.36587 4.6488C5.36587 4.50977 5.47495 4.39803 5.61067 4.39803H10.2457C10.3815 4.39803 10.4916 4.50977 10.4916 4.6488C10.4916 4.78783 10.3815 4.89957 10.2457 4.89957H5.61067ZM5.61067 6.36325C5.47495 6.36325 5.36587 6.2504 5.36587 6.11248C5.36587 5.97345 5.47495 5.8606 5.61067 5.8606H7.76386C7.89958 5.8606 8.00866 5.97345 8.00866 6.11248C8.00866 6.2504 7.89958 6.36325 7.76386 6.36325H5.61067ZM0.838091 2.57074H1.92494C2.24643 2.57074 2.51067 2.30117 2.51067 1.97074V0.857406L0.838091 2.57074ZM12.5991 13.2561C12.5991 13.3951 12.49 13.5068 12.3543 13.5068C12.2186 13.5068 12.1095 13.3951 12.1095 13.2561V12.7604C12.1095 12.6214 12.2186 12.5097 12.3543 12.5097C12.49 12.5097 12.5991 12.6214 12.5991 12.7604V13.2561ZM12.5991 11.9642C12.5991 12.1033 12.49 12.2161 12.3543 12.2161C12.2186 12.2161 12.1095 12.1033 12.1095 11.9642V9.27769C12.1095 9.13866 12.2186 9.02582 12.3543 9.02582C12.49 9.02582 12.5991 9.13866 12.5991 9.27769V11.9642Z" fill="#9400FF"/>
</svg>
