<svg width="18" height="19" viewBox="0 0 18 19" fill="none" xmlns="http://www.w3.org/2000/svg">
<path d="M8.8261 13.8216H8.82086C8.8089 13.8216 8.7969 13.8216 8.78535 13.8213C8.57899 13.8198 8.41263 13.6511 8.41412 13.4448C8.41562 13.2403 8.5831 13.0739 8.78759 13.0739H8.79058C8.80071 13.0739 8.81077 13.0739 8.8209 13.0739H8.82464C8.82501 13.0739 8.82501 13.0739 8.82542 13.0739C9.03178 13.0739 9.19926 13.2413 9.19964 13.4474C9.19964 13.5472 9.16113 13.6411 9.09048 13.7117C9.01971 13.7824 8.92591 13.8216 8.8261 13.8216ZM9.94945 13.6784C9.77935 13.6784 9.6306 13.5633 9.58794 13.3984C9.5629 13.3016 9.5771 13.201 9.62761 13.115C9.67841 13.0286 9.75954 12.9677 9.85599 12.9427C9.86724 12.9397 9.87846 12.9367 9.88963 12.9337H9.89001C9.92182 12.9251 9.95431 12.921 9.98683 12.921C10.1555 12.921 10.3038 13.0347 10.3476 13.198C10.3562 13.2298 10.3603 13.2631 10.3603 13.296C10.3599 13.4642 10.2459 13.6123 10.0833 13.656C10.0702 13.6594 10.0567 13.6631 10.0437 13.6665C10.0127 13.6743 9.98089 13.6784 9.94945 13.6784ZM7.66495 13.6713C7.63242 13.6713 7.60027 13.6672 7.5685 13.6586C7.55541 13.6552 7.54195 13.6515 7.52887 13.6478C7.43279 13.6216 7.35242 13.5591 7.30307 13.472C7.25372 13.3853 7.24101 13.2843 7.26755 13.1882C7.31204 13.0264 7.46008 12.9134 7.62794 12.9134C7.66121 12.9134 7.69485 12.9179 7.72738 12.9269L7.73598 12.9291C7.7442 12.9314 7.75243 12.9336 7.76065 12.9359C7.92364 12.9792 8.03808 13.1269 8.03879 13.2955C8.03879 13.3285 8.0343 13.3614 8.02608 13.3935C7.98234 13.5569 7.83392 13.6713 7.66495 13.6713ZM11.0351 13.238C10.9005 13.238 10.776 13.1658 10.7099 13.0489C10.6605 12.9621 10.6478 12.8611 10.6744 12.7651C10.7009 12.6686 10.7633 12.5886 10.8501 12.5393C10.8579 12.5348 10.8654 12.5303 10.8732 12.5258L10.88 12.5221C10.9371 12.4887 11.0018 12.4715 11.0673 12.4715C11.2004 12.4715 11.3245 12.543 11.391 12.6577C11.4239 12.7146 11.4411 12.7785 11.4415 12.8436C11.4419 12.9774 11.3705 13.1019 11.2549 13.1688L11.2445 13.1752C11.2359 13.1797 11.2277 13.1845 11.2195 13.1894C11.1633 13.2212 11.0994 13.238 11.0351 13.238ZM6.58193 13.2242C6.51688 13.2242 6.45221 13.2066 6.39539 13.1741L6.39464 13.1733C6.38305 13.1666 6.37146 13.1602 6.35987 13.1531C6.1823 13.0488 6.12286 12.8192 6.22716 12.6413C6.29407 12.5276 6.41782 12.457 6.54978 12.457C6.61633 12.457 6.68175 12.4749 6.73894 12.5089C6.74904 12.5145 6.75913 12.5206 6.76923 12.5261L6.7696 12.5265C6.88474 12.5934 6.95652 12.7176 6.95615 12.8511C6.95615 12.9161 6.93895 12.9804 6.90605 13.0369C6.83951 13.1524 6.71539 13.2242 6.58193 13.2242ZM11.9686 12.5317C11.8677 12.5317 11.7731 12.4921 11.702 12.4203C11.6321 12.3493 11.594 12.2551 11.5948 12.1552C11.5955 12.0554 11.6351 11.9616 11.7061 11.8916C11.7143 11.8834 11.7226 11.8752 11.7308 11.867C11.7308 11.867 11.7308 11.867 11.7312 11.867C11.8015 11.7963 11.8953 11.7574 11.9951 11.7574C12.095 11.7574 12.1888 11.7963 12.2594 11.8666C12.3301 11.9373 12.369 12.0311 12.369 12.1309C12.3694 12.2308 12.3305 12.3249 12.2598 12.3956C12.2501 12.405 12.2403 12.4147 12.2307 12.4244C12.1604 12.4936 12.0673 12.5317 11.9686 12.5317ZM5.65294 12.5115C5.55312 12.5115 5.45966 12.473 5.38901 12.4027C5.38901 12.4027 5.38901 12.4027 5.38863 12.4024C5.38751 12.4012 5.38602 12.3998 5.38452 12.3983C5.3763 12.39 5.36807 12.3818 5.35985 12.3732C5.21517 12.2266 5.21704 11.9892 5.36359 11.8445C5.43387 11.7753 5.52733 11.7369 5.62602 11.7369C5.72696 11.7369 5.82154 11.7765 5.8922 11.8482C5.90042 11.8565 5.90865 11.8647 5.91687 11.8729C5.98753 11.9436 6.02641 12.0374 6.02641 12.1372C6.02678 12.2371 5.9879 12.3309 5.91762 12.4015C5.84696 12.4727 5.75275 12.5115 5.65294 12.5115ZM12.6886 11.6086C12.6221 11.6086 12.5566 11.5907 12.4994 11.557C12.4131 11.5062 12.3522 11.425 12.3271 11.3286C12.3021 11.2317 12.3163 11.1312 12.3667 11.0452C12.3727 11.0351 12.3787 11.025 12.3843 11.0153C12.4509 10.8997 12.5753 10.8279 12.7085 10.8279C12.7739 10.8279 12.8382 10.8455 12.895 10.8784C13.0109 10.945 13.0823 11.0695 13.0819 11.203C13.0819 11.268 13.0647 11.3323 13.0318 11.3892C13.0251 11.4011 13.018 11.4127 13.0112 11.4247C12.9443 11.5383 12.8206 11.6086 12.6886 11.6086ZM4.9389 11.5839H4.93853C4.80582 11.5839 4.6817 11.5129 4.61478 11.3981L4.60992 11.3891C4.60469 11.3802 4.59983 11.3712 4.5946 11.3622C4.54525 11.2754 4.53254 11.1745 4.55908 11.0784C4.58525 10.9819 4.64768 10.9019 4.73441 10.8526C4.79086 10.8204 4.85479 10.8032 4.91909 10.8032C5.0533 10.8032 5.17816 10.8758 5.24433 10.9924C5.24919 11.0007 5.25405 11.0093 5.25854 11.0175L5.26153 11.0224C5.26153 11.0227 5.26153 11.0227 5.2619 11.0227C5.29443 11.0792 5.312 11.1435 5.312 11.2082C5.31274 11.342 5.24134 11.4665 5.12582 11.5335C5.069 11.5667 5.00433 11.5839 4.9389 11.5839ZM13.1462 10.5303C13.1125 10.5303 13.0793 10.5258 13.0468 10.5169C12.8479 10.4619 12.7309 10.2555 12.7854 10.057C12.7888 10.0458 12.7918 10.0345 12.7948 10.0234C12.8381 9.85998 12.9866 9.74594 13.1555 9.74594C13.188 9.74594 13.2206 9.75002 13.252 9.75865C13.4149 9.80202 13.529 9.94967 13.5298 10.1179C13.5298 10.1512 13.5256 10.1841 13.517 10.2159C13.5137 10.2293 13.5099 10.2424 13.5062 10.2555C13.4617 10.4174 13.3137 10.5303 13.1462 10.5303ZM4.48805 10.503C4.31982 10.503 4.17141 10.3897 4.12767 10.2267C4.1273 10.2267 4.1273 10.2263 4.1273 10.2263C4.12655 10.2241 4.12618 10.2222 4.1258 10.22C4.12281 10.2087 4.11982 10.1979 4.11683 10.1867C4.09178 10.0898 4.10561 9.98927 4.15646 9.90327C4.20692 9.81687 4.28805 9.75596 4.3845 9.73054C4.41553 9.72269 4.4473 9.71857 4.47908 9.71857C4.6488 9.71857 4.79759 9.83373 4.84058 9.99861C4.8432 10.0098 4.84619 10.021 4.84956 10.0322V10.0326C4.85815 10.0648 4.86227 10.0973 4.86227 10.1302C4.86189 10.2984 4.74825 10.4465 4.58525 10.4902C4.55347 10.4989 4.52058 10.503 4.48805 10.503ZM13.3069 9.37052H13.304C13.2041 9.36974 13.1103 9.33014 13.0404 9.25873C12.9705 9.18769 12.9323 9.09347 12.9331 8.99364C12.9331 8.9828 12.9331 8.97196 12.9331 8.96112V8.95925C12.9331 8.95925 12.9331 8.95925 12.9331 8.95883V8.95659C12.9331 8.95547 12.9331 8.95472 12.9331 8.95397L12.9339 8.93565V8.93528L12.9361 8.93005H12.9343L12.9346 8.92556C12.9346 8.92556 12.9346 8.92556 12.9346 8.92519C12.9429 8.83284 12.9847 8.74722 13.0531 8.68403C13.1223 8.62047 13.2117 8.58495 13.3055 8.58495H13.3066C13.4752 8.58495 13.6236 8.69786 13.6677 8.86013C13.6681 8.86162 13.6685 8.86275 13.6685 8.86387L13.6707 8.87172C13.6707 8.87247 13.6711 8.87321 13.6711 8.874C13.6715 8.87475 13.6715 8.87512 13.6715 8.87587L13.673 8.88335C13.6734 8.88372 13.6734 8.88409 13.6734 8.88447C13.6738 8.88522 13.6738 8.88671 13.6741 8.88783L13.6749 8.89232C13.6749 8.89269 13.6749 8.89269 13.6749 8.89307L13.6756 8.89684C13.6756 8.89722 13.6756 8.89759 13.6756 8.89759L13.6767 8.90208V8.90283L13.6771 8.90623C13.6771 8.9066 13.6771 8.90698 13.6771 8.90698L13.6782 8.91558V8.91595L13.679 8.92044V8.92081C13.6794 8.9238 13.6794 8.92679 13.6798 8.92978V8.93053C13.6798 8.93203 13.6802 8.93315 13.6802 8.93464L13.6806 8.9395C13.6806 8.93988 13.6806 8.93988 13.6806 8.94025L13.6809 8.95072C13.6809 8.95184 13.6809 8.95259 13.6809 8.95371V8.95558C13.6809 8.9567 13.6809 8.95745 13.6809 8.95857V8.96112C13.6809 8.97383 13.6809 8.98654 13.6809 8.99925C13.6789 9.20414 13.5114 9.37052 13.3069 9.37052ZM4.33553 9.34211H4.33478C4.12879 9.34211 3.96131 9.17498 3.96094 8.96897V8.96112C3.96094 8.9499 3.96094 8.93906 3.96094 8.92821C3.96243 8.72332 4.12991 8.55657 4.33478 8.55657H4.33739C4.43721 8.55732 4.53067 8.59695 4.60095 8.66799C4.67123 8.73903 4.70937 8.83325 4.70862 8.93307C4.70862 8.94242 4.70862 8.95177 4.70862 8.96112V8.96785C4.70899 9.17386 4.54151 9.34211 4.33553 9.34211ZM13.1641 8.20811C12.9937 8.20811 12.8453 8.09295 12.8023 7.92807C12.7993 7.91685 12.7967 7.90563 12.7937 7.89442C12.7851 7.86226 12.7806 7.82936 12.7806 7.79646C12.7813 7.62821 12.8953 7.48015 13.058 7.4364C13.0897 7.42818 13.1223 7.42369 13.1548 7.42369C13.3238 7.42369 13.4722 7.53773 13.5155 7.70112C13.5193 7.7142 13.5226 7.72729 13.526 7.74075C13.5511 7.83721 13.5372 7.93816 13.4864 8.02416C13.4355 8.11015 13.3544 8.17109 13.2579 8.19614C13.2269 8.20437 13.1955 8.20811 13.1641 8.20811ZM4.48469 8.18119C4.45254 8.18119 4.42001 8.17707 4.38861 8.16848C4.22562 8.12548 4.1116 7.97742 4.11047 7.80917C4.11047 7.77627 4.11459 7.74337 4.12318 7.71121C4.12617 7.69962 4.12954 7.68803 4.13253 7.67644L4.13403 7.67158C4.17851 7.50969 4.32655 7.39677 4.49441 7.39677C4.52768 7.39677 4.56095 7.40126 4.59348 7.40986C4.79198 7.46482 4.90937 7.67083 4.85479 7.86974C4.8518 7.88054 4.84881 7.8918 4.84582 7.90302C4.80245 8.06678 4.65404 8.18119 4.48469 8.18119ZM12.7249 7.12309C12.5907 7.12309 12.4658 7.05055 12.3996 6.93353C12.3963 6.92754 12.3926 6.92119 12.3892 6.91521L12.3824 6.90362C12.3495 6.84716 12.3323 6.78285 12.332 6.71779C12.3316 6.58394 12.403 6.45944 12.5185 6.39251C12.5753 6.35961 12.64 6.34241 12.7054 6.34241C12.8385 6.34241 12.9626 6.41382 13.0296 6.52898C13.0344 6.53721 13.0389 6.54581 13.0438 6.55403L13.0497 6.5645C13.1514 6.74359 13.0886 6.97241 12.9091 7.07411C12.8531 7.10589 12.7891 7.12309 12.7249 7.12309ZM4.93068 7.09841C4.86563 7.09841 4.80133 7.08121 4.74451 7.04831C4.62899 6.98176 4.55721 6.85725 4.55721 6.72378C4.55721 6.65872 4.57441 6.59441 4.60731 6.53795C4.61404 6.52599 4.62114 6.51403 4.62787 6.50206C4.69479 6.3884 4.81853 6.31774 4.95049 6.31774C5.01666 6.31774 5.08208 6.33568 5.13966 6.36933C5.22564 6.41981 5.28695 6.50094 5.312 6.5974C5.33704 6.69424 5.32321 6.79481 5.27237 6.88118L5.269 6.88679C5.26452 6.89502 5.25966 6.90287 5.25517 6.91109C5.18863 7.02662 5.06414 7.09841 4.93068 7.09841ZM12.0191 6.18874C11.9181 6.18874 11.8232 6.14911 11.7525 6.07695C11.7484 6.07247 11.7439 6.06835 11.7394 6.06387C11.7357 6.06013 11.732 6.05601 11.7282 6.05228C11.6575 5.98198 11.6186 5.88777 11.6186 5.78794C11.6186 5.68811 11.6575 5.59426 11.7278 5.5236C11.7985 5.45293 11.8923 5.41405 11.9925 5.41405C12.0923 5.41405 12.1861 5.45293 12.2564 5.5236C12.2662 5.53332 12.2759 5.54304 12.2856 5.55276C12.3555 5.6238 12.3936 5.71802 12.3929 5.81785C12.3921 5.91768 12.3525 6.01152 12.2811 6.08144C12.2108 6.15061 12.1177 6.18874 12.0191 6.18874ZM5.64285 6.16818C5.5434 6.16818 5.44957 6.12967 5.37891 6.05938C5.30826 5.98871 5.26938 5.89487 5.269 5.79504C5.269 5.69521 5.30751 5.60137 5.37817 5.53033C5.38789 5.52061 5.39723 5.51126 5.40733 5.50154C5.47761 5.432 5.57069 5.39386 5.66976 5.39386C5.7707 5.39386 5.86491 5.43312 5.93594 5.5049C6.08061 5.65184 6.07912 5.88889 5.9322 6.03396C5.92397 6.04181 5.91575 6.05003 5.90752 6.05826C5.83724 6.1293 5.74303 6.16818 5.64285 6.16818ZM11.096 5.46752C11.0295 5.46752 10.9641 5.44957 10.9065 5.41555L10.9024 5.4133C10.8938 5.40844 10.8852 5.40321 10.8762 5.39835C10.7611 5.33142 10.6893 5.20692 10.6897 5.07344C10.6897 5.00838 10.7073 4.94407 10.7402 4.88724C10.8067 4.77209 10.9309 4.70067 11.0639 4.70067C11.1294 4.70067 11.194 4.71787 11.2509 4.75078C11.2628 4.75788 11.2744 4.76461 11.2864 4.77171C11.3724 4.82219 11.4333 4.90369 11.4583 5.00016C11.4834 5.09699 11.4692 5.19757 11.4183 5.28353C11.3513 5.39723 11.228 5.46752 11.096 5.46752ZM6.57034 5.45331C6.43726 5.45331 6.31351 5.3819 6.2466 5.26711C6.2137 5.21066 6.1965 5.14635 6.19613 5.08129C6.19538 4.94781 6.26678 4.82294 6.38193 4.75601L6.41744 4.73545C6.47389 4.70329 6.53782 4.68647 6.60249 4.68647C6.73633 4.68647 6.86119 4.75863 6.92736 4.87528C7.02942 5.05437 6.96699 5.28319 6.78792 5.38526C6.7782 5.3905 6.76885 5.3961 6.75951 5.40134L6.75801 5.40246C6.75801 5.40246 6.75801 5.40246 6.75764 5.40246C6.70081 5.43574 6.63576 5.45331 6.57034 5.45331ZM10.0183 5.00988C9.98496 5.00988 9.95135 5.00539 9.91883 4.99642C9.90758 4.99343 9.89636 4.99044 9.88552 4.98745C9.88515 4.98745 9.88515 4.98745 9.88515 4.98745C9.72215 4.9437 9.60813 4.79602 9.60776 4.62739C9.60776 4.59486 9.61187 4.56196 9.62047 4.52981C9.66421 4.36642 9.81266 4.25201 9.9816 4.25201C10.0137 4.25201 10.0463 4.2565 10.078 4.2651C10.0915 4.26846 10.1046 4.2722 10.1177 4.27556C10.2141 4.30211 10.2942 4.36492 10.3435 4.45167C10.3928 4.53841 10.4052 4.63936 10.3786 4.73545C10.3338 4.89734 10.1858 5.00988 10.0183 5.00988ZM7.65037 5.00278C7.48177 5.00278 7.33335 4.88874 7.28961 4.7261C7.28101 4.69394 7.27653 4.66104 7.27653 4.62814C7.2769 4.45989 7.39055 4.31146 7.55317 4.26771L7.55878 4.26622C7.56999 4.26323 7.58158 4.26024 7.5928 4.25724C7.62382 4.24902 7.6556 4.24491 7.68738 4.24491C7.85747 4.24491 8.00589 4.36006 8.04888 4.52457C8.10085 4.72423 7.98084 4.92875 7.78121 4.98072C7.77 4.98371 7.75878 4.9867 7.74794 4.98969C7.71579 4.99829 7.68289 5.00278 7.65037 5.00278ZM8.85862 4.84836H8.84965C8.83993 4.84836 8.83058 4.84836 8.82086 4.84836H8.81114C8.60553 4.84836 8.43767 4.68086 8.4373 4.47522C8.43693 4.37539 8.47581 4.28155 8.54609 4.21051C8.61674 4.13984 8.71058 4.10096 8.81039 4.10059H8.82086C8.83428 4.10059 8.84811 4.10059 8.86161 4.10059C9.06797 4.10246 9.23433 4.27145 9.23246 4.47784C9.23096 4.68235 9.06307 4.84836 8.85862 4.84836Z" fill="#9400FF"/>
<path d="M9.07922 3.38014C8.92458 3.38014 8.79922 3.25925 8.79922 3.11013V0.950121L7.64723 1.78327C7.52347 1.87272 7.34799 1.84853 7.25523 1.72927C7.16247 1.60997 7.18751 1.44075 7.31123 1.35127L8.91122 0.194117C8.9961 0.132788 9.10958 0.122913 9.20446 0.168621C9.2993 0.214367 9.35922 0.307865 9.35922 0.410118V3.11013C9.35922 3.25925 9.23386 3.38014 9.07922 3.38014Z" fill="#9400FF"/>
<path d="M10.5204 1.94014C10.4619 1.94014 10.403 1.92148 10.3526 1.88286L8.75263 0.655606C8.62891 0.560698 8.60387 0.381191 8.69663 0.254702C8.78943 0.128131 8.96495 0.102563 9.08863 0.19743L10.6886 1.42469C10.8123 1.5196 10.8374 1.6991 10.7446 1.82559C10.6896 1.90062 10.6055 1.94014 10.5204 1.94014Z" fill="#9400FF"/>
<path d="M9.07926 18.1419C9.01974 18.1419 8.96062 18.1236 8.91122 18.0879L7.31123 16.9307C7.18751 16.8413 7.16247 16.672 7.25523 16.5527C7.34799 16.4334 7.52351 16.4091 7.64723 16.4988L8.79922 17.3319V15.1719C8.79922 15.0227 8.92458 14.9019 9.07922 14.9019C9.23386 14.9019 9.35922 15.0227 9.35922 15.1719V17.8719C9.35922 17.9741 9.2993 18.0676 9.20446 18.1133C9.16482 18.1324 9.1219 18.1419 9.07926 18.1419Z" fill="#9400FF"/>
<path d="M8.92083 18.1416C8.83571 18.1416 8.75167 18.102 8.69663 18.027C8.60387 17.9005 8.62891 17.721 8.75263 17.6261L10.3526 16.3988C10.4764 16.304 10.6518 16.3295 10.7446 16.4561C10.8374 16.5826 10.8123 16.7621 10.6886 16.857L9.08867 18.0842C9.03823 18.1229 8.97931 18.1416 8.92083 18.1416Z" fill="#9400FF"/>
<path d="M13.2388 4.82029C13.1677 4.82029 13.0966 4.79587 13.0423 4.74709C12.9338 4.64949 12.9338 4.49119 13.0423 4.3936L14.6138 2.97956L13.1995 2.79776C13.0476 2.77823 12.9421 2.6516 12.9638 2.51497C12.9855 2.37824 13.1263 2.28325 13.2781 2.30286L15.2424 2.55536C15.3466 2.56875 15.4334 2.63396 15.4667 2.72377C15.5 2.81358 15.474 2.9126 15.3996 2.97956L13.4352 4.74712C13.3809 4.79587 13.3098 4.82029 13.2388 4.82029Z" fill="#9400FF"/>
<path d="M15.2403 5.1804C15.1231 5.1804 15.0209 5.08039 15.0038 4.94185L14.7622 2.97751C14.7435 2.82564 14.8344 2.68492 14.9651 2.66325C15.0961 2.64146 15.217 2.7471 15.2357 2.89898L15.4773 4.86331C15.496 5.01519 15.4052 5.15591 15.2744 5.17758C15.2629 5.17945 15.2515 5.1804 15.2403 5.1804Z" fill="#9400FF"/>
<path d="M2.6626 15.6216C2.63614 15.6216 2.6095 15.6169 2.58361 15.6073C2.49377 15.5741 2.4286 15.4872 2.41521 15.3831L2.1627 13.4187C2.14317 13.2668 2.23816 13.1261 2.37482 13.1044C2.51144 13.0827 2.63811 13.1883 2.6576 13.3401L2.8394 14.7545L4.25344 13.183C4.35104 13.0745 4.50934 13.0745 4.60693 13.1829C4.70456 13.2914 4.70456 13.4673 4.60693 13.5758L2.8394 15.5402C2.79177 15.5931 2.72788 15.6216 2.6626 15.6216Z" fill="#9400FF"/>
<path d="M4.76207 15.6219C4.74898 15.6219 4.73576 15.6211 4.72243 15.6194L2.75809 15.3778C2.60622 15.3591 2.50065 15.238 2.52236 15.1072C2.54407 14.9764 2.68499 14.8857 2.83663 14.9043L4.80097 15.1459C4.95284 15.1646 5.05841 15.2857 5.0367 15.4165C5.01694 15.5358 4.89808 15.6219 4.76207 15.6219Z" fill="#9400FF"/>
<path d="M17.7298 9.50082H15.0298C14.8806 9.50082 14.7598 9.37546 14.7598 9.22082C14.7598 9.06618 14.8806 8.94082 15.0298 8.94082H17.1898L16.3566 7.78882C16.2672 7.6651 16.2913 7.48962 16.4106 7.39682C16.5301 7.30402 16.6992 7.32918 16.7886 7.45282L17.9458 9.05282C18.0071 9.13766 18.017 9.25118 17.9713 9.34606C17.9255 9.4409 17.832 9.50082 17.7298 9.50082Z" fill="#9400FF"/>
<path d="M16.4854 10.9412C16.4256 10.9412 16.3653 10.923 16.3138 10.8853C16.1873 10.7925 16.1616 10.617 16.2565 10.4933L17.4838 8.89327C17.5786 8.76956 17.7581 8.74448 17.8847 8.83728C18.0112 8.93007 18.0368 9.10559 17.9419 9.22927L16.7147 10.8293C16.6584 10.9026 16.5724 10.9412 16.4854 10.9412Z" fill="#9400FF"/>
<path d="M2.97 9.50082H0.270007C0.167755 9.50082 0.0742576 9.4409 0.028512 9.34606C-0.0172335 9.25118 -0.00735931 9.13766 0.0540077 9.05283L1.21115 7.45285C1.30059 7.32913 1.46981 7.30405 1.58915 7.39685C1.70845 7.48964 1.73259 7.66516 1.64315 7.78884L0.810006 8.94083H2.97C3.11912 8.94083 3.24 9.06619 3.24 9.22082C3.24 9.37546 3.11912 9.50082 2.97 9.50082Z" fill="#9400FF"/>
<path d="M1.51383 10.941C1.42678 10.941 1.34079 10.9024 1.28454 10.829L0.057281 9.22903C-0.0375862 9.10531 -0.0119774 8.92983 0.114553 8.83703C0.241084 8.74423 0.42055 8.76931 0.515458 8.89303L1.74272 10.493C1.83759 10.6167 1.81198 10.7922 1.68545 10.885C1.63394 10.9228 1.57364 10.941 1.51383 10.941Z" fill="#9400FF"/>
<path d="M14.9785 15.6216C14.9132 15.6216 14.8493 15.5931 14.8017 15.5402L13.0341 13.5758C12.9365 13.4673 12.9365 13.2914 13.0342 13.1829C13.1318 13.0745 13.2901 13.0745 13.3877 13.183L14.8017 14.7545L14.9835 13.3401C15.003 13.1882 15.1298 13.0827 15.2663 13.1044C15.403 13.1261 15.4979 13.2668 15.4784 13.4187L15.2259 15.3831C15.2125 15.4872 15.1473 15.5741 15.0575 15.6073C15.0316 15.6169 15.0049 15.6216 14.9785 15.6216Z" fill="#9400FF"/>
<path d="M13.2384 15.6219C13.1024 15.6219 12.9836 15.5358 12.9638 15.4165C12.9421 15.2857 13.0476 15.1646 13.1995 15.1459L15.1638 14.9043C15.3159 14.8855 15.4564 14.9765 15.4781 15.1072C15.4998 15.238 15.3943 15.3591 15.2424 15.3778L13.2781 15.6194C13.2647 15.6211 13.2515 15.6219 13.2384 15.6219Z" fill="#9400FF"/>
<path d="M4.76171 4.8198C4.69059 4.8198 4.61952 4.79541 4.56526 4.7466L2.6009 2.97905C2.52649 2.91209 2.50053 2.81307 2.53379 2.72326C2.56705 2.63341 2.65388 2.56824 2.75806 2.55485L4.72242 2.30235C4.87411 2.28282 5.01503 2.37777 5.0367 2.51447C5.05841 2.65113 4.95284 2.77775 4.80096 2.79725L3.38661 2.97905L4.95812 4.39307C5.06663 4.4907 5.06663 4.64897 4.95812 4.74656C4.90391 4.79538 4.83279 4.8198 4.76171 4.8198Z" fill="#9400FF"/>
<path d="M2.39968 5.1804C2.38841 5.1804 2.37703 5.17949 2.36555 5.17758C2.23479 5.15587 2.1439 5.01515 2.16259 4.86331L2.40419 2.89894C2.42288 2.74706 2.54421 2.64161 2.67476 2.6632C2.80552 2.68491 2.89641 2.8256 2.87772 2.97748L2.63612 4.94185C2.61911 5.08039 2.51677 5.1804 2.39968 5.1804Z" fill="#9400FF"/>
<path d="M9.08807 11.6607C9.05915 11.6607 9.03008 11.6562 9.00194 11.647L6.66678 10.8855C6.55551 10.8492 6.48047 10.7473 6.48047 10.6326V7.96725C6.48047 7.88158 6.52258 7.80112 6.59361 7.75101C6.66464 7.70094 6.75598 7.68723 6.83903 7.71438L9.1742 8.47592C9.28543 8.5122 9.36047 8.61402 9.36047 8.72878V11.3941C9.36047 11.4798 9.31836 11.5603 9.24733 11.6104C9.20039 11.6435 9.1445 11.6607 9.08807 11.6607ZM7.02534 10.4405L8.81564 11.0243V8.92088L7.02534 8.33705V10.4405Z" fill="#9400FF"/>
<path d="M8.9131 11.6609C8.85659 11.6609 8.80074 11.6438 8.75376 11.6106C8.68274 11.5605 8.64062 11.4801 8.64062 11.3944V8.72903C8.64062 8.61431 8.71566 8.51245 8.82693 8.47617L11.1621 7.71464C11.2452 7.68749 11.3365 7.70116 11.4075 7.75127C11.4785 7.80137 11.5206 7.88183 11.5206 7.9675V10.6329C11.5206 10.7476 11.4456 10.8494 11.3344 10.8857L8.99922 11.6473C8.97109 11.6564 8.94197 11.6609 8.9131 11.6609ZM9.18549 8.92113V11.0246L10.9758 10.4408V8.3373L9.18549 8.92113Z" fill="#9400FF"/>
<path d="M11.2482 8.4212C11.2197 8.4212 11.1906 8.41629 11.162 8.40591L8.82697 7.55896C8.68423 7.50722 8.60709 7.33931 8.65469 7.18402C8.70224 7.02873 8.85655 6.94463 8.99926 6.99655L11.3343 7.8435C11.477 7.89525 11.5541 8.06315 11.5066 8.21844C11.4686 8.34265 11.3623 8.4212 11.2482 8.4212Z" fill="#9400FF"/>
<path d="M6.75294 8.42096C6.63887 8.42096 6.53259 8.3424 6.49453 8.21816C6.44694 8.06288 6.52407 7.89498 6.66682 7.84323L9.00184 6.99631C9.14455 6.94439 9.29885 7.02845 9.34641 7.18377C9.394 7.33906 9.31683 7.50696 9.17412 7.55871L6.8391 8.40563C6.81054 8.41604 6.78147 8.42096 6.75294 8.42096Z" fill="#9400FF"/>
</svg>
