<svg width="30" height="31" viewBox="0 0 30 31" fill="none" xmlns="http://www.w3.org/2000/svg">
<path d="M15 8.72852C11.3459 8.72852 8.37305 11.7017 8.37305 15.3562C8.37305 16.1205 8.50967 16.852 8.7488 17.5357C8.75288 17.6087 8.77982 17.6732 8.81976 17.7292C9.77692 20.2134 12.1828 21.9839 15 21.9839C15.0001 21.9839 15.0005 21.9838 15.0005 21.9838C18.6544 21.9835 21.6269 19.0105 21.6269 15.3562C21.6269 11.7017 18.654 8.72852 15 8.72852ZM20.2517 12.7333H18.1794C17.6891 11.3219 16.8913 10.2709 16.2886 9.62546C18.0267 10.0163 19.472 11.1785 20.2517 12.7333ZM9.12305 15.3562C9.12305 14.7009 9.23547 14.0725 9.43423 13.4834H11.6063C11.4651 14.0599 11.3752 14.6817 11.3752 15.3562C11.3752 15.9947 11.4626 16.5869 11.5992 17.1406H9.4018C9.2219 16.5774 9.12305 15.9783 9.12305 15.3562ZM12.1252 15.3562C12.1252 14.6794 12.2242 14.0549 12.3823 13.4834H14.625V17.1406H12.3725C12.2194 16.5916 12.1252 15.9962 12.1252 15.3562ZM17.3726 12.7333H15.375V9.77508C15.8727 10.2451 16.7968 11.2601 17.3726 12.7333ZM14.625 9.80841V12.7333H12.6353C13.2047 11.301 14.1128 10.2947 14.625 9.80841ZM14.625 17.8906V20.7913C14.0452 20.235 13.175 19.2401 12.6291 17.8906H14.625ZM15.375 20.787V17.8906H17.3691C16.8219 19.2394 15.9541 20.2301 15.375 20.787ZM15.375 17.1406V13.4834H17.6233C17.7783 14.0544 17.8744 14.6792 17.8744 15.3562C17.8744 15.9965 17.7772 16.5907 17.6231 17.1406H15.375ZM18.3963 13.4834H20.5658C20.7645 14.0725 20.8769 14.7009 20.8769 15.3562C20.8769 15.9783 20.7781 16.5774 20.5982 17.1406H18.4005C18.5371 16.5869 18.6244 15.9947 18.6244 15.3562C18.6244 14.6818 18.5357 14.0599 18.3963 13.4834ZM13.7504 9.61539C13.1386 10.2604 12.3249 11.3153 11.8259 12.7333H9.74831C10.5339 11.1667 11.9948 9.99739 13.7504 9.61539ZM9.70564 17.8906H11.8234C12.3465 19.3511 13.2234 20.4492 13.8903 21.1254C12.0397 20.7699 10.5 19.5433 9.70564 17.8906ZM16.1096 21.1254C16.7764 20.4492 17.6532 19.3512 18.1763 17.8906H20.2944C19.5 19.5433 17.9602 20.7699 16.1096 21.1254Z" fill="#9400FF"/>
<path d="M29.4885 5.75175C29.4885 3.05798 27.2971 0.866333 24.6036 0.866333C21.9102 0.866333 19.7188 3.05798 19.7188 5.75175C19.7188 8.44553 21.9102 10.6372 24.6036 10.6372C27.2971 10.6372 29.4885 8.44553 29.4885 5.75175ZM22.1372 9.063C22.1828 8.01232 22.8692 7.11185 23.8837 6.80381C24.028 6.75986 24.1323 6.63332 24.1477 6.48297C24.1631 6.33263 24.0865 6.18777 23.954 6.11544C23.4768 5.85558 23.1802 5.3573 23.1802 4.8147C23.1802 3.99869 23.8441 3.33468 24.66 3.33468C25.4759 3.33468 26.1399 3.99869 26.1399 4.8147C26.1399 5.37341 25.8293 5.87847 25.3295 6.13302C25.1943 6.20151 25.1141 6.34453 25.1255 6.49542C25.1368 6.64632 25.2379 6.77561 25.3815 6.82322C26.3614 7.14797 27.025 8.04015 27.0702 9.06293C26.3806 9.57806 25.5286 9.88709 24.6036 9.88709C23.6787 9.88709 22.8267 9.57809 22.1372 9.063ZM20.4687 5.75175C20.4687 3.47147 22.3236 1.61641 24.6036 1.61641C26.8837 1.61641 28.7385 3.47147 28.7385 5.75175C28.7385 6.77801 28.3606 7.71609 27.7395 8.43976C27.5394 7.58074 26.9996 6.83803 26.2369 6.39123C26.6497 5.98029 26.8899 5.41828 26.8899 4.8147C26.8899 3.58501 25.8894 2.5846 24.66 2.5846C23.4307 2.5846 22.4302 3.58501 22.4302 4.8147C22.4302 5.39429 22.6547 5.94019 23.0414 6.34837C22.2386 6.78902 21.6724 7.54901 21.4675 8.43944C20.8466 7.71584 20.4687 6.77785 20.4687 5.75175Z" fill="#9400FF"/>
<path d="M5.3966 0.866333C2.70312 0.866333 0.511719 3.05798 0.511719 5.75175C0.511719 8.44553 2.70312 10.6372 5.3966 10.6372C8.09008 10.6372 10.2815 8.44553 10.2815 5.75175C10.2815 3.05798 8.09008 0.866333 5.3966 0.866333ZM2.92978 9.06273C2.97556 8.01232 3.66191 7.11182 4.67663 6.80381C4.82092 6.75986 4.92529 6.63332 4.94067 6.48297C4.95605 6.33263 4.87951 6.18777 4.74695 6.11544C4.26977 5.85558 3.97314 5.3573 3.97314 4.8147C3.97314 3.99869 4.63708 3.33468 5.45299 3.33468C6.26892 3.33468 6.93286 3.99869 6.93286 4.8147C6.93286 5.37323 6.62231 5.87847 6.12207 6.13302C5.9873 6.20169 5.9071 6.34471 5.91845 6.49561C5.92981 6.6465 6.03088 6.77561 6.17443 6.82322C7.15439 7.14797 7.81792 8.04015 7.86315 9.06293C7.17359 9.57806 6.32156 9.88709 5.3966 9.88709C4.47153 9.88709 3.61938 9.57797 2.92978 9.06273ZM8.53246 8.43973C8.3324 7.58067 7.79249 6.83805 7.02954 6.39123C7.44262 5.98011 7.68286 5.4181 7.68286 4.8147C7.68286 3.58501 6.68237 2.5846 5.45299 2.5846C4.22363 2.5846 3.22314 3.58501 3.22314 4.8147C3.22314 5.39429 3.44763 5.94019 3.83398 6.34837C3.03157 6.78897 2.46527 7.54885 2.26019 8.43914C1.63944 7.71556 1.26172 6.77771 1.26172 5.75175C1.26172 3.47147 3.11658 1.61641 5.3966 1.61641C7.67663 1.61641 9.53149 3.47147 9.53149 5.75175C9.53149 6.77801 9.15354 7.71609 8.53246 8.43973Z" fill="#9400FF"/>
<path d="M24.6036 29.8857C27.2971 29.8857 29.4885 27.6941 29.4885 25.0003C29.4885 22.3065 27.2971 20.1149 24.6036 20.1149C21.9102 20.1149 19.7188 22.3065 19.7188 25.0003C19.7188 27.6941 21.9102 29.8857 24.6036 29.8857ZM22.1372 28.3115C22.1828 27.2609 22.8692 26.3604 23.8837 26.0523C24.028 26.0084 24.1323 25.8819 24.1477 25.7315C24.1631 25.5812 24.0865 25.4363 23.954 25.364C23.4768 25.1041 23.1802 24.6058 23.1802 24.0632C23.1802 23.2472 23.8441 22.5832 24.66 22.5832C25.4759 22.5832 26.1399 23.2472 26.1399 24.0632C26.1399 24.6219 25.8293 25.127 25.3295 25.3816C25.1943 25.45 25.1141 25.5931 25.1255 25.744C25.1368 25.8949 25.2379 26.0241 25.3815 26.0718C26.3614 26.3965 27.025 27.2887 27.0702 28.3115C26.3806 28.8266 25.5286 29.1356 24.6036 29.1356C23.6787 29.1356 22.8267 28.8266 22.1372 28.3115ZM24.6036 20.8649C26.8837 20.8649 28.7385 22.72 28.7385 25.0003C28.7385 26.0265 28.3606 26.9646 27.7395 27.6883C27.5394 26.8293 26.9996 26.0866 26.2369 25.6398C26.6497 25.2288 26.8899 24.6668 26.8899 24.0632C26.8899 22.8335 25.8894 21.8331 24.66 21.8331C23.4307 21.8331 22.4302 22.8335 22.4302 24.0632C22.4302 24.6428 22.6547 25.1887 23.0414 25.5969C22.2386 26.0376 21.6724 26.7975 21.4675 27.688C20.8466 26.9644 20.4687 26.0264 20.4687 25.0003C20.4687 22.72 22.3236 20.8649 24.6036 20.8649Z" fill="#9400FF"/>
<path d="M5.3966 29.8859C8.09008 29.8859 10.2815 27.6943 10.2815 25.0005C10.2815 22.3068 8.09008 20.1151 5.3966 20.1151C2.70312 20.1151 0.511719 22.3068 0.511719 25.0005C0.511719 27.6943 2.70312 29.8859 5.3966 29.8859ZM2.92978 28.3115C2.97556 27.2611 3.66191 26.3606 4.67663 26.0526C4.82092 26.0086 4.92529 25.8821 4.94067 25.7318C4.95605 25.5814 4.87951 25.4366 4.74695 25.3642C4.26977 25.1044 3.97314 24.6061 3.97314 24.0635C3.97314 23.2475 4.63708 22.5835 5.45299 22.5835C6.26892 22.5835 6.93286 23.2475 6.93286 24.0635C6.93286 24.622 6.62231 25.1273 6.12207 25.3818C5.9873 25.4505 5.9071 25.5935 5.91845 25.7444C5.92981 25.8953 6.03088 26.0244 6.17443 26.072C7.15439 26.3967 7.81792 27.2889 7.86315 28.3117C7.17359 28.8268 6.32156 29.1359 5.3966 29.1359C4.47153 29.1359 3.61938 28.8268 2.92978 28.3115ZM5.3966 20.8652C7.67663 20.8652 9.53149 22.7203 9.53149 25.0005C9.53149 26.0268 9.15354 26.9649 8.53246 27.6885C8.3324 26.8294 7.79249 26.0868 7.02954 25.64C7.44262 25.2289 7.68286 24.6669 7.68286 24.0635C7.68286 22.8338 6.68237 21.8334 5.45299 21.8334C4.22363 21.8334 3.22314 22.8338 3.22314 24.0635C3.22314 24.6431 3.44763 25.189 3.83398 25.5972C3.03157 26.0378 2.46527 26.7976 2.26019 27.6879C1.63944 26.9643 1.26172 26.0265 1.26172 25.0005C1.26172 22.7203 3.11658 20.8652 5.3966 20.8652Z" fill="#9400FF"/>
<path d="M19.5627 1.41644C18.1345 0.711853 16.5997 0.354614 15.0012 0.354614C13.4027 0.354614 11.8679 0.711853 10.4397 1.41644C10.254 1.50818 10.1775 1.73303 10.2694 1.9187C10.3609 2.10455 10.5858 2.18072 10.7715 2.08917C12.0957 1.43585 13.5188 1.10461 15.0012 1.10461C16.4836 1.10461 17.9067 1.43585 19.2309 2.08917C19.2844 2.11536 19.3408 2.12781 19.3965 2.12781C19.5349 2.12781 19.6678 2.05109 19.733 1.9187C19.8249 1.73303 19.7484 1.50818 19.5627 1.41644Z" fill="#9400FF"/>
<path d="M1.06201 19.9181C1.1272 20.0505 1.26013 20.1272 1.39856 20.1272C1.45422 20.1272 1.51062 20.1148 1.56409 20.0886C1.74975 19.9968 1.82629 19.772 1.73437 19.5863C1.08105 18.2621 0.75 16.8389 0.75 15.3561C0.75 13.8733 1.08105 12.4501 1.73437 11.1259C1.82629 10.9402 1.74975 10.7153 1.56409 10.6236C1.37768 10.5327 1.15356 10.6086 1.06201 10.7941C0.357422 12.2224 0 13.7572 0 15.3561C0 16.955 0.357422 18.4897 1.06201 19.9181Z" fill="#9400FF"/>
<path d="M10.4397 29.2958C11.8679 30.0004 13.4027 30.3576 15.0012 30.3576C16.5997 30.3576 18.1345 30.0004 19.5627 29.2958C19.7484 29.2041 19.8249 28.9792 19.733 28.7935C19.6415 28.6079 19.417 28.5321 19.2309 28.6231C17.9067 29.2764 16.4836 29.6076 15.0012 29.6076C13.5188 29.6076 12.0957 29.2764 10.7715 28.6231C10.5854 28.5324 10.3609 28.6081 10.2694 28.7935C10.1775 28.9792 10.254 29.2041 10.4397 29.2958Z" fill="#9400FF"/>
<path d="M28.9378 10.7941C28.8467 10.6086 28.6222 10.5326 28.4358 10.6237C28.2501 10.7154 28.1736 10.9403 28.2655 11.126C28.9188 12.4502 29.2499 13.8734 29.2499 15.3562C29.2499 16.8389 28.9188 18.2622 28.2655 19.5864C28.1736 19.7721 28.2501 19.9969 28.4358 20.0887C28.4892 20.1149 28.5456 20.1273 28.6013 20.1273C28.7397 20.1273 28.8727 20.0506 28.9378 19.9182C29.6424 18.4898 29.9999 16.955 29.9999 15.3562C29.9999 13.7573 29.6424 12.2225 28.9378 10.7941Z" fill="#9400FF"/>
</svg>
