<svg width="40" height="50" viewBox="0 0 40 50" fill="none" xmlns="http://www.w3.org/2000/svg">
<path d="M32.6185 13.862C29.897 9.46134 25.1809 6.83454 20.0035 6.83454C20.0013 6.83454 19.9986 6.83454 19.9964 6.83454C14.8184 6.83454 10.1023 9.46134 7.38077 13.862C7.36986 13.8799 7.3595 13.8983 7.35022 13.9166C5.23735 18.1271 4.91284 22.1786 6.38596 25.9583C6.97663 27.4744 7.50294 28.357 7.96707 29.1353C8.65973 30.2974 9.20676 31.2146 9.78925 33.8749C10.315 36.2769 10.8937 37.9589 11.5634 39.0112C10.7464 39.3793 10.1765 40.1949 10.1765 41.1408C10.1765 41.7742 10.4323 42.3493 10.8468 42.7709C10.4328 43.1925 10.177 43.7676 10.177 44.401C10.177 45.6906 11.2356 46.7397 12.537 46.7397H13.9812C13.8585 47.0224 13.7897 47.3343 13.7897 47.6613C13.7897 48.9509 14.8484 50 16.1497 50H23.6909C24.9922 50 26.0508 48.9509 26.0508 47.6613C26.0508 47.3343 25.9827 47.023 25.8594 46.7397H27.3036C28.6049 46.7397 29.6636 45.6906 29.6636 44.401C29.6636 43.7676 29.4078 43.1925 28.9938 42.7709C29.4078 42.3493 29.6641 41.7742 29.6641 41.1408C29.6641 40.243 29.1503 39.462 28.3993 39.0707C29.0854 38.0227 29.6761 36.3217 30.2117 33.8749C30.7942 31.2146 31.3412 30.2968 32.0339 29.1353C32.498 28.3565 33.0243 27.4738 33.615 25.9583C35.0881 22.1786 34.7636 18.1276 32.6507 13.9166C32.6398 13.8983 32.6294 13.8799 32.6185 13.862ZM27.3025 40.2198C27.8152 40.2198 28.2324 40.6332 28.2324 41.1413C28.2324 41.6494 27.8152 42.0629 27.3025 42.0629H12.5359C12.0232 42.0629 11.606 41.6494 11.606 41.1413C11.606 40.6332 12.0232 40.2198 12.5359 40.2198H27.3025ZM24.6197 47.6613C24.6197 48.1694 24.2025 48.5828 23.6898 48.5828H16.1491C15.6365 48.5828 15.2192 48.1694 15.2192 47.6613C15.2192 47.1532 15.6365 46.7397 16.1491 46.7397H23.6904C24.2025 46.7397 24.6197 47.1532 24.6197 47.6613ZM27.3025 45.3231H12.5359C12.0232 45.3231 11.606 44.9096 11.606 44.4016C11.606 43.8935 12.0232 43.48 12.5359 43.48H27.3025C27.8152 43.48 28.2324 43.8935 28.2324 44.4016C28.2324 44.9096 27.8152 45.3231 27.3025 45.3231ZM32.2798 25.4475C31.7317 26.8539 31.2588 27.6473 30.8013 28.4143C30.1031 29.585 29.4443 30.6909 28.8127 33.5744C28.0121 37.2298 27.2398 38.421 26.7811 38.8026H13.2176C12.7589 38.421 11.9867 37.2298 11.186 33.5744C10.5544 30.6909 9.8956 29.585 9.19749 28.4143C8.7399 27.6473 8.26704 26.8539 7.71891 25.4475C6.3996 22.0624 6.7012 18.4049 8.61555 14.576C11.078 10.6148 15.3294 8.25172 19.9958 8.25172C19.998 8.25172 20.0002 8.25172 20.0018 8.25172C24.6677 8.25172 28.9196 10.6153 31.3821 14.576C33.2975 18.4054 33.5991 22.063 32.2798 25.4475ZM19.9996 18.907C17.4286 18.907 15.337 20.9798 15.337 23.5277C15.337 26.0756 17.4286 28.1484 19.9996 28.1484C22.5707 28.1484 24.6623 26.0756 24.6623 23.5277C24.6623 20.9798 22.5707 18.907 19.9996 18.907ZM19.9996 26.7307C18.2173 26.7307 16.7671 25.2935 16.7671 23.5272C16.7671 21.7608 18.2173 20.3237 19.9996 20.3237C21.782 20.3237 23.2322 21.7608 23.2322 23.5272C23.2322 25.2935 21.782 26.7307 19.9996 26.7307ZM28.2755 21.8976L26.5902 21.6279C26.4501 21.1495 26.2581 20.6896 26.0154 20.2528L27.0151 18.8805C27.2202 18.5984 27.1891 18.2109 26.9409 17.9649L25.6129 16.6488C25.3647 16.4029 24.9731 16.3721 24.689 16.5753L23.3042 17.566C22.8635 17.3255 22.3994 17.1347 21.9167 16.9964L21.6446 15.3262C21.5884 14.983 21.2895 14.7306 20.9388 14.7306H19.061C18.7103 14.7306 18.4114 14.983 18.3553 15.3262L18.0831 16.9964C17.6004 17.1347 17.1363 17.3255 16.6956 17.566L15.3109 16.5753C15.0262 16.3716 14.6351 16.4029 14.387 16.6488L13.0589 17.9649C12.8108 18.2109 12.7797 18.5984 12.9847 18.8805L13.9844 20.2528C13.7417 20.6896 13.5492 21.1495 13.4096 21.6279L11.7243 21.8976C11.378 21.9532 11.1233 22.2494 11.1233 22.597V24.4579C11.1233 24.8054 11.378 25.1016 11.7243 25.1573L13.4096 25.427C13.5492 25.9053 13.7417 26.3653 13.9844 26.802L12.9847 28.1743C12.7797 28.4565 12.8108 28.844 13.0589 29.0899L14.387 30.406C14.6351 30.6519 15.0267 30.6828 15.3109 30.4795L16.6956 29.4888C17.1363 29.7293 17.6004 29.9201 18.0831 30.0585L18.3553 31.7286C18.4114 32.0718 18.7103 32.3242 19.061 32.3242H20.9388C21.2895 32.3242 21.5884 32.0718 21.6446 31.7286L21.9167 30.0585C22.3994 29.9196 22.8635 29.7293 23.3042 29.4888L24.689 30.4795C24.9731 30.6828 25.3647 30.6519 25.6129 30.406L26.9409 29.0899C27.1891 28.844 27.2202 28.4565 27.0151 28.1743L26.0154 26.802C26.2581 26.3653 26.4506 25.9053 26.5902 25.427L28.2755 25.1573C28.6218 25.1016 28.8765 24.8054 28.8765 24.4579V22.597C28.8765 22.2489 28.6218 21.9527 28.2755 21.8976ZM27.4465 23.8547L25.8976 24.1028C25.6063 24.1493 25.374 24.3687 25.3124 24.6546C25.1744 25.2967 24.9213 25.9015 24.5603 26.4534C24.3994 26.6988 24.4076 27.0166 24.5804 27.2539L25.4989 28.5148L25.032 28.9775L23.7596 28.0673C23.5207 27.896 23.1995 27.8884 22.9519 28.0473C22.395 28.4051 21.7847 28.6559 21.1368 28.7926C20.8483 28.8537 20.6269 29.084 20.5799 29.3726L20.3296 30.9076H19.6691L19.4188 29.3726C19.3719 29.084 19.1505 28.8537 18.8619 28.7926C18.214 28.6559 17.6037 28.4051 17.0469 28.0473C16.7992 27.8879 16.4786 27.896 16.2391 28.0673L14.9667 28.9775L14.4999 28.5148L15.4183 27.2539C15.5912 27.0166 15.5988 26.6988 15.4385 26.4534C15.0774 25.9015 14.8244 25.2962 14.6864 24.6546C14.6247 24.3687 14.3924 24.1493 14.1012 24.1028L12.5522 23.8547V23.2002L14.1012 22.9521C14.3924 22.9056 14.6247 22.6861 14.6864 22.4002C14.8244 21.7587 15.0774 21.1533 15.4385 20.6015C15.5994 20.3561 15.5912 20.0383 15.4183 19.801L14.4999 18.54L14.9667 18.0774L16.2391 18.9875C16.4786 19.1589 16.7992 19.1665 17.0469 19.0075C17.6037 18.6497 18.2146 18.3984 18.8619 18.2622C19.1505 18.2011 19.3719 17.9709 19.4188 17.6823L19.6691 16.1473H20.3296L20.5799 17.6823C20.6269 17.9709 20.8483 18.2011 21.1368 18.2622C21.7842 18.399 22.3945 18.6497 22.9519 19.0075C23.1995 19.1665 23.5202 19.1589 23.7596 18.9875L25.032 18.0774L25.4989 18.54L24.5804 19.801C24.4076 20.0383 24.3999 20.3561 24.5603 20.6015C24.9213 21.1533 25.1749 21.7587 25.3124 22.4002C25.374 22.6861 25.6063 22.9056 25.8976 22.9521L27.4465 23.2002V23.8547ZM19.2846 3.58239V0.708587C19.2846 0.31727 19.6048 0 19.9996 0C20.3945 0 20.7147 0.31727 20.7147 0.708587V3.58239C20.7147 3.97371 20.3945 4.29098 19.9996 4.29098C19.6048 4.29098 19.2846 3.97371 19.2846 3.58239ZM8.24631 4.01965C8.04888 3.68076 8.16614 3.24729 8.50811 3.05163C8.85007 2.85597 9.28748 2.97218 9.48491 3.31107L10.9351 5.80004C11.1326 6.13893 11.0153 6.5724 10.6733 6.76806C10.561 6.83238 10.4377 6.86319 10.3166 6.86319C10.0696 6.86319 9.82906 6.73617 9.69707 6.50863L8.24631 4.01965ZM3.8455 13.534C3.71296 13.7615 3.47299 13.8885 3.22592 13.8885C3.10485 13.8885 2.98159 13.8577 2.86923 13.7934L0.357675 12.3562C0.0157103 12.1606 -0.101551 11.7271 0.0958835 11.3882C0.293318 11.0493 0.730727 10.9331 1.07269 11.1288L3.58425 12.5659C3.92567 12.7616 4.04293 13.1951 3.8455 13.534ZM29.0647 5.80004L30.5149 3.31107C30.7124 2.97218 31.1498 2.85597 31.4917 3.05163C31.8337 3.24729 31.951 3.68076 31.7535 4.01965L30.3033 6.50863C30.1708 6.73617 29.9308 6.86319 29.6837 6.86319C29.5627 6.86319 29.4394 6.83238 29.327 6.76806C28.9845 6.57186 28.8673 6.13893 29.0647 5.80004ZM39.6422 12.3562L37.1306 13.7934C37.0183 13.8577 36.895 13.8885 36.7739 13.8885C36.5268 13.8885 36.2863 13.7615 36.1543 13.534C35.9569 13.1951 36.0742 12.7616 36.4161 12.5659L38.9277 11.1288C39.2697 10.9331 39.7071 11.0493 39.9045 11.3882C40.1014 11.7271 39.9841 12.1606 39.6422 12.3562Z" fill="#FF2640"/>
</svg>
