<svg width="24" height="24" viewBox="0 0 24 24" fill="none" xmlns="http://www.w3.org/2000/svg">
<g clip-path="url(#clip0_3422_2620)">
<path d="M10.2381 4.827C10.6321 4.82682 11.0223 4.90427 11.3864 5.05492C11.7505 5.20557 12.0814 5.42647 12.3601 5.705L18.8451 12.191C19.4075 12.7536 19.7235 13.5165 19.7235 14.312C19.7235 15.1075 19.4075 15.8704 18.8451 16.433L14.6021 20.676C14.0395 21.2384 13.2766 21.5544 12.4811 21.5544C11.6856 21.5544 10.9227 21.2384 10.3601 20.676L3.87409 14.191C3.59556 13.9123 3.37466 13.5814 3.22401 13.2173C3.07336 12.8532 2.99592 12.463 2.99609 12.069V7.327C2.99609 6.66396 3.25949 6.02807 3.72833 5.55923C4.19717 5.09039 4.83305 4.827 5.49609 4.827H10.2381ZM10.2381 6.827H5.49609C5.36349 6.827 5.23631 6.87968 5.14254 6.97345C5.04877 7.06722 4.99609 7.19439 4.99609 7.327V12.069C4.99589 12.3341 5.10091 12.5883 5.28809 12.776L11.7741 19.262C11.9616 19.4495 12.2159 19.5548 12.4811 19.5548C12.7463 19.5548 13.0006 19.4495 13.1881 19.262L17.4311 15.019C17.6186 14.8315 17.7239 14.5772 17.7239 14.312C17.7239 14.0468 17.6186 13.7925 17.4311 13.605L10.9451 7.12C10.7576 6.93245 10.5033 6.82706 10.2381 6.827ZM7.53109 9.362C7.81249 9.08074 8.19409 8.92278 8.59195 8.92287C8.78895 8.92292 8.98401 8.96177 9.16599 9.0372C9.34798 9.11263 9.51333 9.22317 9.65259 9.3625C9.79186 9.50183 9.90232 9.66723 9.97767 9.84925C10.053 10.0313 10.0918 10.2264 10.0917 10.4234C10.0917 10.6204 10.0528 10.8154 9.9774 10.9974C9.90196 11.1794 9.79143 11.3447 9.65209 11.484C9.3707 11.7653 8.9891 11.9232 8.59124 11.9231C8.19338 11.923 7.81186 11.7649 7.53059 11.4835C7.24933 11.2021 7.09137 10.8205 7.09147 10.4226C7.09151 10.2256 7.13036 10.0306 7.20579 9.8486C7.28122 9.66661 7.39176 9.50127 7.53109 9.362ZM11.6521 2C12.0461 1.99982 12.4363 2.07727 12.8004 2.22792C13.1645 2.37857 13.4954 2.59947 13.7741 2.878L20.9661 10.071C21.1483 10.2596 21.249 10.5122 21.2468 10.7744C21.2445 11.0366 21.1393 11.2874 20.9539 11.4728C20.7685 11.6582 20.5177 11.7634 20.2555 11.7657C19.9933 11.768 19.7407 11.6672 19.5521 11.485L12.3601 4.29C12.1719 4.10331 11.9172 3.999 11.6521 4H7.00009C6.73488 4 6.48052 3.89464 6.29299 3.70711C6.10545 3.51957 6.00009 3.26522 6.00009 3C6.00009 2.73478 6.10545 2.48043 6.29299 2.29289C6.48052 2.10536 6.73488 2 7.00009 2H11.6521Z" fill="#13AAA1"/>
</g>
<defs>
<clipPath id="clip0_3422_2620">
<rect width="24" height="24" fill="white"/>
</clipPath>
</defs>
</svg>
