<svg width="42" height="40" viewBox="0 0 42 40" fill="none" xmlns="http://www.w3.org/2000/svg">
<path d="M21.6174 22.353C20.2736 22.353 18.96 21.9735 17.8428 21.2626C16.7255 20.5516 15.8546 19.541 15.3404 18.3586C14.8262 17.1763 14.6916 15.8753 14.9538 14.6201C15.2159 13.3649 15.863 12.212 16.8132 11.3071C17.7634 10.4021 18.974 9.78587 20.2919 9.5362C21.6098 9.28653 22.9759 9.41467 24.2174 9.90441C25.4588 10.3942 26.5199 11.2235 27.2665 12.2876C28.013 13.3517 28.4115 14.6027 28.4115 15.8825C28.4093 17.5979 27.6928 19.2426 26.4191 20.4556C25.1455 21.6686 23.4186 22.351 21.6174 22.353ZM21.6174 12.0001C20.8111 12.0001 20.023 12.2278 19.3526 12.6544C18.6822 13.081 18.1597 13.6873 17.8512 14.3967C17.5427 15.1062 17.4619 15.8868 17.6192 16.6399C17.7765 17.393 18.1648 18.0847 18.7349 18.6277C19.305 19.1706 20.0313 19.5404 20.8221 19.6902C21.6128 19.84 22.4325 19.7631 23.1774 19.4693C23.9222 19.1754 24.5589 18.6778 25.0068 18.0394C25.4548 17.4009 25.6938 16.6503 25.6938 15.8825C25.6928 14.8531 25.2629 13.8662 24.4987 13.1384C23.7344 12.4105 22.6982 12.0011 21.6174 12.0001Z" fill="#B51DEE"/>
<path d="M20.3826 37.6469L9.48803 25.1061C9.33665 24.9178 9.18684 24.7283 9.03861 24.5377C7.17762 22.1449 6.17226 19.2224 6.17677 16.2183C6.17677 12.541 7.67346 9.0142 10.3376 6.41391C13.0017 3.81361 16.615 2.35278 20.3826 2.35278C24.1503 2.35278 27.7636 3.81361 30.4277 6.41391C33.0918 9.0142 34.5885 12.541 34.5885 16.2183C34.593 19.221 33.5881 22.1423 31.728 24.5339L31.7267 24.5377C31.7267 24.5377 31.3392 25.0343 31.2811 25.1011L20.3826 37.6469ZM11.0998 23.0187C11.1023 23.0187 11.4019 23.407 11.4704 23.4902L20.3826 33.7494L29.3065 23.4763C29.3633 23.407 29.6655 23.0162 29.6668 23.015C31.187 21.0601 32.0086 18.6726 32.0056 16.2183C32.0056 13.2096 30.7811 10.324 28.6013 8.19653C26.4216 6.06902 23.4652 4.87379 20.3826 4.87379C17.3 4.87379 14.3437 6.06902 12.164 8.19653C9.98422 10.324 8.75966 13.2096 8.75966 16.2183C8.75695 18.6741 9.57944 21.063 11.101 23.0187H11.0998Z" fill="#B51DEE"/>
</svg>
