<svg width="42" height="40" viewBox="0 0 42 40" fill="none" xmlns="http://www.w3.org/2000/svg">
<path d="M37.9008 6.6665H4.10078C3.38172 6.6665 2.80078 7.23525 2.80078 7.93923V33.3938C2.80078 34.0978 3.38172 34.6665 4.10078 34.6665H37.9008C38.6198 34.6665 39.2008 34.0978 39.2008 33.3938V7.93923C39.2008 7.23525 38.6198 6.6665 37.9008 6.6665ZM36.2758 11.0733V31.8029H5.72578V11.0733L4.60453 10.2182L6.20109 8.20969L7.93984 9.53412H34.0658L35.8045 8.20969L37.4011 10.2182L36.2758 11.0733V11.0733ZM34.0658 9.53014L21.0008 19.4733L7.93578 9.53014L6.19703 8.20571L4.60047 10.2142L5.72172 11.0693L19.5992 21.633C19.9983 21.9365 20.4893 22.1013 20.9947 22.1013C21.5001 22.1013 21.9911 21.9365 22.3902 21.633L36.2758 11.0733L37.397 10.2182L35.8005 8.20969L34.0658 9.53014Z" fill="#DE8E59"/>
</svg>
