<svg width="24" height="25" viewBox="0 0 24 25" fill="none" xmlns="http://www.w3.org/2000/svg">
<path d="M6.7511 3.33874L7.89515 2.98936C8.52187 2.79748 9.19594 2.84367 9.79158 3.11932C10.3872 3.39497 10.8637 3.88124 11.1322 4.48739L12.0165 6.4841C12.2473 7.00548 12.3116 7.58715 12.2003 8.1475C12.089 8.70785 11.8077 9.21877 11.3959 9.60856L9.9313 10.9951C9.88849 11.0356 9.86137 11.0903 9.85484 11.1494C9.8117 11.5446 10.0754 12.314 10.6832 13.384C11.1253 14.1614 11.5263 14.7078 11.8665 15.0134C12.1037 15.2274 12.2341 15.2732 12.29 15.2573L14.2605 14.6451C14.7986 14.478 15.3747 14.486 15.9081 14.6681C16.4415 14.8502 16.9054 15.1972 17.2348 15.6604L18.4906 17.4282C18.8725 17.9658 19.0493 18.6258 18.9882 19.2857C18.927 19.9456 18.6322 20.5606 18.1583 21.0165L17.2897 21.8526C16.8287 22.2958 16.2625 22.6103 15.6463 22.7654C15.03 22.9204 14.3847 22.9108 13.7732 22.7375C11.0734 21.972 8.65295 19.6588 6.48445 15.8455C4.31301 12.0273 3.55129 8.73861 4.25321 5.97846C4.41122 5.35768 4.72405 4.78869 5.16156 4.32634C5.59907 3.86399 6.14651 3.52386 6.7511 3.33874ZM7.17559 4.76908C6.81293 4.88002 6.48453 5.0839 6.222 5.3611C5.95947 5.63829 5.77166 5.97945 5.67666 6.35172C5.0865 8.67292 5.76195 11.5884 7.7579 15.099C9.75092 18.6047 11.8969 20.6552 14.1693 21.3002C14.5361 21.4039 14.923 21.4094 15.2926 21.3163C15.6621 21.2232 16.0016 21.0345 16.278 20.7686L17.1475 19.9325C17.363 19.7253 17.4971 19.4457 17.5249 19.1456C17.5526 18.8456 17.4722 18.5455 17.2985 18.3011L16.0437 16.5343C15.8939 16.3235 15.6829 16.1656 15.4403 16.0828C15.1977 16 14.9356 15.9964 14.6908 16.0725L12.7154 16.6866C11.5685 17.033 10.5273 16.0964 9.40976 14.1305C8.65687 12.8067 8.30591 11.7815 8.39316 10.9842C8.43924 10.5701 8.62844 10.1879 8.92842 9.90319L10.393 8.51664C10.5803 8.33948 10.7082 8.10723 10.7589 7.85249C10.8095 7.59774 10.7803 7.33329 10.6754 7.09625L9.79111 5.09954C9.66908 4.82423 9.45262 4.60337 9.18208 4.4781C8.91153 4.35284 8.60535 4.33173 8.32061 4.41871L7.17559 4.76908Z" fill="#FE6032"/>
</svg>
