<svg width="38" height="29" viewBox="0 0 38 29" fill="none" xmlns="http://www.w3.org/2000/svg">
<path d="M35.9008 0.666992H2.10078C1.38172 0.666992 0.800781 1.23574 0.800781 1.93972V27.3943C0.800781 28.0982 1.38172 28.667 2.10078 28.667H35.9008C36.6198 28.667 37.2008 28.0982 37.2008 27.3943V1.93972C37.2008 1.23574 36.6198 0.666992 35.9008 0.666992ZM34.2758 5.07381V25.8034H3.72578V5.07381L2.60453 4.2187L4.20109 2.21017L5.93984 3.53461H32.0658L33.8045 2.21017L35.4011 4.2187L34.2758 5.07381V5.07381ZM32.0658 3.53063L19.0008 13.4738L5.93578 3.53063L4.19703 2.2062L2.60047 4.21472L3.72172 5.06983L17.5992 15.6335C17.9983 15.937 18.4893 16.1018 18.9947 16.1018C19.5001 16.1018 19.9911 15.937 20.3902 15.6335L34.2758 5.07381L35.397 4.2187L33.8005 2.21017L32.0658 3.53063Z" fill="#13AAA1"/>
</svg>
