<svg width="99" height="148" viewBox="0 0 99 148" fill="none" xmlns="http://www.w3.org/2000/svg">
<path d="M79.1853 146.444C96.1278 151.77 114.455 139.329 118.531 122.648C123.072 104.058 111.71 84.7812 95.1787 76.5934C86.5469 72.4526 77.0204 70.5878 67.4986 71.1752C57.2183 71.7343 45.2593 74.7014 38.9268 83.5303C33.4703 91.1962 32.7673 102.685 40.5795 109.207C47.6052 115.095 58.2178 114.924 66.1968 111.352C82.567 103.988 91.7182 84.9548 89.385 67.2955C86.9029 48.7008 71.9754 35.0819 53.8787 32.0856C45.1694 30.5478 36.2175 31.5693 28.0977 35.0273C20.0841 38.5779 12.6187 44.8263 10.196 53.6817C7.53161 63.594 14.305 72.0919 23.5864 74.7076C32.8678 77.3232 42.6798 74.3587 50.1312 68.9567C57.6604 63.5125 62.9876 55.5246 65.1479 46.4404C67.1221 37.0826 65.4589 27.3001 60.4991 19.0991C55.6766 10.8365 47.8762 4.75181 38.7284 2.11682C29.7366 -0.264449 20.2116 0.671259 11.8814 4.75425C7.89224 6.6905 4.29036 9.34267 1.25179 12.5812C-2.32228 16.3553 3.66015 21.774 7.27846 18.036C17.0125 7.734 34.4865 5.61054 45.9 14.5468C51.7645 19.0025 55.7818 25.4862 57.1694 32.7346C58.557 39.983 57.2153 47.477 53.4059 53.7566C49.6419 59.6989 43.9283 64.123 37.2497 66.2664C31.411 68.1213 21.9754 68.203 18.5584 61.869C15.5385 56.2252 20.1784 49.7488 24.4538 46.341C30.0653 42.0758 36.8662 39.6802 43.9137 39.4863C57.6517 38.8786 72.2348 45.6101 78.443 58.4648C84.4872 70.9952 81.3095 87.2498 72.049 97.2265C69.8066 99.7686 67.0741 101.826 64.0157 103.274C60.9573 104.723 57.6362 105.533 54.2517 105.656C47.8854 105.681 41.8166 101.863 42.6762 94.7622C43.7213 86.0818 52.2678 81.9317 59.8369 80.2553C67.398 78.5893 75.2481 78.698 82.7797 80.5729C97.0163 84.1551 109.272 95.4501 110.984 110.63C111.454 113.976 111.263 117.378 110.42 120.642C109.578 123.906 108.102 126.966 106.077 129.648C102.109 134.755 96.3708 138.167 89.9994 139.208C86.8752 139.639 83.6907 139.355 80.6835 138.375C79.6349 138.152 78.5433 138.351 77.6427 138.928C76.742 139.506 76.104 140.417 75.8655 141.466C75.6626 142.515 75.8705 143.605 76.4457 144.508C77.021 145.411 77.9192 146.058 78.9534 146.314L79.1853 146.444Z" fill="white" fill-opacity="0.2"/>
</svg>
