<svg width="18" height="19" viewBox="0 0 18 19" fill="none" xmlns="http://www.w3.org/2000/svg">
<g clip-path="url(#clip0_3504_2183)">
<path d="M15.75 11.1875H13.8691L12.1816 12.875H15.75C16.0601 12.875 16.3125 13.1274 16.3125 13.4375V16.25C16.3125 16.5601 16.0601 16.8125 15.75 16.8125H2.25C1.93985 16.8125 1.6875 16.5601 1.6875 16.25V13.4375C1.6875 13.1281 1.93992 12.875 2.25 12.875H5.81836L4.13086 11.1875H2.25C1.00723 11.1875 0 12.1947 0 13.4375V16.25C0 17.4928 1.00723 18.5 2.25 18.5H15.75C16.9928 18.5 18 17.4928 18 16.25V13.4375C18 12.1965 16.991 11.1875 15.75 11.1875ZM15.1875 14.8438C15.1875 14.3776 14.8096 14 14.3438 14C13.8779 14 13.5 14.3762 13.5 14.8438C13.5 15.3096 13.8779 15.6875 14.3438 15.6875C14.8096 15.6875 15.1875 15.3113 15.1875 14.8438ZM8.40234 13.441C8.56758 13.6379 8.78203 13.7188 9 13.7188C9.21797 13.7188 9.43172 13.6363 9.5966 13.4716L14.3779 8.69032C14.7074 8.36073 14.7074 7.82688 14.3779 7.49711C14.0483 7.16735 13.5144 7.16752 13.1846 7.49711L9.84375 10.8395V1.34375C9.84375 0.87793 9.46758 0.5 9 0.5C8.53242 0.5 8.15625 0.87793 8.15625 1.34375V10.8395L4.78477 7.49609C4.45518 7.1665 3.92133 7.1665 3.59156 7.49609C3.2618 7.82568 3.26197 8.35953 3.59156 8.6893L8.40234 13.441Z" fill="white"/>
</g>
<defs>
<clipPath id="clip0_3504_2183">
<rect width="18" height="18" fill="white" transform="translate(0 0.5)"/>
</clipPath>
</defs>
</svg>
