<svg width="25" height="25" viewBox="0 0 25 25" fill="none" xmlns="http://www.w3.org/2000/svg">
<path d="M22.5608 4.0293H2.44178C2.01376 4.0293 1.66797 4.37055 1.66797 4.79293V20.0657C1.66797 20.488 2.01376 20.8293 2.44178 20.8293H22.5608C22.9888 20.8293 23.3346 20.488 23.3346 20.0657V4.79293C23.3346 4.37055 22.9888 4.0293 22.5608 4.0293ZM21.5936 6.67339V19.1111H3.40904V6.67339L2.74163 6.16032L3.69196 4.95521L4.72693 5.74987H20.2781L21.3131 4.95521L22.2634 6.16032L21.5936 6.67339V6.67339ZM20.2781 5.74748L12.5013 11.7134L4.72452 5.74748L3.68955 4.95282L2.73921 6.15793L3.40662 6.671L11.667 13.0092C11.9046 13.1913 12.1969 13.2902 12.4977 13.2902C12.7985 13.2902 13.0908 13.1913 13.3283 13.0092L21.5936 6.67339L22.261 6.16032L21.3106 4.95521L20.2781 5.74748Z" fill="#DE8E59"/>
</svg>
