<svg width="24" height="24" viewBox="0 0 24 24" fill="none" xmlns="http://www.w3.org/2000/svg">
<path d="M6.7511 2.46594L7.89515 2.11656C8.52187 1.92468 9.19594 1.97087 9.79158 2.24652C10.3872 2.52216 10.8637 3.00843 11.1322 3.61459L12.0165 5.6113C12.2473 6.13267 12.3116 6.71434 12.2003 7.2747C12.089 7.83505 11.8077 8.34596 11.3959 8.73576L9.9313 10.1223C9.88849 10.1628 9.86137 10.2175 9.85484 10.2766C9.8117 10.6718 10.0754 11.4412 10.6832 12.5112C11.1253 13.2886 11.5263 13.835 11.8665 14.1406C12.1037 14.3546 12.2341 14.4004 12.29 14.3845L14.2605 13.7723C14.7986 13.6052 15.3747 13.6132 15.9081 13.7953C16.4415 13.9774 16.9054 14.3244 17.2348 14.7876L18.4906 16.5554C18.8725 17.093 19.0493 17.753 18.9882 18.4129C18.927 19.0728 18.6322 19.6878 18.1583 20.1437L17.2897 20.9798C16.8287 21.423 16.2625 21.7375 15.6463 21.8926C15.03 22.0476 14.3847 22.038 13.7732 21.8647C11.0734 21.0992 8.65295 18.786 6.48445 14.9727C4.31301 11.1545 3.55129 7.86581 4.25321 5.10565C4.41122 4.48488 4.72405 3.91589 5.16156 3.45354C5.59907 2.99119 6.14651 2.65106 6.7511 2.46594ZM7.17559 3.89628C6.81293 4.00722 6.48453 4.2111 6.222 4.48829C5.95947 4.76549 5.77166 5.10665 5.67666 5.47892C5.0865 7.80011 5.76195 10.7155 7.7579 14.2262C9.75092 17.7319 11.8969 19.7824 14.1693 20.4274C14.5361 20.5311 14.923 20.5366 15.2926 20.4435C15.6621 20.3504 16.0016 20.1617 16.278 19.8958L17.1475 19.0597C17.363 18.8525 17.4971 18.5729 17.5249 18.2728C17.5526 17.9728 17.4722 17.6727 17.2985 17.4283L16.0437 15.6615C15.8939 15.4507 15.6829 15.2928 15.4403 15.21C15.1977 15.1272 14.9356 15.1235 14.6908 15.1997L12.7154 15.8138C11.5685 16.1602 10.5273 15.2236 9.40976 13.2577C8.65687 11.9339 8.30591 10.9086 8.39316 10.1114C8.43924 9.69729 8.62844 9.31506 8.92842 9.03039L10.393 7.64384C10.5803 7.46668 10.7082 7.23443 10.7589 6.97968C10.8095 6.72494 10.7803 6.46049 10.6754 6.22345L9.79111 4.22674C9.66908 3.95143 9.45262 3.73056 9.18208 3.6053C8.91153 3.48004 8.60535 3.45893 8.32061 3.54591L7.17559 3.89628Z" fill="#DE8E59"/>
</svg>
