<svg width="123" height="40" viewBox="0 0 123 40" fill="none" xmlns="http://www.w3.org/2000/svg">
<g clip-path="url(#clip0_3279_1197)">
<path d="M15.0926 0.00341797H16.1823C19.9657 0.0856656 23.6874 1.60725 26.3605 4.30086C25.3735 5.30839 24.366 6.2748 23.3996 7.28234C21.8986 5.92525 20.0891 4.87659 18.1152 4.50648C15.1954 3.88962 12.0494 4.44479 9.60253 6.11031C6.92948 7.85807 5.12003 10.819 4.72935 13.9855C4.29755 17.1109 5.18171 20.4008 7.21734 22.8271C9.17073 25.1918 12.1522 26.6722 15.2365 26.775C18.1152 26.9395 21.1172 26.0554 23.2145 24.0403C24.8595 22.6215 25.6203 20.4625 25.867 18.3652C22.4537 18.3652 19.0404 18.3858 15.6272 18.3652V14.1295H30C30.7402 18.6736 29.671 23.7936 26.2166 27.0423C23.9136 29.3453 20.7265 30.7024 17.4777 30.9697C14.3318 31.2781 11.083 30.6818 8.28656 29.1602C4.93497 27.3713 2.26192 24.3487 0.945958 20.7915C-0.287757 17.5222 -0.308319 13.821 0.843149 10.5311C1.89181 7.52908 3.90688 4.87659 6.49768 3.02602C8.98567 1.19601 12.0083 0.188475 15.0926 0.00341797Z" fill="#3780FF"/>
<path d="M97.5457 1.07275H101.946V30.4352C100.486 30.4352 99.0056 30.4557 97.5457 30.4146C97.5662 20.6477 97.5457 10.8602 97.5457 1.07275Z" fill="#38B137"/>
<path d="M39.7873 11.251C42.5015 10.737 45.4419 11.3127 47.6831 12.9371C49.7187 14.3764 51.1375 16.6382 51.5693 19.1057C52.1245 21.9638 51.4254 25.0892 49.5748 27.351C47.5803 29.8801 44.3109 31.2372 41.1238 31.0316C38.2041 30.8671 35.3665 29.4072 33.6393 27.022C31.6859 24.3901 31.213 20.7712 32.2822 17.6869C33.3514 14.3764 36.374 11.8473 39.7873 11.251ZM40.4042 15.1578C39.2938 15.4456 38.2657 16.0831 37.5255 16.9878C35.531 19.373 35.6544 23.2592 37.8545 25.4798C39.1088 26.7547 41.0005 27.351 42.7482 27.0014C44.3726 26.7136 45.7914 25.6238 46.5728 24.1844C47.9298 21.7376 47.5392 18.3654 45.4624 16.4532C44.1259 15.2195 42.1725 14.7054 40.4042 15.1578Z" fill="#FA3913"/>
<path d="M61.5829 11.2508C64.6877 10.6545 68.0804 11.5181 70.4039 13.6977C74.1873 17.0904 74.5986 23.444 71.3703 27.3508C69.417 29.8182 66.2504 31.1753 63.125 31.0314C60.1435 30.9491 57.2032 29.4687 55.4349 27.0218C53.4403 24.3282 53.0085 20.627 54.1394 17.4811C55.2704 14.2734 58.2313 11.8265 61.5829 11.2508ZM62.1997 15.1576C61.0894 15.4454 60.0613 16.0829 59.3211 16.967C57.3471 19.3111 57.4294 23.1356 59.5472 25.3768C60.8015 26.7134 62.7549 27.3714 64.5643 27.0012C66.1682 26.6928 67.6075 25.6236 68.3889 24.1843C69.7254 21.7168 69.3347 18.3447 67.2374 16.4324C65.9009 15.1987 63.9475 14.7052 62.1997 15.1576Z" fill="#FCBD06"/>
<path d="M80.068 12.4435C82.4326 10.9631 85.5786 10.5519 88.1283 11.8267C88.9302 12.1762 89.5882 12.7725 90.2256 13.3688C90.2461 12.8137 90.2256 12.2379 90.2461 11.6622C91.6238 11.6828 93.0014 11.6622 94.3997 11.6828V29.8184C94.3791 32.5531 93.68 35.4523 91.706 37.4468C89.547 39.647 86.2366 40.3255 83.2551 39.8731C80.068 39.4002 77.2921 37.0767 76.0584 34.1364C77.2921 33.5401 78.5875 33.0672 79.8624 32.512C80.582 34.1981 82.0419 35.6374 83.872 35.9664C85.702 36.2954 87.8198 35.843 89.0124 34.3214C90.2873 32.7587 90.2873 30.6203 90.2256 28.708C89.2797 29.6333 88.19 30.4558 86.874 30.7642C84.0159 31.5661 80.8699 30.5792 78.6698 28.6463C76.4491 26.7135 75.1331 23.732 75.2565 20.7711C75.3182 17.4195 77.2099 14.1913 80.068 12.4435ZM84.3243 15.0755C83.07 15.2811 81.898 15.9802 81.0961 16.9466C79.1633 19.2495 79.1633 22.9301 81.1167 25.1919C82.227 26.5285 84.0159 27.2687 85.7431 27.0836C87.3675 26.9191 88.8685 25.891 89.6704 24.4723C91.0275 22.0665 90.8013 18.7972 88.9713 16.6999C87.8404 15.4045 86.031 14.767 84.3243 15.0755Z" fill="#3780FF"/>
<path d="M107.23 13.4921C109.698 11.1892 113.502 10.4078 116.668 11.621C119.67 12.7519 121.583 15.61 122.549 18.5503C118.087 20.4009 113.646 22.2309 109.184 24.0815C109.801 25.2535 110.746 26.3227 112.021 26.7545C113.81 27.392 115.949 27.1658 117.45 25.9732C118.046 25.5208 118.519 24.9245 118.971 24.3488C120.102 25.1096 121.233 25.8498 122.364 26.6106C120.76 29.0163 118.067 30.7024 115.167 30.9697C111.96 31.3604 108.546 30.1267 106.47 27.6181C103.056 23.6703 103.385 17.0493 107.23 13.4921ZM109.431 17.2961C108.731 18.3036 108.444 19.5373 108.464 20.7505C111.446 19.5167 114.427 18.283 117.409 17.0288C116.915 15.8773 115.722 15.1782 114.509 14.9931C112.556 14.6436 110.52 15.6922 109.431 17.2961Z" fill="#FA3913"/>
</g>
<defs>
<clipPath id="clip0_3279_1197">
<rect width="122.549" height="40" fill="white"/>
</clipPath>
</defs>
</svg>
