<svg width="32" height="32" viewBox="0 0 32 32" fill="none" xmlns="http://www.w3.org/2000/svg">
<g clip-path="url(#clip0_3279_2708)">
<mask id="mask0_3279_2708" style="mask-type:luminance" maskUnits="userSpaceOnUse" x="0" y="0" width="32" height="32">
<path d="M31.4091 13.0909H16.5V19.2727H25.0818C24.2818 23.2 20.9364 25.4546 16.5 25.4546C11.2636 25.4546 7.04546 21.2364 7.04546 16C7.04546 10.7636 11.2636 6.54546 16.5 6.54546C18.7546 6.54546 20.7909 7.34546 22.3909 8.65455L27.0455 4C24.2091 1.52727 20.5727 0 16.5 0C7.62727 0 0.5 7.12728 0.5 16C0.5 24.8727 7.62727 32 16.5 32C24.5 32 31.7727 26.1818 31.7727 16C31.7727 15.0546 31.6273 14.0364 31.4091 13.0909Z" fill="white"/>
</mask>
<g mask="url(#mask0_3279_2708)">
<path d="M-0.953125 25.456V6.54688L11.4105 16.0014L-0.953125 25.456Z" fill="#FBBC05"/>
</g>
<mask id="mask1_3279_2708" style="mask-type:luminance" maskUnits="userSpaceOnUse" x="0" y="0" width="32" height="32">
<path d="M31.4091 13.0909H16.5V19.2727H25.0818C24.2818 23.2 20.9364 25.4546 16.5 25.4546C11.2636 25.4546 7.04546 21.2364 7.04546 16C7.04546 10.7636 11.2636 6.54546 16.5 6.54546C18.7546 6.54546 20.7909 7.34546 22.3909 8.65455L27.0455 4C24.2091 1.52727 20.5727 0 16.5 0C7.62727 0 0.5 7.12728 0.5 16C0.5 24.8727 7.62727 32 16.5 32C24.5 32 31.7727 26.1818 31.7727 16C31.7727 15.0546 31.6273 14.0364 31.4091 13.0909Z" fill="white"/>
</mask>
<g mask="url(#mask1_3279_2708)">
<path d="M-0.953125 6.54688L11.4105 16.0014L16.5014 11.5651L33.956 8.7287V-1.45312H-0.953125V6.54688Z" fill="#EA4335"/>
</g>
<mask id="mask2_3279_2708" style="mask-type:luminance" maskUnits="userSpaceOnUse" x="0" y="0" width="32" height="32">
<path d="M31.4091 13.0909H16.5V19.2727H25.0818C24.2818 23.2 20.9364 25.4546 16.5 25.4546C11.2636 25.4546 7.04546 21.2364 7.04546 16C7.04546 10.7636 11.2636 6.54546 16.5 6.54546C18.7546 6.54546 20.7909 7.34546 22.3909 8.65455L27.0455 4C24.2091 1.52727 20.5727 0 16.5 0C7.62727 0 0.5 7.12728 0.5 16C0.5 24.8727 7.62727 32 16.5 32C24.5 32 31.7727 26.1818 31.7727 16C31.7727 15.0546 31.6273 14.0364 31.4091 13.0909Z" fill="white"/>
</mask>
<g mask="url(#mask2_3279_2708)">
<path d="M-0.953125 25.456L20.8651 8.7287L26.6105 9.45597L33.956 -1.45312V33.456H-0.953125V25.456Z" fill="#34A853"/>
</g>
<mask id="mask3_3279_2708" style="mask-type:luminance" maskUnits="userSpaceOnUse" x="0" y="0" width="32" height="32">
<path d="M31.4091 13.0909H16.5V19.2727H25.0818C24.2818 23.2 20.9364 25.4546 16.5 25.4546C11.2636 25.4546 7.04546 21.2364 7.04546 16C7.04546 10.7636 11.2636 6.54546 16.5 6.54546C18.7546 6.54546 20.7909 7.34546 22.3909 8.65455L27.0455 4C24.2091 1.52727 20.5727 0 16.5 0C7.62727 0 0.5 7.12728 0.5 16C0.5 24.8727 7.62727 32 16.5 32C24.5 32 31.7727 26.1818 31.7727 16C31.7727 15.0546 31.6273 14.0364 31.4091 13.0909Z" fill="white"/>
</mask>
<g mask="url(#mask3_3279_2708)">
<path d="M33.9546 33.456L11.4091 16.0014L8.5 13.8196L33.9546 6.54688V33.456Z" fill="#4285F4"/>
</g>
</g>
<defs>
<clipPath id="clip0_3279_2708">
<rect width="32" height="32" fill="white"/>
</clipPath>
</defs>
</svg>
