<svg width="16" height="16" viewBox="0 0 16 16" fill="none" xmlns="http://www.w3.org/2000/svg">
<path fill-rule="evenodd" clip-rule="evenodd" d="M7.38892 12.9906L6.11892 11.7206L6.78892 11.0206L8.91892 13.1506V13.8506L6.78892 15.9806L6.07892 15.2706L7.34892 14.0006H5.49892C5.17024 14.0019 4.84456 13.9381 4.54065 13.813C4.23673 13.6878 3.96061 13.5037 3.7282 13.2713C3.49579 13.0389 3.31169 12.7627 3.18652 12.4588C3.06136 12.1549 2.99759 11.8292 2.99892 11.5006V5.95057C2.5198 5.84856 2.07943 5.61277 1.72892 5.27057C1.38078 4.91882 1.14393 4.47235 1.0479 3.98687C0.951868 3.50138 1.00091 2.99836 1.18892 2.54057C1.37866 2.08432 1.69936 1.69453 2.1105 1.42044C2.52164 1.14635 3.00479 1.00024 3.49892 1.00057C3.84188 0.993193 4.18256 1.05792 4.49892 1.19057C4.80197 1.31524 5.07732 1.49873 5.30903 1.73045C5.54075 1.96217 5.72425 2.23751 5.84892 2.54057C5.98192 2.85757 6.04592 3.19857 6.03892 3.54057C6.03904 4.11689 5.84003 4.67556 5.47557 5.12202C5.11112 5.56848 4.6036 5.8753 4.03892 5.99057V11.4906C4.03892 11.8884 4.19695 12.2699 4.47826 12.5512C4.75956 12.8325 5.14109 12.9906 5.53892 12.9906H7.38892ZM2.70892 4.74057C2.99744 4.93279 3.34363 5.01913 3.68862 4.98492C4.03362 4.9507 4.35611 4.79804 4.60125 4.5529C4.84639 4.30776 4.99905 3.98526 5.03327 3.64027C5.06748 3.29528 4.98114 2.94908 4.78892 2.66057C4.62118 2.41206 4.38497 2.21754 4.10892 2.10057C3.83644 1.98958 3.5372 1.96174 3.24892 2.02057C2.95693 2.07703 2.68852 2.21958 2.47823 2.42987C2.26793 2.64017 2.12538 2.90858 2.06892 3.20057C2.01009 3.48884 2.03793 3.78809 2.14892 4.06057C2.26592 4.33757 2.45992 4.57357 2.70892 4.74057ZM13.0389 11.0406C13.5189 11.1386 13.9609 11.3756 14.3089 11.7206C14.7166 12.1308 14.9702 12.6692 15.0267 13.2448C15.0832 13.8205 14.9391 14.3979 14.6189 14.8796C14.4132 15.1862 14.1422 15.4435 13.8253 15.6329C13.5083 15.8223 13.1534 15.9392 12.7859 15.9751C12.4184 16.0111 12.0476 15.9651 11.6999 15.8407C11.3523 15.7162 11.0366 15.5163 10.7754 15.2553C10.5143 14.9943 10.3142 14.6786 10.1895 14.3311C10.0648 13.9836 10.0187 13.6127 10.0544 13.2452C10.0901 12.8777 10.2068 12.5227 10.396 12.2056C10.5853 11.8886 10.8424 11.6174 11.1489 11.4116C11.4179 11.2296 11.7199 11.1036 12.0389 11.0416V5.49057C12.0389 5.09274 11.8809 4.71121 11.5996 4.42991C11.3183 4.1486 10.9367 3.99057 10.5389 3.99057H8.68892L9.95892 5.26057L9.24892 5.97057L7.11892 3.84057V3.14057L9.24892 1.01057L9.95892 1.72057L8.68892 2.99057H10.5389C10.8676 2.98924 11.1933 3.053 11.4972 3.17817C11.8011 3.30334 12.0772 3.48744 12.3096 3.71985C12.542 3.95226 12.7261 4.22838 12.8513 4.53229C12.9765 4.83621 13.0402 5.16189 13.0389 5.49057V11.0406ZM12.6879 14.9836C12.9451 14.9578 13.1913 14.8659 13.4026 14.7169C13.6139 14.5679 13.783 14.3669 13.8937 14.1332C14.0044 13.8996 14.0528 13.6413 14.0343 13.3835C14.0157 13.1256 13.9309 12.877 13.7879 12.6616C13.6202 12.4131 13.384 12.2185 13.1079 12.1016C12.8357 11.9908 12.5369 11.9629 12.2489 12.0216C11.9569 12.078 11.6885 12.2206 11.4782 12.4309C11.2679 12.6412 11.1254 12.9096 11.0689 13.2016C11.0101 13.4898 11.0379 13.7891 11.1489 14.0616C11.2718 14.3606 11.4881 14.6119 11.7654 14.778C12.0427 14.9441 12.3663 15.0162 12.6879 14.9836Z" fill="#030505"/>
</svg>
