<svg width="24" height="23" viewBox="0 0 24 23" fill="none" xmlns="http://www.w3.org/2000/svg">
<path d="M12.3526 12.7731C11.5847 12.7731 10.8341 12.5563 10.1956 12.15C9.5572 11.7437 9.05959 11.1662 8.76574 10.4906C8.4719 9.81499 8.39501 9.07155 8.54481 8.35431C8.69462 7.63707 9.06437 6.97824 9.60733 6.46114C10.1503 5.94404 10.8421 5.59189 11.5952 5.44922C12.3483 5.30655 13.1289 5.37978 13.8383 5.65963C14.5477 5.93948 15.154 6.4134 15.5806 7.02145C16.0072 7.62949 16.2349 8.34436 16.2349 9.07565C16.2337 10.0559 15.8243 10.9957 15.0964 11.6889C14.3686 12.382 13.3819 12.772 12.3526 12.7731V12.7731ZM12.3526 6.85717C11.8919 6.85717 11.4415 6.98728 11.0584 7.23105C10.6753 7.47482 10.3768 7.8213 10.2005 8.22668C10.0242 8.63205 9.97804 9.07811 10.0679 9.50846C10.1578 9.9388 10.3797 10.3341 10.7054 10.6444C11.0312 10.9546 11.4463 11.1659 11.8981 11.2515C12.35 11.3371 12.8184 11.2932 13.244 11.1253C13.6696 10.9574 14.0334 10.673 14.2894 10.3082C14.5454 9.94335 14.682 9.51443 14.682 9.07565C14.6814 8.48745 14.4357 7.92351 13.999 7.5076C13.5623 7.09168 12.9702 6.85775 12.3526 6.85717V6.85717Z" fill="white"/>
<path d="M11.6474 21.5126L5.42194 14.3464C5.33544 14.2388 5.24983 14.1305 5.16513 14.0216C4.1017 12.6543 3.52722 10.9843 3.52979 9.26765C3.52979 7.1663 4.38504 5.15101 5.9074 3.66513C7.42975 2.17924 9.4945 1.34448 11.6474 1.34448C13.8004 1.34448 15.8651 2.17924 17.3875 3.66513C18.9098 5.15101 19.7651 7.1663 19.7651 9.26765C19.7676 10.9835 19.1934 12.6528 18.1305 14.0194L18.1297 14.0216C18.1297 14.0216 17.9083 14.3053 17.8751 14.3435L11.6474 21.5126ZM6.34292 13.1536C6.3444 13.1536 6.51561 13.3755 6.55472 13.423L11.6474 19.2854L16.7468 13.4151C16.7793 13.3755 16.9519 13.1522 16.9527 13.1514C17.8214 12.0344 18.2908 10.6701 18.2891 9.26765C18.2891 7.54836 17.5894 5.89949 16.3438 4.68377C15.0983 3.46804 13.4089 2.78506 11.6474 2.78506C9.88594 2.78506 8.1966 3.46804 6.95104 4.68377C5.70548 5.89949 5.00573 7.54836 5.00573 9.26765C5.00418 10.6709 5.47417 12.036 6.34366 13.1536H6.34292Z" fill="white"/>
</svg>
