<svg width="42" height="40" viewBox="0 0 42 40" fill="none" xmlns="http://www.w3.org/2000/svg">
<path d="M37.9008 6.66699H4.10078C3.38172 6.66699 2.80078 7.23574 2.80078 7.93972V33.3943C2.80078 34.0982 3.38172 34.667 4.10078 34.667H37.9008C38.6198 34.667 39.2008 34.0982 39.2008 33.3943V7.93972C39.2008 7.23574 38.6198 6.66699 37.9008 6.66699ZM36.2758 11.0738V31.8034H5.72578V11.0738L4.60453 10.2187L6.20109 8.21017L7.93984 9.53461H34.0658L35.8045 8.21017L37.4011 10.2187L36.2758 11.0738ZM34.0658 9.53063L21.0008 19.4738L7.93578 9.53063L6.19703 8.2062L4.60047 10.2147L5.72172 11.0698L19.5992 21.6335C19.9983 21.937 20.4893 22.1018 20.9947 22.1018C21.5001 22.1018 21.9911 21.937 22.3902 21.6335L36.2758 11.0738L37.397 10.2187L35.8005 8.21017L34.0658 9.53063Z" fill="#13AAA1"/>
</svg>
