<svg width="31" height="40" viewBox="0 0 31 40" fill="none" xmlns="http://www.w3.org/2000/svg">
<path d="M7.10787 14.666C6.93658 14.666 6.77231 14.7363 6.6512 14.8613C6.53008 14.9863 6.46204 15.1559 6.46204 15.3327C6.46204 15.5095 6.53008 15.6791 6.6512 15.8041C6.77231 15.9291 6.93658 15.9993 7.10787 15.9993H23.8995C24.0708 15.9993 24.2351 15.9291 24.3562 15.8041C24.4773 15.6791 24.5454 15.5095 24.5454 15.3327C24.5454 15.1559 24.4773 14.9863 24.3562 14.8613C24.2351 14.7363 24.0708 14.666 23.8995 14.666H7.10787ZM7.10787 18.666C6.93658 18.666 6.77231 18.7363 6.6512 18.8613C6.53008 18.9863 6.46204 19.1559 6.46204 19.3327C6.46204 19.5095 6.53008 19.6791 6.6512 19.8041C6.77231 19.9291 6.93658 19.9993 7.10787 19.9993H23.8995C24.0708 19.9993 24.2351 19.9291 24.3562 19.8041C24.4773 19.6791 24.5454 19.5095 24.5454 19.3327C24.5454 19.1559 24.4773 18.9863 24.3562 18.8613C24.2351 18.7363 24.0708 18.666 23.8995 18.666H7.10787ZM6.46204 23.3327C6.46204 23.1559 6.53008 22.9863 6.6512 22.8613C6.77231 22.7363 6.93658 22.666 7.10787 22.666H23.8995C24.0708 22.666 24.2351 22.7363 24.3562 22.8613C24.4773 22.9863 24.5454 23.1559 24.5454 23.3327C24.5454 23.5095 24.4773 23.6791 24.3562 23.8041C24.2351 23.9291 24.0708 23.9993 23.8995 23.9993H7.10787C6.93658 23.9993 6.77231 23.9291 6.6512 23.8041C6.53008 23.6791 6.46204 23.5095 6.46204 23.3327ZM7.10787 26.666C6.93658 26.666 6.77231 26.7363 6.6512 26.8613C6.53008 26.9863 6.46204 27.1559 6.46204 27.3327C6.46204 27.5095 6.53008 27.6791 6.6512 27.8041C6.77231 27.9291 6.93658 27.9993 7.10787 27.9993H17.4412C17.6125 27.9993 17.7768 27.9291 17.8979 27.8041C18.019 27.6791 18.087 27.5095 18.087 27.3327C18.087 27.1559 18.019 26.9863 17.8979 26.8613C17.7768 26.7363 17.6125 26.666 17.4412 26.666H7.10787Z" fill="white"/>
<path d="M0 4C0 2.93913 0.408258 1.92172 1.13496 1.17157C1.86166 0.421427 2.84729 0 3.875 0H20.7312C21.0738 7.55165e-05 21.4023 0.140601 21.6445 0.390667L30.6215 9.65733C30.8638 9.90732 30.9999 10.2464 31 10.6V36C31 37.0609 30.5917 38.0783 29.865 38.8284C29.1383 39.5786 28.1527 40 27.125 40H3.875C2.84729 40 1.86166 39.5786 1.13496 38.8284C0.408258 38.0783 0 37.0609 0 36V4ZM3.875 2.66667C3.53243 2.66667 3.20389 2.80714 2.96165 3.05719C2.71942 3.30724 2.58333 3.64638 2.58333 4V36C2.58333 36.3536 2.71942 36.6928 2.96165 36.9428C3.20389 37.1929 3.53243 37.3333 3.875 37.3333H27.125C27.4676 37.3333 27.7961 37.1929 28.0383 36.9428C28.2806 36.6928 28.4167 36.3536 28.4167 36V11.152L27.9465 10.6667H21.9493C21.608 10.6653 21.2812 10.524 21.0407 10.274C20.8001 10.024 20.6656 9.68567 20.6667 9.33333V3.152L20.1965 2.66667H3.875Z" fill="white"/>
</svg>
