<svg width="40" height="40" viewBox="0 0 40 40" fill="none" xmlns="http://www.w3.org/2000/svg">
<path d="M18 7.99992C16.474 7.99992 15.05 8.42592 13.836 9.16792C13.7105 8.49674 13.4818 7.84906 13.158 7.24792C14.6806 6.40532 16.3967 5.97463 18.1367 5.99843C19.8768 6.02222 21.5805 6.49967 23.0794 7.38359C24.5784 8.2675 25.8208 9.52728 26.6838 11.0384C27.5467 12.5496 28.0004 14.2597 28 15.9999H33.002C33.7973 16.0005 34.5599 16.3168 35.122 16.8793C35.6842 17.4419 36 18.2046 36 18.9999V30.9999C36 31.7956 35.6839 32.5586 35.1213 33.1212C34.5587 33.6838 33.7956 33.9999 33 33.9999H21C20.2044 33.9999 19.4413 33.6838 18.8787 33.1212C18.3161 32.5586 18 31.7956 18 30.9999V25.9999C16.6088 26.0017 15.2326 25.7121 13.96 25.1499C13.986 24.4699 14 23.7559 14 22.9999V22.9299C15.176 23.6099 16.542 23.9999 18 23.9999V18.9999C18 18.2043 18.3161 17.4412 18.8787 16.8786C19.4413 16.316 20.2044 15.9999 21 15.9999H26C26 13.8782 25.1571 11.8434 23.6569 10.3431C22.1566 8.84277 20.1217 7.99992 18 7.99992ZM27.8 17.9999C27.4066 19.9211 26.4577 21.6844 25.0711 23.071C23.6844 24.4576 21.9211 25.4065 20 25.7999V30.9999C20 31.2651 20.1054 31.5195 20.2929 31.707C20.4804 31.8946 20.7348 31.9999 21 31.9999H33C33.2652 31.9999 33.5196 31.8946 33.7071 31.707C33.8946 31.5195 34 31.2651 34 30.9999V18.9999C34 18.7347 33.8946 18.4803 33.7071 18.2928C33.5196 18.1053 33.2652 17.9999 33 17.9999H27.8ZM25.748 17.9999H21C20.7348 17.9999 20.4804 18.1053 20.2929 18.2928C20.1054 18.4803 20 18.7347 20 18.9999V23.7479C21.3836 23.3895 22.6462 22.6675 23.6569 21.6568C24.6676 20.6461 25.3895 19.3835 25.748 17.9999ZM9.162 4.24992C9.32801 4.39512 9.44135 4.59113 9.4844 4.80744C9.52744 5.02375 9.49777 5.24822 9.4 5.44592C9.38307 5.50443 9.37432 5.56501 9.374 5.62592C9.374 5.75192 9.406 5.99192 9.708 6.29192C9.854 6.43792 9.966 6.54192 10.088 6.65592C10.188 6.74792 10.294 6.84392 10.428 6.97592C10.688 7.22392 10.962 7.51592 11.208 7.88192C11.718 8.64792 12 9.60592 12 10.9999C12 12.7059 11.368 14.1599 10.382 15.0519L10.51 15.1999C11.07 15.8879 11.396 16.7799 11.6 17.6599C12 19.3999 12 21.4919 12 22.9499V22.9999C12 28.5739 11.242 31.7359 10.408 33.5439C9.988 34.4539 9.542 35.0339 9.156 35.3979C8.99907 35.5485 8.82603 35.6813 8.64 35.7939C8.55482 35.8452 8.4659 35.89 8.374 35.9279C8.374 35.9279 8.148 35.9999 8 35.9999C7.852 35.9999 7.626 35.9279 7.626 35.9279C7.5331 35.8922 7.44399 35.8473 7.36 35.7939C7.17398 35.6813 7.00093 35.5485 6.844 35.3979C6.458 35.0319 6.012 34.4539 5.592 33.5439C4.758 31.7359 4 28.5739 4 22.9999V22.9499C4 21.4899 4 19.3999 4.4 17.6599C4.604 16.7799 4.93 15.8879 5.49 15.1999C5.53 15.1499 5.574 15.0999 5.618 15.0519C4.632 14.1599 4 12.7059 4 10.9999C4 10.3479 4.174 9.56992 4.414 8.85192C4.654 8.13192 4.99 7.38792 5.378 6.78792C5.84 6.00792 6.49 5.35392 6.994 4.91392C7.27032 4.67091 7.55868 4.44196 7.858 4.22792L7.918 4.18792L7.936 4.17392L7.942 4.16992L7.946 4.16792C8.12939 4.04567 8.34803 3.98744 8.56794 4.00227C8.78784 4.0171 8.99668 4.10416 9.162 4.24992ZM8 13.9999C8.774 13.9979 10 13.1399 10 10.9999C10 9.89392 9.782 9.35192 9.542 8.99192C9.39608 8.78165 9.22776 8.58785 9.04 8.41392L8.792 8.18192C8.63 8.02992 8.44 7.85392 8.292 7.70792C8.07326 7.49146 7.88548 7.2458 7.734 6.97792C7.47942 7.2456 7.25538 7.54075 7.066 7.85792C6.786 8.28792 6.514 8.87792 6.312 9.48592C6.104 10.1059 6 10.6539 6 10.9999C6 13.1439 7.23 13.9999 8 13.9999ZM7.04 16.4639C6.756 16.8099 6.52 17.3619 6.348 18.1099C6.004 19.6059 6 21.4859 6 22.9999C6 28.4259 6.742 31.2639 7.408 32.7059C7.628 33.1799 7.834 33.4959 8 33.7059C8.2363 33.3973 8.43503 33.0616 8.592 32.7059C9.258 31.2639 10 28.4259 10 22.9999C10 21.4859 9.996 19.6059 9.65 18.1099C9.478 17.3619 9.242 16.8099 8.96 16.4639C8.84968 16.3144 8.70463 16.1941 8.53736 16.1132C8.3701 16.0324 8.18567 15.9935 8 15.9999H7.996C7.81098 15.994 7.62728 16.0331 7.46074 16.114C7.2942 16.1948 7.14981 16.3149 7.04 16.4639Z" fill="white"/>
</svg>
