<svg width="41" height="40" viewBox="0 0 41 40" fill="none" xmlns="http://www.w3.org/2000/svg">
<path d="M2.85938 0L6.06938 36L20.4744 40L34.9169 35.995L38.1319 0H2.86188H2.85938ZM32.1644 33.705L20.5544 36.9225V36.94L20.5244 36.93L20.4944 36.94V36.9225L8.88437 33.705L6.13937 2.945H34.9094L32.1644 33.705ZM25.9144 20.71L25.4044 26.435L20.4744 27.765L15.5569 26.44L15.2419 22.915H10.8094L11.4269 29.85L20.4919 32.3575L29.5294 29.85L30.7419 16.295H14.6494L14.2469 11.7725H31.1419L31.5369 7.3575H9.41938L10.6119 20.71H25.9144Z" fill="white"/>
</svg>
