<svg width="40" height="40" viewBox="0 0 40 40" fill="none" xmlns="http://www.w3.org/2000/svg">
<path fill-rule="evenodd" clip-rule="evenodd" d="M19.2734 7.5H36.2484L37.5234 8.75V33.75L36.2734 35H3.77344L2.52344 33.75V6.25L3.77344 5H16.2734L17.1484 5.375L19.2734 7.5ZM34.9734 32.5V28.725L34.9984 18.725V14.975H19.2484L17.0984 17.125L16.2234 17.5H4.99844V32.5H34.9734ZM18.7234 12.5H34.9734L34.9984 10.025H18.7484L17.8484 9.65L15.7234 7.525H4.99844V15.025H15.6984L17.8484 12.875L18.7234 12.5ZM24.4484 22.675L21.0484 19.25L22.8984 17.525L28.4484 23.075V24.85L22.7234 30.375L20.9734 28.575L24.4734 25.2H21.0484C19.7697 25.2576 18.5618 25.8034 17.6734 26.725C17.2431 27.1533 16.9038 27.6642 16.6761 28.227C16.4484 28.7899 16.3369 29.393 16.3484 30H13.8484C13.8329 29.0733 14.0041 28.153 14.3521 27.2939C14.7 26.4349 15.2174 25.6547 15.8734 25C17.1844 23.6182 18.972 22.787 20.8734 22.675H24.4484Z" fill="white"/>
</svg>
