<svg width="27" height="38" viewBox="0 0 27 38" fill="none" xmlns="http://www.w3.org/2000/svg">
<path d="M24.673 38H2.57305C1.50055 38 0.623047 37.1114 0.623047 36.0254V5.74816C0.623047 5.44539 0.831047 5.17553 1.12355 5.10971L22.424 0.0349783C22.814 -0.0571698 23.217 0.0349784 23.529 0.285095C23.841 0.535211 24.023 0.910385 24.023 1.31847V5.09654H24.673C25.7455 5.09654 26.623 5.98511 26.623 7.07115V36.0254C26.623 37.1114 25.7455 38 24.673 38ZM1.92305 6.40636V36.0254C1.92305 36.3874 2.21555 36.6836 2.57305 36.6836H24.673C25.0305 36.6836 25.323 36.3874 25.323 36.0254V7.06456C25.323 6.70255 25.0305 6.40636 24.673 6.40636H1.92305ZM6.87605 5.08996H22.723V1.31189L6.87605 5.08996Z" fill="#4893FF"/>
<path d="M13.6229 9.03906C8.96235 9.03906 5.17285 12.8764 5.17285 17.5957C5.17285 22.315 8.96235 26.1523 13.6229 26.1523C18.2834 26.1523 22.0729 22.315 22.0729 17.5957C22.0729 12.8764 18.2834 9.03906 13.6229 9.03906ZM19.3753 21.8806C18.9138 21.716 18.4394 21.5646 17.9519 21.4461C18.2184 20.4786 18.3939 19.3991 18.4394 18.2539H20.7469C20.6234 19.6032 20.1359 20.8472 19.3819 21.8806H19.3753ZM6.51185 18.2539H8.81935C8.86485 19.3991 9.03385 20.4786 9.30685 21.4461C8.81935 21.5712 8.34485 21.716 7.88335 21.8806C7.12935 20.8472 6.63535 19.6032 6.51835 18.2539H6.51185ZM7.87035 13.3239C8.33185 13.4951 8.81285 13.6399 9.30035 13.7649C9.03385 14.7259 8.86485 15.7988 8.81935 16.9375H6.51185C6.63535 15.5947 7.12285 14.3573 7.87035 13.3239ZM12.9794 14.2915V16.9375H10.1194C10.1649 15.8975 10.3274 14.9168 10.5744 14.0414C11.3609 14.1796 12.1669 14.2652 12.9794 14.2915ZM11.0359 12.7579C11.5429 11.6126 12.2254 10.7965 12.9794 10.4937V12.9422C12.3229 12.9159 11.6729 12.8632 11.0359 12.7645V12.7579ZM12.9794 18.2539V20.9393C12.1734 20.9657 11.3674 21.0381 10.5809 21.1697C10.3274 20.2877 10.1649 19.3004 10.1194 18.2539H12.9794ZM12.9794 22.2492V24.6977C12.2189 24.3949 11.5429 23.5721 11.0359 22.4269C11.6729 22.3281 12.3229 22.2689 12.9794 22.2426V22.2492ZM14.2794 22.2492C14.9359 22.2755 15.5859 22.3347 16.2229 22.4334C15.7159 23.5787 15.0333 24.4015 14.2794 24.7042V22.2557V22.2492ZM14.2794 20.9328V18.2473H17.1394C17.0939 19.2938 16.9249 20.2811 16.6779 21.1631C15.8914 21.0315 15.0854 20.9591 14.2794 20.9328ZM14.2794 16.9309V14.2849C15.0919 14.2586 15.8979 14.173 16.6844 14.0348C16.9314 14.9102 17.0939 15.8909 17.1394 16.9309H14.2794ZM14.2794 12.929V10.4805C15.0399 10.7833 15.7159 11.606 16.2229 12.7513C15.5859 12.85 14.9359 12.9093 14.2794 12.9356V12.929ZM16.8144 11.1124C17.4059 11.4086 17.9454 11.7903 18.4329 12.2379C18.1339 12.3301 17.8349 12.4156 17.5294 12.488C17.3214 11.9812 17.0809 11.5205 16.8144 11.1124ZM9.73585 12.4815C9.43035 12.4091 9.13135 12.3169 8.83885 12.2248C9.31985 11.7838 9.85935 11.4086 10.4509 11.1058C10.1844 11.5139 9.95035 11.9746 9.74235 12.4749L9.73585 12.4815ZM9.73585 22.6836C9.94385 23.1904 10.1844 23.6511 10.4509 24.0592C9.85935 23.763 9.31985 23.3813 8.83235 22.9337C9.13135 22.8415 9.43035 22.756 9.73585 22.6836ZM17.5294 22.6836C17.8349 22.756 18.1404 22.8415 18.4329 22.9337C17.9519 23.3813 17.4059 23.7564 16.8144 24.0592C17.0809 23.6511 17.3214 23.1904 17.5294 22.6836ZM18.4458 16.9243C18.4003 15.7856 18.2314 14.7128 17.9649 13.7518C18.4524 13.6267 18.9334 13.4819 19.3949 13.3108C20.1424 14.3442 20.6299 15.5816 20.7534 16.9243H18.4458Z" fill="#4893FF"/>
<path d="M18.8234 30.7598H8.42344C8.06594 30.7598 7.77344 30.4636 7.77344 30.1016C7.77344 29.7395 8.06594 29.4434 8.42344 29.4434H18.8234C19.1809 29.4434 19.4734 29.7395 19.4734 30.1016C19.4734 30.4636 19.1809 30.7598 18.8234 30.7598Z" fill="#4893FF"/>
<path d="M21.098 34.051H6.14805C5.79055 34.051 5.49805 33.7548 5.49805 33.3928C5.49805 33.0308 5.79055 32.7346 6.14805 32.7346H21.098C21.4555 32.7346 21.748 33.0308 21.748 33.3928C21.748 33.7548 21.4555 34.051 21.098 34.051Z" fill="#4893FF"/>
</svg>
