<svg width="39" height="38" viewBox="0 0 39 38" fill="none" xmlns="http://www.w3.org/2000/svg">
<path fill-rule="evenodd" clip-rule="evenodd" d="M10.7516 16.893L5.81489 14.6591C5.80767 14.6561 5.79957 14.6561 5.79235 14.6591L5.78629 14.6613C5.78214 14.6641 5.77884 14.668 5.77675 14.6725L0.91454 25.3503C0.911761 25.3574 0.911761 25.3652 0.91454 25.3723C0.916955 25.3791 0.92193 25.3847 0.928407 25.3879L5.86559 27.6222C5.8727 27.625 5.88059 27.625 5.88769 27.6222C5.8945 27.6198 5.9001 27.6148 5.90329 27.6084L10.7655 16.931C10.7685 16.9232 10.7685 16.9146 10.7655 16.9068C10.7642 16.9037 10.7623 16.9009 10.76 16.8985C10.7576 16.8962 10.7547 16.8943 10.7516 16.893ZM27.8721 16.3215C27.6556 16.4195 27.4844 16.5958 27.3932 16.8148C27.388 16.8247 27.3841 16.8355 27.3798 16.8459C27.336 16.9609 27.3155 17.0834 27.3195 17.2063C27.3234 17.3293 27.3517 17.4502 27.4028 17.5622L27.7794 18.3895C27.6124 18.4597 27.4449 18.5251 27.2771 18.5856C26.9636 18.6979 26.644 18.7961 26.3181 18.8802C26.2072 18.9099 26.0893 18.8996 25.9853 18.8513C25.0615 18.4613 24.0974 18.174 23.1104 17.9946C21.948 17.7656 20.7698 17.6251 19.586 17.5743C19.1254 17.5511 18.6704 17.6827 18.2937 17.9479C17.7069 18.3519 17.1159 18.7878 16.5525 19.2306C15.8484 19.1943 15.164 19.1544 14.4993 19.1109C13.8516 19.0686 13.2204 19.0216 12.606 18.9701C12.407 18.8755 11.835 18.6007 11.159 18.2629L11.5954 17.3047C11.6976 17.0778 11.7057 16.8199 11.6179 16.5871C11.53 16.3544 11.3534 16.1657 11.1265 16.0623L9.0516 15.1248V1.3742C9.05205 1.25159 9.10108 1.13413 9.18801 1.04739C9.27494 0.960648 9.39273 0.91166 9.51572 0.911092H29.4829C29.6059 0.91166 29.7236 0.960648 29.8106 1.04739C29.8975 1.13413 29.9465 1.25159 29.947 1.3742V15.384L27.8721 16.3215ZM30.8622 14.9689L32.8097 14.0871C32.9221 14.0364 33.0434 14.0083 33.1667 14.0045C33.29 14.0006 33.4129 14.0211 33.5282 14.0647C33.539 14.0686 33.5494 14.0729 33.5598 14.0776C33.7795 14.1687 33.9564 14.3395 34.0547 14.5554L38.9169 25.2328C38.9676 25.3446 38.9957 25.4652 38.9995 25.5878C39.0034 25.7104 38.983 25.8326 38.9395 25.9473C38.8963 26.0632 38.8304 26.1693 38.7458 26.2597C38.6611 26.35 38.5593 26.4227 38.4463 26.4735L33.5096 28.7095C33.2821 28.8114 33.0235 28.8193 32.7902 28.7317C32.5569 28.644 32.3679 28.4678 32.2645 28.2417L32.037 27.7423C31.8663 27.8054 31.6865 27.8615 31.4988 27.9112C31.1772 27.9944 30.8505 28.0568 30.5207 28.0978C29.9062 28.6485 29.3542 29.1217 28.8645 29.5174C28.5259 29.791 28.2128 30.0313 27.9254 30.2384L28.458 30.7693C28.7856 31.0968 28.983 31.5316 29.0136 31.993C29.0442 32.4545 28.906 32.9114 28.6245 33.2791C28.343 33.6467 27.9373 33.9001 27.4827 33.9924C27.0281 34.0846 26.5554 34.0095 26.1521 33.7808C26.0936 34.0816 25.9634 34.364 25.7726 34.6043C25.5818 34.8445 25.336 35.0356 25.0557 35.1614C24.7755 35.2873 24.469 35.3442 24.1621 35.3275C23.8552 35.3107 23.5568 35.2208 23.292 35.0652C23.2243 35.4385 23.0437 35.7823 22.7746 36.0505C22.4906 36.3323 22.1256 36.5186 21.7303 36.5836C21.3351 36.6485 20.9293 36.5889 20.5697 36.413C20.5098 36.7581 20.356 37.0803 20.1251 37.3443C19.8942 37.6083 19.595 37.804 19.2602 37.9101C18.9253 38.0162 18.5677 38.0286 18.2262 37.946C17.8848 37.8634 17.5727 37.6889 17.3239 37.4416L16.7124 36.8325C16.4391 36.9978 16.1287 37.0924 15.8094 37.1076C15.4902 37.1228 15.1721 37.0581 14.8843 36.9195C14.5965 36.7808 14.348 36.5726 14.1616 36.3138C13.9751 36.0549 13.8566 35.7537 13.8167 35.4375C13.5994 35.5187 13.3693 35.5602 13.1372 35.5602C12.6305 35.5606 12.1444 35.3605 11.7856 35.0038C11.5291 34.7483 11.3509 34.4252 11.2721 34.0724C11.0174 34.2747 10.7119 34.4033 10.3888 34.4443C10.0658 34.4852 9.73765 34.4368 9.44031 34.3044C8.95255 34.0952 8.56375 33.7076 8.3539 33.2214C8.23087 32.9475 8.17995 32.6468 8.20596 32.3479C8.23197 32.0489 8.33405 31.7615 8.50254 31.5128C8.16411 31.442 7.85114 31.2814 7.59672 31.048C7.3423 30.8145 7.15586 30.5169 7.05713 30.1865C6.9584 29.8561 6.95103 29.5053 7.03581 29.1711C7.12059 28.8369 7.29436 28.5318 7.53876 28.2879L7.6965 28.1307C7.48243 27.8879 7.30605 27.6814 7.16738 27.5112C7.11711 27.4498 7.07118 27.3919 7.02871 27.3384L6.73576 27.9821C6.63262 28.2084 6.44367 28.3849 6.21031 28.4726C5.97694 28.5604 5.71819 28.5524 5.49074 28.4503L0.552258 26.2143C0.439758 26.1637 0.338371 26.0915 0.253898 26.0018C0.169425 25.9121 0.103525 25.8067 0.0599693 25.6916C0.016445 25.5764 -0.00374368 25.4537 0.00057049 25.3307C0.00488466 25.2077 0.0336161 25.0868 0.0851038 24.9749L4.94472 14.2975C5.04309 14.0817 5.21996 13.9111 5.43961 13.8202L5.47124 13.8068C5.58664 13.7633 5.70949 13.743 5.83278 13.7469C5.95606 13.7509 6.07736 13.779 6.18974 13.8297L8.13982 14.711V1.3742C8.14017 1.00992 8.28545 0.66065 8.5438 0.403025C8.80215 0.145399 9.15247 0.000457477 9.51788 0H29.4829C29.8483 0.000457258 30.1987 0.145385 30.4571 0.402998C30.7155 0.660611 30.8609 1.00988 30.8614 1.3742V14.9706L30.8622 14.9689ZM31.6592 26.912L28.1559 19.2189C27.9696 19.2972 27.7789 19.3714 27.5839 19.4414C27.2459 19.5629 26.8992 19.6695 26.5439 19.7611C26.232 19.8462 25.8999 19.8171 25.6078 19.679C24.7489 19.3194 23.853 19.0548 22.9362 18.8901C21.8195 18.6689 20.6875 18.533 19.55 18.4836C19.2871 18.4683 19.027 18.5437 18.8133 18.697C17.9977 19.2586 17.1666 19.8894 16.4108 20.5209C15.8225 21.0064 15.2631 21.5257 14.7354 22.0762C14.8056 22.9298 14.8468 23.7152 14.862 24.4021C14.8832 25.0246 14.8663 25.6478 14.8113 26.2683C14.803 26.3356 14.8087 26.404 14.8282 26.469C14.8477 26.534 14.8805 26.5942 14.9245 26.646C14.9685 26.6977 15.0228 26.7398 15.0839 26.7696C15.1451 26.7994 15.2117 26.8163 15.2797 26.8191C15.5034 26.8281 15.726 26.7846 15.9298 26.6921L15.9519 26.6826C16.3858 26.4459 16.7101 26.05 16.8558 25.5788C17.1492 24.7341 17.3038 23.8478 17.3139 22.954C17.3167 22.8941 17.3314 22.8353 17.3572 22.7812C17.3985 22.6776 17.448 22.5775 17.5054 22.4818C17.5687 22.3773 17.6412 22.2787 17.7221 22.1872C17.9144 21.97 18.1686 21.8167 18.4508 21.7476C18.733 21.6786 19.0296 21.6972 19.3008 21.801C19.4799 21.8725 19.6421 21.9802 19.7775 22.1172L27.2728 29.5878C27.575 29.375 27.9138 29.1166 28.2894 28.8128C28.8071 28.3946 29.3838 27.8993 30.0194 27.3267C30.0904 27.2627 30.1798 27.2226 30.275 27.2122C30.6096 27.1765 30.9412 27.1165 31.267 27.0325C31.4039 26.9967 31.5348 26.9565 31.6596 26.9128L31.6592 26.912ZM33.1841 14.9183L28.2469 17.1526C28.2423 17.1546 28.2384 17.1579 28.2357 17.1621L28.2331 17.1682C28.2316 17.1717 28.2309 17.1754 28.2309 17.1792C28.2309 17.183 28.2316 17.1867 28.2331 17.1902L33.0966 27.8676C33.0997 27.8741 33.1054 27.879 33.1122 27.8814C33.1194 27.8844 33.1275 27.8844 33.1347 27.8814L38.0715 25.6475C38.078 25.6444 38.083 25.6388 38.0853 25.632C38.0881 25.6247 38.0881 25.6167 38.0853 25.6095L33.2218 14.9308C33.2199 14.9261 33.2166 14.922 33.2123 14.9192L33.2062 14.917C33.2027 14.9155 33.199 14.9148 33.1952 14.9148C33.1914 14.9148 33.1876 14.9155 33.1841 14.917V14.9183ZM10.782 19.0923C11.5962 19.4984 12.2909 19.8267 12.2931 19.8267C12.3425 19.8505 12.3958 19.8651 12.4504 19.8699C13.0501 19.9209 13.7146 19.9701 14.4438 20.0177C14.7861 20.0401 15.1435 20.062 15.5159 20.0833C14.9546 20.5603 14.4225 21.0704 13.9225 21.6109C13.8808 21.657 13.8491 21.711 13.8293 21.7698C13.8095 21.8286 13.8019 21.8908 13.8072 21.9526C13.8887 22.8961 13.935 23.7281 13.9502 24.4193C13.9704 25.004 13.9546 25.5893 13.903 26.172C13.8806 26.3632 13.8982 26.5569 13.9546 26.741C14.011 26.9251 14.105 27.0956 14.2308 27.2417C14.3565 27.3878 14.5113 27.5063 14.6852 27.5899C14.8592 27.6734 15.0486 27.7202 15.2416 27.7272C15.4253 27.736 15.6093 27.7228 15.7898 27.6879C15.9705 27.6523 16.1464 27.5955 16.3137 27.5185L16.3263 27.5125C16.9801 27.1829 17.4758 26.6079 17.7043 25.9141C18.0292 25.0008 18.2048 24.0415 18.2244 23.0728C18.2439 23.0304 18.2657 22.9892 18.2898 22.9492C18.3245 22.8913 18.3644 22.8366 18.409 22.7859C18.4773 22.7092 18.5673 22.6549 18.6672 22.6304C18.7672 22.6059 18.8722 22.6122 18.9684 22.6486C19.0317 22.6744 19.0888 22.7131 19.1361 22.7622L27.8119 31.4134C27.9526 31.5529 28.0486 31.731 28.0877 31.9249C28.1268 32.1189 28.1072 32.3201 28.0313 32.5029C27.9555 32.6858 27.8269 32.842 27.6618 32.9519C27.4967 33.0617 27.3027 33.1202 27.1042 33.1198C26.8361 33.1205 26.5786 33.0155 26.3879 32.8278L25.7326 32.1798C25.6993 32.1405 25.6637 32.1016 25.626 32.0645C25.6061 32.0445 25.5843 32.0264 25.561 32.0105L22.2771 28.7756C22.1904 28.6934 22.0748 28.6485 21.9552 28.6505C21.8356 28.6524 21.7216 28.7012 21.6378 28.7862C21.5539 28.8712 21.5069 28.9857 21.5069 29.105C21.507 29.2242 21.554 29.3387 21.6379 29.4236L25.0423 32.7807C25.2061 32.979 25.2872 33.2325 25.2688 33.4887C25.2504 33.7449 25.1339 33.9843 24.9435 34.1573C24.7531 34.3304 24.5032 34.4238 24.2456 34.4184C23.988 34.413 23.7423 34.3091 23.5594 34.1281L20.8791 31.4562C20.7934 31.3708 20.6772 31.3228 20.556 31.3228C20.4348 31.3228 20.3186 31.3708 20.233 31.4562C20.1473 31.5416 20.0991 31.6575 20.0991 31.7783C20.0991 31.8991 20.1473 32.0149 20.233 32.1003L21.611 33.4719L21.6045 33.4784L22.112 33.9843C22.3038 34.1749 22.4127 34.4331 22.4153 34.7031C22.4171 34.8332 22.3928 34.9623 22.3439 35.0829C22.2949 35.2034 22.2222 35.313 22.1302 35.4051C21.9411 35.5917 21.6859 35.6963 21.4199 35.6963C21.1539 35.6963 20.8987 35.5917 20.7096 35.4051L20.0384 34.736L18.7054 33.4071C18.5763 33.0301 18.332 32.7028 18.0067 32.4715C17.6813 32.2401 17.2914 32.1162 16.8918 32.1172C16.8394 32.1172 16.7874 32.1172 16.7354 32.1232C16.7393 32.0714 16.7419 32.0195 16.7419 31.9673C16.742 31.7164 16.6925 31.468 16.5961 31.2363C16.4998 31.0046 16.3586 30.7941 16.1806 30.6168C16.0025 30.4396 15.7912 30.2991 15.5586 30.2034C15.326 30.1077 15.0768 30.0587 14.8252 30.0591C14.7818 30.0591 14.7385 30.0591 14.6951 30.0639C14.7139 29.7718 14.6627 29.4795 14.5456 29.2111C14.3358 28.7249 13.947 28.3373 13.4592 28.1281C13.1899 28.0116 12.8967 27.9605 12.6038 27.979C12.6068 27.9358 12.6086 27.8926 12.6086 27.8494C12.6082 27.4716 12.4955 27.1023 12.2848 26.7882C12.074 26.4742 11.7747 26.2293 11.4246 26.0847C11.0744 25.94 10.6891 25.902 10.3173 25.9754C9.94549 26.0489 9.60383 26.2305 9.33544 26.4973L8.33873 27.4909C8.1547 27.2806 7.99898 27.0976 7.87158 26.9418C7.75369 26.8066 7.64703 26.6622 7.55263 26.5098C7.5294 26.4639 7.49848 26.4222 7.46119 26.3867L10.7807 19.0966L10.782 19.0923ZM11.4021 28.5562L9.60195 30.3507C9.41211 30.5321 9.15849 30.6321 8.89554 30.6291C8.63259 30.6261 8.38129 30.5205 8.1956 30.3349C8.00991 30.1493 7.90464 29.8985 7.9024 29.6363C7.90015 29.3742 8.00111 29.1216 8.18359 28.9329L9.98157 27.1405C10.1711 26.9588 10.4246 26.8585 10.6876 26.8611C10.9505 26.8636 11.2019 26.9689 11.3879 27.1542C11.5739 27.3396 11.6795 27.5902 11.6822 27.8523C11.6848 28.1144 11.5843 28.3672 11.4021 28.5562ZM14.1149 31.2609L12.4287 32.9419C12.2419 33.1296 12.1368 33.3831 12.1361 33.6475C12.1355 33.9119 12.2393 34.1659 12.4252 34.3545L12.4313 34.3601C12.6201 34.546 12.8747 34.6503 13.1401 34.6503C13.4054 34.6503 13.6601 34.546 13.8488 34.3601L14.3632 33.8473L15.5332 32.6809C15.7216 32.4932 15.8274 32.2386 15.8274 31.9731C15.8274 31.7076 15.7216 31.453 15.5332 31.2653C15.3449 31.0775 15.0895 30.9721 14.8232 30.9721C14.5569 30.9721 14.3015 31.0775 14.1132 31.2653L14.1149 31.2609ZM12.0482 29.2007L10.2502 30.9931L9.42775 31.813C9.28279 31.9413 9.18185 32.1117 9.13917 32.3002C9.09649 32.4887 9.11421 32.6858 9.18984 32.8637C9.30865 33.132 9.52337 33.3467 9.7922 33.4659C9.97062 33.5413 10.1683 33.5591 10.3574 33.5166C10.5464 33.4741 10.7174 33.3736 10.8461 33.2291L11.7804 32.2977L13.467 30.6164C13.6119 30.4881 13.7128 30.3177 13.7554 30.1292C13.798 29.9407 13.7802 29.7436 13.7045 29.5658C13.5853 29.2971 13.3699 29.0824 13.1004 28.9636C12.9219 28.8882 12.7242 28.8705 12.5352 28.9131C12.3461 28.9556 12.1752 29.0562 12.0465 29.2007H12.0482ZM16.1815 33.3207L15.0115 34.4897C14.8294 34.6788 14.7289 34.9316 14.7316 35.1937C14.7343 35.4558 14.8401 35.7064 15.0261 35.8917C15.2121 36.077 15.4636 36.1821 15.7266 36.1846C15.9895 36.1871 16.2429 36.0867 16.4325 35.905L17.6025 34.7386C17.7847 34.5496 17.8854 34.2969 17.8828 34.0348C17.8802 33.7727 17.7747 33.522 17.5887 33.3366C17.4028 33.1512 17.1514 33.0459 16.8885 33.0432C16.6255 33.0406 16.372 33.1408 16.1824 33.3225L16.1815 33.3207ZM18.695 34.6846C18.6 34.9465 18.4481 35.1842 18.2504 35.3809L17.4019 36.2268L17.9739 36.7975C18.1629 36.9823 18.4174 37.0853 18.6822 37.0841C18.9469 37.0828 19.2005 36.9774 19.3877 36.7908C19.5749 36.6042 19.6807 36.3514 19.6819 36.0875C19.6832 35.8235 19.5799 35.5698 19.3944 35.3814L18.695 34.6846ZM14.9682 13.9675C15.3657 13.5997 15.8067 13.2815 16.2812 13.0197C16.1337 12.3207 16.0478 11.6103 16.0247 10.8964H13.7712C13.8592 12.0154 14.2763 13.0837 14.9703 13.9675H14.9682ZM17.1328 12.6283C18.6584 12.0505 20.3436 12.0505 21.8693 12.6283C21.9779 12.058 22.0425 11.4803 22.0626 10.9003H16.9377C16.9578 11.4803 17.0224 12.058 17.131 12.6283H17.1328ZM22.723 13.0218C23.1977 13.2834 23.6386 13.6017 24.0361 13.9696C24.7301 13.0858 25.1472 12.0175 25.2351 10.8985H22.9817C22.9588 11.6124 22.8729 12.3229 22.7252 13.0218H22.723ZM23.4155 14.6367C23.1282 14.3701 22.8145 14.1334 22.479 13.9303C22.3632 14.3017 22.22 14.664 22.0504 15.0142C21.9224 15.279 21.7738 15.5334 21.6058 15.775C22.2752 15.5118 22.889 15.1256 23.4155 14.6367ZM21.6513 13.5165C20.2699 12.9652 18.7287 12.9652 17.3473 13.5165C17.4575 13.8939 17.5986 14.2616 17.7693 14.6159C18.2395 15.5771 18.8527 16.1711 19.4993 16.1711C20.1459 16.1711 20.759 15.5767 21.2292 14.6159C21.3999 14.2616 21.5411 13.8939 21.6513 13.5165ZM16.5196 13.9303C16.1843 14.1336 15.8705 14.3703 15.5831 14.6367C16.1096 15.1256 16.7234 15.5117 17.3928 15.775C17.225 15.5333 17.0763 15.2789 16.9481 15.0142C16.7786 14.664 16.6354 14.3017 16.5196 13.9303ZM24.0322 6.91376C23.6347 7.28171 23.1938 7.6 22.7191 7.86157C22.8668 8.56047 22.9527 9.27097 22.9756 9.98486H25.2291C25.141 8.86589 24.7239 7.79766 24.03 6.91376H24.0322ZM21.8676 8.25555C20.3418 8.83288 18.6568 8.83288 17.131 8.25555C17.0223 8.82578 16.9577 9.40348 16.9377 9.98356H22.0608C22.0408 9.40348 21.9762 8.82578 21.8676 8.25555ZM16.2773 7.86157C15.8028 7.59979 15.3618 7.28152 14.9643 6.91376C14.2703 7.79766 13.8533 8.86589 13.7652 9.98486H16.0186C16.0418 9.27098 16.1276 8.56051 16.2751 7.86157H16.2773ZM15.5809 6.24372C15.8682 6.51022 16.182 6.74688 16.5174 6.95005C16.6333 6.57871 16.7765 6.21643 16.946 5.86615C17.0742 5.60163 17.2229 5.34743 17.3906 5.10583C16.7213 5.36898 16.1075 5.75495 15.5809 6.24372ZM17.3451 7.3639C18.7265 7.91514 20.2677 7.91514 21.6491 7.3639C21.539 6.98661 21.3979 6.61903 21.2271 6.26489C20.7564 5.30325 20.1437 4.70968 19.4971 4.70968C18.8506 4.70968 18.2374 5.30412 17.7672 6.26489C17.5964 6.61903 17.4552 6.98661 17.3451 7.3639ZM22.4769 6.95005C22.8124 6.74709 23.1262 6.51042 23.4133 6.24372C22.8869 5.75486 22.273 5.36888 21.6036 5.10583C21.7715 5.34733 21.9202 5.60154 22.0483 5.86615C22.2177 6.21643 22.361 6.57871 22.4769 6.95005ZM19.4993 3.79773C17.9575 3.79815 16.4635 4.3315 15.272 5.3069C14.0804 6.28231 13.265 7.63941 12.9647 9.14696C12.6643 10.6545 12.8977 12.2192 13.6249 13.5745C14.3521 14.9298 15.5283 15.9918 16.9529 16.5795C18.3775 17.1672 19.9625 17.2443 21.4378 16.7977C22.913 16.351 24.1873 15.4082 25.0434 14.1299C25.8995 12.8517 26.2846 11.317 26.1329 9.78748C25.9812 8.25793 25.3022 6.82815 24.2116 5.74174C23.5933 5.12418 22.8587 4.63453 22.05 4.30091C21.2414 3.96729 20.3745 3.79629 19.4993 3.79773Z" fill="#6A6A9A"/>
</svg>
