<svg width="32" height="32" viewBox="0 0 32 32" fill="none" xmlns="http://www.w3.org/2000/svg">
<path d="M27.4779 18.2346C27.198 17.8311 26.7379 17.5898 26.2469 17.5898C25.7559 17.5898 25.2958 17.8311 25.0159 18.2346L21.5837 23.1928C20.9311 24.1351 20.5858 25.2401 20.5858 26.3877C20.5858 28.2801 21.5302 29.9537 22.9696 30.9707H19.5565V16.5605H15.4393V30.9707H13.3808V19.6484H9.26361V30.9707H7.20503V20.6777H3.08787V30.9707H1.02929V21.4008L6.69038 15.7447L9.77825 18.8326L18.5272 10.0836L21.6151 13.1715L28.3055 6.48101L30.7279 8.90347L32.0001 0L23.0967 1.27222L25.5192 3.69417L21.6151 7.59831L18.5272 4.51041L9.77825 13.2595L6.69038 10.1716L1.02929 15.8327V12.4432H4.11716V11.4139H1.02929V10.3846H3.08787V9.35533H1.02929V8.32603H4.11716V7.29673H1.02929V6.26743H3.08787V5.23812H1.02929V4.20882H4.11716V3.17952H1.02929V2.15021H3.08787V1.12091H1.02929V0.091608H0V32H26.198H26.2469H26.2958C29.3898 32 31.908 29.4818 31.908 26.3877C31.908 25.2406 31.5627 24.1351 30.9101 23.1928L27.4779 18.2346ZM6.69038 11.627L9.77825 14.7149L18.5272 5.96584L21.6151 9.05375L26.9746 3.69417L25.2799 1.99942L30.7866 1.21303L30.0002 6.7198L28.3055 5.02506L21.6151 11.7155L18.5272 8.62762L9.77825 17.3767L6.69038 14.2888L1.02929 19.9453V17.2882L6.69038 11.627ZM16.4686 17.5898H18.5272V30.9707H16.4686V17.5898ZM10.2929 20.6777H12.3515V30.9707H10.2929V20.6777ZM4.11716 21.707H6.17574V30.9707H4.11716V21.707ZM26.2958 30.9707H26.2469H26.198C23.6711 30.9707 21.6151 28.9147 21.6151 26.3877C21.6151 25.4505 21.8971 24.5489 22.4303 23.779L25.8624 18.8208C26.0374 18.5686 26.4563 18.5686 26.6313 18.8208L30.0635 23.779C30.5967 24.5484 30.8787 25.45 30.8787 26.3877C30.8787 28.9147 28.8227 30.9707 26.2958 30.9707Z" fill="#9400FF"/>
</svg>
