<svg width="50" height="50" viewBox="0 0 50 50" fill="none" xmlns="http://www.w3.org/2000/svg">
<path d="M11.113 26.5617C11.5445 26.5617 11.8943 26.2119 11.8943 25.7805C11.8943 25.349 11.5445 24.9992 11.113 24.9992C10.6816 24.9992 10.3318 25.349 10.3318 25.7805C10.3318 26.2119 10.6816 26.5617 11.113 26.5617Z" fill="#FF2640"/>
<path d="M43.3575 31.3508V18.6476C43.3691 18.1693 43.1906 17.7058 42.8612 17.3587C42.5318 17.0117 42.0783 16.8094 41.6 16.7961H39.6472C39.3209 16.7977 39.0015 16.8908 38.7254 17.0648C38.4492 17.2388 38.2274 17.4867 38.085 17.7805C35.3511 17.3312 32.1407 15.7531 32.0938 15.7297C30.2035 14.8273 28.9928 14.3781 28.942 14.3586C28.8977 14.3414 28.852 14.3284 28.8053 14.3195C27.9369 14.1579 27.0562 14.0717 26.1729 14.0617C24.142 14.0617 23.275 14.6281 23.0485 14.8117L17.3697 18.9953C17.0666 19.1387 16.8021 19.3525 16.5983 19.6189C16.3945 19.8852 16.2573 20.1964 16.1981 20.5265C16.1746 20.8004 16.2111 21.076 16.3048 21.3344C16.3985 21.5927 16.5474 21.8276 16.7409 22.0226C17.124 22.3782 17.5752 22.6523 18.0673 22.8282C18.5594 23.0042 19.0821 23.0783 19.6037 23.0461C20.1295 23.0471 20.6536 22.9881 21.166 22.8703C21.8963 22.6906 23.5913 21.425 24.681 20.5734L34.9801 32.2531C35.121 32.4056 35.2919 32.5274 35.4821 32.6107C35.6723 32.6941 35.8777 32.7372 36.0853 32.7375C36.1838 32.7381 36.2821 32.7276 36.3783 32.7062L38.1397 32.3156C38.288 32.5845 38.5049 32.8093 38.7684 32.9672C39.0318 33.125 39.3324 33.2102 39.6394 33.2141H41.5922C41.8307 33.2085 42.0658 33.1558 42.2838 33.059C42.5019 32.9622 42.6986 32.8231 42.8627 32.65C43.0268 32.4768 43.155 32.2728 43.2399 32.0498C43.3248 31.8268 43.3648 31.5893 43.3575 31.3508ZM41.7953 31.3508C41.7953 31.5187 41.6938 31.6398 41.6 31.6398H39.6472C39.5535 31.6398 39.452 31.5148 39.452 31.3508V30.468C39.452 30.2608 39.3697 30.062 39.2232 29.9155C39.0767 29.769 38.878 29.6867 38.6708 29.6867C38.4637 29.6867 38.265 29.769 38.1185 29.9155C37.972 30.062 37.8897 30.2608 37.8897 30.468V30.7609L36.1127 31.1516L26.3956 20.1281L25.2903 18.9836C25.1548 18.8424 24.9712 18.7573 24.776 18.745C24.5807 18.7327 24.3879 18.7941 24.2358 18.9172C22.8922 19.9992 21.1816 21.2414 20.7676 21.3586C20.3829 21.4444 19.99 21.4876 19.5959 21.4875C18.9589 21.5317 18.3298 21.3257 17.8423 20.9133C17.8423 20.9133 17.7408 20.7765 17.7486 20.714C17.7564 20.6515 17.854 20.5109 18.1782 20.3234C18.2055 20.3234 23.978 16.05 23.978 16.05L24.0092 16.0265C24.0092 16.0265 24.5756 15.6359 26.1573 15.6359C26.9316 15.6446 27.7038 15.7191 28.4655 15.8586C28.735 15.964 29.8403 16.3976 31.4142 17.1476C31.5783 17.2297 34.8785 18.8508 37.8741 19.3351V24.218C37.8741 24.4252 37.9564 24.6239 38.1029 24.7704C38.2494 24.9169 38.448 24.9992 38.6552 24.9992C38.8624 24.9992 39.0611 24.9169 39.2075 24.7704C39.354 24.6239 39.4363 24.4252 39.4363 24.218V18.6476C39.4363 18.4836 39.5379 18.3586 39.6316 18.3586H41.5844C41.6781 18.3586 41.7797 18.4836 41.7797 18.6476L41.7953 31.3508Z" fill="#FF2640"/>
<path d="M6.21167 39.0422C6.08735 38.8764 5.90228 38.7668 5.69716 38.7375C5.49204 38.7082 5.28368 38.7616 5.11792 38.8859C4.95216 39.0103 4.84258 39.1953 4.81328 39.4004C4.78397 39.6056 4.83735 39.8139 4.96167 39.9797C5.12313 40.1932 5.28719 40.4055 5.45386 40.6164C5.58567 40.7708 5.77237 40.8678 5.97445 40.8869C6.17652 40.906 6.3781 40.8457 6.5365 40.7188C6.6949 40.5918 6.79768 40.4082 6.82309 40.2069C6.84849 40.0055 6.79452 39.8021 6.67261 39.6398C6.51636 39.4419 6.36272 39.2427 6.21167 39.0422Z" fill="#FF2640"/>
<path d="M4.74703 36.839C4.61943 36.6229 4.48922 36.4041 4.35641 36.1828C4.25747 36.0004 4.09015 35.8649 3.89126 35.8059C3.69237 35.7469 3.4782 35.7694 3.29586 35.8683C3.11353 35.9672 2.97796 36.1346 2.91899 36.3335C2.86002 36.5323 2.88247 36.7465 2.98141 36.9289C3.10901 37.1658 3.23922 37.3989 3.37203 37.6281C3.48364 37.79 3.65219 37.9038 3.84405 37.9469C4.03591 37.99 4.23697 37.9592 4.4071 37.8606C4.57722 37.762 4.7039 37.6028 4.76184 37.4149C4.81978 37.227 4.80473 37.0241 4.71969 36.8468L4.74703 36.839Z" fill="#FF2640"/>
<path d="M2.20066 30.5618C2.14076 30.317 2.08477 30.0709 2.03269 29.8235C1.99021 29.6205 1.86881 29.4426 1.69519 29.3291C1.52158 29.2155 1.30996 29.1756 1.10691 29.2181C0.90385 29.2605 0.725984 29.3819 0.612437 29.5555C0.498889 29.7292 0.458962 29.9408 0.501438 30.1438C0.556126 30.4042 0.616021 30.6647 0.681126 30.9251C0.730336 31.1266 0.857577 31.3003 1.03486 31.408C1.21214 31.5157 1.42494 31.5485 1.62644 31.4993C1.82794 31.4501 2.00164 31.3228 2.10933 31.1456C2.21702 30.9683 2.24987 30.7555 2.20066 30.554V30.5618Z" fill="#FF2640"/>
<path d="M3.2437 33.7922C3.14995 33.5605 3.0588 33.3261 2.97026 33.0891C2.89878 32.8943 2.75285 32.7359 2.56458 32.6488C2.37631 32.5616 2.16113 32.5528 1.96636 32.6243C1.77159 32.6957 1.61319 32.8417 1.52602 33.0299C1.43884 33.2182 1.43003 33.4334 1.50151 33.6282C1.59526 33.8886 1.69162 34.1399 1.79058 34.3821C1.86828 34.5742 2.01914 34.7277 2.20997 34.8086C2.4008 34.8896 2.61598 34.8914 2.80815 34.8137C3.00033 34.736 3.15377 34.5851 3.23472 34.3943C3.31567 34.2035 3.31749 33.9883 3.23979 33.7961L3.2437 33.7922Z" fill="#FF2640"/>
<path d="M7.70355 8.80784C7.80757 8.80793 7.91057 8.78725 8.00649 8.747C8.10241 8.70675 8.18933 8.64776 8.26214 8.57347C8.43923 8.39378 8.61892 8.2167 8.80121 8.04222C8.88057 7.97277 8.94505 7.88798 8.99077 7.79294C9.03648 7.69791 9.06248 7.5946 9.0672 7.48925C9.07192 7.3839 9.05526 7.27868 9.01823 7.17994C8.98119 7.0812 8.92455 6.99098 8.85172 6.91471C8.77889 6.83845 8.69136 6.77772 8.59443 6.73618C8.4975 6.69465 8.39316 6.67317 8.2877 6.67304C8.18224 6.6729 8.07785 6.69413 7.98081 6.73542C7.88378 6.77671 7.79611 6.83723 7.72308 6.91331C7.52777 7.09821 7.33636 7.28701 7.14886 7.47972C7.04113 7.58963 6.96826 7.72892 6.9394 7.8801C6.91054 8.03127 6.92697 8.18761 6.98664 8.32948C7.04631 8.47135 7.14655 8.59244 7.27479 8.67754C7.40303 8.76265 7.55355 8.80798 7.70746 8.80784H7.70355Z" fill="#FF2640"/>
<path d="M11.6325 44.2647C11.4241 44.1215 11.2184 43.9744 11.0153 43.8233C10.933 43.762 10.8394 43.7175 10.7398 43.6924C10.6403 43.6673 10.5368 43.662 10.4352 43.6769C10.3337 43.6918 10.236 43.7265 10.1479 43.7791C10.0598 43.8317 9.98284 43.9012 9.92154 43.9835C9.86024 44.0658 9.81575 44.1594 9.79063 44.2589C9.7655 44.3585 9.76022 44.462 9.77509 44.5635C9.78996 44.6651 9.8247 44.7627 9.8773 44.8509C9.92991 44.939 9.99936 45.0159 10.0817 45.0772C10.2978 45.2387 10.5166 45.3949 10.7379 45.546C10.9084 45.6641 11.1187 45.7097 11.3227 45.6727C11.5268 45.6357 11.7077 45.5191 11.8258 45.3487C11.9439 45.1783 11.9895 44.9679 11.9525 44.7639C11.9155 44.5599 11.799 44.3789 11.6286 44.2608L11.6325 44.2647Z" fill="#FF2640"/>
<path d="M13.2843 4.56924C13.4208 4.57138 13.5555 4.5377 13.6749 4.47158C13.8937 4.34919 14.1163 4.2307 14.3429 4.11611C14.4337 4.06815 14.5142 4.00277 14.5797 3.92371C14.6452 3.84466 14.6945 3.75346 14.7248 3.65535C14.7551 3.55723 14.7658 3.4541 14.7562 3.35186C14.7467 3.24962 14.717 3.15027 14.6691 3.05947C14.6211 2.96868 14.5557 2.88821 14.4767 2.82268C14.3976 2.75715 14.3064 2.70784 14.2083 2.67755C14.1102 2.64726 14.0071 2.6366 13.9048 2.64616C13.8026 2.65573 13.7032 2.68534 13.6124 2.7333C13.3729 2.8557 13.1359 2.9859 12.9015 3.12393C12.749 3.20827 12.629 3.34119 12.5607 3.50155C12.4925 3.66192 12.4798 3.84051 12.5247 4.00892C12.5696 4.17733 12.6695 4.32589 12.8086 4.43096C12.9476 4.53603 13.1179 4.59158 13.2921 4.58877L13.2843 4.56924Z" fill="#FF2640"/>
<path d="M8.4416 41.6046C8.36901 41.532 8.28284 41.4745 8.188 41.4352C8.09316 41.3959 7.99151 41.3757 7.88886 41.3757C7.78621 41.3757 7.68456 41.3959 7.58972 41.4352C7.49489 41.4745 7.40871 41.532 7.33613 41.6046C7.26354 41.6772 7.20596 41.7634 7.16668 41.8582C7.1274 41.9531 7.10718 42.0547 7.10718 42.1574C7.10718 42.26 7.1274 42.3617 7.16668 42.4565C7.20596 42.5513 7.26354 42.6375 7.33613 42.7101C7.52623 42.9002 7.72024 43.0864 7.91816 43.2687C7.99185 43.3437 8.07993 43.4031 8.17712 43.4432C8.27431 43.4834 8.3786 43.5035 8.48375 43.5024C8.58891 43.5013 8.69275 43.479 8.78907 43.4367C8.88538 43.3945 8.97219 43.3333 9.04427 43.2568C9.11636 43.1802 9.17225 43.0899 9.20859 42.9912C9.24494 42.8925 9.26098 42.7875 9.25577 42.6825C9.25056 42.5775 9.2242 42.4746 9.17827 42.38C9.13234 42.2854 9.06778 42.201 8.98847 42.132C8.80097 41.9601 8.61868 41.7843 8.4416 41.6046Z" fill="#FF2640"/>
<path d="M0.935 28.0577C1.03741 28.0484 1.13697 28.019 1.22797 27.9711C1.31898 27.9232 1.39964 27.8579 1.46532 27.7788C1.53101 27.6996 1.58043 27.6083 1.61076 27.5101C1.64108 27.4118 1.65171 27.3086 1.64203 27.2062C1.61859 26.9458 1.59906 26.6945 1.58344 26.4523C1.56893 26.243 1.47189 26.0481 1.31366 25.9103C1.15542 25.7726 0.94896 25.7034 0.739687 25.7179C0.530415 25.7324 0.335476 25.8294 0.197754 25.9877C0.0600315 26.1459 -0.00919165 26.3524 0.00531238 26.5616C0.0339582 26.8221 0.0599999 27.0825 0.0834374 27.3429C0.101957 27.537 0.192374 27.7171 0.336928 27.8479C0.481482 27.9788 0.669727 28.0508 0.864687 28.0499L0.935 28.0577Z" fill="#FF2640"/>
<path d="M10.3398 6.48724C10.5106 6.48697 10.6767 6.43071 10.8125 6.32709C11.013 6.17605 11.2161 6.02761 11.4218 5.88178C11.5055 5.82227 11.5765 5.74688 11.631 5.6599C11.6855 5.57293 11.7223 5.47608 11.7394 5.37488C11.7564 5.27368 11.7533 5.17011 11.7304 5.07008C11.7074 4.97006 11.6649 4.87555 11.6054 4.79193C11.5459 4.70832 11.4705 4.63724 11.3836 4.58276C11.2966 4.52828 11.1997 4.49147 11.0985 4.47442C10.9973 4.45737 10.8938 4.46042 10.7937 4.4834C10.6937 4.50638 10.5992 4.54883 10.5156 4.60834C10.2968 4.76459 10.0807 4.92344 9.86715 5.0849C9.73732 5.18397 9.6418 5.32123 9.59401 5.47739C9.54622 5.63355 9.54857 5.80076 9.60073 5.95552C9.65289 6.11028 9.75224 6.2448 9.88481 6.34017C10.0174 6.43555 10.1765 6.48698 10.3398 6.48724Z" fill="#FF2640"/>
<path d="M1.88424 17.636C1.98117 17.6707 2.084 17.6858 2.1868 17.6806C2.28961 17.6754 2.39038 17.6499 2.4833 17.6056C2.57623 17.5613 2.65949 17.4991 2.72829 17.4226C2.7971 17.346 2.8501 17.2566 2.88424 17.1595C2.96757 16.9173 3.0496 16.6803 3.13033 16.4485C3.20596 16.2553 3.20174 16.04 3.11859 15.8499C3.03544 15.6598 2.88019 15.5105 2.68697 15.4349C2.49376 15.3592 2.27841 15.3635 2.08831 15.4466C1.89821 15.5298 1.74893 15.685 1.6733 15.8782C1.57434 16.1386 1.48059 16.3912 1.39205 16.636C1.35776 16.734 1.34331 16.8377 1.34956 16.9413C1.35581 17.0449 1.38263 17.1462 1.42845 17.2392C1.47426 17.3323 1.53817 17.4154 1.61642 17.4835C1.69468 17.5516 1.78572 17.6035 1.88424 17.636Z" fill="#FF2640"/>
<path d="M45.8024 14.2025C45.9196 14.4238 46.0315 14.6491 46.1383 14.8782C46.2279 15.0652 46.3882 15.209 46.5837 15.2778C46.7793 15.3467 46.9943 15.335 47.1813 15.2454C47.3683 15.1558 47.512 14.9956 47.5809 14.8C47.6497 14.6044 47.6381 14.3895 47.5485 14.2025C47.4313 13.9603 47.3115 13.7207 47.1891 13.4837C47.0933 13.2998 46.9283 13.1615 46.7305 13.0993C46.5327 13.037 46.3183 13.0558 46.1344 13.1517C45.9505 13.2475 45.8122 13.4125 45.75 13.6103C45.6877 13.808 45.7065 14.0225 45.8024 14.2064V14.2025Z" fill="#FF2640"/>
<path d="M0.747545 24.5497H0.786608C0.984045 24.5503 1.17437 24.4761 1.31931 24.342C1.46425 24.2079 1.55305 24.0239 1.56786 23.8271C1.56786 23.5666 1.58478 23.3062 1.61864 23.0458C1.63573 22.8386 1.56982 22.6331 1.43539 22.4745C1.30097 22.3159 1.10904 22.2172 0.901842 22.2001C0.694642 22.183 0.489137 22.2489 0.330537 22.3834C0.171937 22.5178 0.0732332 22.7097 0.0561391 22.9169C0.0353058 23.1773 0.0170766 23.4455 0.00145163 23.7216C-0.00487096 23.8252 0.00950289 23.929 0.043734 24.0269C0.0779652 24.1249 0.131368 24.215 0.200824 24.2921C0.27028 24.3692 0.354398 24.4317 0.448267 24.4759C0.542136 24.5202 0.643876 24.5452 0.747545 24.5497Z" fill="#FF2640"/>
<path d="M48.646 19.6908C48.5452 19.71 48.4491 19.7489 48.3633 19.8053C48.2776 19.8616 48.2037 19.9343 48.146 20.0192C48.0884 20.1041 48.048 20.1995 48.0272 20.3C48.0064 20.4005 48.0056 20.5041 48.0249 20.6049C48.0717 20.8523 48.1147 21.101 48.1538 21.351C48.1829 21.5366 48.2779 21.7054 48.4214 21.8267C48.5648 21.9479 48.7472 22.0134 48.935 22.0111H49.0561C49.1591 21.9942 49.2576 21.9569 49.3459 21.9012C49.4342 21.8456 49.5104 21.7729 49.5701 21.6873C49.6298 21.6018 49.6718 21.5051 49.6936 21.4031C49.7153 21.301 49.7164 21.1956 49.6967 21.0932C49.6551 20.8328 49.6095 20.5723 49.56 20.3119C49.5408 20.2111 49.5019 20.1151 49.4456 20.0293C49.3892 19.9435 49.3166 19.8697 49.2317 19.812C49.1468 19.7543 49.0514 19.7139 48.9509 19.6931C48.8504 19.6724 48.7468 19.6716 48.646 19.6908Z" fill="#FF2640"/>
<path d="M31.8203 1.7453C31.8478 1.64447 31.8548 1.53915 31.8408 1.43558C31.8269 1.33201 31.7923 1.23229 31.7391 1.14233C31.6859 1.05236 31.6152 0.973981 31.5312 0.911824C31.4472 0.849666 31.3516 0.804995 31.25 0.780457V2.29999C31.386 2.26709 31.5107 2.19825 31.611 2.10068C31.7114 2.0031 31.7836 1.88036 31.8203 1.7453Z" fill="#FF2640"/>
<path d="M47.1459 17.3196C47.2292 17.5566 47.3073 17.7962 47.3802 18.0384C47.4414 18.2368 47.5788 18.4028 47.7623 18.4998C47.9458 18.5969 48.1604 18.6171 48.3588 18.556C48.5571 18.4948 48.7231 18.3574 48.8202 18.1739C48.9173 17.9904 48.9375 17.7758 48.8763 17.5774C48.7956 17.317 48.7123 17.0566 48.6263 16.7962C48.5585 16.6004 48.4156 16.4396 48.2292 16.3491C48.0427 16.2586 47.828 16.2459 47.6322 16.3138C47.4364 16.3816 47.2756 16.5245 47.1851 16.7109C47.0946 16.8974 47.0819 17.1121 47.1498 17.3079L47.1459 17.3196Z" fill="#FF2640"/>
<path d="M1.064 21.0539C1.26703 21.0941 1.47774 21.0521 1.64985 20.9372C1.82196 20.8222 1.94141 20.6436 1.98196 20.4406C2.03144 20.1802 2.08483 19.9341 2.14212 19.7023C2.18874 19.5003 2.1532 19.288 2.04331 19.1122C1.93343 18.9364 1.7582 18.8115 1.55618 18.7648C1.35416 18.7182 1.1419 18.7538 0.966081 18.8636C0.790266 18.9735 0.665303 19.1488 0.618683 19.3508C0.558787 19.6112 0.502797 19.8716 0.450714 20.132C0.430222 20.2328 0.429843 20.3367 0.449601 20.4377C0.469358 20.5386 0.508863 20.6347 0.565846 20.7204C0.622829 20.806 0.696168 20.8796 0.781655 20.9368C0.867141 20.9941 0.963091 21.0338 1.064 21.0539Z" fill="#FF2640"/>
<path d="M4.96552 11.3275C5.04831 11.3884 5.14231 11.4324 5.24214 11.457C5.34196 11.4815 5.44565 11.4861 5.54726 11.4705C5.64887 11.4549 5.7464 11.4194 5.83426 11.366C5.92212 11.3127 5.99859 11.2425 6.05927 11.1595C6.20771 10.9564 6.36005 10.7558 6.5163 10.5579C6.63399 10.3941 6.68371 10.191 6.65505 9.99128C6.6264 9.79157 6.52159 9.61069 6.36258 9.4865C6.20357 9.36232 6.00268 9.30447 5.80197 9.32507C5.60127 9.34566 5.41631 9.44311 5.28583 9.59699C5.11917 9.80793 4.95641 10.0228 4.79755 10.2415C4.67693 10.4082 4.62691 10.6157 4.65835 10.819C4.6898 11.0223 4.80018 11.205 4.96552 11.3275Z" fill="#FF2640"/>
<path d="M14.5579 45.9992C14.3313 45.8872 14.1074 45.7714 13.886 45.6516C13.7957 45.6028 13.6967 45.5724 13.5947 45.5619C13.4926 45.5514 13.3895 45.5611 13.2912 45.5905C13.1929 45.6199 13.1013 45.6684 13.0217 45.7331C12.9422 45.7979 12.8761 45.8777 12.8274 45.968C12.7787 46.0583 12.7482 46.1572 12.7377 46.2593C12.7273 46.3614 12.737 46.4645 12.7664 46.5628C12.7957 46.6611 12.8442 46.7526 12.909 46.8322C12.9737 46.9118 13.0535 46.9778 13.1438 47.0266C13.3808 47.1542 13.6204 47.2844 13.8626 47.4172C13.9548 47.4666 14.056 47.4971 14.1601 47.5066C14.2643 47.5162 14.3694 47.5048 14.469 47.473C14.5687 47.4413 14.661 47.3898 14.7404 47.3217C14.8198 47.2536 14.8847 47.1702 14.9313 47.0765C14.9779 46.9828 15.0052 46.8807 15.0116 46.7763C15.018 46.6719 15.0033 46.5672 14.9685 46.4686C14.9336 46.3699 14.8793 46.2793 14.8088 46.202C14.7383 46.1247 14.6529 46.0624 14.5579 46.0187V45.9992Z" fill="#FF2640"/>
<path d="M3.19219 14.3701C3.37358 14.4691 3.58682 14.4922 3.78522 14.4344C3.98363 14.3766 4.15103 14.2425 4.25079 14.0615C4.36798 13.8375 4.49037 13.6162 4.61798 13.3974C4.66927 13.3081 4.70249 13.2097 4.71572 13.1076C4.72896 13.0055 4.72196 12.9018 4.69511 12.8024C4.66827 12.703 4.62212 12.6099 4.55928 12.5283C4.49645 12.4468 4.41817 12.3784 4.32891 12.3271C4.23966 12.2758 4.14117 12.2426 4.03907 12.2293C3.93698 12.2161 3.83328 12.2231 3.73389 12.25C3.6345 12.2768 3.54138 12.323 3.45982 12.3858C3.37827 12.4486 3.3099 12.5269 3.2586 12.6162C3.12579 12.8505 2.99558 13.0862 2.86798 13.3232C2.77384 13.5053 2.75508 13.7172 2.81573 13.913C2.87639 14.1089 3.0116 14.273 3.19219 14.3701Z" fill="#FF2640"/>
<path d="M42.5254 40.5538C42.3587 40.7413 42.1882 40.9275 42.0137 41.1124C41.8712 41.2631 41.7945 41.4643 41.8004 41.6716C41.8062 41.8789 41.8942 42.0754 42.0449 42.2178C42.1957 42.3603 42.3968 42.437 42.6041 42.4312C42.8115 42.4253 43.008 42.3373 43.1504 42.1866C43.3353 41.9913 43.5163 41.7934 43.6934 41.5928C43.8312 41.4374 43.9016 41.2337 43.8891 41.0264C43.8767 40.819 43.7824 40.6252 43.627 40.4874C43.4716 40.3496 43.2678 40.2792 43.0605 40.2916C42.8532 40.3041 42.6593 40.3984 42.5215 40.5538H42.5254Z" fill="#FF2640"/>
<path d="M45.1037 12.2767C45.2456 12.2769 45.3849 12.2385 45.5066 12.1655C45.6283 12.0925 45.7279 11.9877 45.7946 11.8624C45.8612 11.7371 45.8925 11.596 45.885 11.4543C45.8775 11.3126 45.8316 11.1755 45.7521 11.058C45.6011 10.834 45.4474 10.6139 45.2912 10.3978C45.1679 10.2294 44.9828 10.117 44.7766 10.0851C44.5703 10.0532 44.3599 10.1046 44.1916 10.2279C44.0232 10.3512 43.9107 10.5363 43.8789 10.7425C43.847 10.9487 43.8984 11.1591 44.0216 11.3275C44.1675 11.5306 44.3107 11.7376 44.4513 11.9486C44.5251 12.0523 44.6231 12.1364 44.7368 12.1935C44.8505 12.2507 44.9764 12.2793 45.1037 12.2767Z" fill="#FF2640"/>
<path d="M45.6777 37.6319C45.5047 37.5179 45.2935 37.4774 45.0906 37.5191C44.8877 37.5609 44.7096 37.6815 44.5957 37.8545C44.4576 38.0655 44.3157 38.2738 44.1699 38.4795C44.0587 38.6491 44.0178 38.8553 44.0559 39.0545C44.0939 39.2536 44.2079 39.4302 44.3738 39.5469C44.5396 39.6635 44.7444 39.7111 44.9447 39.6796C45.145 39.6481 45.3252 39.5399 45.4472 39.378C45.6009 39.1592 45.7519 38.9366 45.9004 38.71C46.013 38.5373 46.0529 38.327 46.0112 38.1251C45.9695 37.9231 45.8496 37.7458 45.6777 37.6319Z" fill="#FF2640"/>
<path d="M42.3577 9.25709C42.4971 9.41249 42.6924 9.50617 42.9009 9.51752C43.1093 9.52888 43.3137 9.45698 43.4691 9.31763C43.6245 9.17829 43.7181 8.98292 43.7295 8.77451C43.7409 8.5661 43.669 8.36171 43.5296 8.20631C43.3499 8.00839 43.1663 7.81308 42.9788 7.62037C42.8348 7.47118 42.6375 7.38532 42.4301 7.38165C42.2228 7.37799 42.0225 7.45683 41.8734 7.60084C41.7242 7.74484 41.6383 7.94221 41.6346 8.14953C41.631 8.35684 41.7098 8.55712 41.8538 8.70631C42.0205 8.8912 42.1885 9.0748 42.3577 9.25709Z" fill="#FF2640"/>
<path d="M40.0923 42.925C39.8996 43.0864 39.7043 43.2453 39.5063 43.4016C39.4258 43.4652 39.3586 43.544 39.3085 43.6336C39.2585 43.7232 39.2265 43.8218 39.2146 43.9237C39.2026 44.0256 39.2108 44.1289 39.2388 44.2276C39.2667 44.3264 39.3138 44.4187 39.3774 44.4992C39.4411 44.5797 39.5199 44.647 39.6095 44.697C39.6991 44.7471 39.7976 44.779 39.8996 44.791C40.0015 44.803 40.1048 44.7947 40.2035 44.7668C40.3023 44.7388 40.3946 44.6917 40.4751 44.6281C40.686 44.4614 40.8944 44.2922 41.1001 44.1203C41.1786 44.0541 41.2433 43.9731 41.2905 43.882C41.3376 43.7908 41.3664 43.6912 41.3751 43.5889C41.3838 43.4866 41.3723 43.3836 41.3412 43.2858C41.3101 43.188 41.26 43.0972 41.1938 43.0187C41.1277 42.9403 41.0467 42.8756 40.9555 42.8284C40.8643 42.7812 40.7648 42.7524 40.6625 42.7437C40.5602 42.735 40.4572 42.7465 40.3594 42.7776C40.2615 42.8087 40.1708 42.8588 40.0923 42.925Z" fill="#FF2640"/>
<path d="M48.4346 31.1825C48.2362 31.123 48.0223 31.1447 47.8399 31.2429C47.6576 31.341 47.5216 31.5076 47.462 31.706C47.3891 31.9482 47.3135 32.1877 47.2354 32.4247C47.2028 32.5222 47.1898 32.6251 47.197 32.7276C47.2042 32.8301 47.2315 32.9302 47.2774 33.0222C47.3701 33.2079 47.5327 33.3492 47.7296 33.415C47.9264 33.4807 48.1413 33.4656 48.327 33.373C48.5127 33.2803 48.654 33.1177 48.7198 32.9208C48.8057 32.6604 48.8865 32.4 48.962 32.1396C49.0166 31.9428 48.992 31.7324 48.8935 31.5535C48.7949 31.3746 48.6302 31.2415 48.4346 31.1825Z" fill="#FF2640"/>
<path d="M47.2906 34.507C47.1968 34.4639 47.0953 34.4399 46.9922 34.4362C46.889 34.4326 46.7862 34.4494 46.6896 34.4857C46.593 34.522 46.5045 34.5771 46.4293 34.6478C46.3541 34.7185 46.2937 34.8034 46.2515 34.8976C46.1447 35.1268 46.034 35.3534 45.9195 35.5773C45.8257 35.7623 45.8092 35.9769 45.8737 36.1739C45.9382 36.371 46.0783 36.5344 46.2632 36.6281C46.4481 36.7219 46.6627 36.7383 46.8598 36.6739C47.0569 36.6094 47.2202 36.4693 47.314 36.2844C47.4364 36.0448 47.5536 35.8026 47.6656 35.5578C47.711 35.4644 47.7373 35.3628 47.743 35.2591C47.7487 35.1553 47.7336 35.0515 47.6987 34.9537C47.6638 34.8558 47.6097 34.7659 47.5396 34.6892C47.4695 34.6125 47.3849 34.5506 47.2906 34.507Z" fill="#FF2640"/>
<path d="M49.0753 27.7336C48.9738 27.7187 48.8702 27.7239 48.7707 27.749C48.6711 27.7741 48.5775 27.8186 48.4951 27.8799C48.4128 27.9412 48.3433 28.0181 48.2907 28.1063C48.2381 28.1945 48.2034 28.2922 48.1886 28.3937C48.1522 28.6542 48.1118 28.9029 48.0675 29.1398C48.0495 29.2409 48.0516 29.3445 48.0737 29.4448C48.0958 29.545 48.1374 29.6399 48.1961 29.7241C48.2549 29.8083 48.3297 29.88 48.4162 29.9353C48.5027 29.9905 48.5993 30.0282 48.7003 30.0461C48.8017 30.0641 48.9056 30.0618 49.006 30.0395C49.1065 30.0172 49.2016 29.9752 49.2858 29.9161C49.37 29.8569 49.4417 29.7817 49.4967 29.6947C49.5518 29.6078 49.5891 29.5108 49.6066 29.4094C49.6535 29.149 49.6964 28.8885 49.7355 28.6281C49.7516 28.526 49.7472 28.4216 49.7226 28.3212C49.698 28.2207 49.6537 28.1261 49.5923 28.0429C49.5309 27.9597 49.4536 27.8895 49.3648 27.8364C49.2761 27.7833 49.1777 27.7484 49.0753 27.7336Z" fill="#FF2640"/>
<path d="M49.997 24.8588C50.0013 24.812 50.0013 24.765 49.997 24.7182C49.997 24.4578 49.9892 24.1895 49.9736 23.9135C49.9648 23.7063 49.874 23.5111 49.7213 23.3708C49.5686 23.2305 49.3664 23.1566 49.1592 23.1654C48.952 23.1742 48.7567 23.265 48.6165 23.4177C48.4762 23.5705 48.4023 23.7727 48.4111 23.9799C48.4111 24.2403 48.4176 24.4916 48.4306 24.7338C48.4269 24.778 48.4269 24.8224 48.4306 24.8666C48.4269 24.9108 48.4269 24.9552 48.4306 24.9994C48.4306 25.2598 48.4306 25.5124 48.4306 25.7572C48.4243 25.9625 48.499 26.162 48.6386 26.3126C48.7783 26.4632 48.9716 26.5528 49.1767 26.5619H49.2158C49.419 26.562 49.6142 26.4829 49.7601 26.3414C49.906 26.2 49.9909 26.0072 49.997 25.8041C49.997 25.5437 49.997 25.2755 49.997 24.9994C50.0013 24.9526 50.0013 24.9056 49.997 24.8588Z" fill="#FF2640"/>
<path d="M39.3033 6.4365C39.5038 6.59014 39.7004 6.74769 39.8931 6.90915C39.9724 6.97456 40.0637 7.02371 40.162 7.05381C40.2602 7.0839 40.3634 7.09435 40.4657 7.08456C40.568 7.07477 40.6674 7.04492 40.7581 6.99673C40.8489 6.94853 40.9293 6.88294 40.9947 6.80368C41.0601 6.72443 41.1092 6.63307 41.1393 6.53482C41.1694 6.43657 41.1799 6.33335 41.1701 6.23106C41.1603 6.12877 41.1304 6.02941 41.0822 5.93865C41.034 5.8479 40.9684 5.76753 40.8892 5.70212C40.6809 5.53025 40.4712 5.36228 40.2603 5.19821C40.179 5.13538 40.0861 5.08917 39.9869 5.06222C39.8878 5.03528 39.7843 5.02814 39.6823 5.04119C39.5804 5.05425 39.4821 5.08726 39.3929 5.13833C39.3037 5.1894 39.2255 5.25753 39.1626 5.33884C39.0998 5.42015 39.0536 5.51303 39.0266 5.6122C38.9997 5.71136 38.9926 5.81487 39.0056 5.91679C39.0187 6.01872 39.0517 6.11708 39.1027 6.20625C39.1538 6.29542 39.2219 6.37366 39.3033 6.4365Z" fill="#FF2640"/>
<path d="M17.7095 47.2846C17.4699 47.2064 17.2303 47.1244 16.9908 47.0385C16.8936 47.0002 16.7897 46.9818 16.6853 46.9843C16.5808 46.9869 16.478 47.0103 16.3828 47.0533C16.2876 47.0963 16.202 47.1579 16.131 47.2346C16.0601 47.3113 16.0052 47.4014 15.9697 47.4996C15.9341 47.5978 15.9187 47.7022 15.9242 47.8065C15.9297 47.9108 15.956 48.0129 16.0017 48.1069C16.0474 48.2008 16.1114 48.2847 16.1901 48.3534C16.2687 48.4222 16.3603 48.4745 16.4595 48.5072C16.7199 48.5984 16.9803 48.6856 17.2408 48.7689C17.3393 48.8052 17.4442 48.8213 17.5492 48.8161C17.6541 48.8109 17.7569 48.7847 17.8514 48.7389C17.946 48.693 18.0303 48.6286 18.0994 48.5495C18.1684 48.4703 18.2208 48.378 18.2534 48.2782C18.286 48.1783 18.2981 48.0729 18.289 47.9682C18.28 47.8635 18.2499 47.7618 18.2005 47.669C18.1512 47.5763 18.0837 47.4944 18.002 47.4284C17.9203 47.3623 17.8261 47.3134 17.7251 47.2846H17.7095Z" fill="#FF2640"/>
<path d="M16.4673 3.1009C16.5608 3.10047 16.6534 3.08327 16.7408 3.05012C16.9752 2.96158 17.2121 2.87694 17.4517 2.79622C17.5526 2.76663 17.6464 2.717 17.7276 2.6503C17.8088 2.58361 17.8757 2.50121 17.9243 2.40805C17.973 2.31488 18.0023 2.21287 18.0106 2.10811C18.0189 2.00334 18.0059 1.89799 17.9725 1.79834C17.9391 1.6987 17.886 1.60682 17.8163 1.5282C17.7465 1.44957 17.6616 1.38583 17.5667 1.34077C17.4718 1.29571 17.3687 1.27027 17.2637 1.26597C17.1587 1.26167 17.0539 1.2786 16.9556 1.31575C16.6952 1.40168 16.4426 1.49153 16.1978 1.58528C16.0272 1.64998 15.8846 1.77236 15.7948 1.93118C15.705 2.09001 15.6736 2.27526 15.7061 2.45481C15.7386 2.63436 15.8329 2.79688 15.9726 2.91417C16.1124 3.03147 16.2888 3.09615 16.4712 3.097L16.4673 3.1009Z" fill="#FF2640"/>
<path d="M36.468 4.55779C36.6894 4.68279 36.9068 4.813 37.1204 4.94842C37.2081 5.00574 37.3066 5.04481 37.4098 5.06329C37.513 5.08177 37.6188 5.0793 37.7211 5.056C37.8233 5.03271 37.9198 4.98909 38.0048 4.92772C38.0898 4.86635 38.1616 4.7885 38.2159 4.69881C38.2701 4.60912 38.3058 4.50941 38.3208 4.40564C38.3357 4.30187 38.3296 4.19615 38.3028 4.09478C38.2761 3.99341 38.2292 3.89847 38.1649 3.81561C38.1007 3.73275 38.0204 3.66367 37.9289 3.61248C37.6998 3.47446 37.4667 3.34425 37.2297 3.22185C37.1402 3.17056 37.0415 3.13739 36.9391 3.12425C36.8368 3.11112 36.7329 3.11826 36.6333 3.14529C36.5338 3.17231 36.4405 3.21868 36.3588 3.28175C36.2772 3.34482 36.2088 3.42335 36.1575 3.51287C36.1062 3.60238 36.073 3.70112 36.0599 3.80346C36.0467 3.90579 36.0539 4.0097 36.0809 4.10927C36.1079 4.20884 36.1543 4.30211 36.2174 4.38376C36.2804 4.46541 36.359 4.53384 36.4485 4.58513L36.468 4.55779Z" fill="#FF2640"/>
<path d="M34.3315 46.4833C34.1023 46.5823 33.8706 46.6786 33.6362 46.7724C33.5408 46.8103 33.4538 46.8667 33.3802 46.9383C33.3065 47.0099 33.2477 47.0953 33.2071 47.1896C33.1665 47.2839 33.1448 47.3853 33.1434 47.4879C33.1419 47.5906 33.1607 47.6926 33.1987 47.788C33.2367 47.8834 33.293 47.9704 33.3646 48.044C33.4362 48.1177 33.5216 48.1765 33.6159 48.2171C33.7102 48.2577 33.8116 48.2794 33.9143 48.2808C34.017 48.2823 34.1189 48.2635 34.2143 48.2255C34.4747 48.1265 34.7221 48.0237 34.9565 47.9169C35.0506 47.8759 35.1358 47.8167 35.207 47.7428C35.2783 47.6688 35.3343 47.5816 35.3718 47.486C35.4094 47.3904 35.4277 47.2884 35.4258 47.1857C35.4239 47.083 35.4018 46.9817 35.3608 46.8876C35.3198 46.7935 35.2606 46.7083 35.1867 46.6371C35.1127 46.5658 35.0255 46.5098 34.9299 46.4723C34.8343 46.4347 34.7323 46.4164 34.6296 46.4183C34.5269 46.4202 34.4256 46.4423 34.3315 46.4833Z" fill="#FF2640"/>
<path d="M37.3428 44.9209C37.1293 45.0537 36.9132 45.1839 36.6944 45.3115C36.5244 45.4196 36.4026 45.5892 36.3547 45.785C36.3068 45.9807 36.3363 46.1873 36.4371 46.3618C36.538 46.5363 36.7023 46.665 36.8959 46.7211C37.0894 46.7773 37.2971 46.7565 37.4757 46.6631C37.7074 46.5277 37.9379 46.3896 38.1671 46.249C38.3432 46.1397 38.4687 45.9649 38.5159 45.7631C38.5632 45.5613 38.5283 45.349 38.419 45.1728C38.3097 44.9967 38.1349 44.8712 37.9331 44.824C37.7313 44.7767 37.519 44.8116 37.3428 44.9209Z" fill="#FF2640"/>
<path d="M33.3903 3.12413C33.6273 3.21527 33.8617 3.30902 34.0934 3.40538C34.1888 3.44513 34.2911 3.46571 34.3945 3.46592C34.4979 3.46614 34.6003 3.44599 34.6959 3.40664C34.7914 3.36728 34.8783 3.30949 34.9516 3.23655C35.0248 3.16361 35.083 3.07696 35.1227 2.98155C35.1625 2.88614 35.1831 2.78383 35.1833 2.68046C35.1835 2.5771 35.1633 2.4747 35.124 2.37912C35.0846 2.28354 35.0268 2.19665 34.9539 2.12341C34.881 2.05017 34.7943 1.99201 34.6989 1.95225C34.4385 1.84809 34.1885 1.74783 33.9489 1.65147C33.8522 1.61479 33.7492 1.59752 33.6459 1.60064C33.5425 1.60376 33.4407 1.6272 33.3464 1.66964C33.2521 1.71208 33.1671 1.77268 33.0962 1.84798C33.0253 1.92328 32.9699 2.01181 32.9333 2.1085C32.8966 2.2052 32.8793 2.30817 32.8824 2.41154C32.8856 2.51491 32.909 2.61666 32.9514 2.71097C32.9939 2.80528 33.0545 2.89031 33.1298 2.9612C33.2051 3.03209 33.2936 3.08745 33.3903 3.12413Z" fill="#FF2640"/>
<path d="M25.0012 10.1555C25.2084 10.1555 25.4071 10.0731 25.5536 9.92663C25.7002 9.78012 25.7825 9.58141 25.7825 9.37421V0.780457C25.7825 0.573256 25.7002 0.374542 25.5536 0.228029C25.4071 0.0815166 25.2084 -0.000793457 25.0012 -0.000793457C24.794 -0.000793457 24.5953 0.0815166 24.4488 0.228029C24.3023 0.374542 24.22 0.573256 24.22 0.780457V9.37421C24.22 9.58141 24.3023 9.78012 24.4488 9.92663C24.5953 10.0731 24.794 10.1555 25.0012 10.1555Z" fill="#FF2640"/>
<path d="M21.0957 5.46796C21.3029 5.46796 21.5016 5.38565 21.6481 5.23913C21.7946 5.09262 21.877 4.89391 21.877 4.68671V0.780457C21.877 0.573256 21.7946 0.374542 21.6481 0.228029C21.5016 0.0815166 21.3029 -0.000793457 21.0957 -0.000793457C20.8885 -0.000793457 20.6898 0.0815166 20.5433 0.228029C20.3968 0.374542 20.3145 0.573256 20.3145 0.780457V4.68671C20.3145 4.89391 20.3968 5.09262 20.5433 5.23913C20.6898 5.38565 20.8885 5.46796 21.0957 5.46796Z" fill="#FF2640"/>
<path d="M28.907 5.46796C29.1142 5.46796 29.3129 5.38565 29.4594 5.23913C29.6059 5.09262 29.6882 4.89391 29.6882 4.68671V0.780457C29.6882 0.573256 29.6059 0.374542 29.4594 0.228029C29.3129 0.0815166 29.1142 -0.000793457 28.907 -0.000793457C28.6998 -0.000793457 28.5011 0.0815166 28.3546 0.228029C28.208 0.374542 28.1257 0.573256 28.1257 0.780457V4.68671C28.1257 4.89391 28.208 5.09262 28.3546 5.23913C28.5011 5.38565 28.6998 5.46796 28.907 5.46796Z" fill="#FF2640"/>
<path d="M31.25 47.6047V49.218L31.5469 49.1437C31.7339 49.0892 31.8938 48.9668 31.9952 48.8004C32.0966 48.6341 32.1322 48.4359 32.0951 48.2447C32.0579 48.0534 31.9506 47.883 31.7943 47.7668C31.638 47.6505 31.4438 47.5969 31.25 47.6164V47.6047Z" fill="#FF2640"/>
<path d="M25.0012 39.843C24.794 39.843 24.5953 39.9253 24.4488 40.0718C24.3023 40.2183 24.22 40.417 24.22 40.6242V49.218C24.22 49.4252 24.3023 49.6239 24.4488 49.7704C24.5953 49.9169 24.794 49.9992 25.0012 49.9992C25.2084 49.9992 25.4071 49.9169 25.5536 49.7704C25.7002 49.6239 25.7825 49.4252 25.7825 49.218V40.6242C25.7825 40.417 25.7002 40.2183 25.5536 40.0718C25.4071 39.9253 25.2084 39.843 25.0012 39.843Z" fill="#FF2640"/>
<path d="M21.0957 44.5305C20.8885 44.5305 20.6898 44.6128 20.5433 44.7593C20.3968 44.9058 20.3145 45.1045 20.3145 45.3117V49.218C20.3145 49.4252 20.3968 49.6239 20.5433 49.7704C20.6898 49.9169 20.8885 49.9992 21.0957 49.9992C21.3029 49.9992 21.5016 49.9169 21.6481 49.7704C21.7946 49.6239 21.877 49.4252 21.877 49.218V45.3117C21.877 45.1045 21.7946 44.9058 21.6481 44.7593C21.5016 44.6128 21.3029 44.5305 21.0957 44.5305Z" fill="#FF2640"/>
<path d="M28.907 44.5305C28.6998 44.5305 28.5011 44.6128 28.3546 44.7593C28.208 44.9058 28.1257 45.1045 28.1257 45.3117V49.218C28.1257 49.4252 28.208 49.6239 28.3546 49.7704C28.5011 49.9169 28.6998 49.9992 28.907 49.9992C29.1142 49.9992 29.3129 49.9169 29.4594 49.7704C29.6059 49.6239 29.6882 49.4252 29.6882 49.218V45.3117C29.6882 45.1045 29.6059 44.9058 29.4594 44.7593C29.3129 44.6128 29.1142 44.5305 28.907 44.5305Z" fill="#FF2640"/>
<path d="M38.6631 28.1242C39.0946 28.1242 39.4443 27.7744 39.4443 27.343C39.4443 26.9115 39.0946 26.5617 38.6631 26.5617C38.2316 26.5617 37.8818 26.9115 37.8818 27.343C37.8818 27.7744 38.2316 28.1242 38.6631 28.1242Z" fill="#FF2640"/>
<path d="M34.4175 33.9016C34.2896 33.8057 34.1718 33.6971 34.066 33.5773L33.3161 32.7258C33.2659 32.8451 33.1898 32.9518 33.0935 33.0383C33.0317 33.1061 32.9571 33.1611 32.874 33.2C32.7909 33.2389 32.7009 33.2609 32.6092 33.2648C32.28 33.2223 31.9698 33.0868 31.7149 32.8742L28.0553 28.968C27.9139 28.8162 27.718 28.7268 27.5108 28.7195C27.3035 28.7121 27.1018 28.7875 26.95 28.9289C26.7983 29.0703 26.7089 29.2662 26.7016 29.4735C26.6943 29.6809 26.7696 29.8826 26.911 30.0344L29.8831 33.2219C30.0236 33.3303 30.1334 33.4733 30.2019 33.637C30.2703 33.8007 30.2951 33.9793 30.2737 34.1555C30.2538 34.3859 30.1528 34.6019 29.9886 34.7648C29.808 34.9178 29.576 34.9964 29.3396 34.9848C29.1033 34.9732 28.8801 34.8722 28.7154 34.7023L28.1764 34.1086C28.1443 34.0447 28.1035 33.9856 28.0553 33.9328L24.4348 30.0773C24.2929 29.9261 24.0968 29.8374 23.8895 29.8308C23.6822 29.8242 23.4808 29.9002 23.3295 30.0422C23.1783 30.1841 23.0897 30.3803 23.0831 30.5876C23.0765 30.7949 23.1525 30.9964 23.2944 31.1476L26.6884 34.7648C26.7217 34.9143 26.7151 35.0699 26.6691 35.216C26.6232 35.362 26.5396 35.4934 26.4267 35.5969C26.2475 35.7513 26.0164 35.832 25.7801 35.8226C25.5437 35.8131 25.3198 35.7143 25.1535 35.5461L20.5175 30.8586C20.3704 30.7125 20.1714 30.6309 19.9641 30.6316C19.7568 30.6323 19.5583 30.7154 19.4122 30.8625C19.2662 31.0096 19.1845 31.2087 19.1853 31.416C19.186 31.6233 19.2691 31.8219 19.4161 31.968L23.0483 35.5734L23.0952 35.6086C23.1407 35.7647 23.1411 35.9305 23.0961 36.0868C23.0512 36.243 22.9628 36.3833 22.8414 36.4914C22.7136 36.6289 22.5368 36.7104 22.3492 36.718C22.0258 36.6757 21.7218 36.5399 21.4744 36.3273L13.1516 29.8234C13.0147 29.7154 12.8456 29.6562 12.6712 29.6555H11.8901V29.007C11.8901 28.7998 11.8078 28.6011 11.6613 28.4546C11.5148 28.3081 11.3161 28.2258 11.109 28.2258C10.9018 28.2258 10.7031 28.3081 10.5566 28.4546C10.4101 28.6011 10.3278 28.7998 10.3278 29.007V30.9328C10.3278 31.1281 10.2107 31.2492 10.1326 31.2492H8.17976C8.10165 31.2492 7.98448 31.1242 7.98448 30.9328V18.2844C7.98448 18.0891 8.10165 17.968 8.17976 17.968H10.1326C10.2107 17.968 10.3278 18.093 10.3278 18.2844V22.6555C10.3278 22.8627 10.4101 23.0614 10.5566 23.2079C10.7031 23.3544 10.9018 23.4367 11.109 23.4367C11.3161 23.4367 11.5148 23.3544 11.6613 23.2079C11.8078 23.0614 11.8901 22.8627 11.8901 22.6555V19.5305H14.8466C15.1055 18.9043 15.5344 18.3631 16.0847 17.968H11.8627C11.8072 17.5443 11.6025 17.1543 11.2854 16.8679C10.9683 16.5816 10.5596 16.4176 10.1326 16.4055H8.17976C7.69802 16.4228 7.24272 16.6301 6.91339 16.9822C6.58406 17.3343 6.40748 17.8025 6.42224 18.2844V30.9328C6.4075 31.4154 6.58461 31.8841 6.91478 32.2363C7.24494 32.5885 7.70124 32.7954 8.18367 32.8117H10.1365C10.5677 32.7986 10.9797 32.6308 11.2974 32.3389C11.6151 32.047 11.8171 31.6505 11.8666 31.2219H12.4017L20.5175 37.5851C21.0346 38.005 21.6723 38.2486 22.3375 38.2805C22.9098 38.2739 23.4583 38.0505 23.8724 37.6555C24.0981 37.4538 24.2836 37.2112 24.4192 36.9406C24.8754 37.2568 25.4248 37.4103 25.9788 37.3762C26.5328 37.3422 27.0592 37.1227 27.4734 36.7531C27.6776 36.5698 27.8493 36.3532 27.9811 36.1125C28.4357 36.4293 28.9835 36.5842 29.5366 36.5523C30.0898 36.5204 30.6162 36.3036 31.0314 35.9367C31.4049 35.6047 31.6668 35.1654 31.7812 34.6789C32.0475 34.7779 32.3291 34.8294 32.6131 34.8312C33.1816 34.8229 33.7258 34.5996 34.1363 34.2062C34.2385 34.1128 34.3325 34.0108 34.4175 33.9016Z" fill="#FF2640"/>
</svg>
