<svg width="54" height="50" viewBox="0 0 54 50" fill="none" xmlns="http://www.w3.org/2000/svg">
<path d="M53.8369 33.7886C52.3518 31.9598 51.1848 30.7733 48.5995 30.9429C46.2237 31.098 42.6497 32.4198 35.8511 35.657C32.1371 37.4266 30.4882 36.5554 28.5798 35.5507C27.659 35.0138 26.6645 34.6145 25.6282 34.3653C27.4785 33.7503 29.3166 33.9542 30.9115 34.133C31.7252 34.2667 32.5529 34.2942 33.3737 34.2149C35.3413 33.8845 36.1605 32.8211 36.5025 31.983C36.7169 31.4418 36.8132 30.8609 36.7849 30.2793C36.7565 29.6977 36.6042 29.129 36.3382 28.6111C35.768 27.8259 35.0348 27.8236 34.107 27.8207C31.7977 27.8119 29.5038 27.4456 27.3066 26.7346C20.6671 24.8239 14.1634 27.6697 10.6631 31.3355C10.1846 31.7463 9.61298 32.0338 8.99796 32.173L8.99273 32.1613C8.81768 31.7591 8.49029 31.4427 8.08236 31.2816C7.67444 31.1204 7.21928 31.1277 6.81671 31.3018L5.47441 31.8826C5.22729 31.5893 4.89279 31.3829 4.5199 31.2937C4.14701 31.2044 3.75535 31.237 3.40231 31.3866L1.0765 32.3803C0.65581 32.5695 0.322361 32.911 0.14323 33.3362C-0.0359003 33.7614 -0.0474205 34.2387 0.110987 34.672L4.82648 48.8508C4.89923 49.0694 5.0171 49.2703 5.17242 49.4403C5.32775 49.6104 5.51707 49.746 5.72812 49.8382C5.95834 49.9416 6.20745 49.9963 6.45982 49.9989C6.71219 50.0015 6.96237 49.9519 7.19467 49.8532L10.6439 48.3827C10.9332 48.2589 11.1848 48.0609 11.3732 47.8088C11.5616 47.5566 11.6801 47.2592 11.7168 46.9465L13.303 46.2571C13.6566 46.1032 13.9454 45.8307 14.1196 45.4865C14.2939 45.1424 14.3426 44.7482 14.2575 44.372C16.2647 44.603 18.2437 45.0347 20.1649 45.6607C22.8779 46.4354 25.818 47.2746 28.8957 47.2746C30.8096 47.2886 32.7075 46.9259 34.4815 46.2072C34.5439 46.1807 34.6025 46.146 34.6556 46.1038C45.6426 37.444 53.4044 34.9792 53.481 34.9531C53.5961 34.9177 53.7007 34.8546 53.7856 34.7693C53.8706 34.684 53.9333 34.5791 53.9683 34.4639C54.0033 34.3487 54.0094 34.2267 53.9862 34.1085C53.963 33.9904 53.9111 33.8797 53.8352 33.7863L53.8369 33.7886ZM10.2352 46.853C10.2198 46.8917 10.197 46.927 10.168 46.9569C10.139 46.9868 10.1045 47.0107 10.0662 47.0272L6.61699 48.4977C6.5717 48.5169 6.52304 48.5267 6.47388 48.5267C6.42472 48.5267 6.37606 48.5169 6.33076 48.4977C6.30584 48.4884 6.28317 48.4739 6.26425 48.4552C6.24534 48.4365 6.23061 48.414 6.22104 48.3891L1.50671 34.2074C1.46782 34.1243 1.46127 34.0298 1.48832 33.9421C1.51537 33.8545 1.57409 33.7801 1.65301 33.7335L3.97883 32.7421C4.01715 32.7256 4.05844 32.7171 4.10017 32.7171C4.1417 32.7173 4.18284 32.7252 4.22151 32.7404C4.29968 32.7717 4.3623 32.8326 4.39568 32.9099L10.234 46.6102C10.2502 46.6486 10.2587 46.6898 10.259 46.7315C10.2593 46.7731 10.2514 46.8144 10.2358 46.853H10.2352ZM12.813 44.8058C12.795 44.851 12.7603 44.8874 12.716 44.9074L11.3586 45.4992L6.12117 33.2067L7.40194 32.6515C7.42411 32.6423 7.44789 32.6375 7.4719 32.6375C7.49591 32.6375 7.51969 32.6423 7.54186 32.6515C7.58711 32.6693 7.62358 32.7041 7.64346 32.7485L12.8106 44.6676C12.8297 44.7115 12.8302 44.7611 12.813 44.8058ZM33.83 44.883C29.2289 46.7183 24.8258 45.4638 20.5672 44.2442C18.1386 43.5508 15.8343 42.8933 13.638 42.8718L9.58725 33.5319C10.3882 33.3244 11.124 32.9183 11.7267 32.3512C14.9199 29.006 20.8511 26.4083 26.9002 28.1482C29.2283 28.8988 31.6586 29.2842 34.1047 29.2906C34.9813 29.2935 35.0382 29.322 35.1381 29.4567C35.3854 30.1337 35.3684 30.879 35.0905 31.544C34.8892 31.8923 34.6053 32.1857 34.2639 32.3984C33.9225 32.6111 33.5341 32.7365 33.1328 32.7636C32.4458 32.8133 31.7554 32.7819 31.0758 32.6701C28.4689 32.3797 24.5291 31.9436 21.1478 35.6587C21.0225 35.797 20.9543 35.9777 20.9572 36.1643C20.96 36.3509 21.0337 36.5295 21.1632 36.6638C21.2927 36.7982 21.4684 36.8783 21.6547 36.8879C21.841 36.8975 22.0241 36.836 22.1667 36.7157L23.2983 35.758C25.2885 35.4787 26.5565 36.1471 27.8965 36.8528C29.8705 37.8923 32.1063 39.0707 36.485 36.9858C48.2285 31.3947 50.0353 31.6514 52.0284 33.9129C49.5476 34.8584 42.8064 37.8221 33.83 44.883ZM8.08877 45.2089C8.16169 45.3877 8.16136 45.5881 8.08786 45.7668C8.01436 45.9454 7.87359 46.088 7.69592 46.1637C7.51825 46.2394 7.31795 46.2422 7.13825 46.1714C6.95855 46.1007 6.81386 45.9621 6.73543 45.7856L6.24136 44.624C6.17063 44.4457 6.17236 44.2467 6.24617 44.0696C6.31999 43.8925 6.46005 43.7512 6.63649 43.6759C6.81293 43.6006 7.0118 43.5972 7.19069 43.6665C7.36958 43.7358 7.51434 43.8722 7.59411 44.0467L8.08877 45.2089ZM34.478 26.5471C37.1025 26.5471 39.6681 25.7686 41.8503 24.31C44.0325 22.8514 45.7333 20.7783 46.7377 18.3528C47.742 15.9273 48.0048 13.2583 47.4928 10.6834C46.9808 8.10851 45.7169 5.7433 43.8611 3.8869C42.0053 2.03049 39.6409 0.766267 37.0668 0.254086C34.4927 -0.258095 31.8246 0.00477482 29.3998 1.00945C26.9751 2.01413 24.9027 3.7155 23.4445 5.8984C21.9864 8.0813 21.2082 10.6477 21.2082 13.273C21.2123 16.7923 22.6117 20.1661 25.0994 22.6546C27.5871 25.1431 30.9599 26.5429 34.478 26.5471ZM34.478 1.47011C36.8116 1.47011 39.0929 2.16234 41.0332 3.45927C42.9736 4.75619 44.4859 6.59955 45.379 8.75626C46.272 10.913 46.5057 13.2861 46.0504 15.5757C45.5952 17.8652 44.4714 19.9683 42.8213 21.619C41.1711 23.2696 39.0687 24.3938 36.7799 24.8492C34.4911 25.3046 32.1186 25.0709 29.9626 24.1775C27.8066 23.2842 25.9638 21.7714 24.6673 19.8304C23.3708 17.8894 22.6788 15.6074 22.6788 13.273C22.6823 10.1438 23.9266 7.14373 26.1386 4.93102C28.3506 2.7183 31.3497 1.47365 34.478 1.47011ZM34.478 22.7297C36.3514 22.7464 38.1875 22.2059 39.7532 21.1769C41.319 20.1479 42.5439 18.6768 43.2724 16.9502C44.0008 15.2236 44.2001 13.3195 43.8448 11.4794C43.4895 9.63935 42.5958 7.94638 41.2769 6.61535C39.9581 5.28432 38.2736 4.37525 36.4374 4.00353C34.6012 3.63181 32.6959 3.81419 30.9635 4.52754C29.2311 5.24088 27.7496 6.45301 26.707 8.01009C25.6645 9.56717 25.1079 11.399 25.108 13.273C25.0998 15.7691 26.0817 18.1666 27.8383 19.9394C29.5949 21.7122 31.9827 22.7157 34.478 22.7297ZM34.478 5.2875C36.0605 5.2708 37.6122 5.72497 38.9362 6.59231C40.2601 7.45965 41.2965 8.70104 41.9137 10.1588C42.5308 11.6166 42.701 13.2249 42.4024 14.7796C42.1039 16.3343 41.3502 17.7651 40.237 18.8904C39.1239 20.0157 37.7015 20.7847 36.1505 21.0997C34.5996 21.4146 32.99 21.2614 31.5263 20.6594C30.0626 20.0574 28.8108 19.0338 27.9298 17.7187C27.0489 16.4035 26.5785 14.8561 26.5786 13.273C26.5699 11.167 27.3967 9.14345 28.8776 7.6464C30.3585 6.14935 32.3726 5.30101 34.478 5.2875ZM31.3504 16.1043V15.1797C31.3476 15.0814 31.3646 14.9835 31.4003 14.8918C31.436 14.8002 31.4897 14.7166 31.5583 14.6461C31.6268 14.5756 31.7088 14.5195 31.7994 14.4812C31.89 14.4429 31.9873 14.4232 32.0857 14.4232C32.184 14.4232 32.2814 14.4429 32.372 14.4812C32.4625 14.5195 32.5445 14.5756 32.6131 14.6461C32.6816 14.7166 32.7354 14.8002 32.7711 14.8918C32.8068 14.9835 32.8238 15.0814 32.821 15.1797V16.1043C32.821 16.2483 33.4271 16.7019 34.478 16.7019C35.5288 16.7019 36.1355 16.2483 36.1355 16.1043V14.6059C36.1355 14.5112 36.1355 14.4218 35.8406 14.2993C35.3667 14.1452 34.8768 14.0455 34.3804 14.0019C33.7565 13.9462 33.1419 13.8127 32.551 13.6047C32.1994 13.4917 31.8932 13.2691 31.6771 12.9695C31.4611 12.6699 31.3466 12.309 31.3504 11.9396V10.4418C31.3504 9.43069 32.3374 8.63388 33.743 8.42654V7.68665C33.7402 7.58831 33.7572 7.49043 33.7929 7.39877C33.8286 7.30711 33.8823 7.22355 33.9509 7.15302C34.0194 7.08249 34.1014 7.02643 34.192 6.98815C34.2826 6.94987 34.3799 6.93014 34.4783 6.93014C34.5766 6.93014 34.6739 6.94987 34.7645 6.98815C34.8551 7.02643 34.9371 7.08249 35.0057 7.15302C35.0742 7.22355 35.1279 7.30711 35.1636 7.39877C35.1994 7.49043 35.2163 7.58831 35.2136 7.68665V8.42654C36.618 8.63388 37.6062 9.43069 37.6062 10.4418V11.3658C37.6089 11.4641 37.5919 11.562 37.5562 11.6537C37.5205 11.7453 37.4668 11.8289 37.3982 11.8994C37.3297 11.97 37.2477 12.026 37.1571 12.0643C37.0665 12.1026 36.9692 12.1223 36.8708 12.1223C36.7725 12.1223 36.6752 12.1026 36.5846 12.0643C36.494 12.026 36.412 11.97 36.3434 11.8994C36.2749 11.8289 36.2212 11.7453 36.1855 11.6537C36.1497 11.562 36.1328 11.4641 36.1355 11.3658V10.4418C36.1355 10.2978 35.5294 9.84419 34.478 9.84419C33.4265 9.84419 32.821 10.2978 32.821 10.4418V11.9396C32.821 12.0343 32.821 12.1237 33.1159 12.2462C33.5898 12.4003 34.0797 12.5 34.5761 12.5436C35.2 12.5993 35.8146 12.7328 36.4055 12.9408C36.7571 13.0538 37.0634 13.2764 37.2794 13.576C37.4955 13.8756 37.61 14.2365 37.6062 14.6059V16.1043C37.6062 17.1148 36.6192 17.9116 35.2136 18.1195V18.8589C35.2163 18.9572 35.1994 19.0551 35.1636 19.1467C35.1279 19.2384 35.0742 19.322 35.0057 19.3925C34.9371 19.463 34.8551 19.5191 34.7645 19.5574C34.6739 19.5956 34.5766 19.6154 34.4783 19.6154C34.3799 19.6154 34.2826 19.5956 34.192 19.5574C34.1014 19.5191 34.0194 19.463 33.9509 19.3925C33.8823 19.322 33.8286 19.2384 33.7929 19.1467C33.7572 19.0551 33.7402 18.9572 33.743 18.8589V18.1195C32.3379 17.9128 31.3504 17.1148 31.3504 16.1043Z" fill="#FF2640"/>
</svg>
