<svg width="33" height="32" viewBox="0 0 33 32" fill="none" xmlns="http://www.w3.org/2000/svg">
<path d="M22.4024 14.081L16.0924 25.0565H28.7105L22.4024 14.081ZM14.9408 25.2801L22.0153 12.9737C22.1877 12.6708 22.6146 12.6728 22.785 12.9685L29.8484 25.2525C30.0553 25.5849 29.8092 25.9494 29.4802 25.9494H15.324C14.9872 25.9488 14.7672 25.579 14.9408 25.2801ZM22.8463 9.89764L32.5797 26.8293C32.7521 27.1269 32.5334 27.4967 32.1965 27.4967V27.4986H22.8463V30.0411C22.8463 31.1208 21.9709 32 20.8957 32H1.95255C0.877375 32 0 31.1208 0 30.0411V5.01602C0 4.98783 0.00391685 4.95833 0.00913932 4.93079C0.0110977 4.91965 0.0130562 4.91047 0.0163202 4.89932C0.0182786 4.89015 0.0221955 4.879 0.0254595 4.86982L0.0633224 4.78918L0.131867 4.70002L4.67803 0.133743C4.75963 0.0498259 4.87256 0 4.9966 0H20.8957C21.9709 0 22.8463 0.879164 22.8463 1.95894V9.89764ZM21.9579 27.4986H12.6077C12.2767 27.4986 12.0319 27.1341 12.2395 26.8017L21.9579 9.89633V1.95894C21.9579 1.37152 21.4807 0.892276 20.8957 0.892276H5.44051V3.50354C5.44051 4.58332 4.56509 5.46249 3.48991 5.46249H0.890431V30.0417C0.890431 30.6291 1.36763 31.1084 1.95255 31.1084H20.8957C21.4807 31.1084 21.9579 30.6291 21.9579 30.0417V27.4986ZM31.4288 26.605L22.4024 10.9033L13.376 26.605H31.4288ZM4.51743 25.0755C4.36925 24.8788 4.41037 24.5976 4.60622 24.4514C4.80402 24.3045 5.08211 24.3439 5.22769 24.5425L5.82566 25.3456L8.16076 22.1994C8.30699 22.0027 8.58639 21.9614 8.78223 22.1083C8.97807 22.2571 9.0192 22.5357 8.87297 22.7324L6.18601 26.3507C6.01237 26.5906 5.65136 26.6037 5.46792 26.3579L4.51743 25.0755ZM7.90943 24.8579C7.83174 24.6258 7.95578 24.3727 8.18883 24.2947C8.41992 24.2167 8.67191 24.3432 8.74959 24.5753C9.41741 26.5768 7.92052 28.5856 5.85896 28.5856C4.1734 28.5856 2.80773 27.2121 2.80773 25.5213C2.80773 23.6181 4.51417 22.1745 6.39034 22.5016C6.56072 22.5311 6.73111 22.5777 6.89562 22.6393C7.12475 22.7245 7.2416 22.9815 7.15674 23.2116C7.06991 23.4424 6.81597 23.5591 6.58684 23.4739C5.8224 23.1861 4.91042 23.4031 4.33138 23.9846C3.486 24.8336 3.486 26.2091 4.33138 27.0568C5.18265 27.9117 6.55354 27.9005 7.39762 27.0568C7.99103 26.4634 8.16272 25.6184 7.90943 24.8579ZM10.174 19.2308C9.92791 19.2308 9.73011 19.0302 9.73011 18.783C9.73011 18.5378 9.92791 18.3372 10.174 18.3372H14.1659C14.4101 18.3372 14.6099 18.5378 14.6099 18.783C14.6099 19.0302 14.4101 19.2308 14.1659 19.2308H10.174ZM10.174 16.6294C9.92791 16.6294 9.73011 16.4288 9.73011 16.1836C9.73011 15.9364 9.92791 15.7378 10.174 15.7378H16.1531C16.3992 15.7378 16.597 15.9364 16.597 16.1836C16.597 16.4288 16.3992 16.6294 16.1531 16.6294H10.174ZM4.51743 17.2555C4.36925 17.0588 4.41037 16.7795 4.60622 16.6313C4.80402 16.4845 5.08211 16.5251 5.22769 16.7225L5.82566 17.5256L8.16076 14.3813C8.30699 14.1827 8.58639 14.1433 8.78223 14.2902C8.97807 14.437 9.0192 14.7176 8.87297 14.9143L6.18601 18.5306C6.01237 18.7725 5.65136 18.783 5.46792 18.5378L4.51743 17.2555ZM7.90943 17.0398C7.83174 16.8057 7.95578 16.5527 8.18883 16.4747C8.41992 16.3966 8.67191 16.5232 8.74959 16.7572C9.41741 18.7568 7.92052 20.7656 5.85896 20.7656C4.1734 20.7656 2.80773 19.3941 2.80773 17.7013C2.80773 15.7981 4.51417 14.3564 6.39034 14.6835C6.56072 14.7131 6.73111 14.7576 6.89562 14.8212C7.12475 14.9065 7.2416 15.1635 7.15674 15.3916C7.06991 15.6217 6.81597 15.7391 6.58684 15.6538C5.8224 15.3673 4.91042 15.583 4.33138 16.1665C3.486 17.0142 3.486 18.389 4.33138 19.2367C5.18265 20.0936 6.55354 20.0805 7.39762 19.2367C7.99103 18.6434 8.16272 17.7983 7.90943 17.0398ZM4.51743 9.33645C4.36925 9.13977 4.41037 8.86048 4.60622 8.71362C4.80402 8.5648 5.08211 8.60611 5.22769 8.80279L5.82566 9.60721L8.16076 6.46097C8.30699 6.26429 8.58639 6.22299 8.78223 6.36984C8.97807 6.5167 9.0192 6.7973 8.87297 6.99398L6.18601 10.6123C6.01237 10.8522 5.65136 10.8647 5.46792 10.6195L4.51743 9.33645ZM7.90943 9.12141C7.83174 8.88736 7.95578 8.63626 8.18883 8.55825C8.41992 8.48023 8.67191 8.6048 8.74959 8.83885C9.41741 10.8384 7.92052 12.8472 5.85896 12.8472C4.1734 12.8472 2.80773 11.4757 2.80773 9.78291C2.80773 7.8797 4.51417 6.43803 6.39034 6.76517C6.56072 6.79467 6.73111 6.83925 6.89562 6.90285C7.12475 6.98808 7.2416 7.24507 7.15674 7.47519C7.06991 7.704 6.81597 7.82069 6.58684 7.73547C5.8224 7.44897 4.91042 7.66663 4.33138 8.24815C3.486 9.09584 3.486 10.4706 4.33138 11.3203C5.18265 12.1752 6.55354 12.1621 7.39762 11.3183C7.99103 10.727 8.16272 9.87929 7.90943 9.12141ZM10.174 27.0489C9.92791 27.0489 9.73011 26.8502 9.73011 26.6031C9.73011 26.3559 9.92791 26.1573 10.174 26.1573H11.0272C11.2733 26.1573 11.4711 26.3559 11.4711 26.6031C11.4711 26.8502 11.2733 27.0489 11.0272 27.0489H10.174ZM10.174 24.4494C9.92791 24.4494 9.73011 24.2488 9.73011 24.0016C9.73011 23.7564 9.92791 23.5558 10.174 23.5558H10.7811C11.0272 23.5558 11.225 23.7564 11.225 24.0016C11.225 24.2488 11.0272 24.4494 10.7811 24.4494H10.174ZM10.174 8.71035C9.92791 8.71035 9.73011 8.5117 9.73011 8.26454C9.73011 8.01737 9.92791 7.81873 10.174 7.81873H18.5789C18.825 7.81873 19.0248 8.01737 19.0248 8.26454C19.0248 8.5117 18.825 8.71035 18.5789 8.71035H10.174ZM10.174 11.3124C9.92791 11.3124 9.73011 11.1118 9.73011 10.8666C9.73011 10.6195 9.92791 10.4188 10.174 10.4188H14.0785C14.3246 10.4188 14.5224 10.6195 14.5224 10.8666C14.5224 11.1118 14.3246 11.3124 14.0785 11.3124H10.174ZM1.51974 4.57021H3.49057C4.07352 4.57021 4.55269 4.09097 4.55269 3.50354V1.52428L1.51974 4.57021ZM22.8463 23.5663C22.8463 23.8135 22.6485 24.0121 22.4024 24.0121C22.1563 24.0121 21.9585 23.8135 21.9585 23.5663V22.6852C21.9585 22.438 22.1563 22.2394 22.4024 22.2394C22.6485 22.2394 22.8463 22.438 22.8463 22.6852V23.5663ZM22.8463 21.2697C22.8463 21.5169 22.6485 21.7175 22.4024 21.7175C22.1563 21.7175 21.9585 21.5169 21.9585 21.2697V16.4937C21.9585 16.2465 22.1563 16.0459 22.4024 16.0459C22.6485 16.0459 22.8463 16.2465 22.8463 16.4937V21.2697Z" fill="#FE6032"/>
</svg>
