<svg width="40" height="40" viewBox="0 0 40 40" fill="none" xmlns="http://www.w3.org/2000/svg">
<path d="M34.3474 22.7933C33.9974 22.2889 33.4223 21.9872 32.8086 21.9872C32.1949 21.9872 31.6198 22.2889 31.2698 22.7933L26.9796 28.991C26.1639 30.1689 25.7322 31.5501 25.7322 32.9847C25.7322 35.3501 26.9127 37.4422 28.712 38.7134H24.4456V20.7006H19.2992V38.7134H16.726V24.5605H11.5795V38.7134H9.00628V25.8471H3.85984V38.7134H1.28661V26.7509L8.36298 19.6809L12.2228 23.5408L23.159 12.6045L27.0189 16.4643L35.3818 8.10126L38.4099 11.1293L40.0001 0L28.8709 1.59027L31.899 4.61771L27.0189 9.49789L23.159 5.63801L12.2228 16.5744L8.36298 12.7145L1.28661 19.7909V15.5541H5.14645V14.2674H1.28661V12.9808H3.85984V11.6942H1.28661V10.4075H5.14645V9.12091H1.28661V7.83428H3.85984V6.54765H1.28661V5.26102H5.14645V3.9744H1.28661V2.68777H3.85984V1.40114H1.28661V0.11451H0V40H32.7475H32.8086H32.8697C36.7373 40 39.885 36.8523 39.885 32.9847C39.885 31.5507 39.4533 30.1689 38.6376 28.991L34.3474 22.7933ZM8.36298 14.5338L12.2228 18.3936L23.159 7.4573L27.0189 11.3172L33.7182 4.61771L31.5998 2.49928L38.4832 1.51629L37.5002 8.39976L35.3818 6.28132L27.0189 14.6444L23.159 10.7845L12.2228 21.7209L8.36298 17.861L1.28661 24.9316V21.6102L8.36298 14.5338ZM20.5858 21.9872H23.159V38.7134H20.5858V21.9872ZM12.8661 25.8471H15.4393V38.7134H12.8661V25.8471ZM5.14645 27.1337H7.71967V38.7134H5.14645V27.1337ZM32.8697 38.7134H32.8086H32.7475C29.5889 38.7134 27.0189 36.1433 27.0189 32.9847C27.0189 31.8132 27.3714 30.6861 28.0379 29.7237L32.3281 23.526C32.5468 23.2108 33.0704 23.2108 33.2892 23.526L37.5794 29.7237C38.2458 30.6855 38.5984 31.8125 38.5984 32.9847C38.5984 36.1433 36.0284 38.7134 32.8697 38.7134Z" fill="#0D4F51"/>
<path d="M33.4004 30.5143C33.7316 30.5143 34.0004 30.7959 34.0004 31.1429H35.2004C35.2004 30.1032 34.3928 29.2571 33.4004 29.2571V28H32.2004V29.2571H30.4004V31.1429C30.4004 32.1825 31.208 33.0286 32.2004 33.0286H33.4004C33.7316 33.0286 34.0004 33.3102 34.0004 33.6572V34.2857H32.2004C31.8692 34.2857 31.6004 34.0041 31.6004 33.6572H30.4004C30.4004 34.6968 31.208 35.5429 32.2004 35.5429V36.8H33.4004V35.5429H35.2004V33.6572C35.2004 32.6175 34.3928 31.7714 33.4004 31.7714H32.2004C31.8692 31.7714 31.6004 31.4898 31.6004 31.1429V30.5143H33.4004Z" fill="#0D4F51"/>
</svg>
