<svg width="40" height="41" viewBox="0 0 40 41" fill="none" xmlns="http://www.w3.org/2000/svg">
<path d="M10 10.627V10.002C10 7.98195 8.79375 6.24195 7.06563 5.45383C7.71 4.8807 8.125 4.05508 8.125 3.12695C8.125 1.40383 6.72312 0.00195312 5 0.00195312C3.27688 0.00195312 1.875 1.40383 1.875 3.12695C1.875 4.05508 2.29 4.8807 2.93438 5.45383C1.20625 6.24195 0 7.98195 0 10.002V10.627C0 10.9726 0.28 11.252 0.625 11.252H9.375C9.72 11.252 10 10.9726 10 10.627ZM3.125 3.12695C3.125 2.0932 3.96625 1.25195 5 1.25195C6.03375 1.25195 6.875 2.0932 6.875 3.12695C6.875 4.1607 6.03375 5.00195 5 5.00195C3.96625 5.00195 3.125 4.1607 3.125 3.12695ZM1.25 10.002C1.25 7.93383 2.93187 6.25195 5 6.25195C7.06812 6.25195 8.75 7.93383 8.75 10.002H1.25Z" fill="#0D4F51"/>
<path d="M37.0656 34.2038C37.71 33.6307 38.125 32.8051 38.125 31.877C38.125 30.1538 36.7231 28.752 35 28.752C33.2769 28.752 31.875 30.1538 31.875 31.877C31.875 32.8051 32.29 33.6307 32.9344 34.2038C31.2062 34.992 30 36.732 30 38.752V39.377C30 39.7226 30.28 40.002 30.625 40.002H39.375C39.72 40.002 40 39.7226 40 39.377V38.752C40 36.732 38.7937 34.992 37.0656 34.2038ZM33.125 31.877C33.125 30.8432 33.9662 30.002 35 30.002C36.0338 30.002 36.875 30.8432 36.875 31.877C36.875 32.9107 36.0338 33.752 35 33.752C33.9662 33.752 33.125 32.9107 33.125 31.877ZM31.25 38.752C31.25 36.6838 32.9319 35.002 35 35.002C37.0681 35.002 38.75 36.6838 38.75 38.752H31.25Z" fill="#0D4F51"/>
<path d="M21.25 7.50195C14.0125 7.50195 8.125 13.3901 8.125 20.627C8.125 27.8638 14.0125 33.752 21.25 33.752C28.4875 33.752 34.375 27.8638 34.375 20.627C34.375 13.3901 28.4875 7.50195 21.25 7.50195ZM20.625 9.28508V14.6257C19.2706 14.5707 17.9219 14.3482 16.6163 13.9363C17.8775 11.5638 19.5825 10.0532 20.625 9.28508ZM20.625 15.8757V20.002H15.0262C15.1019 18.1038 15.5037 16.4651 16.0856 15.0738C17.5619 15.5557 19.09 15.8182 20.625 15.8757ZM20.625 21.252V25.3782C19.095 25.4357 17.5725 25.6957 16.1012 26.1745C15.5119 24.7813 15.1037 23.1426 15.0269 21.252H20.625ZM20.625 26.6282V31.957C19.5913 31.1813 17.8969 29.6632 16.6369 27.3126C17.9362 26.9045 19.2781 26.6832 20.625 26.6282ZM21.875 31.9688V26.6282C23.2294 26.6832 24.5781 26.9057 25.8838 27.3176C24.6225 29.6901 22.9175 31.2007 21.875 31.9688ZM21.875 25.3782V21.252H27.4738C27.3981 23.1501 26.9963 24.7888 26.4144 26.1801C24.9381 25.6982 23.41 25.4357 21.875 25.3782ZM21.875 20.002V15.8757C23.405 15.8182 24.9275 15.5582 26.3988 15.0795C26.9881 16.4726 27.3962 18.1113 27.4731 20.002H21.875ZM21.875 14.6257V9.29695C22.9087 10.0726 24.6031 11.5907 25.8631 13.9413C24.5638 14.3495 23.2219 14.5707 21.875 14.6257ZM23.4756 8.9682C25.8325 9.41758 27.9444 10.5607 29.5869 12.1826C28.7794 12.7038 27.9394 13.1507 27.0694 13.5057C25.9937 11.4263 24.5975 9.9357 23.4756 8.9682ZM15.4306 13.5057C14.5612 13.1507 13.7206 12.7038 12.9131 12.1826C14.5556 10.5607 16.6681 9.41695 19.0244 8.9682C17.9025 9.9357 16.5062 11.4263 15.4306 13.5057ZM14.905 14.6395C14.2775 16.1563 13.84 17.9382 13.765 20.002H9.40687C9.54312 17.3995 10.5081 15.0132 12.0606 13.117C12.97 13.7207 13.92 14.2332 14.905 14.6395ZM13.765 21.252C13.8394 23.3163 14.2775 25.0976 14.905 26.6145C13.9206 27.0207 12.97 27.5332 12.0606 28.1363C10.5081 26.2401 9.54312 23.8545 9.40687 21.2513L13.765 21.252ZM15.4306 27.7482C16.5062 29.8276 17.9025 31.3188 19.025 32.2857C16.6681 31.8363 14.5563 30.6932 12.9138 29.0713C13.7206 28.5501 14.5606 28.1032 15.4306 27.7482ZM27.0694 27.7482C27.9388 28.1032 28.7794 28.5501 29.5869 29.0713C27.9444 30.6932 25.8319 31.837 23.4756 32.2857C24.5975 31.3182 25.9937 29.8276 27.0694 27.7482ZM27.595 26.6145C28.2225 25.0976 28.66 23.3163 28.735 21.252H33.0931C32.9569 23.8545 31.9919 26.2407 30.4394 28.137C29.53 27.5332 28.58 27.0207 27.595 26.6145ZM28.735 20.002C28.6606 17.9376 28.2231 16.1563 27.595 14.6395C28.5794 14.2332 29.53 13.7207 30.4394 13.1176C31.9919 15.0138 32.9569 17.3995 33.0931 20.0026L28.735 20.002Z" fill="#0D4F51"/>
<path d="M13.9333 7.94332L14.817 7.05957L13.3839 5.62645H30.6252C33.7264 5.62645 36.2502 8.14957 36.2502 11.2514V25.0014H37.5002V11.2514C37.5002 7.46082 34.4158 4.37645 30.6252 4.37645H13.3839L14.817 2.94332L13.9333 2.05957L11.4333 4.55957C11.1889 4.80395 11.1889 5.19895 11.4333 5.44332L13.9333 7.94332Z" fill="#0D4F51"/>
<path d="M37.5 26.252H36.25V27.502H37.5V26.252Z" fill="#0D4F51"/>
<path d="M26.6919 33.3101L25.8081 34.1938L27.2412 35.627H10C6.89875 35.627 4.375 33.1038 4.375 30.002V15.002H3.125V30.002C3.125 33.7926 6.20937 36.877 10 36.877H27.2412L25.8081 38.3101L26.6919 39.1938L29.1919 36.6938C29.4363 36.4495 29.4363 36.0545 29.1919 35.8101L26.6919 33.3101Z" fill="#0D4F51"/>
<path d="M4.375 12.502H3.125V13.752H4.375V12.502Z" fill="#0D4F51"/>
</svg>
