<svg width="32" height="32" viewBox="0 0 32 32" fill="none" xmlns="http://www.w3.org/2000/svg">
<path d="M16.0004 8.93115C12.1027 8.93115 8.93164 12.1022 8.93164 15.9999C8.93164 16.8151 9.07737 17.5952 9.33245 18.3245C9.33679 18.4023 9.36553 18.4711 9.40813 18.5308C10.4291 21.1804 12.9954 23.0686 16.0004 23.0686C16.0005 23.0686 16.0009 23.0686 16.001 23.0686C19.8984 23.0683 23.0691 19.8974 23.0691 15.9999C23.0691 12.1022 19.898 8.93115 16.0004 8.93115ZM21.6022 13.2024H19.3918C18.8688 11.6972 18.0178 10.5762 17.3749 9.88779C19.2288 10.3047 20.7706 11.5442 21.6022 13.2024ZM9.73164 15.9999C9.73164 15.301 9.85156 14.6307 10.0636 14.0024H12.3804C12.2298 14.6173 12.134 15.2806 12.134 15.9999C12.134 16.6809 12.2271 17.3125 12.3728 17.903H10.029C9.83708 17.3023 9.73164 16.6634 9.73164 15.9999ZM12.934 15.9999C12.934 15.2781 13.0395 14.6121 13.2082 14.0024H15.6004V17.903H13.1977C13.0344 17.3175 12.934 16.6825 12.934 15.9999ZM18.5312 13.2024H16.4004V10.0474C16.9312 10.5487 17.917 11.6312 18.5312 13.2024ZM15.6004 10.0829V13.2024H13.4781C14.0854 11.6749 15.054 10.6016 15.6004 10.0829ZM15.6004 18.703V21.7968C14.9819 21.2034 14.0537 20.1423 13.4714 18.703H15.6004ZM16.4004 21.7921V18.703H18.5274C17.9438 20.1415 17.0181 21.1982 16.4004 21.7921ZM16.4004 17.903V14.0024H18.7985C18.9639 14.6114 19.0664 15.2779 19.0664 15.9999C19.0664 16.6828 18.9627 17.3166 18.7984 17.903H16.4004ZM19.6231 14.0024H21.9372C22.1492 14.6307 22.2691 15.301 22.2691 15.9999C22.2691 16.6634 22.1637 17.3023 21.9718 17.903H19.6276C19.7733 17.3125 19.8664 16.6809 19.8664 15.9999C19.8664 15.2806 19.7718 14.6173 19.6231 14.0024ZM14.6675 9.87705C14.0149 10.5649 13.1469 11.6901 12.6147 13.2024H10.3986C11.2365 11.5316 12.7949 10.2845 14.6675 9.87705ZM10.3531 18.703H12.612C13.17 20.2607 14.1053 21.4319 14.8167 22.153C12.8427 21.7739 11.2003 20.4656 10.3531 18.703ZM17.184 22.153C17.8953 21.4319 18.8304 20.2607 19.3884 18.703H21.6477C20.8004 20.4656 19.158 21.7739 17.184 22.153Z" fill="#FE6032"/>
<path d="M31.4543 5.7562C31.4543 2.88315 29.1168 0.545654 26.2437 0.545654C23.3707 0.545654 21.0332 2.88315 21.0332 5.7562C21.0332 8.62924 23.3707 10.9667 26.2437 10.9667C29.1168 10.9667 31.4543 8.62924 31.4543 5.7562ZM23.6128 9.28781C23.6615 8.16721 24.3937 7.20681 25.4758 6.87827C25.6297 6.83139 25.741 6.69643 25.7574 6.53608C25.7738 6.37573 25.6922 6.22124 25.5508 6.14409C25.0418 5.86694 24.7254 5.33549 24.7254 4.75678C24.7254 3.88647 25.4336 3.17827 26.3039 3.17827C27.1742 3.17827 27.8824 3.88647 27.8824 4.75678C27.8824 5.35268 27.5512 5.89135 27.018 6.16284C26.8738 6.23589 26.7883 6.38842 26.8004 6.54936C26.8125 6.7103 26.9203 6.84819 27.0734 6.89897C28.1187 7.24533 28.8265 8.19689 28.8747 9.28774C28.1392 9.83715 27.2304 10.1667 26.2437 10.1667C25.2572 10.1667 24.3484 9.83718 23.6128 9.28781ZM21.8332 5.7562C21.8332 3.32417 23.8117 1.34565 26.2437 1.34565C28.6758 1.34565 30.6543 3.32417 30.6543 5.7562C30.6543 6.85075 30.2511 7.85126 29.5887 8.62309C29.3753 7.7069 28.7994 6.91477 27.9859 6.43823C28.4262 5.99995 28.6824 5.40053 28.6824 4.75678C28.6824 3.44526 27.6152 2.37827 26.3039 2.37827C24.9926 2.37827 23.9254 3.44526 23.9254 4.75678C23.9254 5.37495 24.1648 5.95717 24.5773 6.39253C23.721 6.8625 23.1171 7.67307 22.8985 8.62275C22.2362 7.851 21.8332 6.85058 21.8332 5.7562Z" fill="#FE6032"/>
<path d="M5.75644 0.545654C2.8834 0.545654 0.545898 2.88315 0.545898 5.7562C0.545898 8.62924 2.8834 10.9667 5.75644 10.9667C8.62949 10.9667 10.967 8.62924 10.967 5.7562C10.967 2.88315 8.62949 0.545654 5.75644 0.545654ZM3.12517 9.28752C3.174 8.16721 3.9061 7.20678 4.98847 6.87827C5.14238 6.83139 5.25371 6.69643 5.27011 6.53608C5.28652 6.37573 5.20488 6.22124 5.06347 6.14409C4.55449 5.86694 4.23808 5.33549 4.23808 4.75678C4.23808 3.88647 4.94629 3.17827 5.81659 3.17827C6.68691 3.17827 7.39511 3.88647 7.39511 4.75678C7.39511 5.35249 7.06386 5.89135 6.53027 6.16284C6.38652 6.23608 6.30097 6.38862 6.31308 6.54956C6.32519 6.71049 6.433 6.84819 6.58613 6.89897C7.63142 7.24533 8.33918 8.19689 8.38742 9.28774C7.6519 9.83715 6.74306 10.1667 5.75644 10.1667C4.7697 10.1667 3.86074 9.83705 3.12517 9.28752ZM9.10136 8.62307C8.88796 7.70683 8.31206 6.91479 7.49824 6.43823C7.93886 5.99975 8.19511 5.40034 8.19511 4.75678C8.19511 3.44526 7.12793 2.37827 5.81659 2.37827C4.50527 2.37827 3.43808 3.44526 3.43808 4.75678C3.43808 5.37495 3.67754 5.95717 4.08965 6.39253C3.23374 6.86245 2.62969 7.6729 2.41094 8.62243C1.7488 7.8507 1.3459 6.85044 1.3459 5.7562C1.3459 3.32417 3.32441 1.34565 5.75644 1.34565C8.18847 1.34565 10.167 3.32417 10.167 5.7562C10.167 6.85075 9.76384 7.85126 9.10136 8.62307Z" fill="#FE6032"/>
<path d="M26.2437 31.4965C29.1168 31.4965 31.4543 29.159 31.4543 26.286C31.4543 23.4129 29.1168 21.0754 26.2437 21.0754C23.3707 21.0754 21.0332 23.4129 21.0332 26.286C21.0332 29.159 23.3707 31.4965 26.2437 31.4965ZM23.6128 29.8176C23.6615 28.697 24.3937 27.7366 25.4758 27.4081C25.6297 27.3612 25.741 27.2262 25.7574 27.0659C25.7738 26.9055 25.6922 26.751 25.5508 26.6739C25.0418 26.3967 24.7254 25.8653 24.7254 25.2866C24.7254 24.4163 25.4336 23.7081 26.3039 23.7081C27.1742 23.7081 27.8824 24.4163 27.8824 25.2866C27.8824 25.8825 27.5512 26.4211 27.018 26.6926C26.8738 26.7657 26.7883 26.9182 26.8004 27.0791C26.8125 27.2401 26.9203 27.378 27.0734 27.4288C28.1187 27.7751 28.8265 28.7267 28.8747 29.8175C28.1392 30.3669 27.2304 30.6965 26.2437 30.6965C25.2572 30.6965 24.3484 30.367 23.6128 29.8176ZM26.2437 21.8754C28.6758 21.8754 30.6543 23.854 30.6543 26.286C30.6543 27.3805 30.2511 28.3811 29.5887 29.1529C29.3753 28.2367 28.7994 27.4446 27.9859 26.968C28.4262 26.5297 28.6824 25.9303 28.6824 25.2866C28.6824 23.975 27.6152 22.9081 26.3039 22.9081C24.9926 22.9081 23.9254 23.975 23.9254 25.2866C23.9254 25.9047 24.1648 26.487 24.5773 26.9223C23.721 27.3923 23.1171 28.2029 22.8985 29.1525C22.2362 28.3808 21.8332 27.3804 21.8332 26.286C21.8332 23.854 23.8117 21.8754 26.2437 21.8754Z" fill="#FE6032"/>
<path d="M5.75644 31.4965C8.62949 31.4965 10.967 29.159 10.967 26.286C10.967 23.4129 8.62949 21.0754 5.75644 21.0754C2.8834 21.0754 0.545898 23.4129 0.545898 26.286C0.545898 29.159 2.8834 31.4965 5.75644 31.4965ZM3.12517 29.8173C3.174 28.697 3.9061 27.7366 4.98847 27.4081C5.14238 27.3612 5.25371 27.2262 5.27011 27.0659C5.28652 26.9055 5.20488 26.751 5.06347 26.6739C4.55449 26.3967 4.23808 25.8653 4.23808 25.2866C4.23808 24.4163 4.94629 23.7081 5.81659 23.7081C6.68691 23.7081 7.39511 24.4163 7.39511 25.2866C7.39511 25.8823 7.06386 26.4211 6.53027 26.6926C6.38652 26.7659 6.30097 26.9184 6.31308 27.0793C6.32519 27.2403 6.433 27.378 6.58613 27.4288C7.63142 27.7751 8.33918 28.7267 8.38742 29.8175C7.6519 30.3669 6.74306 30.6965 5.75644 30.6965C4.7697 30.6965 3.86074 30.3668 3.12517 29.8173ZM5.75644 21.8754C8.18847 21.8754 10.167 23.854 10.167 26.286C10.167 27.3805 9.76384 28.3811 9.10136 29.1529C8.88796 28.2366 8.31206 27.4446 7.49824 26.968C7.93886 26.5295 8.19511 25.9301 8.19511 25.2866C8.19511 23.975 7.12793 22.9081 5.81659 22.9081C4.50527 22.9081 3.43808 23.975 3.43808 25.2866C3.43808 25.9047 3.67754 26.487 4.08965 26.9223C3.23374 27.3922 2.62969 28.2027 2.41094 29.1522C1.7488 28.3805 1.3459 27.3802 1.3459 26.286C1.3459 23.854 3.32441 21.8754 5.75644 21.8754Z" fill="#FE6032"/>
<path d="M20.8655 1.13262C19.3421 0.381054 17.705 0 15.9999 0C14.2948 0 12.6577 0.381054 11.1343 1.13262C10.9362 1.23047 10.8546 1.47031 10.9526 1.66836C11.0503 1.8666 11.2901 1.94785 11.4882 1.85019C12.9007 1.15332 14.4187 0.799999 15.9999 0.799999C17.5812 0.799999 19.0991 1.15332 20.5116 1.85019C20.5687 1.87812 20.6288 1.8914 20.6882 1.8914C20.8358 1.8914 20.9776 1.80957 21.0472 1.66836C21.1452 1.47031 21.0636 1.23047 20.8655 1.13262Z" fill="#FE6032"/>
<path d="M1.13281 20.8656C1.20234 21.0068 1.34414 21.0887 1.4918 21.0887C1.55117 21.0887 1.61133 21.0754 1.66836 21.0475C1.8664 20.9496 1.94805 20.7098 1.85 20.5117C1.15312 19.0994 0.8 17.5814 0.8 16C0.8 14.4186 1.15312 12.9006 1.85 11.4883C1.94805 11.2902 1.8664 11.0504 1.66836 10.9525C1.46953 10.8557 1.23047 10.9365 1.13281 11.1344C0.38125 12.6578 0 14.2947 0 16C0 17.7053 0.38125 19.3422 1.13281 20.8656Z" fill="#FE6032"/>
<path d="M11.1343 30.8673C12.6577 31.6188 14.2948 31.9999 15.9999 31.9999C17.705 31.9999 19.3421 31.6188 20.8655 30.8673C21.0636 30.7694 21.1452 30.5296 21.0472 30.3315C20.9495 30.1335 20.7101 30.0526 20.5116 30.1497C19.0991 30.8466 17.5812 31.1999 15.9999 31.1999C14.4187 31.1999 12.9007 30.8466 11.4882 30.1497C11.2898 30.053 11.0503 30.1337 10.9526 30.3315C10.8546 30.5296 10.9362 30.7694 11.1343 30.8673Z" fill="#FE6032"/>
<path d="M30.8671 11.1345C30.7698 10.9366 30.5304 10.8556 30.3316 10.9526C30.1335 11.0505 30.0519 11.2903 30.1499 11.4884C30.8468 12.9007 31.1999 14.4186 31.1999 16.0001C31.1999 17.5815 30.8468 19.0995 30.1499 20.5118C30.0519 20.7099 30.1335 20.9497 30.3316 21.0475C30.3886 21.0755 30.4487 21.0888 30.5081 21.0888C30.6558 21.0888 30.7976 21.0069 30.8671 20.8657C31.6187 19.3423 31.9999 17.7054 31.9999 16.0001C31.9999 14.2948 31.6187 12.6579 30.8671 11.1345Z" fill="#FE6032"/>
</svg>
