<svg width="18" height="16" viewBox="0 0 18 16" fill="none" xmlns="http://www.w3.org/2000/svg">
<path d="M13 8C13 10.2094 11.2094 12 9 12C6.79063 12 5 10.2094 5 8C5 5.79063 6.79063 4 9 4C11.2094 4 13 5.79063 13 8ZM9 5C7.31563 5 6 6.31563 6 8C6 9.65625 7.31563 11 9 11C10.6563 11 12 9.65625 12 8C12 6.31563 10.6563 5 9 5ZM15.0188 3.51875C16.4813 4.875 17.4594 6.47188 17.9219 7.61562C18.025 7.8625 18.025 8.1375 17.9219 8.38437C17.4594 9.5 16.4813 11.0969 15.0188 12.4812C13.5469 13.85 11.525 15 9 15C6.475 15 4.45313 13.85 2.98188 12.4812C1.51938 11.0969 0.541879 9.5 0.0769102 8.38437C-0.0256367 8.1375 -0.0256367 7.8625 0.0769102 7.61562C0.541879 6.47188 1.51938 4.875 2.98188 3.51875C4.45313 2.15125 6.475 1 9 1C11.525 1 13.5469 2.15125 15.0188 3.51875ZM1 8C1.41657 9 2.31657 10.5 3.6625 11.75C5.00938 13 6.8 14 9 14C11.2 14 12.9906 13 14.3375 11.75C15.6844 10.5 16.5844 9 17 8C16.5844 6.97188 15.6844 5.47188 14.3375 4.25C12.9906 2.99969 11.2 2 9 2C6.8 2 5.00938 2.99969 3.6625 4.25C2.31657 5.47188 1.41657 6.97188 1 8Z" fill="#161540"/>
</svg>
