<svg width="40" height="30" viewBox="0 0 40 30" fill="none" xmlns="http://www.w3.org/2000/svg">
<path d="M30.9086 18.0361C31.3533 18.0361 31.78 17.9679 32.2047 17.9058C32.0672 18.3707 31.9256 18.8437 31.6983 19.2685C31.4709 19.8858 31.116 20.4208 30.763 20.9599C30.4679 21.5431 29.9475 21.9379 29.5646 22.4369C29.1638 22.9218 28.6174 23.2445 28.1847 23.6473C27.76 24.0681 27.2036 24.2786 26.761 24.5752C26.2983 24.8417 25.8955 25.1363 25.4648 25.2766L24.39 25.7214L23.4448 26.1162L24.4119 30L25.6024 29.7114C25.9833 29.6152 26.4479 29.503 26.9763 29.3687C27.5167 29.2685 28.093 28.994 28.7351 28.7435C29.3692 28.4589 30.103 28.2665 30.785 27.8096C31.4709 27.3727 32.2626 27.008 32.9605 26.4228C33.6365 25.8196 34.4521 25.2966 35.0543 24.5291C35.7123 23.8116 36.3624 23.0581 36.8669 22.2004C37.4511 21.3828 37.848 20.485 38.2667 19.5972C38.6456 18.7094 38.9507 17.8016 39.1999 16.9198C39.6725 15.1523 39.8839 13.4729 39.9656 12.0361C40.0334 10.5972 39.9936 9.4008 39.9098 8.53507C39.8799 8.12626 39.8241 7.72946 39.7842 7.45491L39.7343 7.11824L39.6825 7.13026C39.3278 5.46527 38.5114 3.93521 37.3276 2.71708C36.1438 1.49894 34.641 0.642506 32.9931 0.246847C31.3452 -0.148811 29.6196 -0.0675259 28.0157 0.481298C26.4119 1.03012 24.9954 2.02406 23.9302 3.34813C22.8649 4.67221 22.1945 6.27231 21.9963 7.96334C21.7981 9.65437 22.0804 11.3672 22.8104 12.9038C23.5405 14.4403 24.6884 15.7377 26.1215 16.646C27.5547 17.5542 29.2143 18.0362 30.9086 18.0361ZM8.97389 18.0361C9.41857 18.0361 9.8453 17.9679 10.27 17.9058C10.1324 18.3707 9.99087 18.8437 9.76354 19.2685C9.53622 19.8858 9.18127 20.4208 8.82833 20.9599C8.53321 21.5431 8.01275 21.9379 7.62989 22.4369C7.22909 22.9218 6.68271 23.2445 6.25 23.6473C5.82527 24.0681 5.26892 24.2786 4.82624 24.5752C4.36361 24.8417 3.96082 25.1363 3.5301 25.2766L2.4553 25.7214L1.51011 26.1162L2.47723 30L3.66769 29.7114C4.04856 29.6152 4.51317 29.503 5.0416 29.3687C5.58199 29.2685 6.15827 28.994 6.80036 28.7435C7.43248 28.4569 8.16829 28.2665 8.85026 27.8076C9.53622 27.3707 10.3279 27.006 11.0258 26.4208C11.7018 25.8176 12.5173 25.2946 13.1196 24.5291C13.7776 23.8116 14.4277 23.0581 14.9322 22.2004C15.5164 21.3828 15.9132 20.485 16.332 19.5972C16.7109 18.7094 17.016 17.8016 17.2652 16.9198C17.7378 15.1523 17.9492 13.4729 18.0309 12.0361C18.0987 10.5972 18.0589 9.4008 17.9751 8.53507C17.9452 8.12626 17.8894 7.72946 17.8495 7.45491L17.7996 7.11824L17.7478 7.13026C17.3931 5.46527 16.5767 3.93521 15.3929 2.71708C14.2091 1.49894 12.7063 0.642506 11.0584 0.246847C9.41052 -0.148811 7.68484 -0.0675259 6.081 0.481298C4.47715 1.03012 3.06068 2.02406 1.99545 3.34813C0.930214 4.67221 0.259735 6.27231 0.0615845 7.96334C-0.13657 9.65437 0.145699 11.3672 0.875732 12.9038C1.60576 14.4403 2.75373 15.7377 4.18684 16.646C5.61995 17.5542 7.27962 18.0362 8.97389 18.0361Z" fill="#2B29A4"/>
</svg>
