<svg width="40" height="40" viewBox="0 0 40 40" fill="none" xmlns="http://www.w3.org/2000/svg">
<path d="M20 11.1641C15.1279 11.1641 11.1641 15.1279 11.1641 20C11.1641 21.019 11.3462 21.9941 11.6651 22.9057C11.6705 23.003 11.7064 23.089 11.7597 23.1637C13.0359 26.4756 16.2437 28.8359 20 28.8359C20.0001 28.8359 20.0006 28.8359 20.0007 28.8359C24.8725 28.8355 28.8359 24.8718 28.8359 20C28.8359 15.1279 24.8721 11.1641 20 11.1641ZM27.0022 16.5032H24.2392C23.5855 14.6216 22.5218 13.2204 21.7181 12.3599C24.0355 12.8809 25.9627 14.4304 27.0022 16.5032ZM12.1641 20C12.1641 19.1263 12.314 18.2885 12.579 17.5032H15.475C15.2868 18.2718 15.167 19.1008 15.167 20C15.167 20.8513 15.2834 21.6407 15.4655 22.3789H12.5357C12.2959 21.628 12.1641 20.8294 12.1641 20ZM16.167 20C16.167 19.0977 16.2989 18.2652 16.5098 17.5032H19.5V22.3789H16.4966C16.2926 21.647 16.167 20.8533 16.167 20ZM23.1635 16.5032H20.5V12.5593C21.1635 13.1859 22.3958 14.5392 23.1635 16.5032ZM19.5 12.6038V16.5032H16.8471C17.6063 14.5937 18.8171 13.2521 19.5 12.6038ZM19.5 23.3789V27.2461C18.7269 26.5043 17.5667 25.178 16.8387 23.3789H19.5ZM20.5 27.2403V23.3789H23.1587C22.4292 25.1771 21.2721 26.4978 20.5 27.2403ZM20.5 22.3789V17.5032H23.4977C23.7044 18.2644 23.8325 19.0974 23.8325 20C23.8325 20.8536 23.7029 21.6459 23.4975 22.3789H20.5ZM24.5284 17.5032H27.421C27.686 18.2885 27.8359 19.1263 27.8359 20C27.8359 20.8294 27.7041 21.628 27.4643 22.3789H24.534C24.7161 21.6407 24.8325 20.8513 24.8325 20C24.8325 19.1009 24.7143 18.2718 24.5284 17.5032ZM18.3339 12.3464C17.5181 13.2063 16.4332 14.6127 15.7679 16.5032H12.9977C14.0451 14.4147 15.9931 12.8557 18.3339 12.3464ZM12.9409 23.3789H15.7645C16.462 25.326 17.6312 26.79 18.5204 27.6914C16.0529 27.2175 13.9999 25.5821 12.9409 23.3789ZM21.4795 27.6914C22.3686 26.79 23.5376 25.326 24.235 23.3789H27.0591C26 25.5822 23.947 27.2175 21.4795 27.6914Z" fill="#4893FF"/>
<path d="M39.3179 7.19531C39.3179 3.604 36.396 0.682129 32.8047 0.682129C29.2134 0.682129 26.2915 3.604 26.2915 7.19531C26.2915 10.7866 29.2134 13.7085 32.8047 13.7085C36.396 13.7085 39.3179 10.7866 39.3179 7.19531ZM29.5161 11.6098C29.5769 10.2091 30.4921 9.00857 31.8447 8.5979C32.0371 8.5393 32.1763 8.3706 32.1968 8.17016C32.2173 7.96972 32.1152 7.77661 31.9385 7.68017C31.3022 7.33374 30.9067 6.66943 30.9067 5.94604C30.9067 4.85815 31.792 3.9729 32.8799 3.9729C33.9678 3.9729 34.853 4.85815 34.853 5.94604C34.853 6.69091 34.439 7.36425 33.7725 7.70361C33.5923 7.79492 33.4853 7.98559 33.5005 8.18676C33.5156 8.38793 33.6504 8.5603 33.8418 8.62377C35.1484 9.05673 36.0331 10.2462 36.0934 11.6097C35.174 12.2965 34.038 12.7085 32.8047 12.7085C31.5715 12.7085 30.4355 12.2965 29.5161 11.6098ZM27.2915 7.19531C27.2915 4.15527 29.7646 1.68213 32.8047 1.68213C35.8447 1.68213 38.3179 4.15527 38.3179 7.19531C38.3179 8.5635 37.8139 9.81414 36.9858 10.7789C36.7191 9.63369 35.9993 8.64352 34.9824 8.04785C35.5327 7.5 35.853 6.75073 35.853 5.94604C35.853 4.30664 34.519 2.9729 32.8799 2.9729C31.2407 2.9729 29.9067 4.30664 29.9067 5.94604C29.9067 6.71875 30.2061 7.44653 30.7217 7.99072C29.6513 8.57818 28.8964 9.59139 28.6231 10.7785C27.7953 9.81381 27.2915 8.56329 27.2915 7.19531Z" fill="#4893FF"/>
<path d="M7.19531 0.682129C3.604 0.682129 0.682129 3.604 0.682129 7.19531C0.682129 10.7866 3.604 13.7085 7.19531 13.7085C10.7866 13.7085 13.7085 10.7866 13.7085 7.19531C13.7085 3.604 10.7866 0.682129 7.19531 0.682129ZM3.90622 11.6095C3.96725 10.2091 4.88238 9.00854 6.23535 8.5979C6.42773 8.5393 6.56689 8.3706 6.5874 8.17016C6.60791 7.96972 6.50586 7.77661 6.3291 7.68017C5.69287 7.33374 5.29736 6.66943 5.29736 5.94604C5.29736 4.85815 6.18261 3.9729 7.27049 3.9729C8.35839 3.9729 9.24365 4.85815 9.24365 5.94604C9.24365 6.69067 8.82958 7.36425 8.16259 7.70361C7.98291 7.79516 7.87597 7.98584 7.89111 8.18701C7.90625 8.38818 8.04101 8.5603 8.23242 8.62377C9.53903 9.05673 10.4237 10.2462 10.484 11.6097C9.56463 12.2965 8.42858 12.7085 7.19531 12.7085C5.96188 12.7085 4.82568 12.2964 3.90622 11.6095ZM11.3765 10.7789C11.1097 9.6336 10.3898 8.64355 9.37255 8.04785C9.92333 7.49975 10.2436 6.75048 10.2436 5.94604C10.2436 4.30664 8.90966 2.9729 7.27049 2.9729C5.63134 2.9729 4.29736 4.30664 4.29736 5.94604C4.29736 6.71875 4.59668 7.44653 5.11181 7.99072C4.04193 8.57812 3.28686 9.59118 3.01343 10.7781C2.18576 9.81344 1.68213 8.56311 1.68213 7.19531C1.68213 4.15527 4.15527 1.68213 7.19531 1.68213C10.2353 1.68213 12.7085 4.15527 12.7085 7.19531C12.7085 8.5635 12.2046 9.81414 11.3765 10.7789Z" fill="#4893FF"/>
<path d="M32.8047 39.3706C36.396 39.3706 39.3179 36.4487 39.3179 32.8574C39.3179 29.2661 36.396 26.3442 32.8047 26.3442C29.2134 26.3442 26.2915 29.2661 26.2915 32.8574C26.2915 36.4487 29.2134 39.3706 32.8047 39.3706ZM29.5161 37.2719C29.5769 35.8712 30.4921 34.6707 31.8447 34.26C32.0371 34.2014 32.1763 34.0327 32.1968 33.8323C32.2173 33.6318 32.1152 33.4387 31.9385 33.3423C31.3022 32.9958 30.9067 32.3315 30.9067 31.6082C30.9067 30.5203 31.792 29.635 32.8799 29.635C33.9678 29.635 34.853 30.5203 34.853 31.6082C34.853 32.353 34.439 33.0264 33.7725 33.3657C33.5923 33.457 33.4853 33.6477 33.5005 33.8489C33.5156 34.05 33.6504 34.2224 33.8418 34.2859C35.1484 34.7188 36.0331 35.9083 36.0934 37.2718C35.174 37.9586 34.038 38.3706 32.8047 38.3706C31.5715 38.3706 30.4355 37.9586 29.5161 37.2719ZM32.8047 27.3442C35.8447 27.3442 38.3179 29.8174 38.3179 32.8574C38.3179 34.2256 37.8139 35.4763 36.9858 36.441C36.7191 35.2958 35.9993 34.3056 34.9824 33.71C35.5327 33.1621 35.853 32.4128 35.853 31.6082C35.853 29.9687 34.519 28.635 32.8799 28.635C31.2407 28.635 29.9067 29.9687 29.9067 31.6082C29.9067 32.3809 30.2061 33.1086 30.7217 33.6528C29.6513 34.2403 28.8964 35.2535 28.6231 36.4406C27.7953 35.4759 27.2915 34.2254 27.2915 32.8574C27.2915 29.8174 29.7646 27.3442 32.8047 27.3442Z" fill="#4893FF"/>
<path d="M7.19531 39.3706C10.7866 39.3706 13.7085 36.4487 13.7085 32.8574C13.7085 29.2661 10.7866 26.3442 7.19531 26.3442C3.604 26.3442 0.682129 29.2661 0.682129 32.8574C0.682129 36.4487 3.604 39.3706 7.19531 39.3706ZM3.90622 37.2716C3.96725 35.8712 4.88238 34.6706 6.23535 34.26C6.42773 34.2014 6.56689 34.0327 6.5874 33.8323C6.60791 33.6318 6.50586 33.4387 6.3291 33.3423C5.69287 32.9958 5.29736 32.3315 5.29736 31.6082C5.29736 30.5203 6.18261 29.635 7.27049 29.635C8.35839 29.635 9.24365 30.5203 9.24365 31.6082C9.24365 32.3528 8.82958 33.0264 8.16259 33.3657C7.98291 33.4573 7.87597 33.6479 7.89111 33.8491C7.90625 34.0503 8.04101 34.2224 8.23242 34.2859C9.53903 34.7188 10.4237 35.9083 10.484 37.2718C9.56463 37.9586 8.42858 38.3706 7.19531 38.3706C5.96188 38.3706 4.82568 37.9585 3.90622 37.2716ZM7.19531 27.3442C10.2353 27.3442 12.7085 29.8174 12.7085 32.8574C12.7085 34.2256 12.2046 35.4763 11.3765 36.441C11.1097 35.2957 10.3898 34.3057 9.37255 33.71C9.92333 33.1619 10.2436 32.4126 10.2436 31.6082C10.2436 29.9687 8.90966 28.635 7.27049 28.635C5.63134 28.635 4.29736 29.9687 4.29736 31.6082C4.29736 32.3809 4.59668 33.1086 5.11181 33.6528C4.04193 34.2402 3.28686 35.2533 3.01343 36.4402C2.18576 35.4755 1.68213 34.2252 1.68213 32.8574C1.68213 29.8174 4.15527 27.3442 7.19531 27.3442Z" fill="#4893FF"/>
<path d="M26.0822 1.41577C24.1779 0.476318 22.1315 0 20.0001 0C17.8688 0 15.8224 0.476318 13.9181 1.41577C13.6705 1.53808 13.5685 1.83789 13.6911 2.08545C13.8131 2.33325 14.1129 2.43481 14.3605 2.31274C16.1261 1.44165 18.0236 0.999999 20.0001 0.999999C21.9767 0.999999 23.8741 1.44165 25.6398 2.31274C25.7111 2.34765 25.7863 2.36426 25.8605 2.36426C26.045 2.36426 26.2223 2.26196 26.3092 2.08545C26.4318 1.83789 26.3297 1.53808 26.0822 1.41577Z" fill="#4893FF"/>
<path d="M1.41601 26.0819C1.50293 26.2584 1.68017 26.3607 1.86474 26.3607C1.93896 26.3607 2.01416 26.3441 2.08545 26.3092C2.333 26.1869 2.43506 25.8871 2.3125 25.6395C1.44141 23.8741 0.999999 21.9767 0.999999 19.9999C0.999999 18.0231 1.44141 16.1256 2.3125 14.3602C2.43506 14.1127 2.333 13.8129 2.08545 13.6906C1.83691 13.5695 1.53808 13.6705 1.41601 13.9179C0.476562 15.8222 0 17.8683 0 19.9999C0 22.1315 0.476562 24.1776 1.41601 26.0819Z" fill="#4893FF"/>
<path d="M13.9181 38.5843C15.8224 39.5237 17.8688 40 20.0001 40C22.1315 40 24.1779 39.5237 26.0822 38.5843C26.3297 38.462 26.4318 38.1621 26.3092 37.9146C26.1871 37.667 25.8878 37.566 25.6398 37.6873C23.8741 38.5584 21.9767 39 20.0001 39C18.0236 39 16.1261 38.5584 14.3605 37.6873C14.1124 37.5664 13.8131 37.6673 13.6911 37.9146C13.5685 38.1621 13.6705 38.462 13.9181 38.5843Z" fill="#4893FF"/>
<path d="M38.5841 13.918C38.4625 13.6706 38.1632 13.5693 37.9147 13.6907C37.6671 13.813 37.5651 14.1128 37.6876 14.3603C38.5587 16.1257 39.0001 18.0232 39.0001 20C39.0001 21.9768 38.5587 23.8743 37.6876 25.6396C37.5651 25.8872 37.6671 26.187 37.9147 26.3093C37.986 26.3442 38.0612 26.3608 38.1354 26.3608C38.32 26.3608 38.4972 26.2585 38.5841 26.082C39.5236 24.1777 40.0001 22.1316 40.0001 20C40.0001 17.8684 39.5236 15.8223 38.5841 13.918Z" fill="#4893FF"/>
</svg>
