<svg width="41" height="40" viewBox="0 0 41 40" fill="none" xmlns="http://www.w3.org/2000/svg">
<path d="M28.003 17.6013L20.1155 31.3206H35.8881L28.003 17.6013ZM18.676 31.6001L27.5191 16.2172C27.7346 15.8386 28.2682 15.841 28.4812 16.2106L37.3105 31.5657C37.5691 31.9812 37.2615 32.4368 36.8502 32.4368H19.155C18.734 32.436 18.459 31.9738 18.676 31.6001ZM28.5579 12.3721L40.7246 33.5366C40.9401 33.9086 40.6667 34.3708 40.2456 34.3708V34.3733H28.5579V37.5513C28.5579 38.901 27.4637 40 26.1197 40H2.44069C1.09672 40 0 38.901 0 37.5513V6.27003C0 6.23479 0.00489606 6.19791 0.0114241 6.16349C0.0138722 6.14956 0.0163202 6.13809 0.0204003 6.12416C0.0228483 6.11268 0.0277444 6.09875 0.0318244 6.08728L0.079153 5.98648L0.164834 5.87503L5.84753 0.167179C5.94953 0.0622823 6.0907 0 6.24574 0H26.1197C27.4637 0 28.5579 1.09896 28.5579 2.44868V12.3721ZM27.4473 34.3733H15.7596C15.3459 34.3733 15.0399 33.9176 15.2994 33.5022L27.4473 12.3704V2.44868C27.4473 1.7144 26.8508 1.11535 26.1197 1.11535H6.80063V4.37943C6.80063 5.72915 5.70636 6.82811 4.36239 6.82811H1.11304V37.5521C1.11304 38.2864 1.70954 38.8855 2.44069 38.8855H26.1197C26.8508 38.8855 27.4473 38.2864 27.4473 37.5521V34.3733ZM39.286 33.2563L28.003 13.6292L16.7201 33.2563H39.286ZM5.64679 31.3444C5.46156 31.0985 5.51297 30.747 5.75777 30.5642C6.00502 30.3807 6.35264 30.4298 6.53461 30.6781L7.28208 31.682L10.2009 27.7492C10.3837 27.5034 10.733 27.4518 10.9778 27.6353C11.2226 27.8214 11.274 28.1696 11.0912 28.4155L7.73252 32.9383C7.51546 33.2383 7.0642 33.2547 6.8349 32.9473L5.64679 31.3444ZM9.88678 31.0723C9.78968 30.7822 9.94472 30.4659 10.236 30.3684C10.5249 30.2708 10.8399 30.429 10.937 30.7191C11.7718 33.2211 9.90066 35.732 7.32369 35.732C5.21676 35.732 3.50966 34.0152 3.50966 31.9017C3.50966 29.5226 5.64271 27.7181 7.98793 28.127C8.20091 28.1639 8.41388 28.2221 8.61952 28.2991C8.90594 28.4057 9.052 28.7269 8.94592 29.0145C8.83739 29.303 8.51997 29.4489 8.23355 29.3423C7.278 28.9826 6.13803 29.2538 5.41423 29.9807C4.3575 31.042 4.3575 32.7613 5.41423 33.8209C6.47831 34.8896 8.19193 34.8756 9.24703 33.8209C9.98878 33.0793 10.2034 32.0229 9.88678 31.0723ZM12.7175 24.0385C12.4099 24.0385 12.1626 23.7878 12.1626 23.4788C12.1626 23.1723 12.4099 22.9215 12.7175 22.9215H17.7074C18.0126 22.9215 18.2623 23.1723 18.2623 23.4788C18.2623 23.7878 18.0126 24.0385 17.7074 24.0385H12.7175ZM12.7175 20.7867C12.4099 20.7867 12.1626 20.536 12.1626 20.2295C12.1626 19.9205 12.4099 19.6722 12.7175 19.6722H20.1914C20.499 19.6722 20.7463 19.9205 20.7463 20.2295C20.7463 20.536 20.499 20.7867 20.1914 20.7867H12.7175ZM5.64679 21.5694C5.46156 21.3235 5.51297 20.9744 5.75777 20.7892C6.00502 20.6056 6.35264 20.6564 6.53461 20.9031L7.28208 21.907L10.2009 17.9766C10.3837 17.7283 10.733 17.6792 10.9778 17.8627C11.2226 18.0463 11.274 18.3971 11.0912 18.6429L7.73252 23.1633C7.51546 23.4657 7.0642 23.4788 6.8349 23.1723L5.64679 21.5694ZM9.88678 21.2997C9.78968 21.0072 9.94472 20.6908 10.236 20.5933C10.5249 20.4958 10.8399 20.654 10.937 20.9465C11.7718 23.446 9.90066 25.957 7.32369 25.957C5.21676 25.957 3.50966 24.2426 3.50966 22.1266C3.50966 19.7476 5.64271 17.9455 7.98793 18.3544C8.20091 18.3913 8.41388 18.447 8.61952 18.5265C8.90594 18.6331 9.052 18.9543 8.94592 19.2395C8.83739 19.5271 8.51997 19.6738 8.23355 19.5673C7.278 19.2092 6.13803 19.4788 5.41423 20.2082C4.3575 21.2678 4.3575 22.9863 5.41423 24.0459C6.47831 25.117 8.19193 25.1006 9.24703 24.0459C9.98878 23.3042 10.2034 22.2479 9.88678 21.2997ZM5.64679 11.6706C5.46156 11.4247 5.51297 11.0756 5.75777 10.892C6.00502 10.706 6.35264 10.7576 6.53461 11.0035L7.28208 12.009L10.2009 8.07621C10.3837 7.83036 10.733 7.77873 10.9778 7.9623C11.2226 8.14587 11.274 8.49662 11.0912 8.74247L7.73252 13.2653C7.51546 13.5653 7.0642 13.5808 6.8349 13.2743L5.64679 11.6706ZM9.88678 11.4018C9.78968 11.1092 9.94472 10.7953 10.236 10.6978C10.5249 10.6003 10.8399 10.756 10.937 11.0486C11.7718 13.548 9.90066 16.059 7.32369 16.059C5.21676 16.059 3.50966 14.3446 3.50966 12.2286C3.50966 9.84962 5.64271 8.04753 7.98793 8.45646C8.20091 8.49334 8.41388 8.54907 8.61952 8.62856C8.90594 8.7351 9.052 9.05634 8.94592 9.34399C8.83739 9.62999 8.51997 9.77587 8.23355 9.66933C7.278 9.31121 6.13803 9.58328 5.41423 10.3102C4.3575 11.3698 4.3575 13.0883 5.41423 14.1504C6.47831 15.219 8.19193 15.2026 9.24703 14.1479C9.98878 13.4087 10.2034 12.3491 9.88678 11.4018ZM12.7175 33.8111C12.4099 33.8111 12.1626 33.5628 12.1626 33.2538C12.1626 32.9449 12.4099 32.6966 12.7175 32.6966H13.784C14.0917 32.6966 14.3389 32.9449 14.3389 33.2538C14.3389 33.5628 14.0917 33.8111 13.784 33.8111H12.7175ZM12.7175 30.5618C12.4099 30.5618 12.1626 30.311 12.1626 30.002C12.1626 29.6956 12.4099 29.4448 12.7175 29.4448H13.4764C13.784 29.4448 14.0313 29.6956 14.0313 30.002C14.0313 30.311 13.784 30.5618 13.4764 30.5618H12.7175ZM12.7175 10.8879C12.4099 10.8879 12.1626 10.6396 12.1626 10.3307C12.1626 10.0217 12.4099 9.77341 12.7175 9.77341H23.2237C23.5313 9.77341 23.781 10.0217 23.781 10.3307C23.781 10.6396 23.5313 10.8879 23.2237 10.8879H12.7175ZM12.7175 14.1405C12.4099 14.1405 12.1626 13.8898 12.1626 13.5833C12.1626 13.2743 12.4099 13.0236 12.7175 13.0236H17.5981C17.9057 13.0236 18.153 13.2743 18.153 13.5833C18.153 13.8898 17.9057 14.1405 17.5981 14.1405H12.7175ZM1.89967 5.71276H4.36321C5.09191 5.71276 5.69086 5.11371 5.69086 4.37943V1.90535L1.89967 5.71276ZM28.5579 29.4579C28.5579 29.7669 28.3107 30.0152 28.003 30.0152C27.6954 30.0152 27.4481 29.7669 27.4481 29.4579V28.3565C27.4481 28.0475 27.6954 27.7992 28.003 27.7992C28.3107 27.7992 28.5579 28.0475 28.5579 28.3565V29.4579ZM28.5579 26.5872C28.5579 26.8961 28.3107 27.1469 28.003 27.1469C27.6954 27.1469 27.4481 26.8961 27.4481 26.5872V20.6171C27.4481 20.3081 27.6954 20.0574 28.003 20.0574C28.3107 20.0574 28.5579 20.3081 28.5579 20.6171V26.5872Z" fill="#4893FF"/>
</svg>
