<svg width="191" height="50" viewBox="0 0 191 50" fill="none" xmlns="http://www.w3.org/2000/svg">
<ellipse cx="25" cy="25" rx="25" ry="25" fill="#B51DEE"/>
<path d="M26 36.2857C25.8077 36.2853 25.6156 36.2727 25.4249 36.248C23.6633 33.4253 22.688 30.1832 22.5997 26.8571H37.9571C37.9777 26.5726 38 26.2889 38 26C38 23.6266 37.2962 21.3066 35.9776 19.3332C34.6591 17.3598 32.7849 15.8217 30.5922 14.9135C28.3995 14.0052 25.9867 13.7676 23.6589 14.2306C21.3311 14.6936 19.193 15.8365 17.5147 17.5147C15.8365 19.193 14.6936 21.3311 14.2306 23.6589C13.7676 25.9867 14.0052 28.3995 14.9135 30.5922C15.8217 32.7849 17.3598 34.6591 19.3332 35.9776C21.3066 37.2962 23.6266 38 26 38V36.2857ZM36.2429 25.1429H31.1111C31.019 21.9889 30.2121 18.8969 28.7514 16.1C30.773 16.6641 32.5738 17.8325 33.9127 19.4487C35.2516 21.0649 36.0646 23.0517 36.2429 25.1429ZM26.5743 15.752C28.3361 18.5746 29.3118 21.8167 29.4003 25.1429H22.5997C22.6882 21.8167 23.6639 18.5746 25.4257 15.752C25.8075 15.7019 26.1942 15.7019 26.576 15.752H26.5743ZM23.2477 16.0991C21.7873 18.8964 20.9807 21.9886 20.8889 25.1429H15.7571C15.9355 23.0517 16.7485 21.065 18.0874 19.4488C19.4263 17.8327 21.2271 16.6642 23.2486 16.1L23.2477 16.0991ZM15.7571 26.8571H20.8889C20.9811 30.0111 21.788 33.1031 23.2486 35.9C21.2271 35.3358 19.4263 34.1673 18.0874 32.5512C16.7485 30.935 15.9355 28.9483 15.7571 26.8571Z" fill="white"/>
<path fill-rule="evenodd" clip-rule="evenodd" d="M32.8333 33L37 34.6667V33L32.8333 30.9167V28.8333C32.8333 28.6123 32.7455 28.4004 32.5893 28.2441C32.433 28.0878 32.221 28 32 28C31.779 28 31.567 28.0878 31.4107 28.2441C31.2545 28.4004 31.1667 28.6123 31.1667 28.8333V30.9167L27 33V34.6667L31.1667 33V35.9167L29.5 37.1667V38L32 37.1667L34.5 38V37.1667L32.8333 35.9167V33Z" fill="white"/>
<path d="M65.744 26.976L71.216 13.6H77.552L65.744 37.408L53.968 13.6H60.272L65.744 26.976ZM80.0912 15.744C80.0912 14.976 80.3686 14.3573 80.9232 13.888C81.4779 13.3973 82.1392 13.152 82.9072 13.152C83.6966 13.152 84.3579 13.3973 84.8912 13.888C85.4459 14.3573 85.7232 14.976 85.7232 15.744C85.7232 16.512 85.4459 17.1413 84.8912 17.632C84.3579 18.1227 83.6966 18.368 82.9072 18.368C82.1392 18.368 81.4779 18.1227 80.9232 17.632C80.3686 17.1413 80.0912 16.512 80.0912 15.744ZM80.5712 21.28H85.2432V36H80.5712V21.28ZM90.983 30.656C91.7297 31.2747 92.4017 31.7653 92.999 32.128C93.6177 32.4693 94.1617 32.7147 94.631 32.864C95.1003 32.992 95.5057 33.056 95.847 33.056C96.3377 33.056 96.7003 32.9493 96.935 32.736C97.1697 32.5227 97.287 32.2453 97.287 31.904C97.287 31.584 97.191 31.3173 96.999 31.104C96.807 30.8693 96.4763 30.6453 96.007 30.432C95.559 30.2187 94.9403 29.9947 94.151 29.76C93.447 29.504 92.775 29.2053 92.135 28.864C91.5163 28.5013 91.0043 28.0213 90.599 27.424C90.1937 26.8267 89.991 26.0587 89.991 25.12C89.991 24.224 90.2257 23.4667 90.695 22.848C91.1857 22.2293 91.8363 21.76 92.647 21.44C93.479 21.12 94.4283 20.96 95.495 20.96C96.3483 20.96 97.1377 21.056 97.863 21.248C98.6097 21.44 99.303 21.696 99.943 22.016C100.604 22.336 101.223 22.7093 101.799 23.136L100.071 26.272C99.4523 25.696 98.7483 25.2267 97.959 24.864C97.1697 24.48 96.4443 24.288 95.783 24.288C95.335 24.288 94.9937 24.3733 94.759 24.544C94.5457 24.7147 94.439 24.9387 94.439 25.216C94.439 25.536 94.567 25.8027 94.823 26.016C95.1003 26.2293 95.4843 26.432 95.975 26.624C96.487 26.7947 97.1057 27.0187 97.831 27.296C98.599 27.5733 99.303 27.8933 99.943 28.256C100.604 28.6187 101.127 29.0773 101.511 29.632C101.916 30.1867 102.119 30.9227 102.119 31.84C102.119 33.4187 101.628 34.6133 100.647 35.424C99.687 36.2133 98.3323 36.608 96.583 36.608C95.5163 36.608 94.5243 36.48 93.607 36.224C92.711 35.9893 91.879 35.6693 91.111 35.264C90.343 34.8373 89.6283 34.368 88.967 33.856L90.983 30.656ZM109.481 31.392C109.481 31.776 109.577 32.1067 109.769 32.384C109.961 32.64 110.217 32.8427 110.537 32.992C110.857 33.12 111.209 33.184 111.593 33.184C112.147 33.184 112.659 33.0667 113.129 32.832C113.598 32.5973 113.982 32.2453 114.281 31.776C114.579 31.3067 114.729 30.7307 114.729 30.048L115.241 31.968C115.241 32.9067 114.985 33.7067 114.473 34.368C113.961 35.008 113.299 35.4987 112.489 35.84C111.678 36.16 110.803 36.32 109.865 36.32C108.926 36.32 108.051 36.1493 107.241 35.808C106.451 35.4453 105.811 34.912 105.321 34.208C104.851 33.504 104.617 32.6507 104.617 31.648C104.617 30.24 105.118 29.1307 106.121 28.32C107.123 27.488 108.542 27.072 110.377 27.072C111.273 27.072 112.073 27.1573 112.777 27.328C113.502 27.4987 114.121 27.712 114.633 27.968C115.145 28.224 115.529 28.4907 115.785 28.768V30.912C115.273 30.528 114.675 30.24 113.993 30.048C113.331 29.8347 112.627 29.728 111.881 29.728C111.305 29.728 110.846 29.792 110.505 29.92C110.163 30.048 109.907 30.24 109.737 30.496C109.566 30.7307 109.481 31.0293 109.481 31.392ZM107.337 25.792L105.705 22.56C106.537 22.1547 107.539 21.7707 108.713 21.408C109.886 21.0453 111.166 20.864 112.553 20.864C113.854 20.864 115.017 21.056 116.041 21.44C117.065 21.8027 117.875 22.336 118.473 23.04C119.07 23.744 119.369 24.608 119.369 25.632V36H114.729V26.72C114.729 26.3573 114.665 26.048 114.537 25.792C114.43 25.5147 114.259 25.28 114.025 25.088C113.79 24.896 113.491 24.7573 113.129 24.672C112.787 24.5867 112.393 24.544 111.945 24.544C111.283 24.544 110.633 24.6187 109.993 24.768C109.374 24.9173 108.83 25.0987 108.361 25.312C107.891 25.504 107.55 25.664 107.337 25.792Z" fill="#181A1C"/>
<path d="M128.011 18.24V13.6H138.027V18.24H128.011ZM128.011 27.008V22.656H137.707V27.008H128.011ZM124.427 13.6H129.611V36H124.427V13.6ZM145.37 31.392C145.37 31.776 145.466 32.1067 145.658 32.384C145.85 32.64 146.106 32.8427 146.426 32.992C146.746 33.12 147.098 33.184 147.482 33.184C148.036 33.184 148.548 33.0667 149.018 32.832C149.487 32.5973 149.871 32.2453 150.17 31.776C150.468 31.3067 150.618 30.7307 150.618 30.048L151.13 31.968C151.13 32.9067 150.874 33.7067 150.362 34.368C149.85 35.008 149.188 35.4987 148.378 35.84C147.567 36.16 146.692 36.32 145.754 36.32C144.815 36.32 143.94 36.1493 143.13 35.808C142.34 35.4453 141.7 34.912 141.21 34.208C140.74 33.504 140.506 32.6507 140.506 31.648C140.506 30.24 141.007 29.1307 142.01 28.32C143.012 27.488 144.431 27.072 146.266 27.072C147.162 27.072 147.962 27.1573 148.666 27.328C149.391 27.4987 150.01 27.712 150.522 27.968C151.034 28.224 151.418 28.4907 151.674 28.768V30.912C151.162 30.528 150.564 30.24 149.882 30.048C149.22 29.8347 148.516 29.728 147.77 29.728C147.194 29.728 146.735 29.792 146.394 29.92C146.052 30.048 145.796 30.24 145.626 30.496C145.455 30.7307 145.37 31.0293 145.37 31.392ZM143.226 25.792L141.594 22.56C142.426 22.1547 143.428 21.7707 144.602 21.408C145.775 21.0453 147.055 20.864 148.442 20.864C149.743 20.864 150.906 21.056 151.93 21.44C152.954 21.8027 153.764 22.336 154.362 23.04C154.959 23.744 155.258 24.608 155.258 25.632V36H150.618V26.72C150.618 26.3573 150.554 26.048 150.426 25.792C150.319 25.5147 150.148 25.28 149.914 25.088C149.679 24.896 149.38 24.7573 149.018 24.672C148.676 24.5867 148.282 24.544 147.834 24.544C147.172 24.544 146.522 24.6187 145.882 24.768C145.263 24.9173 144.719 25.0987 144.25 25.312C143.78 25.504 143.439 25.664 143.226 25.792ZM160.636 30.656C161.382 31.2747 162.054 31.7653 162.652 32.128C163.27 32.4693 163.814 32.7147 164.284 32.864C164.753 32.992 165.158 33.056 165.5 33.056C165.99 33.056 166.353 32.9493 166.588 32.736C166.822 32.5227 166.94 32.2453 166.94 31.904C166.94 31.584 166.844 31.3173 166.652 31.104C166.46 30.8693 166.129 30.6453 165.66 30.432C165.212 30.2187 164.593 29.9947 163.804 29.76C163.1 29.504 162.428 29.2053 161.788 28.864C161.169 28.5013 160.657 28.0213 160.252 27.424C159.846 26.8267 159.644 26.0587 159.644 25.12C159.644 24.224 159.878 23.4667 160.348 22.848C160.838 22.2293 161.489 21.76 162.3 21.44C163.132 21.12 164.081 20.96 165.148 20.96C166.001 20.96 166.79 21.056 167.516 21.248C168.262 21.44 168.956 21.696 169.596 22.016C170.257 22.336 170.876 22.7093 171.452 23.136L169.724 26.272C169.105 25.696 168.401 25.2267 167.612 24.864C166.822 24.48 166.097 24.288 165.436 24.288C164.988 24.288 164.646 24.3733 164.412 24.544C164.198 24.7147 164.092 24.9387 164.092 25.216C164.092 25.536 164.22 25.8027 164.476 26.016C164.753 26.2293 165.137 26.432 165.628 26.624C166.14 26.7947 166.758 27.0187 167.484 27.296C168.252 27.5733 168.956 27.8933 169.596 28.256C170.257 28.6187 170.78 29.0773 171.164 29.632C171.569 30.1867 171.772 30.9227 171.772 31.84C171.772 33.4187 171.281 34.6133 170.3 35.424C169.34 36.2133 167.985 36.608 166.236 36.608C165.169 36.608 164.177 36.48 163.26 36.224C162.364 35.9893 161.532 35.6693 160.764 35.264C159.996 34.8373 159.281 34.368 158.62 33.856L160.636 30.656ZM173.661 21.28H183.517V25.28H173.661V21.28ZM176.253 16.16H180.893V36H176.253V16.16Z" fill="#B51DEE"/>
</svg>
