<svg width="199" height="50" viewBox="0 0 199 50" fill="none" xmlns="http://www.w3.org/2000/svg">
<ellipse cx="25" cy="25" rx="25" ry="25" fill="#DE8E59"/>
<path d="M26 36.2857C25.8077 36.2853 25.6156 36.2727 25.4249 36.248C23.6633 33.4253 22.688 30.1832 22.5997 26.8571H37.9571C37.9777 26.5726 38 26.2889 38 26C38 23.6266 37.2962 21.3066 35.9776 19.3332C34.6591 17.3598 32.7849 15.8217 30.5922 14.9135C28.3995 14.0052 25.9867 13.7676 23.6589 14.2306C21.3311 14.6936 19.193 15.8365 17.5147 17.5147C15.8365 19.193 14.6936 21.3311 14.2306 23.6589C13.7676 25.9867 14.0052 28.3995 14.9135 30.5922C15.8217 32.7849 17.3598 34.6591 19.3332 35.9776C21.3066 37.2962 23.6266 38 26 38V36.2857ZM36.2429 25.1429H31.1111C31.019 21.9889 30.2121 18.8969 28.7514 16.1C30.773 16.6641 32.5738 17.8325 33.9127 19.4487C35.2516 21.0649 36.0646 23.0517 36.2429 25.1429ZM26.5743 15.752C28.3361 18.5746 29.3118 21.8167 29.4003 25.1429H22.5997C22.6882 21.8167 23.6639 18.5746 25.4257 15.752C25.8075 15.7019 26.1942 15.7019 26.576 15.752H26.5743ZM23.2477 16.0991C21.7873 18.8964 20.9807 21.9886 20.8889 25.1429H15.7571C15.9355 23.0517 16.7485 21.065 18.0874 19.4488C19.4263 17.8327 21.2271 16.6642 23.2486 16.1L23.2477 16.0991ZM15.7571 26.8571H20.8889C20.9811 30.0111 21.788 33.1031 23.2486 35.9C21.2271 35.3358 19.4263 34.1673 18.0874 32.5512C16.7485 30.935 15.9355 28.9483 15.7571 26.8571Z" fill="white"/>
<path fill-rule="evenodd" clip-rule="evenodd" d="M32.8333 33L37 34.6667V33L32.8333 30.9167V28.8333C32.8333 28.6123 32.7455 28.4004 32.5893 28.2441C32.433 28.0878 32.221 28 32 28C31.779 28 31.567 28.0878 31.4107 28.2441C31.2545 28.4004 31.1667 28.6123 31.1667 28.8333V30.9167L27 33V34.6667L31.1667 33V35.9167L29.5 37.1667V38L32 37.1667L34.5 38V37.1667L32.8333 35.9167V33Z" fill="white"/>
<path d="M62.1719 39L53.9844 16.0938H59L64.7969 33.0469L70.4062 16.0938H75.3125L67.1094 39H62.1719ZM78.0069 20.1562V16.0938H82.3975V20.1562H78.0069ZM78.0069 39V22.4062H82.3975V39H78.0069ZM86.3263 34.2656L90.7325 33.5938C90.92 34.4479 91.3002 35.099 91.8731 35.5469C92.446 35.9844 93.2481 36.2031 94.2794 36.2031C95.4148 36.2031 96.269 35.9948 96.8419 35.5781C97.2273 35.2865 97.42 34.8958 97.42 34.4062C97.42 34.0729 97.3158 33.7969 97.1075 33.5781C96.8888 33.3698 96.3992 33.1771 95.6388 33C92.0971 32.2188 89.8523 31.5052 88.9044 30.8594C87.5919 29.9635 86.9356 28.7188 86.9356 27.125C86.9356 25.6875 87.5033 24.4792 88.6388 23.5C89.7742 22.5208 91.5346 22.0312 93.92 22.0312C96.1908 22.0312 97.8783 22.401 98.9825 23.1406C100.087 23.8802 100.847 24.974 101.264 26.4219L97.1231 27.1875C96.946 26.5417 96.6075 26.0469 96.1075 25.7031C95.6179 25.3594 94.9148 25.1875 93.9981 25.1875C92.8419 25.1875 92.0138 25.349 91.5138 25.6719C91.1804 25.901 91.0138 26.1979 91.0138 26.5625C91.0138 26.875 91.1596 27.1406 91.4513 27.3594C91.8471 27.651 93.2117 28.0625 95.545 28.5938C97.8888 29.125 99.5242 29.776 100.451 30.5469C101.368 31.3281 101.826 32.4167 101.826 33.8125C101.826 35.3333 101.191 36.6406 99.92 37.7344C98.6492 38.8281 96.769 39.375 94.2794 39.375C92.019 39.375 90.2273 38.9167 88.9044 38C87.5919 37.0833 86.7325 35.8385 86.3263 34.2656ZM109.927 27.4688L105.943 26.75C106.39 25.1458 107.161 23.9583 108.255 23.1875C109.349 22.4167 110.974 22.0312 113.13 22.0312C115.088 22.0312 116.547 22.2656 117.505 22.7344C118.463 23.1927 119.135 23.7812 119.521 24.5C119.916 25.2083 120.114 26.5156 120.114 28.4219L120.068 33.5469C120.068 35.0052 120.135 36.0833 120.271 36.7812C120.416 37.4688 120.682 38.2083 121.068 39H116.724C116.609 38.7083 116.469 38.276 116.302 37.7031C116.229 37.4427 116.177 37.2708 116.146 37.1875C115.396 37.9167 114.594 38.4635 113.739 38.8281C112.885 39.1927 111.974 39.375 111.005 39.375C109.297 39.375 107.948 38.9115 106.958 37.9844C105.979 37.0573 105.489 35.8854 105.489 34.4688C105.489 33.5312 105.713 32.6979 106.161 31.9688C106.609 31.2292 107.234 30.6667 108.036 30.2812C108.849 29.8854 110.015 29.5417 111.536 29.25C113.588 28.8646 115.01 28.5052 115.802 28.1719V27.7344C115.802 26.8906 115.594 26.2917 115.177 25.9375C114.76 25.5729 113.974 25.3906 112.818 25.3906C112.036 25.3906 111.427 25.5469 110.989 25.8594C110.552 26.1615 110.198 26.6979 109.927 27.4688ZM115.802 31.0312C115.239 31.2188 114.349 31.4427 113.13 31.7031C111.911 31.9635 111.114 32.2188 110.739 32.4688C110.166 32.875 109.88 33.3906 109.88 34.0156C109.88 34.6302 110.109 35.1615 110.568 35.6094C111.026 36.0573 111.609 36.2812 112.318 36.2812C113.109 36.2812 113.864 36.0208 114.583 35.5C115.114 35.1042 115.463 34.6198 115.63 34.0469C115.745 33.6719 115.802 32.9583 115.802 31.9062V31.0312Z" fill="#181A1C"/>
<path d="M125.481 39V16.0938H141.184V19.9688H130.106V25.3906H139.668V29.2656H130.106V39H125.481ZM149.222 27.4688L145.238 26.75C145.685 25.1458 146.456 23.9583 147.55 23.1875C148.644 22.4167 150.269 22.0312 152.425 22.0312C154.383 22.0312 155.842 22.2656 156.8 22.7344C157.758 23.1927 158.43 23.7812 158.816 24.5C159.211 25.2083 159.409 26.5156 159.409 28.4219L159.363 33.5469C159.363 35.0052 159.43 36.0833 159.566 36.7812C159.711 37.4688 159.977 38.2083 160.363 39H156.019C155.904 38.7083 155.764 38.276 155.597 37.7031C155.524 37.4427 155.472 37.2708 155.441 37.1875C154.691 37.9167 153.889 38.4635 153.034 38.8281C152.18 39.1927 151.269 39.375 150.3 39.375C148.592 39.375 147.243 38.9115 146.253 37.9844C145.274 37.0573 144.784 35.8854 144.784 34.4688C144.784 33.5312 145.008 32.6979 145.456 31.9688C145.904 31.2292 146.529 30.6667 147.331 30.2812C148.144 29.8854 149.31 29.5417 150.831 29.25C152.883 28.8646 154.305 28.5052 155.097 28.1719V27.7344C155.097 26.8906 154.889 26.2917 154.472 25.9375C154.055 25.5729 153.269 25.3906 152.113 25.3906C151.331 25.3906 150.722 25.5469 150.284 25.8594C149.847 26.1615 149.493 26.6979 149.222 27.4688ZM155.097 31.0312C154.534 31.2188 153.644 31.4427 152.425 31.7031C151.206 31.9635 150.409 32.2188 150.034 32.4688C149.461 32.875 149.175 33.3906 149.175 34.0156C149.175 34.6302 149.404 35.1615 149.863 35.6094C150.321 36.0573 150.904 36.2812 151.613 36.2812C152.404 36.2812 153.159 36.0208 153.878 35.5C154.409 35.1042 154.758 34.6198 154.925 34.0469C155.04 33.6719 155.097 32.9583 155.097 31.9062V31.0312ZM163.166 34.2656L167.573 33.5938C167.76 34.4479 168.14 35.099 168.713 35.5469C169.286 35.9844 170.088 36.2031 171.119 36.2031C172.255 36.2031 173.109 35.9948 173.682 35.5781C174.067 35.2865 174.26 34.8958 174.26 34.4062C174.26 34.0729 174.156 33.7969 173.948 33.5781C173.729 33.3698 173.239 33.1771 172.479 33C168.937 32.2188 166.692 31.5052 165.744 30.8594C164.432 29.9635 163.776 28.7188 163.776 27.125C163.776 25.6875 164.343 24.4792 165.479 23.5C166.614 22.5208 168.375 22.0312 170.76 22.0312C173.031 22.0312 174.718 22.401 175.823 23.1406C176.927 23.8802 177.687 24.974 178.104 26.4219L173.963 27.1875C173.786 26.5417 173.448 26.0469 172.948 25.7031C172.458 25.3594 171.755 25.1875 170.838 25.1875C169.682 25.1875 168.854 25.349 168.354 25.6719C168.02 25.901 167.854 26.1979 167.854 26.5625C167.854 26.875 168 27.1406 168.291 27.3594C168.687 27.651 170.052 28.0625 172.385 28.5938C174.729 29.125 176.364 29.776 177.291 30.5469C178.208 31.3281 178.666 32.4167 178.666 33.8125C178.666 35.3333 178.031 36.6406 176.76 37.7344C175.489 38.8281 173.609 39.375 171.119 39.375C168.859 39.375 167.067 38.9167 165.744 38C164.432 37.0833 163.573 35.8385 163.166 34.2656ZM191.095 22.4062V25.9062H188.095V32.5938C188.095 33.9479 188.121 34.7396 188.173 34.9688C188.236 35.1875 188.366 35.3698 188.564 35.5156C188.772 35.6615 189.022 35.7344 189.314 35.7344C189.72 35.7344 190.309 35.5938 191.079 35.3125L191.454 38.7188C190.434 39.1562 189.277 39.375 187.986 39.375C187.194 39.375 186.48 39.2448 185.845 38.9844C185.21 38.7135 184.741 38.3698 184.439 37.9531C184.147 37.526 183.944 36.9531 183.829 36.2344C183.736 35.724 183.689 34.6927 183.689 33.1406V25.9062H181.673V22.4062H183.689V19.1094L188.095 16.5469V22.4062H191.095Z" fill="#DE8E59"/>
</svg>
