<svg width="199" height="50" viewBox="0 0 199 50" fill="none" xmlns="http://www.w3.org/2000/svg">
<ellipse cx="25" cy="25" rx="25" ry="25" fill="#4893FF"/>
<path d="M26 36.2857C25.8077 36.2853 25.6156 36.2727 25.4249 36.248C23.6633 33.4253 22.688 30.1832 22.5997 26.8571H37.9571C37.9777 26.5726 38 26.2889 38 26C38 23.6266 37.2962 21.3066 35.9776 19.3332C34.6591 17.3598 32.7849 15.8217 30.5922 14.9135C28.3995 14.0052 25.9867 13.7676 23.6589 14.2306C21.3311 14.6936 19.193 15.8365 17.5147 17.5147C15.8365 19.193 14.6936 21.3311 14.2306 23.6589C13.7676 25.9867 14.0052 28.3995 14.9135 30.5922C15.8217 32.7849 17.3598 34.6591 19.3332 35.9776C21.3066 37.2962 23.6266 38 26 38V36.2857ZM36.2429 25.1429H31.1111C31.019 21.9889 30.2121 18.8969 28.7514 16.1C30.773 16.6641 32.5738 17.8325 33.9127 19.4487C35.2516 21.0649 36.0646 23.0517 36.2429 25.1429ZM26.5743 15.752C28.3361 18.5746 29.3118 21.8167 29.4003 25.1429H22.5997C22.6882 21.8167 23.6639 18.5746 25.4257 15.752C25.8075 15.7019 26.1942 15.7019 26.576 15.752H26.5743ZM23.2477 16.0991C21.7873 18.8964 20.9807 21.9886 20.8889 25.1429H15.7571C15.9355 23.0517 16.7485 21.065 18.0874 19.4488C19.4263 17.8327 21.2271 16.6642 23.2486 16.1L23.2477 16.0991ZM15.7571 26.8571H20.8889C20.9811 30.0111 21.788 33.1031 23.2486 35.9C21.2271 35.3358 19.4263 34.1673 18.0874 32.5512C16.7485 30.935 15.9355 28.9483 15.7571 26.8571Z" fill="white"/>
<path fill-rule="evenodd" clip-rule="evenodd" d="M32.8333 33L37 34.6667V33L32.8333 30.9167V28.8333C32.8333 28.6123 32.7455 28.4004 32.5893 28.2441C32.433 28.0878 32.221 28 32 28C31.779 28 31.567 28.0878 31.4107 28.2441C31.2545 28.4004 31.1667 28.6123 31.1667 28.8333V30.9167L27 33V34.6667L31.1667 33V35.9167L29.5 37.1667V38L32 37.1667L34.5 38V37.1667L32.8333 35.9167V33Z" fill="white"/>
<path d="M64.816 39.48C64.56 39.48 64.3787 39.3413 64.272 39.064C64.144 38.7867 63.984 38.4027 63.792 37.912C63.6 37.4213 63.4293 36.9733 63.28 36.568L57.168 21.432C56.9547 20.8987 56.6667 20.44 56.304 20.056C55.9413 19.6507 55.4613 19.3627 54.864 19.192C54.608 19.1067 54.3947 19.0213 54.224 18.936C54.0747 18.8293 54 18.6907 54 18.52C54 18.3707 54.0747 18.264 54.224 18.2C54.3733 18.1147 54.5547 18.072 54.768 18.072C55.152 18.072 55.6 18.0827 56.112 18.104C56.6453 18.1253 57.1787 18.1467 57.712 18.168C58.2453 18.1893 58.736 18.2 59.184 18.2C59.6107 18.2 60.1013 18.1893 60.656 18.168C61.2107 18.1467 61.744 18.1253 62.256 18.104C62.7893 18.0827 63.2373 18.072 63.6 18.072C63.8133 18.072 64.016 18.1147 64.208 18.2C64.4 18.264 64.496 18.3707 64.496 18.52C64.496 18.6907 64.4 18.84 64.208 18.968C64.016 19.0747 63.7813 19.1493 63.504 19.192C62.8853 19.2987 62.4053 19.448 62.064 19.64C61.744 19.8107 61.584 20.0773 61.584 20.44C61.584 20.6533 61.616 20.856 61.68 21.048C61.744 21.24 61.7867 21.4107 61.808 21.56L66.128 33.336C66.1707 33.4427 66.2133 33.5067 66.256 33.528C66.32 33.5493 66.384 33.4747 66.448 33.304L70.384 22.936C70.8107 21.8267 70.8747 20.9627 70.576 20.344C70.2987 19.704 69.7333 19.32 68.88 19.192C68.6027 19.1493 68.3573 19.0747 68.144 18.968C67.952 18.84 67.856 18.6907 67.856 18.52C67.856 18.3707 67.952 18.264 68.144 18.2C68.336 18.136 68.5493 18.104 68.784 18.104C69.168 18.104 69.52 18.1147 69.84 18.136C70.16 18.136 70.48 18.1467 70.8 18.168C71.12 18.168 71.4827 18.168 71.888 18.168C72.5067 18.168 73.1147 18.1467 73.712 18.104C74.3307 18.0613 74.9067 18.04 75.44 18.04C75.696 18.04 75.92 18.072 76.112 18.136C76.304 18.2 76.4 18.3173 76.4 18.488C76.4 18.68 76.304 18.8187 76.112 18.904C75.9413 18.9893 75.728 19.064 75.472 19.128C74.768 19.2987 74.1813 19.64 73.712 20.152C73.264 20.664 72.8693 21.3253 72.528 22.136L67.28 34.744C67.0453 35.32 66.8107 35.864 66.576 36.376C66.3627 36.888 66.16 37.368 65.968 37.816C65.7973 38.264 65.616 38.68 65.424 39.064C65.36 39.2133 65.2853 39.32 65.2 39.384C65.1147 39.448 64.9867 39.48 64.816 39.48ZM77.6775 39.096C77.5068 39.096 77.3682 39.064 77.2615 39C77.1548 38.9147 77.1015 38.808 77.1015 38.68C77.1015 38.5093 77.1655 38.3813 77.2935 38.296C77.4215 38.2107 77.5708 38.1467 77.7415 38.104C78.2535 37.976 78.6162 37.8373 78.8295 37.688C79.0642 37.5387 79.1815 37.2827 79.1815 36.92V29.976C79.1815 29.2933 79.0748 28.7813 78.8615 28.44C78.6482 28.0987 78.2855 27.8853 77.7735 27.8C77.6668 27.7787 77.5815 27.7253 77.5175 27.64C77.4535 27.5333 77.4215 27.416 77.4215 27.288C77.4215 26.9893 77.5388 26.8293 77.7735 26.808C78.7975 26.5947 79.6828 26.3067 80.4295 25.944C81.1975 25.56 81.7842 25.2613 82.1895 25.048C82.4882 24.8987 82.6802 24.824 82.7655 24.824C83.0002 24.824 83.1175 24.9307 83.1175 25.144C83.0962 25.4427 83.0535 25.8587 82.9895 26.392C82.9255 26.904 82.8615 27.4587 82.7975 28.056C82.7548 28.632 82.7335 29.176 82.7335 29.688V36.888C82.7335 37.208 82.8508 37.4533 83.0855 37.624C83.3202 37.7947 83.6935 37.9547 84.2055 38.104C84.3762 38.168 84.5255 38.2427 84.6535 38.328C84.7815 38.392 84.8455 38.5093 84.8455 38.68C84.8455 38.936 84.6642 39.064 84.3015 39.064C83.8962 39.064 83.5015 39.0533 83.1175 39.032C82.7548 39.0107 82.3922 38.9893 82.0295 38.968C81.6882 38.9467 81.3255 38.936 80.9415 38.936C80.5788 38.936 80.2268 38.9467 79.8855 38.968C79.5442 38.9893 79.1922 39.0107 78.8295 39.032C78.4882 39.0747 78.1042 39.096 77.6775 39.096ZM80.8775 22.968C80.2588 22.968 79.7362 22.7547 79.3095 22.328C78.8828 21.9013 78.6695 21.3893 78.6695 20.792C78.6695 20.1307 78.8828 19.5867 79.3095 19.16C79.7362 18.7333 80.2588 18.52 80.8775 18.52C81.5175 18.52 82.0508 18.7333 82.4775 19.16C82.9042 19.5867 83.1175 20.1307 83.1175 20.792C83.1175 21.3893 82.9042 21.9013 82.4775 22.328C82.0508 22.7547 81.5175 22.968 80.8775 22.968ZM91.351 39.448C90.6683 39.448 90.007 39.352 89.367 39.16C88.7483 38.9893 88.183 38.7227 87.671 38.36C87.5217 38.0613 87.4043 37.592 87.319 36.952C87.255 36.312 87.223 35.6827 87.223 35.064C87.223 34.808 87.4043 34.68 87.767 34.68C87.9163 34.68 88.0443 34.7227 88.151 34.808C88.2577 34.8933 88.3323 34.9893 88.375 35.096C88.7377 36.0347 89.1963 36.792 89.751 37.368C90.3057 37.9227 90.935 38.2 91.639 38.2C92.2363 38.2 92.7057 38.0187 93.047 37.656C93.3883 37.272 93.559 36.8347 93.559 36.344C93.559 35.768 93.3457 35.288 92.919 34.904C92.5137 34.52 91.9483 34.1253 91.223 33.72C90.5617 33.3573 89.9643 32.9733 89.431 32.568C88.919 32.1627 88.5137 31.704 88.215 31.192C87.9163 30.6587 87.767 30.04 87.767 29.336C87.767 28.5467 87.9697 27.8533 88.375 27.256C88.7803 26.6587 89.3457 26.1893 90.071 25.848C90.8177 25.5067 91.671 25.336 92.631 25.336C93.3137 25.336 93.9217 25.4107 94.455 25.56C95.0097 25.7093 95.3937 25.8587 95.607 26.008C95.7777 26.2213 95.9163 26.616 96.023 27.192C96.1297 27.7467 96.183 28.3333 96.183 28.952C96.183 29.144 96.023 29.24 95.703 29.24C95.5537 29.24 95.4043 29.1973 95.255 29.112C95.1057 29.0267 95.0097 28.9413 94.967 28.856C94.6897 28.0667 94.3377 27.4693 93.911 27.064C93.4843 26.6587 92.9937 26.456 92.439 26.456C91.9483 26.456 91.5003 26.616 91.095 26.936C90.711 27.2347 90.519 27.6613 90.519 28.216C90.519 28.664 90.7003 29.0693 91.063 29.432C91.447 29.7947 91.991 30.168 92.695 30.552C94.039 31.2773 95.0097 31.9707 95.607 32.632C96.2043 33.272 96.503 34.136 96.503 35.224C96.503 36.5253 96.055 37.56 95.159 38.328C94.263 39.0747 92.9937 39.448 91.351 39.448ZM102.38 39.448C101.868 39.448 101.377 39.3093 100.908 39.032C100.46 38.7547 100.097 38.392 99.82 37.944C99.5427 37.496 99.404 37.0373 99.404 36.568C99.404 35.8427 99.6173 35.256 100.044 34.808C100.471 34.3387 101.111 33.9227 101.964 33.56L104.94 32.28C105.367 32.1093 105.623 31.9493 105.708 31.8C105.815 31.6507 105.868 31.3733 105.868 30.968L105.932 29.08C105.953 28.4827 105.825 28.0027 105.548 27.64C105.292 27.2773 104.897 27.096 104.364 27.096C104.087 27.096 103.799 27.1493 103.5 27.256C103.201 27.3627 102.967 27.5013 102.796 27.672C102.711 27.7573 102.647 27.8747 102.604 28.024C102.583 28.152 102.572 28.28 102.572 28.408C102.572 28.5147 102.572 28.6533 102.572 28.824C102.593 28.9733 102.604 29.112 102.604 29.24C102.604 29.368 102.444 29.528 102.124 29.72C101.804 29.912 101.441 30.0827 101.036 30.232C100.631 30.3813 100.289 30.456 100.012 30.456C99.8627 30.456 99.7453 30.4027 99.66 30.296C99.5747 30.1893 99.532 30.0613 99.532 29.912C99.532 29.5707 99.6387 29.2293 99.852 28.888C100.087 28.5253 100.449 28.1413 100.94 27.736C101.473 27.288 102.06 26.8933 102.7 26.552C103.34 26.1893 103.959 25.9013 104.556 25.688C105.175 25.4747 105.708 25.368 106.156 25.368C107.18 25.368 108.001 25.7093 108.62 26.392C109.239 27.0533 109.537 27.928 109.516 29.016L109.356 35.864C109.335 36.3333 109.42 36.728 109.612 37.048C109.825 37.368 110.081 37.528 110.38 37.528C110.828 37.528 111.191 37.4 111.468 37.144C111.553 37.0587 111.628 37.016 111.692 37.016C111.799 37.016 111.884 37.0587 111.948 37.144C112.033 37.208 112.076 37.2933 112.076 37.4C112.076 37.6347 111.905 37.9227 111.564 38.264C111.18 38.648 110.764 38.936 110.316 39.128C109.889 39.3413 109.463 39.448 109.036 39.448C107.905 39.448 106.988 38.8613 106.284 37.688H106.188C105.484 38.3067 104.833 38.7547 104.236 39.032C103.66 39.3093 103.041 39.448 102.38 39.448ZM104.14 37.528C104.439 37.528 104.695 37.4853 104.908 37.4C105.121 37.2933 105.303 37.1547 105.452 36.984C105.537 36.8773 105.601 36.7493 105.644 36.6C105.708 36.4507 105.751 36.2373 105.772 35.96L105.836 33.912C105.857 33.6987 105.836 33.56 105.772 33.496C105.708 33.4107 105.633 33.368 105.548 33.368C105.505 33.368 105.441 33.3787 105.356 33.4C105.271 33.4 105.175 33.432 105.068 33.496C104.279 33.816 103.713 34.1573 103.372 34.52C103.031 34.8827 102.86 35.352 102.86 35.928C102.86 36.504 102.999 36.92 103.276 37.176C103.553 37.4107 103.841 37.528 104.14 37.528Z" fill="#181A1C"/>
<path d="M114.374 39.128C114.182 39.128 114.011 39.0853 113.862 39C113.712 38.936 113.638 38.84 113.638 38.712C113.638 38.392 113.904 38.1787 114.438 38.072C115.248 37.9013 115.803 37.6667 116.102 37.368C116.422 37.0693 116.582 36.568 116.582 35.864V21.784C116.582 20.9733 116.443 20.376 116.166 19.992C115.91 19.608 115.398 19.3307 114.63 19.16C114.331 19.096 114.118 19.0107 113.99 18.904C113.862 18.776 113.798 18.648 113.798 18.52C113.798 18.3707 113.862 18.264 113.99 18.2C114.139 18.1147 114.331 18.072 114.566 18.072C115.163 18.072 115.739 18.0827 116.294 18.104C116.848 18.1253 117.392 18.1467 117.926 18.168C118.459 18.1893 119.003 18.2 119.558 18.2C120.326 18.2 121.158 18.2 122.054 18.2C122.971 18.2 123.835 18.2 124.646 18.2C125.456 18.2 126.182 18.1467 126.822 18.04C127.483 17.912 128.038 17.848 128.486 17.848C128.614 17.848 128.752 17.8907 128.902 17.976C129.072 18.04 129.168 18.168 129.19 18.36C129.232 18.7653 129.264 19.224 129.286 19.736C129.307 20.248 129.318 20.7387 129.318 21.208C129.339 21.6773 129.35 22.0507 129.35 22.328C129.35 22.7547 129.232 22.968 128.998 22.968C128.891 22.968 128.774 22.9253 128.646 22.84C128.539 22.7547 128.464 22.6373 128.422 22.488C128.294 22.0187 128.144 21.6027 127.974 21.24C127.824 20.856 127.632 20.5573 127.398 20.344C127.12 20.024 126.79 19.8 126.406 19.672C126.043 19.544 125.616 19.48 125.126 19.48H122.214C121.702 19.48 121.318 19.6293 121.062 19.928C120.827 20.2053 120.71 20.568 120.71 21.016C120.71 21.4 120.71 21.8587 120.71 22.392C120.71 22.9253 120.71 23.4267 120.71 23.896C120.71 24.3867 120.71 24.9093 120.71 25.464C120.71 26.0187 120.71 26.52 120.71 26.968C120.71 27.1813 120.752 27.3627 120.838 27.512C120.944 27.64 121.104 27.704 121.318 27.704C121.894 27.704 122.47 27.6933 123.046 27.672C123.643 27.6507 124.166 27.64 124.614 27.64C125.126 27.64 125.52 27.4907 125.798 27.192C126.096 26.8933 126.331 26.5307 126.502 26.104C126.587 25.9547 126.683 25.8267 126.79 25.72C126.918 25.6133 127.035 25.56 127.142 25.56C127.248 25.56 127.344 25.6133 127.43 25.72C127.536 25.8267 127.579 25.9867 127.558 26.2C127.515 26.6053 127.472 26.9893 127.43 27.352C127.408 27.6933 127.398 28.0133 127.398 28.312C127.398 28.696 127.408 29.0373 127.43 29.336C127.451 29.6347 127.483 30.0293 127.526 30.52C127.547 30.7547 127.526 30.936 127.462 31.064C127.419 31.192 127.334 31.256 127.206 31.256C127.035 31.256 126.875 31.1707 126.726 31C126.598 30.8293 126.512 30.6587 126.47 30.488C126.299 29.912 126.075 29.5173 125.798 29.304C125.542 29.0907 125.243 28.984 124.902 28.984C124.646 28.984 124.379 28.984 124.102 28.984C123.846 28.9627 123.6 28.952 123.366 28.952C123.046 28.952 122.715 28.952 122.374 28.952C122.054 28.952 121.734 28.9627 121.414 28.984C121.179 29.0053 120.998 29.08 120.87 29.208C120.742 29.3147 120.678 29.496 120.678 29.752C120.678 30.7333 120.678 31.736 120.678 32.76C120.699 33.784 120.72 34.808 120.742 35.832C120.763 36.4933 120.944 36.984 121.286 37.304C121.627 37.624 122.224 37.88 123.078 38.072C123.355 38.1147 123.558 38.1893 123.686 38.296C123.814 38.3813 123.878 38.5093 123.878 38.68C123.878 38.8293 123.814 38.936 123.686 39C123.579 39.064 123.408 39.096 123.174 39.096C122.683 39.096 122.171 39.0747 121.638 39.032C121.126 39.0107 120.624 38.9893 120.134 38.968C119.664 38.9467 119.227 38.936 118.822 38.936C118.352 38.936 117.872 38.9467 117.382 38.968C116.891 38.9893 116.39 39.0213 115.878 39.064C115.387 39.1067 114.886 39.128 114.374 39.128ZM134.238 39.448C133.726 39.448 133.235 39.3093 132.766 39.032C132.318 38.7547 131.955 38.392 131.678 37.944C131.4 37.496 131.262 37.0373 131.262 36.568C131.262 35.8427 131.475 35.256 131.902 34.808C132.328 34.3387 132.968 33.9227 133.822 33.56L136.798 32.28C137.224 32.1093 137.48 31.9493 137.566 31.8C137.672 31.6507 137.726 31.3733 137.726 30.968L137.79 29.08C137.811 28.4827 137.683 28.0027 137.406 27.64C137.15 27.2773 136.755 27.096 136.222 27.096C135.944 27.096 135.656 27.1493 135.358 27.256C135.059 27.3627 134.824 27.5013 134.654 27.672C134.568 27.7573 134.504 27.8747 134.462 28.024C134.44 28.152 134.43 28.28 134.43 28.408C134.43 28.5147 134.43 28.6533 134.43 28.824C134.451 28.9733 134.462 29.112 134.462 29.24C134.462 29.368 134.302 29.528 133.982 29.72C133.662 29.912 133.299 30.0827 132.894 30.232C132.488 30.3813 132.147 30.456 131.87 30.456C131.72 30.456 131.603 30.4027 131.518 30.296C131.432 30.1893 131.39 30.0613 131.39 29.912C131.39 29.5707 131.496 29.2293 131.71 28.888C131.944 28.5253 132.307 28.1413 132.798 27.736C133.331 27.288 133.918 26.8933 134.558 26.552C135.198 26.1893 135.816 25.9013 136.414 25.688C137.032 25.4747 137.566 25.368 138.014 25.368C139.038 25.368 139.859 25.7093 140.478 26.392C141.096 27.0533 141.395 27.928 141.374 29.016L141.214 35.864C141.192 36.3333 141.278 36.728 141.47 37.048C141.683 37.368 141.939 37.528 142.238 37.528C142.686 37.528 143.048 37.4 143.326 37.144C143.411 37.0587 143.486 37.016 143.55 37.016C143.656 37.016 143.742 37.0587 143.806 37.144C143.891 37.208 143.934 37.2933 143.934 37.4C143.934 37.6347 143.763 37.9227 143.422 38.264C143.038 38.648 142.622 38.936 142.174 39.128C141.747 39.3413 141.32 39.448 140.894 39.448C139.763 39.448 138.846 38.8613 138.142 37.688H138.046C137.342 38.3067 136.691 38.7547 136.094 39.032C135.518 39.3093 134.899 39.448 134.238 39.448ZM135.998 37.528C136.296 37.528 136.552 37.4853 136.766 37.4C136.979 37.2933 137.16 37.1547 137.31 36.984C137.395 36.8773 137.459 36.7493 137.502 36.6C137.566 36.4507 137.608 36.2373 137.63 35.96L137.694 33.912C137.715 33.6987 137.694 33.56 137.63 33.496C137.566 33.4107 137.491 33.368 137.406 33.368C137.363 33.368 137.299 33.3787 137.214 33.4C137.128 33.4 137.032 33.432 136.926 33.496C136.136 33.816 135.571 34.1573 135.23 34.52C134.888 34.8827 134.718 35.352 134.718 35.928C134.718 36.504 134.856 36.92 135.134 37.176C135.411 37.4107 135.699 37.528 135.998 37.528ZM149.847 39.448C149.165 39.448 148.503 39.352 147.863 39.16C147.245 38.9893 146.679 38.7227 146.167 38.36C146.018 38.0613 145.901 37.592 145.815 36.952C145.751 36.312 145.719 35.6827 145.719 35.064C145.719 34.808 145.901 34.68 146.263 34.68C146.413 34.68 146.541 34.7227 146.647 34.808C146.754 34.8933 146.829 34.9893 146.871 35.096C147.234 36.0347 147.693 36.792 148.247 37.368C148.802 37.9227 149.431 38.2 150.135 38.2C150.733 38.2 151.202 38.0187 151.543 37.656C151.885 37.272 152.055 36.8347 152.055 36.344C152.055 35.768 151.842 35.288 151.415 34.904C151.01 34.52 150.445 34.1253 149.719 33.72C149.058 33.3573 148.461 32.9733 147.927 32.568C147.415 32.1627 147.01 31.704 146.711 31.192C146.413 30.6587 146.263 30.04 146.263 29.336C146.263 28.5467 146.466 27.8533 146.871 27.256C147.277 26.6587 147.842 26.1893 148.567 25.848C149.314 25.5067 150.167 25.336 151.127 25.336C151.81 25.336 152.418 25.4107 152.951 25.56C153.506 25.7093 153.89 25.8587 154.103 26.008C154.274 26.2213 154.413 26.616 154.519 27.192C154.626 27.7467 154.679 28.3333 154.679 28.952C154.679 29.144 154.519 29.24 154.199 29.24C154.05 29.24 153.901 29.1973 153.751 29.112C153.602 29.0267 153.506 28.9413 153.463 28.856C153.186 28.0667 152.834 27.4693 152.407 27.064C151.981 26.6587 151.49 26.456 150.935 26.456C150.445 26.456 149.997 26.616 149.591 26.936C149.207 27.2347 149.015 27.6613 149.015 28.216C149.015 28.664 149.197 29.0693 149.559 29.432C149.943 29.7947 150.487 30.168 151.191 30.552C152.535 31.2773 153.506 31.9707 154.103 32.632C154.701 33.272 154.999 34.136 154.999 35.224C154.999 36.5253 154.551 37.56 153.655 38.328C152.759 39.0747 151.49 39.448 149.847 39.448ZM163.564 39.448C162.284 39.448 161.314 39.1067 160.652 38.424C159.991 37.7413 159.66 36.7493 159.66 35.448V28.056C159.66 27.8853 159.586 27.7573 159.436 27.672C159.308 27.5867 159.042 27.5333 158.636 27.512H158.284C158.156 27.512 158.05 27.416 157.964 27.224C157.879 27.0107 157.836 26.808 157.836 26.616C157.836 26.5733 157.847 26.52 157.868 26.456C157.911 26.3707 157.964 26.3173 158.028 26.296C158.519 26.0827 159.02 25.7947 159.532 25.432C160.044 25.048 160.524 24.664 160.972 24.28C161.42 23.8747 161.794 23.5333 162.092 23.256C162.242 23.1493 162.359 23.0533 162.444 22.968C162.551 22.8827 162.668 22.84 162.796 22.84C162.967 22.84 163.095 22.8827 163.18 22.968C163.287 23.032 163.319 23.1707 163.276 23.384L163.084 25.144C163.063 25.4 163.116 25.5707 163.244 25.656C163.394 25.7413 163.596 25.784 163.852 25.784H167.628C167.692 25.784 167.756 25.8587 167.82 26.008C167.884 26.1573 167.916 26.3067 167.916 26.456C167.916 26.7333 167.874 26.9893 167.788 27.224C167.724 27.4587 167.639 27.576 167.532 27.576H164.492C164.002 27.576 163.66 27.6293 163.468 27.736C163.298 27.8427 163.212 28.0667 163.212 28.408V34.552C163.212 35.4907 163.394 36.2053 163.756 36.696C164.119 37.1653 164.631 37.4 165.292 37.4C165.89 37.4 166.338 37.3467 166.636 37.24C166.956 37.1333 167.244 37.0053 167.5 36.856C167.564 36.8133 167.618 36.792 167.66 36.792C167.767 36.792 167.842 36.856 167.884 36.984C167.948 37.112 167.98 37.2507 167.98 37.4C167.98 37.5067 167.767 37.7307 167.34 38.072C166.935 38.4133 166.391 38.7227 165.708 39C165.047 39.2987 164.332 39.448 163.564 39.448Z" fill="#4893FF"/>
</svg>
