<svg width="200" height="50" viewBox="0 0 200 50" fill="none" xmlns="http://www.w3.org/2000/svg">
<ellipse cx="25" cy="25" rx="25" ry="25" fill="#E50114"/>
<path d="M26 36.2857C25.8077 36.2853 25.6156 36.2727 25.4249 36.248C23.6633 33.4253 22.688 30.1832 22.5997 26.8571H37.9571C37.9777 26.5726 38 26.2889 38 26C38 23.6266 37.2962 21.3066 35.9776 19.3332C34.6591 17.3598 32.7849 15.8217 30.5922 14.9135C28.3995 14.0052 25.9867 13.7676 23.6589 14.2306C21.3311 14.6936 19.193 15.8365 17.5147 17.5147C15.8365 19.193 14.6936 21.3311 14.2306 23.6589C13.7676 25.9867 14.0052 28.3995 14.9135 30.5922C15.8217 32.7849 17.3598 34.6591 19.3332 35.9776C21.3066 37.2962 23.6266 38 26 38V36.2857ZM36.2429 25.1429H31.1111C31.019 21.9889 30.2121 18.8969 28.7514 16.1C30.773 16.6641 32.5738 17.8325 33.9127 19.4487C35.2516 21.0649 36.0646 23.0517 36.2429 25.1429ZM26.5743 15.752C28.3361 18.5746 29.3118 21.8167 29.4003 25.1429H22.5997C22.6882 21.8167 23.6639 18.5746 25.4257 15.752C25.8075 15.7019 26.1942 15.7019 26.576 15.752H26.5743ZM23.2477 16.0991C21.7873 18.8964 20.9807 21.9886 20.8889 25.1429H15.7571C15.9355 23.0517 16.7485 21.065 18.0874 19.4488C19.4263 17.8327 21.2271 16.6642 23.2486 16.1L23.2477 16.0991ZM15.7571 26.8571H20.8889C20.9811 30.0111 21.788 33.1031 23.2486 35.9C21.2271 35.3358 19.4263 34.1673 18.0874 32.5512C16.7485 30.935 15.9355 28.9483 15.7571 26.8571Z" fill="white"/>
<path fill-rule="evenodd" clip-rule="evenodd" d="M32.8333 33L37 34.6667V33L32.8333 30.9167V28.8333C32.8333 28.6123 32.7455 28.4004 32.5893 28.2441C32.433 28.0878 32.221 28 32 28C31.779 28 31.567 28.0878 31.4107 28.2441C31.2545 28.4004 31.1667 28.6123 31.1667 28.8333V30.9167L27 33V34.6667L31.1667 33V35.9167L29.5 37.1667V38L32 37.1667L34.5 38V37.1667L32.8333 35.9167V33Z" fill="white"/>
<path d="M70.928 11.96C71.8027 11.4053 72.7307 11.128 73.712 11.128C74.6933 11.128 75.4507 11.384 75.984 11.896C76.5173 12.408 76.784 13.0587 76.784 13.848C76.784 14.6373 76.592 15.4907 76.208 16.408L70.064 31.288C69.3813 32.9307 68.7733 34.0187 68.24 34.552C67.7067 35.0853 66.8533 35.352 65.68 35.352C65.0613 35.352 64.56 35.2987 64.176 35.192C63.8133 35.0853 63.472 34.84 63.152 34.456C62.8533 34.072 62.608 33.6773 62.416 33.272C62.2453 32.8667 62 32.2053 61.68 31.288L55.888 14.968C55.4827 13.8373 54.9173 13.08 54.192 12.696C55.1947 11.6507 56.304 11.128 57.52 11.128C58.3947 11.128 59.12 11.3947 59.696 11.928C60.272 12.44 60.784 13.368 61.232 14.712L66.16 30.104L71.024 16.312C71.4293 15.0747 71.632 14.1573 71.632 13.56C71.632 12.9413 71.3973 12.408 70.928 11.96ZM83.551 9.912C84.383 9.912 85.0657 10.168 85.599 10.68C86.1537 11.1707 86.431 11.832 86.431 12.664C86.431 13.4747 86.079 14.2213 85.375 14.904C84.6923 15.5867 83.903 15.928 83.007 15.928C82.111 15.928 81.3857 15.672 80.831 15.16C80.2977 14.6267 80.031 13.9333 80.031 13.08C80.031 12.2267 80.4043 11.4907 81.151 10.872C81.919 10.232 82.719 9.912 83.551 9.912ZM85.855 21.72V31.704C85.855 32.856 86.207 33.6133 86.911 33.976C86.1003 34.8933 85.119 35.352 83.967 35.352C81.8763 35.352 80.831 34.0827 80.831 31.544V21.528C80.831 20.4187 80.4683 19.672 79.743 19.288C80.5537 18.3707 81.5137 17.912 82.623 17.912C83.7537 17.912 84.575 18.2213 85.087 18.84C85.599 19.4587 85.855 20.4187 85.855 21.72ZM104.243 21.528C104.243 22.232 104.041 22.776 103.635 23.16C103.23 23.544 102.654 23.736 101.907 23.736C101.161 23.736 100.446 23.48 99.7635 22.968C100.041 22.0933 99.9128 21.432 99.3795 20.984C99.0382 20.7067 98.5688 20.568 97.9715 20.568C97.3955 20.568 96.9262 20.696 96.5635 20.952C96.2222 21.1867 96.0515 21.5493 96.0515 22.04C96.0515 22.5307 96.3608 23 96.9795 23.448C97.5982 23.8747 98.3448 24.28 99.2195 24.664C100.094 25.0267 100.969 25.432 101.843 25.88C102.718 26.3067 103.465 26.872 104.083 27.576C104.702 28.28 105.011 29.08 105.011 29.976C105.011 31.5547 104.275 32.8453 102.803 33.848C101.331 34.8507 99.5608 35.352 97.4915 35.352C95.4435 35.352 93.7262 34.9787 92.3395 34.232C90.9315 33.4427 90.2275 32.4613 90.2275 31.288C90.2275 30.584 90.4942 30.008 91.0275 29.56C91.5608 29.0907 92.2008 28.856 92.9475 28.856C94.1208 28.856 94.9528 29.2187 95.4435 29.944C95.0808 30.2427 94.8995 30.6373 94.8995 31.128C94.8995 31.6187 95.1342 32.0027 95.6035 32.28C96.0728 32.536 96.6915 32.664 97.4595 32.664C98.2275 32.664 98.8355 32.5147 99.2835 32.216C99.7528 31.896 99.9875 31.4907 99.9875 31C99.9875 30.5093 99.6782 30.0507 99.0595 29.624C98.4408 29.1973 97.6942 28.792 96.8195 28.408C95.9448 28.024 95.0702 27.608 94.1955 27.16C93.3208 26.712 92.5742 26.136 91.9555 25.432C91.3368 24.7067 91.0275 23.9067 91.0275 23.032C91.0275 21.6453 91.6995 20.4507 93.0435 19.448C94.3875 18.424 95.9768 17.912 97.8115 17.912C99.6675 17.912 101.203 18.2533 102.419 18.936C103.635 19.6187 104.243 20.4827 104.243 21.528ZM113.631 30.616C113.631 31.6613 114.229 32.184 115.423 32.184C116.298 32.184 117.087 31.7787 117.791 30.968V27.864C115.018 28.0133 113.631 28.9307 113.631 30.616ZM122.815 23.672V30.936C122.815 32.28 123.391 33.1333 124.543 33.496C124.159 34.0293 123.637 34.4773 122.975 34.84C122.335 35.1813 121.653 35.352 120.927 35.352C119.349 35.352 118.367 34.648 117.983 33.24C116.661 34.648 115.007 35.352 113.023 35.352C111.551 35.352 110.378 34.9893 109.503 34.264C108.629 33.5387 108.191 32.5147 108.191 31.192C108.191 29.5707 109.034 28.28 110.719 27.32C112.426 26.3387 114.783 25.8267 117.791 25.784V22.744C117.791 21.3147 117.215 20.6 116.063 20.6C115.594 20.6 115.199 20.7493 114.879 21.048C114.581 21.3253 114.431 21.7093 114.431 22.2C114.431 22.6693 114.602 23.1067 114.943 23.512C114.218 24.28 113.301 24.664 112.191 24.664C111.103 24.664 110.293 24.4187 109.759 23.928C109.247 23.4373 108.991 22.7973 108.991 22.008C108.991 20.8133 109.717 19.832 111.167 19.064C112.639 18.296 114.346 17.912 116.287 17.912C118.25 17.912 119.829 18.3707 121.023 19.288C122.218 20.2053 122.815 21.6667 122.815 23.672Z" fill="white"/>
<path d="M131.69 11.448H142.762C144.383 11.448 145.503 11.64 146.122 12.024C146.762 12.408 147.082 12.9947 147.082 13.784C147.082 14.552 146.741 15.224 146.058 15.8C145.034 15.3947 143.69 15.192 142.026 15.192H134.89V20.856H139.306C141.013 20.856 142.218 21.016 142.922 21.336C143.647 21.6347 144.01 22.1467 144.01 22.872C144.01 23.576 143.669 24.1627 142.986 24.632C142.218 24.4187 140.874 24.312 138.954 24.312H134.89V31.704C134.89 32.856 135.231 33.6133 135.914 33.976C135.146 34.8933 134.175 35.352 133.002 35.352C130.911 35.352 129.866 34.0827 129.866 31.544V15.064C129.866 13.976 129.503 13.24 128.778 12.856C129.567 11.9173 130.538 11.448 131.69 11.448ZM155.208 30.616C155.208 31.6613 155.805 32.184 157 32.184C157.874 32.184 158.664 31.7787 159.368 30.968V27.864C156.594 28.0133 155.208 28.9307 155.208 30.616ZM164.392 23.672V30.936C164.392 32.28 164.968 33.1333 166.12 33.496C165.736 34.0293 165.213 34.4773 164.552 34.84C163.912 35.1813 163.229 35.352 162.504 35.352C160.925 35.352 159.944 34.648 159.56 33.24C158.237 34.648 156.584 35.352 154.6 35.352C153.128 35.352 151.954 34.9893 151.08 34.264C150.205 33.5387 149.768 32.5147 149.768 31.192C149.768 29.5707 150.61 28.28 152.296 27.32C154.002 26.3387 156.36 25.8267 159.368 25.784V22.744C159.368 21.3147 158.792 20.6 157.64 20.6C157.17 20.6 156.776 20.7493 156.456 21.048C156.157 21.3253 156.008 21.7093 156.008 22.2C156.008 22.6693 156.178 23.1067 156.52 23.512C155.794 24.28 154.877 24.664 153.768 24.664C152.68 24.664 151.869 24.4187 151.336 23.928C150.824 23.4373 150.568 22.7973 150.568 22.008C150.568 20.8133 151.293 19.832 152.744 19.064C154.216 18.296 155.922 17.912 157.864 17.912C159.826 17.912 161.405 18.3707 162.6 19.288C163.794 20.2053 164.392 21.6667 164.392 23.672ZM182.802 21.528C182.802 22.232 182.6 22.776 182.194 23.16C181.789 23.544 181.213 23.736 180.466 23.736C179.72 23.736 179.005 23.48 178.322 22.968C178.6 22.0933 178.472 21.432 177.938 20.984C177.597 20.7067 177.128 20.568 176.53 20.568C175.954 20.568 175.485 20.696 175.122 20.952C174.781 21.1867 174.61 21.5493 174.61 22.04C174.61 22.5307 174.92 23 175.538 23.448C176.157 23.8747 176.904 24.28 177.778 24.664C178.653 25.0267 179.528 25.432 180.402 25.88C181.277 26.3067 182.024 26.872 182.642 27.576C183.261 28.28 183.57 29.08 183.57 29.976C183.57 31.5547 182.834 32.8453 181.362 33.848C179.89 34.8507 178.12 35.352 176.05 35.352C174.002 35.352 172.285 34.9787 170.898 34.232C169.49 33.4427 168.786 32.4613 168.786 31.288C168.786 30.584 169.053 30.008 169.586 29.56C170.12 29.0907 170.76 28.856 171.506 28.856C172.68 28.856 173.512 29.2187 174.002 29.944C173.64 30.2427 173.458 30.6373 173.458 31.128C173.458 31.6187 173.693 32.0027 174.162 32.28C174.632 32.536 175.25 32.664 176.018 32.664C176.786 32.664 177.394 32.5147 177.842 32.216C178.312 31.896 178.546 31.4907 178.546 31C178.546 30.5093 178.237 30.0507 177.618 29.624C177 29.1973 176.253 28.792 175.378 28.408C174.504 28.024 173.629 27.608 172.754 27.16C171.88 26.712 171.133 26.136 170.514 25.432C169.896 24.7067 169.586 23.9067 169.586 23.032C169.586 21.6453 170.258 20.4507 171.602 19.448C172.946 18.424 174.536 17.912 176.37 17.912C178.226 17.912 179.762 18.2533 180.978 18.936C182.194 19.6187 182.802 20.4827 182.802 21.528ZM193.15 21.336V29.976C193.15 31.32 193.673 31.992 194.718 31.992C195.87 31.992 196.937 31.4693 197.918 30.424C198.217 30.424 198.462 30.552 198.654 30.808C198.867 31.0427 198.974 31.3627 198.974 31.768C198.974 32.6427 198.441 33.464 197.374 34.232C196.307 34.9787 194.985 35.352 193.406 35.352C191.849 35.352 190.579 34.9573 189.598 34.168C188.617 33.3787 188.126 32.1733 188.126 30.552V21.336C187.358 21.3147 186.782 21.1333 186.398 20.792C186.014 20.4293 185.822 19.9813 185.822 19.448C185.822 18.9147 186.046 18.488 186.494 18.168C187.006 18.232 187.55 18.264 188.126 18.264V17.304C188.126 16.1947 187.763 15.448 187.038 15.064C187.849 14.1467 188.809 13.688 189.918 13.688C191.049 13.688 191.87 13.9973 192.382 14.616C192.894 15.2347 193.15 16.1947 193.15 17.496V18.264H197.982C198.131 18.4347 198.206 18.648 198.206 18.904C198.206 19.5653 197.843 20.1413 197.118 20.632C196.414 21.1013 195.177 21.336 193.406 21.336H193.15Z" fill="#E50114"/>
</svg>
