<svg width="191" height="50" viewBox="0 0 191 50" fill="none" xmlns="http://www.w3.org/2000/svg">
<ellipse cx="25" cy="25" rx="25" ry="25" fill="#0D4F51"/>
<path d="M26 36.2857C25.8077 36.2853 25.6156 36.2727 25.4249 36.248C23.6633 33.4253 22.688 30.1832 22.5997 26.8571H37.9571C37.9777 26.5726 38 26.2889 38 26C38 23.6266 37.2962 21.3066 35.9776 19.3332C34.6591 17.3598 32.7849 15.8217 30.5922 14.9135C28.3995 14.0052 25.9867 13.7676 23.6589 14.2306C21.3311 14.6936 19.193 15.8365 17.5147 17.5147C15.8365 19.193 14.6936 21.3311 14.2306 23.6589C13.7676 25.9867 14.0052 28.3995 14.9135 30.5922C15.8217 32.7849 17.3598 34.6591 19.3332 35.9776C21.3066 37.2962 23.6266 38 26 38V36.2857ZM36.2429 25.1429H31.1111C31.019 21.9889 30.2121 18.8969 28.7514 16.1C30.773 16.6641 32.5738 17.8325 33.9127 19.4487C35.2516 21.0649 36.0646 23.0517 36.2429 25.1429ZM26.5743 15.752C28.3361 18.5746 29.3118 21.8167 29.4003 25.1429H22.5997C22.6882 21.8167 23.6639 18.5746 25.4257 15.752C25.8075 15.7019 26.1942 15.7019 26.576 15.752H26.5743ZM23.2477 16.0991C21.7873 18.8964 20.9807 21.9886 20.8889 25.1429H15.7571C15.9355 23.0517 16.7485 21.065 18.0874 19.4488C19.4263 17.8327 21.2271 16.6642 23.2486 16.1L23.2477 16.0991ZM15.7571 26.8571H20.8889C20.9811 30.0111 21.788 33.1031 23.2486 35.9C21.2271 35.3358 19.4263 34.1673 18.0874 32.5512C16.7485 30.935 15.9355 28.9483 15.7571 26.8571Z" fill="white"/>
<path fill-rule="evenodd" clip-rule="evenodd" d="M32.8333 33L37 34.6667V33L32.8333 30.9167V28.8333C32.8333 28.6123 32.7455 28.4004 32.5893 28.2441C32.433 28.0878 32.221 28 32 28C31.779 28 31.567 28.0878 31.4107 28.2441C31.2545 28.4004 31.1667 28.6123 31.1667 28.8333V30.9167L27 33V34.6667L31.1667 33V35.9167L29.5 37.1667V38L32 37.1667L34.5 38V37.1667L32.8333 35.9167V33Z" fill="white"/>
<path d="M71.44 16.328C70.928 16.2213 70.448 16.104 70 15.976C69.552 15.8267 69.1147 15.6773 68.688 15.528V14.6H75.888V15.528C75.2693 15.8693 74.5013 16.136 73.584 16.328L66.352 37L64.592 37.384L56.432 16.328C56.0053 16.2213 55.5893 16.104 55.184 15.976C54.7787 15.8267 54.384 15.6773 54 15.528V14.6H62.48V15.528C62.1173 15.6773 61.712 15.8267 61.264 15.976C60.816 16.104 60.3467 16.2213 59.856 16.328L65.328 30.952L66 33.512H66.064L66.704 30.888L71.44 16.328ZM85.251 37H78.147V36.2C78.467 36.0293 78.7977 35.8907 79.139 35.784C79.4803 35.656 79.8537 35.5387 80.259 35.432V22.856L78.147 22.6V21.768C78.7657 21.512 79.4377 21.288 80.163 21.096C80.8883 20.904 81.6137 20.744 82.339 20.616H83.139V35.432C83.5657 35.5387 83.9497 35.656 84.291 35.784C84.6323 35.8907 84.9523 36.0293 85.251 36.2V37ZM79.651 15.56C79.651 14.984 79.8323 14.5253 80.195 14.184C80.579 13.8427 81.0803 13.672 81.699 13.672C82.3177 13.672 82.8083 13.8427 83.171 14.184C83.5337 14.5253 83.715 14.984 83.715 15.56C83.715 16.136 83.5337 16.5947 83.171 16.936C82.8083 17.256 82.3177 17.416 81.699 17.416C81.0803 17.416 80.579 17.256 80.195 16.936C79.8323 16.5947 79.651 16.136 79.651 15.56ZM96.86 33.352C96.86 32.7547 96.668 32.2533 96.284 31.848C95.9213 31.4213 95.452 31.0267 94.876 30.664C94.3 30.3013 93.6813 29.9493 93.02 29.608C92.38 29.2667 91.772 28.872 91.196 28.424C90.62 27.9547 90.14 27.4213 89.756 26.824C89.3933 26.2267 89.212 25.4907 89.212 24.616C89.212 24.04 89.34 23.5067 89.596 23.016C89.8733 22.5253 90.236 22.1093 90.684 21.768C91.132 21.4053 91.6547 21.128 92.252 20.936C92.8493 20.7227 93.4893 20.616 94.172 20.616C95.324 20.616 96.2627 20.68 96.988 20.808C97.7347 20.936 98.4493 21.1173 99.132 21.352C99.0467 22.0347 98.94 22.728 98.812 23.432C98.7053 24.1147 98.5453 24.8187 98.332 25.544H97.532L96.316 22.28C96.06 22.1733 95.772 22.1093 95.452 22.088C95.132 22.0453 94.8013 22.024 94.46 22.024C94.076 22.024 93.7347 22.0987 93.436 22.248C93.1587 22.376 92.9133 22.5467 92.7 22.76C92.508 22.9733 92.3587 23.2187 92.252 23.496C92.1453 23.7733 92.092 24.0507 92.092 24.328C92.092 24.904 92.2733 25.4053 92.636 25.832C93.02 26.2373 93.5 26.6213 94.076 26.984C94.652 27.3253 95.26 27.6667 95.9 28.008C96.5613 28.3493 97.18 28.7333 97.756 29.16C98.332 29.5867 98.8013 30.088 99.164 30.664C99.548 31.2187 99.74 31.8907 99.74 32.68C99.74 33.4053 99.58 34.056 99.26 34.632C98.9613 35.208 98.5347 35.6987 97.98 36.104C97.4467 36.5093 96.8173 36.8187 96.092 37.032C95.388 37.2667 94.6307 37.384 93.82 37.384C92.9027 37.384 92.06 37.2987 91.292 37.128C90.524 36.9787 89.724 36.7547 88.892 36.456C88.9347 35.688 89.0307 34.952 89.18 34.248C89.3293 33.5227 89.5213 32.8293 89.756 32.168H90.556L91.964 35.656C92.1987 35.8267 92.476 35.9227 92.796 35.944C93.1373 35.9653 93.4467 35.976 93.724 35.976C94.6627 35.976 95.42 35.72 95.996 35.208C96.572 34.696 96.86 34.0773 96.86 33.352ZM115.344 32.808C115.344 33.2773 115.354 33.6827 115.376 34.024C115.397 34.3653 115.418 34.728 115.44 35.112L117.648 35.432V36.104C117.114 36.3813 116.517 36.6267 115.856 36.84C115.216 37.0533 114.597 37.2133 114 37.32H113.2C112.986 36.8293 112.858 36.296 112.816 35.72C112.773 35.1227 112.741 34.472 112.72 33.768H112.56C112.474 34.1947 112.304 34.632 112.048 35.08C111.813 35.5067 111.493 35.8907 111.088 36.232C110.704 36.5733 110.245 36.8507 109.712 37.064C109.178 37.2773 108.57 37.384 107.888 37.384C106.586 37.384 105.52 36.9893 104.688 36.2C103.877 35.4107 103.472 34.376 103.472 33.096C103.472 32.1147 103.664 31.3147 104.048 30.696C104.453 30.056 105.04 29.5547 105.808 29.192C106.576 28.8293 107.525 28.5733 108.656 28.424C109.786 28.2533 111.098 28.1253 112.592 28.04C112.677 27.1227 112.698 26.3013 112.656 25.576C112.634 24.8293 112.517 24.2 112.304 23.688C112.112 23.1547 111.813 22.7493 111.408 22.472C111.024 22.1733 110.512 22.024 109.872 22.024C109.573 22.024 109.232 22.0453 108.848 22.088C108.485 22.1093 108.122 22.1947 107.76 22.344L106.256 26.184H105.424C105.21 25.544 105.018 24.8827 104.848 24.2C104.698 23.5173 104.602 22.8453 104.56 22.184C105.37 21.6933 106.266 21.3093 107.248 21.032C108.25 20.7547 109.36 20.616 110.576 20.616C111.664 20.616 112.528 20.776 113.168 21.096C113.829 21.3947 114.33 21.7893 114.672 22.28C115.013 22.7707 115.237 23.3147 115.344 23.912C115.45 24.5093 115.504 25.1067 115.504 25.704C115.504 26.984 115.472 28.2213 115.408 29.416C115.365 30.5893 115.344 31.72 115.344 32.808ZM109.168 35.4C109.701 35.4 110.17 35.2933 110.576 35.08C110.981 34.8667 111.322 34.6107 111.6 34.312C111.877 34.0133 112.101 33.7147 112.272 33.416C112.442 33.096 112.56 32.8293 112.624 32.616V29.256C111.386 29.256 110.373 29.32 109.584 29.448C108.794 29.576 108.176 29.7787 107.728 30.056C107.28 30.3333 106.97 30.6853 106.8 31.112C106.629 31.5173 106.544 31.9867 106.544 32.52C106.544 33.4373 106.778 34.152 107.248 34.664C107.717 35.1547 108.357 35.4 109.168 35.4Z" fill="#181A1C"/>
<path d="M125.644 35.304C126.583 35.432 127.5 35.688 128.396 36.072V37H120.268V36.072C120.631 35.9013 121.004 35.752 121.388 35.624C121.772 35.496 122.167 35.3893 122.572 35.304V16.328C122.103 16.2213 121.676 16.104 121.292 15.976C120.908 15.8267 120.567 15.6773 120.268 15.528V14.6H135.276C135.255 15.432 135.212 16.2853 135.148 17.16C135.105 18.0347 135.031 18.9093 134.924 19.784H134.092L132.78 16.264H125.644V25.384H131.18L132.492 23.016H133.228C133.271 23.5067 133.303 24.0293 133.324 24.584C133.345 25.1173 133.356 25.6613 133.356 26.216C133.356 26.792 133.345 27.3573 133.324 27.912C133.303 28.4667 133.271 28.9893 133.228 29.48H132.492L131.18 27.016H125.644V35.304ZM150.826 32.808C150.826 33.2773 150.837 33.6827 150.858 34.024C150.88 34.3653 150.901 34.728 150.922 35.112L153.13 35.432V36.104C152.597 36.3813 152 36.6267 151.338 36.84C150.698 37.0533 150.08 37.2133 149.482 37.32H148.682C148.469 36.8293 148.341 36.296 148.298 35.72C148.256 35.1227 148.224 34.472 148.202 33.768H148.042C147.957 34.1947 147.786 34.632 147.53 35.08C147.296 35.5067 146.976 35.8907 146.57 36.232C146.186 36.5733 145.728 36.8507 145.194 37.064C144.661 37.2773 144.053 37.384 143.37 37.384C142.069 37.384 141.002 36.9893 140.17 36.2C139.36 35.4107 138.954 34.376 138.954 33.096C138.954 32.1147 139.146 31.3147 139.53 30.696C139.936 30.056 140.522 29.5547 141.29 29.192C142.058 28.8293 143.008 28.5733 144.138 28.424C145.269 28.2533 146.581 28.1253 148.074 28.04C148.16 27.1227 148.181 26.3013 148.138 25.576C148.117 24.8293 148 24.2 147.786 23.688C147.594 23.1547 147.296 22.7493 146.89 22.472C146.506 22.1733 145.994 22.024 145.354 22.024C145.056 22.024 144.714 22.0453 144.33 22.088C143.968 22.1093 143.605 22.1947 143.242 22.344L141.738 26.184H140.906C140.693 25.544 140.501 24.8827 140.33 24.2C140.181 23.5173 140.085 22.8453 140.042 22.184C140.853 21.6933 141.749 21.3093 142.73 21.032C143.733 20.7547 144.842 20.616 146.058 20.616C147.146 20.616 148.01 20.776 148.65 21.096C149.312 21.3947 149.813 21.7893 150.154 22.28C150.496 22.7707 150.72 23.3147 150.826 23.912C150.933 24.5093 150.986 25.1067 150.986 25.704C150.986 26.984 150.954 28.2213 150.89 29.416C150.848 30.5893 150.826 31.72 150.826 32.808ZM144.65 35.4C145.184 35.4 145.653 35.2933 146.058 35.08C146.464 34.8667 146.805 34.6107 147.082 34.312C147.36 34.0133 147.584 33.7147 147.754 33.416C147.925 33.096 148.042 32.8293 148.106 32.616V29.256C146.869 29.256 145.856 29.32 145.066 29.448C144.277 29.576 143.658 29.7787 143.21 30.056C142.762 30.3333 142.453 30.6853 142.282 31.112C142.112 31.5173 142.026 31.9867 142.026 32.52C142.026 33.4373 142.261 34.152 142.73 34.664C143.2 35.1547 143.84 35.4 144.65 35.4ZM164.263 33.352C164.263 32.7547 164.071 32.2533 163.687 31.848C163.324 31.4213 162.855 31.0267 162.279 30.664C161.703 30.3013 161.084 29.9493 160.423 29.608C159.783 29.2667 159.175 28.872 158.599 28.424C158.023 27.9547 157.543 27.4213 157.159 26.824C156.796 26.2267 156.615 25.4907 156.615 24.616C156.615 24.04 156.743 23.5067 156.999 23.016C157.276 22.5253 157.639 22.1093 158.087 21.768C158.535 21.4053 159.057 21.128 159.655 20.936C160.252 20.7227 160.892 20.616 161.575 20.616C162.727 20.616 163.665 20.68 164.391 20.808C165.137 20.936 165.852 21.1173 166.535 21.352C166.449 22.0347 166.343 22.728 166.215 23.432C166.108 24.1147 165.948 24.8187 165.735 25.544H164.935L163.719 22.28C163.463 22.1733 163.175 22.1093 162.855 22.088C162.535 22.0453 162.204 22.024 161.863 22.024C161.479 22.024 161.137 22.0987 160.839 22.248C160.561 22.376 160.316 22.5467 160.103 22.76C159.911 22.9733 159.761 23.2187 159.655 23.496C159.548 23.7733 159.495 24.0507 159.495 24.328C159.495 24.904 159.676 25.4053 160.039 25.832C160.423 26.2373 160.903 26.6213 161.479 26.984C162.055 27.3253 162.663 27.6667 163.303 28.008C163.964 28.3493 164.583 28.7333 165.159 29.16C165.735 29.5867 166.204 30.088 166.567 30.664C166.951 31.2187 167.143 31.8907 167.143 32.68C167.143 33.4053 166.983 34.056 166.663 34.632C166.364 35.208 165.937 35.6987 165.383 36.104C164.849 36.5093 164.22 36.8187 163.495 37.032C162.791 37.2667 162.033 37.384 161.223 37.384C160.305 37.384 159.463 37.2987 158.695 37.128C157.927 36.9787 157.127 36.7547 156.295 36.456C156.337 35.688 156.433 34.952 156.583 34.248C156.732 33.5227 156.924 32.8293 157.159 32.168H157.959L159.367 35.656C159.601 35.8267 159.879 35.9227 160.199 35.944C160.54 35.9653 160.849 35.976 161.127 35.976C162.065 35.976 162.823 35.72 163.399 35.208C163.975 34.696 164.263 34.0773 164.263 33.352ZM170.106 21.768C170.917 21.256 171.77 20.8933 172.666 20.68V17.96C172.944 17.7253 173.264 17.5227 173.626 17.352C174.01 17.16 174.384 16.9787 174.746 16.808H175.546V21H180.346V22.6H175.546V31.88C175.546 33.16 175.749 34.0667 176.154 34.6C176.56 35.1333 177.168 35.4 177.978 35.4C178.362 35.4 178.842 35.3787 179.418 35.336C179.994 35.272 180.485 35.1653 180.89 35.016L181.114 35.496C180.944 35.688 180.698 35.8907 180.378 36.104C180.08 36.3173 179.728 36.52 179.322 36.712C178.938 36.904 178.512 37.064 178.042 37.192C177.573 37.32 177.093 37.384 176.602 37.384C175.322 37.384 174.341 37.0213 173.658 36.296C172.997 35.5707 172.666 34.3973 172.666 32.776V22.6H170.106V21.768Z" fill="#0D4F51"/>
</svg>
