<svg width="199" height="50" viewBox="0 0 199 50" fill="none" xmlns="http://www.w3.org/2000/svg">
<ellipse cx="25" cy="25" rx="25" ry="25" fill="#B51DEE"/>
<path d="M26 36.2857C25.8077 36.2853 25.6156 36.2727 25.4249 36.248C23.6633 33.4253 22.688 30.1832 22.5997 26.8571H37.9571C37.9777 26.5726 38 26.2889 38 26C38 23.6266 37.2962 21.3066 35.9776 19.3332C34.6591 17.3598 32.7849 15.8217 30.5922 14.9135C28.3995 14.0052 25.9867 13.7676 23.6589 14.2306C21.3311 14.6936 19.193 15.8365 17.5147 17.5147C15.8365 19.193 14.6936 21.3311 14.2306 23.6589C13.7676 25.9867 14.0052 28.3995 14.9135 30.5922C15.8217 32.7849 17.3598 34.6591 19.3332 35.9776C21.3066 37.2962 23.6266 38 26 38V36.2857ZM36.2429 25.1429H31.1111C31.019 21.9889 30.2121 18.8969 28.7514 16.1C30.773 16.6641 32.5738 17.8325 33.9127 19.4487C35.2516 21.0649 36.0646 23.0517 36.2429 25.1429ZM26.5743 15.752C28.3361 18.5746 29.3118 21.8167 29.4003 25.1429H22.5997C22.6882 21.8167 23.6639 18.5746 25.4257 15.752C25.8075 15.7019 26.1942 15.7019 26.576 15.752H26.5743ZM23.2477 16.0991C21.7873 18.8964 20.9807 21.9886 20.8889 25.1429H15.7571C15.9355 23.0517 16.7485 21.065 18.0874 19.4488C19.4263 17.8327 21.2271 16.6642 23.2486 16.1L23.2477 16.0991ZM15.7571 26.8571H20.8889C20.9811 30.0111 21.788 33.1031 23.2486 35.9C21.2271 35.3358 19.4263 34.1673 18.0874 32.5512C16.7485 30.935 15.9355 28.9483 15.7571 26.8571Z" fill="white"/>
<path fill-rule="evenodd" clip-rule="evenodd" d="M32.8333 33L37 34.6667V33L32.8333 30.9167V28.8333C32.8333 28.6123 32.7455 28.4004 32.5893 28.2441C32.433 28.0878 32.221 28 32 28C31.779 28 31.567 28.0878 31.4107 28.2441C31.2545 28.4004 31.1667 28.6123 31.1667 28.8333V30.9167L27 33V34.6667L31.1667 33V35.9167L29.5 37.1667V38L32 37.1667L34.5 38V37.1667L32.8333 35.9167V33Z" fill="white"/>
<path d="M66.096 28.792L71.024 16.6H78.32L66.096 40.504L53.904 16.6H61.2L66.096 28.792ZM80.5547 18.936C80.5547 18.0827 80.8534 17.3893 81.4507 16.856C82.0694 16.3227 82.8054 16.056 83.6587 16.056C84.5334 16.056 85.2694 16.3227 85.8667 16.856C86.4854 17.3893 86.7947 18.0827 86.7947 18.936C86.7947 19.768 86.4854 20.4507 85.8667 20.984C85.2694 21.5173 84.5334 21.784 83.6587 21.784C82.8054 21.784 82.0694 21.5173 81.4507 20.984C80.8534 20.4507 80.5547 19.768 80.5547 18.936ZM81.0027 24.28H86.3147V39H81.0027V24.28ZM91.7307 33.4C92.6267 34.0827 93.4054 34.5947 94.0667 34.936C94.7281 35.2773 95.2934 35.5013 95.7627 35.608C96.2321 35.7147 96.5947 35.768 96.8507 35.768C97.2561 35.768 97.5547 35.6827 97.7467 35.512C97.9387 35.3413 98.0347 35.1067 98.0347 34.808C98.0347 34.552 97.9494 34.3387 97.7787 34.168C97.6294 33.976 97.3307 33.784 96.8827 33.592C96.4561 33.4 95.8161 33.1653 94.9627 32.888C94.2587 32.6533 93.5867 32.3653 92.9467 32.024C92.3067 31.6613 91.7841 31.1813 91.3787 30.584C90.9947 29.9653 90.8027 29.176 90.8027 28.216C90.8027 27.2987 91.0481 26.5307 91.5387 25.912C92.0294 25.272 92.7014 24.792 93.5547 24.472C94.4081 24.1307 95.4001 23.96 96.5307 23.96C97.4054 23.96 98.2161 24.056 98.9627 24.248C99.7307 24.4187 100.456 24.6533 101.139 24.952C101.821 25.2293 102.493 25.56 103.155 25.944L101.523 29.624C100.84 29.0267 100.072 28.5467 99.2187 28.184C98.3867 27.8 97.6507 27.608 97.0107 27.608C96.6054 27.608 96.3067 27.6827 96.1147 27.832C95.9441 27.9813 95.8587 28.1627 95.8587 28.376C95.8587 28.6747 95.9867 28.92 96.2427 29.112C96.4987 29.2827 96.8827 29.4533 97.3947 29.624C97.9067 29.7947 98.5574 30.0293 99.3467 30.328C100.093 30.6053 100.776 30.9253 101.395 31.288C102.035 31.6293 102.547 32.0773 102.931 32.632C103.336 33.1867 103.539 33.9227 103.539 34.84C103.539 36.504 103.037 37.7307 102.035 38.52C101.053 39.3093 99.6561 39.704 97.8427 39.704C96.7547 39.704 95.7307 39.5973 94.7707 39.384C93.8321 39.1707 92.9467 38.872 92.1147 38.488C91.2827 38.104 90.4827 37.6667 89.7147 37.176L91.7307 33.4ZM111.465 34.392C111.465 34.712 111.539 34.9893 111.689 35.224C111.859 35.4373 112.083 35.608 112.361 35.736C112.638 35.8427 112.937 35.896 113.257 35.896C113.726 35.896 114.174 35.8 114.601 35.608C115.027 35.3947 115.369 35.0747 115.625 34.648C115.902 34.2 116.041 33.6453 116.041 32.984L116.553 34.904C116.553 35.8427 116.307 36.6427 115.817 37.304C115.347 37.9653 114.697 38.4667 113.865 38.808C113.054 39.1493 112.158 39.32 111.177 39.32C110.238 39.32 109.363 39.1493 108.553 38.808C107.763 38.4453 107.123 37.9227 106.633 37.24C106.142 36.536 105.897 35.6827 105.897 34.68C105.897 33.272 106.387 32.1627 107.369 31.352C108.371 30.5413 109.811 30.136 111.689 30.136C112.499 30.136 113.257 30.2107 113.961 30.36C114.686 30.5093 115.315 30.712 115.849 30.968C116.403 31.2027 116.819 31.4693 117.097 31.768V34.104C116.67 33.7413 116.137 33.464 115.497 33.272C114.857 33.08 114.185 32.984 113.481 32.984C112.99 32.984 112.595 33.0373 112.297 33.144C111.998 33.2507 111.785 33.4107 111.657 33.624C111.529 33.816 111.465 34.072 111.465 34.392ZM108.777 29.112L107.017 25.496C107.955 25.0907 109.033 24.7173 110.249 24.376C111.486 24.0133 112.798 23.832 114.185 23.832C115.529 23.832 116.734 24.024 117.801 24.408C118.889 24.7707 119.742 25.3147 120.361 26.04C121.001 26.7653 121.321 27.6507 121.321 28.696V39H116.041V30.008C116.041 29.688 115.987 29.4 115.881 29.144C115.795 28.888 115.646 28.6747 115.433 28.504C115.219 28.312 114.942 28.1733 114.601 28.088C114.259 27.9813 113.865 27.928 113.417 27.928C112.798 27.928 112.158 28.0027 111.497 28.152C110.857 28.3013 110.291 28.472 109.801 28.664C109.31 28.856 108.969 29.0053 108.777 29.112ZM130.462 21.88V16.6H140.478V21.88H130.462ZM130.462 30.584V25.688H140.158V30.584H130.462ZM126.238 16.6H132.19V39H126.238V16.6ZM148.416 34.392C148.416 34.712 148.49 34.9893 148.64 35.224C148.81 35.4373 149.034 35.608 149.312 35.736C149.589 35.8427 149.888 35.896 150.208 35.896C150.677 35.896 151.125 35.8 151.552 35.608C151.978 35.3947 152.32 35.0747 152.576 34.648C152.853 34.2 152.992 33.6453 152.992 32.984L153.504 34.904C153.504 35.8427 153.258 36.6427 152.768 37.304C152.298 37.9653 151.648 38.4667 150.816 38.808C150.005 39.1493 149.109 39.32 148.128 39.32C147.189 39.32 146.314 39.1493 145.504 38.808C144.714 38.4453 144.074 37.9227 143.584 37.24C143.093 36.536 142.848 35.6827 142.848 34.68C142.848 33.272 143.338 32.1627 144.32 31.352C145.322 30.5413 146.762 30.136 148.64 30.136C149.45 30.136 150.208 30.2107 150.912 30.36C151.637 30.5093 152.266 30.712 152.8 30.968C153.354 31.2027 153.77 31.4693 154.048 31.768V34.104C153.621 33.7413 153.088 33.464 152.448 33.272C151.808 33.08 151.136 32.984 150.432 32.984C149.941 32.984 149.546 33.0373 149.248 33.144C148.949 33.2507 148.736 33.4107 148.608 33.624C148.48 33.816 148.416 34.072 148.416 34.392ZM145.728 29.112L143.968 25.496C144.906 25.0907 145.984 24.7173 147.2 24.376C148.437 24.0133 149.749 23.832 151.136 23.832C152.48 23.832 153.685 24.024 154.752 24.408C155.84 24.7707 156.693 25.3147 157.312 26.04C157.952 26.7653 158.272 27.6507 158.272 28.696V39H152.992V30.008C152.992 29.688 152.938 29.4 152.832 29.144C152.746 28.888 152.597 28.6747 152.384 28.504C152.17 28.312 151.893 28.1733 151.552 28.088C151.21 27.9813 150.816 27.928 150.368 27.928C149.749 27.928 149.109 28.0027 148.448 28.152C147.808 28.3013 147.242 28.472 146.752 28.664C146.261 28.856 145.92 29.0053 145.728 29.112ZM163.477 33.4C164.373 34.0827 165.152 34.5947 165.813 34.936C166.474 35.2773 167.04 35.5013 167.509 35.608C167.978 35.7147 168.341 35.768 168.597 35.768C169.002 35.768 169.301 35.6827 169.493 35.512C169.685 35.3413 169.781 35.1067 169.781 34.808C169.781 34.552 169.696 34.3387 169.525 34.168C169.376 33.976 169.077 33.784 168.629 33.592C168.202 33.4 167.562 33.1653 166.709 32.888C166.005 32.6533 165.333 32.3653 164.693 32.024C164.053 31.6613 163.53 31.1813 163.125 30.584C162.741 29.9653 162.549 29.176 162.549 28.216C162.549 27.2987 162.794 26.5307 163.285 25.912C163.776 25.272 164.448 24.792 165.301 24.472C166.154 24.1307 167.146 23.96 168.277 23.96C169.152 23.96 169.962 24.056 170.709 24.248C171.477 24.4187 172.202 24.6533 172.885 24.952C173.568 25.2293 174.24 25.56 174.901 25.944L173.269 29.624C172.586 29.0267 171.818 28.5467 170.965 28.184C170.133 27.8 169.397 27.608 168.757 27.608C168.352 27.608 168.053 27.6827 167.861 27.832C167.69 27.9813 167.605 28.1627 167.605 28.376C167.605 28.6747 167.733 28.92 167.989 29.112C168.245 29.2827 168.629 29.4533 169.141 29.624C169.653 29.7947 170.304 30.0293 171.093 30.328C171.84 30.6053 172.522 30.9253 173.141 31.288C173.781 31.6293 174.293 32.0773 174.677 32.632C175.082 33.1867 175.285 33.9227 175.285 34.84C175.285 36.504 174.784 37.7307 173.781 38.52C172.8 39.3093 171.402 39.704 169.589 39.704C168.501 39.704 167.477 39.5973 166.517 39.384C165.578 39.1707 164.693 38.872 163.861 38.488C163.029 38.104 162.229 37.6667 161.461 37.176L163.477 33.4ZM177.099 24.28H187.691V28.76H177.099V24.28ZM179.755 19.16H185.035V39H179.755V19.16Z" fill="white"/>
</svg>
