<svg width="186" height="50" viewBox="0 0 186 50" fill="none" xmlns="http://www.w3.org/2000/svg">
<ellipse cx="25" cy="25" rx="25" ry="25" fill="#FF2640"/>
<path d="M26 36.2857C25.8077 36.2853 25.6156 36.2727 25.4249 36.248C23.6633 33.4253 22.688 30.1832 22.5997 26.8571H37.9571C37.9777 26.5726 38 26.2889 38 26C38 23.6266 37.2962 21.3066 35.9776 19.3332C34.6591 17.3598 32.7849 15.8217 30.5922 14.9135C28.3995 14.0052 25.9867 13.7676 23.6589 14.2306C21.3311 14.6936 19.193 15.8365 17.5147 17.5147C15.8365 19.193 14.6936 21.3311 14.2306 23.6589C13.7676 25.9867 14.0052 28.3995 14.9135 30.5922C15.8217 32.7849 17.3598 34.6591 19.3332 35.9776C21.3066 37.2962 23.6266 38 26 38V36.2857ZM36.2429 25.1429H31.1111C31.019 21.9889 30.2121 18.8969 28.7514 16.1C30.773 16.6641 32.5738 17.8325 33.9127 19.4487C35.2516 21.0649 36.0646 23.0517 36.2429 25.1429ZM26.5743 15.752C28.3361 18.5746 29.3118 21.8167 29.4003 25.1429H22.5997C22.6882 21.8167 23.6639 18.5746 25.4257 15.752C25.8075 15.7019 26.1942 15.7019 26.576 15.752H26.5743ZM23.2477 16.0991C21.7873 18.8964 20.9807 21.9886 20.8889 25.1429H15.7571C15.9355 23.0517 16.7485 21.065 18.0874 19.4488C19.4263 17.8327 21.2271 16.6642 23.2486 16.1L23.2477 16.0991ZM15.7571 26.8571H20.8889C20.9811 30.0111 21.788 33.1031 23.2486 35.9C21.2271 35.3358 19.4263 34.1673 18.0874 32.5512C16.7485 30.935 15.9355 28.9483 15.7571 26.8571Z" fill="white"/>
<path fill-rule="evenodd" clip-rule="evenodd" d="M32.8333 33L37 34.6667V33L32.8333 30.9167V28.8333C32.8333 28.6123 32.7455 28.4004 32.5893 28.2441C32.433 28.0878 32.221 28 32 28C31.779 28 31.567 28.0878 31.4107 28.2441C31.2545 28.4004 31.1667 28.6123 31.1667 28.8333V30.9167L27 33V34.6667L31.1667 33V35.9167L29.5 37.1667V38L32 37.1667L34.5 38V37.1667L32.8333 35.9167V33Z" fill="white"/>
<path d="M64.272 37.224L56.944 20.104C56.6453 19.3787 56.4 18.7173 56.208 18.12C56.016 17.5013 55.9093 17 55.888 16.616C55.5467 16.6373 55.2267 16.6587 54.928 16.68C54.6507 16.68 54.384 16.6907 54.128 16.712V14.6H62.896V16.36C62 16.3813 61.3813 16.616 61.04 17.064C60.6987 17.4907 60.72 18.1947 61.104 19.176C61.616 20.392 62.1067 21.5973 62.576 22.792C63.0667 23.9867 63.568 25.2133 64.08 26.472C64.5067 27.4747 64.88 28.3813 65.2 29.192C65.5413 30.0027 65.8613 30.8027 66.16 31.592H66.224C66.4587 30.9093 66.704 30.1947 66.96 29.448C67.216 28.68 67.4827 27.9013 67.76 27.112C68.1653 26.024 68.528 25.0213 68.848 24.104C69.168 23.1867 69.4773 22.344 69.776 21.576C70.0747 20.7867 70.3413 20.04 70.576 19.336C70.704 18.9093 70.8747 18.4293 71.088 17.896C71.3013 17.3413 71.5253 16.9147 71.76 16.616C71.3973 16.6373 70.9707 16.6587 70.48 16.68C69.9893 16.68 69.5947 16.6907 69.296 16.712V14.6H76.272V16.36C75.4613 16.3813 74.7893 16.6373 74.256 17.128C73.744 17.6187 73.264 18.472 72.816 19.688C72.56 20.3493 72.304 21.032 72.048 21.736C71.792 22.4187 71.5253 23.144 71.248 23.912C70.9707 24.68 70.6613 25.512 70.32 26.408C69.9787 27.304 69.6053 28.2853 69.2 29.352C68.816 30.4187 68.3787 31.6027 67.888 32.904C67.4187 34.2053 66.896 35.6453 66.32 37.224H64.272ZM77.679 35.304C78.2977 35.304 78.735 35.176 78.991 34.92C79.247 34.6427 79.407 34.2587 79.471 33.768C79.535 33.2773 79.567 32.7227 79.567 32.104V26.12C79.567 25.7573 79.5777 25.3627 79.599 24.936C79.6203 24.488 79.6523 24.0293 79.695 23.56C79.3323 23.5813 78.9377 23.6027 78.511 23.624C78.0843 23.6453 77.7323 23.6667 77.455 23.688V21.608C78.415 21.608 79.2043 21.5653 79.823 21.48C80.463 21.3733 80.9537 21.2453 81.295 21.096C81.6577 20.9467 81.9137 20.808 82.063 20.68H83.503V32.424C83.503 32.7653 83.4923 33.1813 83.471 33.672C83.471 34.1413 83.439 34.6 83.375 35.048C83.7163 35.0053 84.079 34.984 84.463 34.984C84.8683 34.9627 85.199 34.952 85.455 34.952V37H77.679V35.304ZM81.359 17.928C80.7403 17.928 80.2177 17.704 79.791 17.256C79.3643 16.7867 79.151 16.2213 79.151 15.56C79.151 14.8987 79.3643 14.3333 79.791 13.864C80.239 13.3947 80.7617 13.16 81.359 13.16C81.9777 13.16 82.4897 13.3947 82.895 13.864C83.3217 14.3333 83.535 14.8987 83.535 15.56C83.535 16.2213 83.3323 16.7867 82.927 17.256C82.5217 17.704 81.999 17.928 81.359 17.928ZM95.7117 37.512C94.7304 37.512 93.8131 37.384 92.9597 37.128C92.1064 36.872 91.4237 36.5627 90.9117 36.2L91.0077 37.224H88.9277L88.7677 31.72H90.4957C90.5597 32.4453 90.8157 33.1067 91.2637 33.704C91.7117 34.28 92.2877 34.7387 92.9917 35.08C93.7171 35.4 94.5171 35.56 95.3917 35.56C95.8184 35.56 96.2237 35.496 96.6077 35.368C97.0131 35.24 97.3437 35.0373 97.5997 34.76C97.8771 34.4613 98.0157 34.088 98.0157 33.64C98.0157 33.1707 97.8557 32.7867 97.5357 32.488C97.2371 32.1893 96.8104 31.912 96.2557 31.656C95.7011 31.4 95.0504 31.1333 94.3037 30.856C93.6424 30.6 92.9811 30.3333 92.3197 30.056C91.6584 29.7787 91.0504 29.448 90.4957 29.064C89.9411 28.6587 89.4931 28.168 89.1517 27.592C88.8104 27.016 88.6397 26.312 88.6397 25.48C88.6397 24.904 88.7464 24.328 88.9597 23.752C89.1731 23.176 89.5144 22.6427 89.9837 22.152C90.4531 21.64 91.0504 21.2347 91.7757 20.936C92.5224 20.6373 93.4291 20.488 94.4957 20.488C95.0717 20.488 95.7224 20.584 96.4477 20.776C97.1731 20.9467 97.8131 21.2453 98.3677 21.672L98.3357 20.648H100.416V26.28H98.6877C98.5811 25.5333 98.3464 24.872 97.9837 24.296C97.6211 23.6987 97.1411 23.2293 96.5437 22.888C95.9464 22.5467 95.2317 22.376 94.3997 22.376C93.7171 22.376 93.1411 22.5467 92.6717 22.888C92.2024 23.208 91.9677 23.688 91.9677 24.328C91.9677 24.8613 92.1491 25.2987 92.5117 25.64C92.8744 25.9813 93.3651 26.2693 93.9837 26.504C94.6024 26.7387 95.2744 26.9947 95.9997 27.272C97.0024 27.6133 97.9091 28.0187 98.7197 28.488C99.5517 28.9573 100.213 29.5227 100.704 30.184C101.194 30.8453 101.44 31.6667 101.44 32.648C101.44 33.7573 101.162 34.6747 100.608 35.4C100.053 36.104 99.3384 36.6373 98.4637 37C97.5891 37.3413 96.6717 37.512 95.7117 37.512ZM114.033 37C113.969 36.68 113.926 36.4133 113.905 36.2C113.905 35.9653 113.894 35.6987 113.873 35.4C113.148 36.1253 112.369 36.6587 111.537 37C110.726 37.3413 109.884 37.512 109.009 37.512C107.558 37.512 106.438 37.1173 105.649 36.328C104.881 35.5387 104.497 34.568 104.497 33.416C104.497 32.392 104.774 31.528 105.329 30.824C105.884 30.0987 106.609 29.512 107.505 29.064C108.401 28.5947 109.393 28.2427 110.481 28.008C111.569 27.752 112.646 27.6133 113.713 27.592V25.832C113.713 25.2133 113.638 24.648 113.489 24.136C113.361 23.6027 113.116 23.1867 112.753 22.888C112.39 22.568 111.857 22.408 111.153 22.408C110.684 22.4293 110.204 22.536 109.713 22.728C109.244 22.8987 108.87 23.176 108.593 23.56C108.764 23.752 108.87 23.9653 108.913 24.2C108.956 24.4133 108.977 24.6053 108.977 24.776C108.977 25.16 108.828 25.5653 108.529 25.992C108.23 26.3973 107.75 26.5893 107.089 26.568C106.513 26.5467 106.065 26.344 105.745 25.96C105.446 25.576 105.297 25.1173 105.297 24.584C105.297 23.7733 105.585 23.0693 106.161 22.472C106.758 21.8533 107.558 21.3733 108.561 21.032C109.564 20.6693 110.684 20.488 111.921 20.488C113.756 20.488 115.164 20.968 116.145 21.928C117.126 22.888 117.606 24.424 117.585 26.536C117.585 27.2827 117.585 27.9653 117.585 28.584C117.585 29.1813 117.574 29.7893 117.553 30.408C117.553 31.0053 117.553 31.6773 117.553 32.424C117.553 32.744 117.542 33.1493 117.521 33.64C117.5 34.1093 117.468 34.5787 117.425 35.048C117.809 35.0053 118.193 34.984 118.577 34.984C118.982 34.9627 119.313 34.9413 119.569 34.92V37H114.033ZM113.681 29.48C113.041 29.5227 112.412 29.6293 111.793 29.8C111.174 29.9493 110.62 30.1627 110.129 30.44C109.638 30.7173 109.244 31.0693 108.945 31.496C108.668 31.9013 108.54 32.3707 108.561 32.904C108.582 33.5653 108.796 34.056 109.201 34.376C109.606 34.6747 110.076 34.824 110.609 34.824C111.228 34.824 111.782 34.696 112.273 34.44C112.785 34.184 113.254 33.8427 113.681 33.416C113.681 33.2027 113.681 32.9787 113.681 32.744C113.681 32.5093 113.681 32.2747 113.681 32.04C113.681 31.7413 113.681 31.368 113.681 30.92C113.681 30.472 113.681 29.992 113.681 29.48Z" fill="#181A1C"/>
<path d="M122.816 37V35.24C123.414 35.2187 123.872 35.1227 124.192 34.952C124.512 34.76 124.736 34.44 124.864 33.992C124.992 33.5227 125.056 32.8827 125.056 32.072V19.304C125.056 18.7707 125.067 18.2587 125.088 17.768C125.131 17.2773 125.163 16.8933 125.184 16.616C124.822 16.6373 124.406 16.6587 123.936 16.68C123.467 16.68 123.094 16.6907 122.816 16.712V14.6H138.432L138.592 20.616H136.832C136.832 19.4 136.63 18.4933 136.224 17.896C135.819 17.2773 135.307 16.8613 134.688 16.648C134.07 16.4347 133.44 16.3387 132.8 16.36L131.232 16.392C130.678 16.4133 130.24 16.52 129.92 16.712C129.622 16.904 129.408 17.2347 129.28 17.704C129.152 18.152 129.088 18.7707 129.088 19.56V25.128H133.12L132.96 22.376H135.072V29.8H133.344C133.344 28.8827 133.206 28.2213 132.928 27.816C132.651 27.4107 132.256 27.1653 131.744 27.08C131.254 26.9733 130.667 26.9413 129.984 26.984L129.088 27.016V32.232C129.088 32.808 129.078 33.3413 129.056 33.832C129.035 34.3227 129.003 34.7067 128.96 34.984C129.238 34.9627 129.558 34.952 129.92 34.952C130.304 34.9307 130.678 34.92 131.04 34.92C131.424 34.8987 131.723 34.888 131.936 34.888V37H122.816ZM149.359 37C149.295 36.68 149.253 36.4133 149.231 36.2C149.231 35.9653 149.221 35.6987 149.199 35.4C148.474 36.1253 147.695 36.6587 146.863 37C146.053 37.3413 145.21 37.512 144.335 37.512C142.885 37.512 141.765 37.1173 140.975 36.328C140.207 35.5387 139.823 34.568 139.823 33.416C139.823 32.392 140.101 31.528 140.655 30.824C141.21 30.0987 141.935 29.512 142.831 29.064C143.727 28.5947 144.719 28.2427 145.807 28.008C146.895 27.752 147.973 27.6133 149.039 27.592V25.832C149.039 25.2133 148.965 24.648 148.815 24.136C148.687 23.6027 148.442 23.1867 148.079 22.888C147.717 22.568 147.183 22.408 146.479 22.408C146.01 22.4293 145.53 22.536 145.039 22.728C144.57 22.8987 144.197 23.176 143.919 23.56C144.09 23.752 144.197 23.9653 144.239 24.2C144.282 24.4133 144.303 24.6053 144.303 24.776C144.303 25.16 144.154 25.5653 143.855 25.992C143.557 26.3973 143.077 26.5893 142.415 26.568C141.839 26.5467 141.391 26.344 141.071 25.96C140.773 25.576 140.623 25.1173 140.623 24.584C140.623 23.7733 140.911 23.0693 141.487 22.472C142.085 21.8533 142.885 21.3733 143.887 21.032C144.89 20.6693 146.01 20.488 147.247 20.488C149.082 20.488 150.49 20.968 151.471 21.928C152.453 22.888 152.933 24.424 152.911 26.536C152.911 27.2827 152.911 27.9653 152.911 28.584C152.911 29.1813 152.901 29.7893 152.879 30.408C152.879 31.0053 152.879 31.6773 152.879 32.424C152.879 32.744 152.869 33.1493 152.847 33.64C152.826 34.1093 152.794 34.5787 152.751 35.048C153.135 35.0053 153.519 34.984 153.903 34.984C154.309 34.9627 154.639 34.9413 154.895 34.92V37H149.359ZM149.007 29.48C148.367 29.5227 147.738 29.6293 147.119 29.8C146.501 29.9493 145.946 30.1627 145.455 30.44C144.965 30.7173 144.57 31.0693 144.271 31.496C143.994 31.9013 143.866 32.3707 143.887 32.904C143.909 33.5653 144.122 34.056 144.527 34.376C144.933 34.6747 145.402 34.824 145.935 34.824C146.554 34.824 147.109 34.696 147.599 34.44C148.111 34.184 148.581 33.8427 149.007 33.416C149.007 33.2027 149.007 32.9787 149.007 32.744C149.007 32.5093 149.007 32.2747 149.007 32.04C149.007 31.7413 149.007 31.368 149.007 30.92C149.007 30.472 149.007 29.992 149.007 29.48ZM164.927 37.512C163.945 37.512 163.028 37.384 162.175 37.128C161.321 36.872 160.639 36.5627 160.127 36.2L160.223 37.224H158.143L157.983 31.72H159.711C159.775 32.4453 160.031 33.1067 160.479 33.704C160.927 34.28 161.503 34.7387 162.207 35.08C162.932 35.4 163.732 35.56 164.607 35.56C165.033 35.56 165.439 35.496 165.823 35.368C166.228 35.24 166.559 35.0373 166.815 34.76C167.092 34.4613 167.231 34.088 167.231 33.64C167.231 33.1707 167.071 32.7867 166.751 32.488C166.452 32.1893 166.025 31.912 165.471 31.656C164.916 31.4 164.265 31.1333 163.519 30.856C162.857 30.6 162.196 30.3333 161.535 30.056C160.873 29.7787 160.265 29.448 159.711 29.064C159.156 28.6587 158.708 28.168 158.367 27.592C158.025 27.016 157.855 26.312 157.855 25.48C157.855 24.904 157.961 24.328 158.175 23.752C158.388 23.176 158.729 22.6427 159.199 22.152C159.668 21.64 160.265 21.2347 160.991 20.936C161.737 20.6373 162.644 20.488 163.711 20.488C164.287 20.488 164.937 20.584 165.663 20.776C166.388 20.9467 167.028 21.2453 167.583 21.672L167.551 20.648H169.631V26.28H167.903C167.796 25.5333 167.561 24.872 167.199 24.296C166.836 23.6987 166.356 23.2293 165.759 22.888C165.161 22.5467 164.447 22.376 163.615 22.376C162.932 22.376 162.356 22.5467 161.887 22.888C161.417 23.208 161.183 23.688 161.183 24.328C161.183 24.8613 161.364 25.2987 161.727 25.64C162.089 25.9813 162.58 26.2693 163.199 26.504C163.817 26.7387 164.489 26.9947 165.215 27.272C166.217 27.6133 167.124 28.0187 167.935 28.488C168.767 28.9573 169.428 29.5227 169.919 30.184C170.409 30.8453 170.655 31.6667 170.655 32.648C170.655 33.7573 170.377 34.6747 169.823 35.4C169.268 36.104 168.553 36.6373 167.679 37C166.804 37.3413 165.887 37.512 164.927 37.512ZM180.304 37.512C179.707 37.512 179.12 37.4373 178.544 37.288C177.989 37.1387 177.477 36.8613 177.008 36.456C176.56 36.0507 176.197 35.4533 175.92 34.664C175.643 33.8533 175.504 32.7867 175.504 31.464L175.568 23.208L173.296 23.24V21C173.936 20.9787 174.555 20.7653 175.152 20.36C175.749 19.9333 176.272 19.3787 176.72 18.696C177.168 18.0133 177.467 17.288 177.616 16.52H179.568L179.536 21H184.048V23.048L179.536 23.144L179.504 31.368C179.504 32.008 179.557 32.6053 179.664 33.16C179.792 33.6933 180.005 34.12 180.304 34.44C180.624 34.76 181.051 34.92 181.584 34.92C181.989 34.92 182.448 34.792 182.96 34.536C183.493 34.28 184.027 33.768 184.56 33L185.872 34.184C185.339 34.9947 184.784 35.624 184.208 36.072C183.653 36.52 183.109 36.8507 182.576 37.064C182.064 37.2773 181.605 37.4053 181.2 37.448C180.795 37.4907 180.496 37.512 180.304 37.512Z" fill="#FF2640"/>
</svg>
