<svg width="192" height="50" viewBox="0 0 192 50" fill="none" xmlns="http://www.w3.org/2000/svg">
<ellipse cx="25" cy="25" rx="25" ry="25" fill="#2B29A4"/>
<path d="M26 36.2857C25.8077 36.2853 25.6156 36.2727 25.4249 36.248C23.6633 33.4253 22.688 30.1832 22.5997 26.8571H37.9571C37.9777 26.5726 38 26.2889 38 26C38 23.6266 37.2962 21.3066 35.9776 19.3332C34.6591 17.3598 32.7849 15.8217 30.5922 14.9135C28.3995 14.0052 25.9867 13.7676 23.6589 14.2306C21.3311 14.6936 19.193 15.8365 17.5147 17.5147C15.8365 19.193 14.6936 21.3311 14.2306 23.6589C13.7676 25.9867 14.0052 28.3995 14.9135 30.5922C15.8217 32.7849 17.3598 34.6591 19.3332 35.9776C21.3066 37.2962 23.6266 38 26 38V36.2857ZM36.2429 25.1429H31.1111C31.019 21.9889 30.2121 18.8969 28.7514 16.1C30.773 16.6641 32.5738 17.8325 33.9127 19.4487C35.2516 21.0649 36.0646 23.0517 36.2429 25.1429ZM26.5743 15.752C28.3361 18.5746 29.3118 21.8167 29.4003 25.1429H22.5997C22.6882 21.8167 23.6639 18.5746 25.4257 15.752C25.8075 15.7019 26.1942 15.7019 26.576 15.752H26.5743ZM23.2477 16.0991C21.7873 18.8964 20.9807 21.9886 20.8889 25.1429H15.7571C15.9355 23.0517 16.7485 21.065 18.0874 19.4488C19.4263 17.8327 21.2271 16.6642 23.2486 16.1L23.2477 16.0991ZM15.7571 26.8571H20.8889C20.9811 30.0111 21.788 33.1031 23.2486 35.9C21.2271 35.3358 19.4263 34.1673 18.0874 32.5512C16.7485 30.935 15.9355 28.9483 15.7571 26.8571Z" fill="white"/>
<path fill-rule="evenodd" clip-rule="evenodd" d="M32.8333 33L37 34.6667V33L32.8333 30.9167V28.8333C32.8333 28.6123 32.7455 28.4004 32.5893 28.2441C32.433 28.0878 32.221 28 32 28C31.779 28 31.567 28.0878 31.4107 28.2441C31.2545 28.4004 31.1667 28.6123 31.1667 28.8333V30.9167L27 33V34.6667L31.1667 33V35.9167L29.5 37.1667V38L32 37.1667L34.5 38V37.1667L32.8333 35.9167V33Z" fill="white"/>
<path d="M64.12 38L55.064 15.344H60.76L66.36 30.192H66.424L72.12 15.344H77.464L68.12 38H64.12ZM80.5637 38V22.448H85.3637V38H80.5637ZM80.1797 17.552C80.1797 16.016 81.4277 14.768 82.9637 14.768C84.4997 14.768 85.7477 16.016 85.7477 17.552C85.7477 19.088 84.4997 20.336 82.9637 20.336C81.4277 20.336 80.1797 19.088 80.1797 17.552ZM101.516 24.112L98.5722 27.024C97.8682 26.16 96.9402 25.712 95.7882 25.712C94.9882 25.712 94.0282 26.064 94.0282 26.992C94.0282 29.296 102.124 27.344 102.124 33.264C102.124 37.232 98.2842 38.384 94.9562 38.384C92.7802 38.384 90.3802 37.84 88.8442 36.272L91.7562 33.04C92.6522 34.128 93.7082 34.736 95.1482 34.736C96.2362 34.736 97.3242 34.448 97.3242 33.616C97.3242 31.12 89.2282 33.232 89.2282 27.312C89.2282 23.664 92.4922 22.064 95.7562 22.064C97.8042 22.064 100.076 22.576 101.516 24.112ZM115.305 38V36.048H115.241C114.185 37.712 112.265 38.384 110.313 38.384C107.401 38.384 104.777 36.72 104.777 33.584C104.777 28.208 111.305 28.112 115.305 28.112C115.305 26.416 113.897 25.328 112.233 25.328C110.665 25.328 109.353 26.032 108.329 27.184L105.769 24.56C107.529 22.896 110.089 22.064 112.617 22.064C118.217 22.064 119.721 24.912 119.721 30.096V38H115.305ZM115.305 31.184H114.121C112.649 31.184 109.385 31.312 109.385 33.424C109.385 34.576 110.601 35.12 111.657 35.12C113.545 35.12 115.305 34.128 115.305 32.208V31.184Z" fill="#181A1C"/>
<path d="M124.492 38V15.344H139.692V19.952H129.484V24.56H138.924V29.168H129.484V38H124.492ZM153.381 38V36.048H153.317C152.261 37.712 150.341 38.384 148.389 38.384C145.477 38.384 142.853 36.72 142.853 33.584C142.853 28.208 149.381 28.112 153.381 28.112C153.381 26.416 151.973 25.328 150.309 25.328C148.741 25.328 147.429 26.032 146.405 27.184L143.845 24.56C145.605 22.896 148.165 22.064 150.693 22.064C156.293 22.064 157.797 24.912 157.797 30.096V38H153.381ZM153.381 31.184H152.197C150.725 31.184 147.461 31.312 147.461 33.424C147.461 34.576 148.677 35.12 149.733 35.12C151.621 35.12 153.381 34.128 153.381 32.208V31.184ZM173.513 24.112L170.569 27.024C169.865 26.16 168.937 25.712 167.785 25.712C166.985 25.712 166.025 26.064 166.025 26.992C166.025 29.296 174.121 27.344 174.121 33.264C174.121 37.232 170.281 38.384 166.953 38.384C164.777 38.384 162.377 37.84 160.841 36.272L163.753 33.04C164.649 34.128 165.705 34.736 167.145 34.736C168.233 34.736 169.321 34.448 169.321 33.616C169.321 31.12 161.225 33.232 161.225 27.312C161.225 23.664 164.489 22.064 167.753 22.064C169.801 22.064 172.073 22.576 173.513 24.112ZM188.133 22.448V26.288H183.909V31.472C183.909 33.136 184.101 34.352 186.181 34.352C186.693 34.352 187.717 34.288 188.133 33.904V37.904C187.077 38.288 185.893 38.384 184.773 38.384C181.573 38.384 179.109 37.072 179.109 33.68V26.288H176.037V22.448H179.109V17.84H183.909V22.448H188.133Z" fill="#2B29A4"/>
</svg>
