<svg width="186" height="50" viewBox="0 0 186 50" fill="none" xmlns="http://www.w3.org/2000/svg">
<ellipse cx="25" cy="25" rx="25" ry="25" fill="#1A1A42"/>
<path d="M26 36.2857C25.8077 36.2853 25.6156 36.2727 25.4249 36.248C23.6633 33.4253 22.688 30.1832 22.5997 26.8571H37.9571C37.9777 26.5726 38 26.2889 38 26C38 23.6266 37.2962 21.3066 35.9776 19.3332C34.6591 17.3598 32.7849 15.8217 30.5922 14.9135C28.3995 14.0052 25.9867 13.7676 23.6589 14.2306C21.3311 14.6936 19.193 15.8365 17.5147 17.5147C15.8365 19.193 14.6936 21.3311 14.2306 23.6589C13.7676 25.9867 14.0052 28.3995 14.9135 30.5922C15.8217 32.7849 17.3598 34.6591 19.3332 35.9776C21.3066 37.2962 23.6266 38 26 38V36.2857ZM36.2429 25.1429H31.1111C31.019 21.9889 30.2121 18.8969 28.7514 16.1C30.773 16.6641 32.5738 17.8325 33.9127 19.4487C35.2516 21.0649 36.0646 23.0517 36.2429 25.1429ZM26.5743 15.752C28.3361 18.5746 29.3118 21.8167 29.4003 25.1429H22.5997C22.6882 21.8167 23.6639 18.5746 25.4257 15.752C25.8075 15.7019 26.1942 15.7019 26.576 15.752H26.5743ZM23.2477 16.0991C21.7873 18.8964 20.9807 21.9886 20.8889 25.1429H15.7571C15.9355 23.0517 16.7485 21.065 18.0874 19.4488C19.4263 17.8327 21.2271 16.6642 23.2486 16.1L23.2477 16.0991ZM15.7571 26.8571H20.8889C20.9811 30.0111 21.788 33.1031 23.2486 35.9C21.2271 35.3358 19.4263 34.1673 18.0874 32.5512C16.7485 30.935 15.9355 28.9483 15.7571 26.8571Z" fill="white"/>
<path fill-rule="evenodd" clip-rule="evenodd" d="M32.8333 33L37 34.6667V33L32.8333 30.9167V28.8333C32.8333 28.6123 32.7455 28.4004 32.5893 28.2441C32.433 28.0878 32.221 28 32 28C31.779 28 31.567 28.0878 31.4107 28.2441C31.2545 28.4004 31.1667 28.6123 31.1667 28.8333V30.9167L27 33V34.6667L31.1667 33V35.9167L29.5 37.1667V38L32 37.1667L34.5 38V37.1667L32.8333 35.9167V33Z" fill="white"/>
<path d="M61.968 36L54 13.6H58.128L64.304 31.264H63.472L69.68 13.6H73.808L65.84 36H61.968ZM76.4722 36V20H80.4402V36H76.4722ZM76.4722 17.568V13.6H80.4402V17.568H76.4722ZM89.6638 36.32C88.6078 36.32 87.6531 36.2187 86.7998 36.016C85.9571 35.8133 85.1091 35.52 84.2558 35.136L84.6078 31.744C85.4291 32.224 86.2344 32.6133 87.0238 32.912C87.8238 33.2 88.6611 33.344 89.5358 33.344C90.3251 33.344 90.9278 33.216 91.3438 32.96C91.7598 32.704 91.9678 32.2987 91.9678 31.744C91.9678 31.328 91.8558 30.9867 91.6318 30.72C91.4184 30.4533 91.0931 30.2133 90.6558 30C90.2184 29.7867 89.6744 29.5573 89.0238 29.312C88.0424 28.9493 87.2051 28.5547 86.5118 28.128C85.8291 27.7013 85.3064 27.1893 84.9438 26.592C84.5918 25.984 84.4158 25.2373 84.4158 24.352C84.4158 23.4347 84.6558 22.624 85.1358 21.92C85.6158 21.216 86.2984 20.6667 87.1838 20.272C88.0691 19.8773 89.1198 19.68 90.3358 19.68C91.3491 19.68 92.2558 19.792 93.0558 20.016C93.8664 20.24 94.6131 20.544 95.2958 20.928L94.9438 24.32C94.2291 23.8187 93.5091 23.408 92.7838 23.088C92.0584 22.7573 91.2638 22.592 90.3998 22.592C89.7171 22.592 89.1891 22.7307 88.8158 23.008C88.4424 23.2853 88.2558 23.68 88.2558 24.192C88.2558 24.8107 88.5171 25.2747 89.0398 25.584C89.5624 25.8933 90.3998 26.272 91.5518 26.72C92.2984 27.008 92.9438 27.3067 93.4878 27.616C94.0424 27.9253 94.5011 28.2667 94.8638 28.64C95.2264 29.0133 95.4931 29.44 95.6638 29.92C95.8451 30.3893 95.9358 30.9333 95.9358 31.552C95.9358 32.5653 95.6904 33.4293 95.1998 34.144C94.7198 34.848 94.0104 35.3867 93.0718 35.76C92.1438 36.1333 91.0078 36.32 89.6638 36.32ZM103.067 36.32C102.214 36.32 101.435 36.1333 100.731 35.76C100.027 35.376 99.467 34.8267 99.051 34.112C98.635 33.3973 98.427 32.5333 98.427 31.52C98.427 30.6133 98.635 29.84 99.051 29.2C99.4777 28.5493 100.032 28.0107 100.715 27.584C101.408 27.1467 102.155 26.8053 102.955 26.56C103.766 26.304 104.56 26.1173 105.339 26C106.128 25.8827 106.822 25.8133 107.419 25.792C107.376 24.8747 107.142 24.208 106.715 23.792C106.288 23.376 105.563 23.168 104.539 23.168C103.824 23.168 103.126 23.2693 102.443 23.472C101.771 23.664 101.008 23.968 100.155 24.384L99.803 21.152C100.763 20.6827 101.723 20.3307 102.683 20.096C103.654 19.8613 104.635 19.744 105.627 19.744C106.822 19.744 107.851 19.9573 108.715 20.384C109.579 20.8107 110.246 21.4987 110.715 22.448C111.184 23.3867 111.419 24.6293 111.419 26.176V30.496C111.419 31.296 111.456 31.8773 111.531 32.24C111.606 32.592 111.744 32.816 111.947 32.912C112.15 33.008 112.443 33.056 112.827 33.056H113.339L112.987 36.32H111.547C110.95 36.32 110.416 36.24 109.947 36.08C109.488 35.9307 109.094 35.7173 108.763 35.44C108.432 35.1627 108.166 34.8373 107.963 34.464C107.44 35.0507 106.731 35.5093 105.835 35.84C104.95 36.16 104.027 36.32 103.067 36.32ZM104.731 33.28C105.083 33.28 105.52 33.1893 106.043 33.008C106.566 32.816 107.035 32.5227 107.451 32.128V28.48C106.704 28.512 105.958 28.6347 105.211 28.848C104.464 29.0613 103.84 29.376 103.339 29.792C102.838 30.208 102.587 30.7307 102.587 31.36C102.587 32.0107 102.758 32.496 103.099 32.816C103.44 33.1253 103.984 33.28 104.731 33.28Z" fill="#1A1A42"/>
<path d="M117.117 36V13.6H130.909V17.568H121.213V22.336H128.701V26.304H121.213V36H117.117ZM136.487 36.32C135.634 36.32 134.855 36.1333 134.151 35.76C133.447 35.376 132.887 34.8267 132.471 34.112C132.055 33.3973 131.847 32.5333 131.847 31.52C131.847 30.6133 132.055 29.84 132.471 29.2C132.898 28.5493 133.452 28.0107 134.135 27.584C134.828 27.1467 135.575 26.8053 136.375 26.56C137.186 26.304 137.98 26.1173 138.759 26C139.548 25.8827 140.242 25.8133 140.839 25.792C140.796 24.8747 140.562 24.208 140.135 23.792C139.708 23.376 138.983 23.168 137.959 23.168C137.244 23.168 136.546 23.2693 135.863 23.472C135.191 23.664 134.428 23.968 133.575 24.384L133.223 21.152C134.183 20.6827 135.143 20.3307 136.103 20.096C137.074 19.8613 138.055 19.744 139.047 19.744C140.242 19.744 141.271 19.9573 142.135 20.384C142.999 20.8107 143.666 21.4987 144.135 22.448C144.604 23.3867 144.839 24.6293 144.839 26.176V30.496C144.839 31.296 144.876 31.8773 144.951 32.24C145.026 32.592 145.164 32.816 145.367 32.912C145.57 33.008 145.863 33.056 146.247 33.056H146.759L146.407 36.32H144.967C144.37 36.32 143.836 36.24 143.367 36.08C142.908 35.9307 142.514 35.7173 142.183 35.44C141.852 35.1627 141.586 34.8373 141.383 34.464C140.86 35.0507 140.151 35.5093 139.255 35.84C138.37 36.16 137.447 36.32 136.487 36.32ZM138.151 33.28C138.503 33.28 138.94 33.1893 139.463 33.008C139.986 32.816 140.455 32.5227 140.871 32.128V28.48C140.124 28.512 139.378 28.6347 138.631 28.848C137.884 29.0613 137.26 29.376 136.759 29.792C136.258 30.208 136.007 30.7307 136.007 31.36C136.007 32.0107 136.178 32.496 136.519 32.816C136.86 33.1253 137.404 33.28 138.151 33.28ZM154.473 36.32C153.417 36.32 152.462 36.2187 151.609 36.016C150.766 35.8133 149.918 35.52 149.065 35.136L149.417 31.744C150.238 32.224 151.043 32.6133 151.833 32.912C152.633 33.2 153.47 33.344 154.345 33.344C155.134 33.344 155.737 33.216 156.153 32.96C156.569 32.704 156.777 32.2987 156.777 31.744C156.777 31.328 156.665 30.9867 156.441 30.72C156.227 30.4533 155.902 30.2133 155.465 30C155.027 29.7867 154.483 29.5573 153.833 29.312C152.851 28.9493 152.014 28.5547 151.321 28.128C150.638 27.7013 150.115 27.1893 149.753 26.592C149.401 25.984 149.225 25.2373 149.225 24.352C149.225 23.4347 149.465 22.624 149.945 21.92C150.425 21.216 151.107 20.6667 151.993 20.272C152.878 19.8773 153.929 19.68 155.145 19.68C156.158 19.68 157.065 19.792 157.865 20.016C158.675 20.24 159.422 20.544 160.105 20.928L159.753 24.32C159.038 23.8187 158.318 23.408 157.593 23.088C156.867 22.7573 156.073 22.592 155.209 22.592C154.526 22.592 153.998 22.7307 153.625 23.008C153.251 23.2853 153.065 23.68 153.065 24.192C153.065 24.8107 153.326 25.2747 153.849 25.584C154.371 25.8933 155.209 26.272 156.361 26.72C157.107 27.008 157.753 27.3067 158.297 27.616C158.851 27.9253 159.31 28.2667 159.673 28.64C160.035 29.0133 160.302 29.44 160.473 29.92C160.654 30.3893 160.745 30.9333 160.745 31.552C160.745 32.5653 160.499 33.4293 160.009 34.144C159.529 34.848 158.819 35.3867 157.881 35.76C156.953 36.1333 155.817 36.32 154.473 36.32ZM169.636 36.32C168.633 36.32 167.817 36.1173 167.188 35.712C166.558 35.296 166.094 34.768 165.796 34.128C165.497 33.488 165.348 32.8213 165.348 32.128V23.264H163.076L163.428 20H165.348V16.48L169.316 16.064V20H172.836V23.264H169.316V30.496C169.316 31.3067 169.364 31.8933 169.46 32.256C169.556 32.608 169.774 32.832 170.116 32.928C170.457 33.0133 171.001 33.056 171.748 33.056H172.836L172.484 36.32H169.636Z" fill="#6A6A9A"/>
</svg>
