<svg width="128" height="30" viewBox="0 0 128 30" fill="none" xmlns="http://www.w3.org/2000/svg">
<path fill-rule="evenodd" clip-rule="evenodd" d="M61.9062 8.85222C63.0808 7.40513 64.9035 6.20572 67.0793 6.20572C71.9643 6.20572 75.8123 10.2342 75.809 15.2045C75.809 20.3834 71.9416 24.2163 67.3017 24.2163C64.8347 24.2163 62.9467 22.9582 62.2564 21.9087H62.1908V29.5158C62.1908 29.5617 62.1725 29.6055 62.14 29.6379C62.1076 29.6702 62.0636 29.6885 62.0175 29.6885H57.6691C57.6227 29.6885 57.5781 29.6705 57.545 29.6382C57.5123 29.6058 57.4931 29.562 57.4922 29.5158V6.37522C57.4922 6.32854 57.5108 6.28375 57.5442 6.25075C57.5772 6.21775 57.6221 6.19922 57.6691 6.19922H61.7329C61.7792 6.20007 61.8232 6.21898 61.8557 6.2519C61.8882 6.28481 61.9062 6.3291 61.9062 6.37522V8.85222ZM66.7082 19.8061C66.3477 19.8174 65.9851 19.7867 65.6281 19.713C64.7299 19.5279 63.9075 19.0801 63.2662 18.4269C62.6249 17.7737 62.1938 16.9448 62.0281 16.0463C61.9803 15.7881 61.9552 15.5275 61.9523 15.2674C61.949 14.976 61.9735 14.6835 62.0264 14.3939C62.1905 13.496 62.6193 12.6671 63.2582 12.013C63.8972 11.359 64.7172 10.9094 65.6139 10.7216C65.973 10.6465 66.3376 10.6146 66.7005 10.6255C67.2902 10.6327 67.8727 10.7546 68.4157 10.9844C68.9658 11.2173 69.4642 11.5564 69.8824 11.9821C70.3002 12.4078 70.6294 12.9117 70.8508 13.4648C71.0723 14.0178 71.1815 14.6091 71.1727 15.2045C71.1727 15.2044 71.1727 15.2046 71.1727 15.2045C71.1821 15.801 71.0732 16.3937 70.8523 16.9482C70.6312 17.5027 70.3022 18.0083 69.8847 18.4359C69.4669 18.8635 68.9685 19.2047 68.4181 19.44C67.8772 19.671 67.2964 19.7953 66.7082 19.8061Z" fill="#5A31F4"/>
<path d="M33.6752 9.66725C32.6706 7.56831 30.7662 6.21246 27.8967 6.21246C27.0159 6.22775 26.1504 6.44437 25.367 6.84561C24.5835 7.24681 23.903 7.8219 23.378 8.52652L23.2733 8.65363V0.427305C23.2733 0.379764 23.2544 0.334172 23.2206 0.300555C23.1869 0.266937 23.1411 0.248047 23.0934 0.248047H19.0361C18.9889 0.248901 18.944 0.268162 18.9109 0.301687C18.8779 0.335214 18.8594 0.380322 18.8594 0.427305V24.0242C18.8594 24.0709 18.878 24.1156 18.9111 24.1486C18.9443 24.1816 18.9892 24.2002 19.0361 24.2002H23.3813C23.4285 24.2002 23.4738 24.1818 23.5074 24.1488C23.5411 24.1159 23.5604 24.0712 23.5613 24.0242V13.9629C23.5613 12.0074 24.8701 10.6222 26.9642 10.6222C29.2546 10.6222 29.8337 12.4995 29.8337 14.4127V24.0242C29.8337 24.0709 29.8523 24.1156 29.8855 24.1486C29.9186 24.1816 29.9635 24.2002 30.0104 24.2002H34.3457C34.393 24.2002 34.4384 24.1818 34.4718 24.1488C34.5055 24.1159 34.525 24.0712 34.5258 24.0242V13.8391C34.5258 13.4903 34.5258 13.1481 34.4801 12.8157C34.4057 11.7263 34.1328 10.6594 33.6752 9.66725Z" fill="#5A31F4"/>
<path d="M11.9825 13.1654C11.9825 13.1654 9.77065 12.6472 8.9559 12.4386C8.14116 12.23 6.71784 11.7867 6.71784 10.7145C6.71784 9.64216 7.86632 9.29995 9.03117 9.29995C10.196 9.29995 11.4917 9.58025 11.5931 10.8676C11.5973 10.914 11.6187 10.9572 11.6532 10.9886C11.6878 11.02 11.7329 11.0373 11.7797 11.0371L16.0627 11.0208C16.0879 11.0209 16.1129 11.0158 16.136 11.0058C16.1591 10.9958 16.1799 10.9812 16.1972 10.9628C16.2143 10.9445 16.2276 10.9228 16.236 10.8991C16.2443 10.8755 16.2478 10.8503 16.246 10.8253C15.9809 6.7056 12.3523 5.23242 9.00498 5.23242C5.03603 5.23242 2.13375 7.8398 2.13375 10.7145C2.13375 12.8134 2.72926 14.782 7.41152 16.1509C8.23279 16.3888 9.34856 16.6984 10.3236 16.9689C11.495 17.2949 12.1265 17.787 12.1265 18.5627C12.1265 19.4622 10.8177 20.088 9.53177 20.088C7.67 20.088 6.3481 19.4003 6.24012 18.1651C6.23451 18.1199 6.21242 18.0783 6.17802 18.0482C6.14363 18.0182 6.09936 18.0018 6.05363 18.0021L1.78037 18.0217C1.75532 18.0217 1.73052 18.0267 1.70746 18.0364C1.68439 18.0462 1.66353 18.0604 1.64612 18.0784C1.62872 18.0963 1.61512 18.1176 1.60614 18.1409C1.59716 18.1642 1.59299 18.189 1.59386 18.214C1.79019 22.1022 5.55955 24.1979 9.07369 24.1979C14.3089 24.1979 16.6746 21.2646 16.6746 18.5171C16.6811 17.2264 16.3834 14.2866 11.9825 13.1654Z" fill="#5A31F4"/>
<path d="M44.6263 5.18945C40.5723 5.18945 38.5502 6.5616 36.9274 7.65995L36.8781 7.69254C36.7946 7.74963 36.7355 7.83607 36.7131 7.93454C36.6906 8.03304 36.7066 8.13637 36.7571 8.22381L38.3604 10.9746C38.3905 11.0261 38.4315 11.0703 38.4808 11.1041C38.5302 11.1379 38.5863 11.1605 38.645 11.1702C38.7029 11.1805 38.7619 11.178 38.8186 11.1628C38.8753 11.1476 38.9276 11.12 38.9722 11.0822L39.1 10.9779C39.9342 10.2804 41.2726 9.34825 44.5118 9.09401C46.3147 8.95063 47.8722 9.41995 49.0206 10.489C50.2837 11.6493 51.0396 13.5233 51.0396 15.5017C51.0396 19.1422 48.8865 21.4302 45.428 21.4759C42.578 21.4596 40.6641 19.9799 40.6641 17.7929C40.6641 16.6327 41.1908 15.8765 42.2181 15.1204C42.2966 15.0645 42.3522 14.9822 42.3743 14.8887C42.3964 14.7953 42.384 14.6969 42.3392 14.6119L40.8994 11.9002C40.8728 11.8517 40.8371 11.8089 40.7937 11.7742C40.7506 11.7395 40.7007 11.7137 40.6475 11.6982C40.5932 11.682 40.5359 11.6774 40.4795 11.6847C40.4231 11.692 40.3688 11.711 40.3204 11.7405C38.7041 12.6955 36.721 14.4424 36.8291 17.7995C36.9599 22.0723 40.5265 25.3348 45.1628 25.4684H45.3952H45.7126C51.2227 25.2892 55.2015 21.2151 55.2015 15.6907C55.2015 10.6194 51.4911 5.18945 44.6263 5.18945Z" fill="#5A31F4"/>
<path fill-rule="evenodd" clip-rule="evenodd" d="M84.777 0.306641H121.878C124.439 0.306641 126.515 2.37434 126.515 4.92497V25.1583C126.515 27.7089 124.439 29.7766 121.878 29.7766H84.777C82.2164 29.7766 80.1406 27.7089 80.1406 25.1583V4.92497C80.1406 2.37434 82.2164 0.306641 84.777 0.306641ZM93.101 16.3323C96.1963 16.3323 98.4114 14.0834 98.4114 10.9318C98.4114 7.79635 96.1963 5.53444 93.101 5.53444H87.6367C87.5717 5.53444 87.5091 5.56021 87.4633 5.60606C87.4173 5.65188 87.3913 5.71406 87.3913 5.77891V20.716C87.3922 20.7806 87.4182 20.8422 87.4642 20.8879C87.51 20.9336 87.572 20.9596 87.6367 20.9604H89.6915C89.7567 20.9604 89.819 20.9347 89.8651 20.8888C89.9111 20.843 89.9368 20.7808 89.9368 20.716V16.5768C89.9368 16.5119 89.9628 16.4498 90.0089 16.4039C90.0549 16.3581 90.1172 16.3323 90.1825 16.3323H93.101ZM92.9439 7.80288C94.6257 7.80288 95.8659 9.12615 95.8659 10.9318C95.8659 12.7406 94.6257 14.0606 92.9439 14.0606H90.1825C90.1178 14.0606 90.0558 14.0353 90.0101 13.9902C89.964 13.9451 89.9377 13.8837 89.9368 13.8194V8.04732C89.9377 7.98276 89.964 7.92109 90.0098 7.87541C90.0555 7.82976 90.1175 7.80374 90.1825 7.80288H92.9439ZM99.0167 18.0956C98.9955 17.6124 99.0956 17.1315 99.3081 16.6967C99.5207 16.2618 99.839 15.8868 100.234 15.6055C101.033 15.0091 102.269 14.6994 104.105 14.6277L106.052 14.5626V13.9889C106.052 12.8449 105.279 12.3593 104.039 12.3593C102.799 12.3593 102.017 12.796 101.834 13.5098C101.819 13.5602 101.788 13.6043 101.746 13.6351C101.703 13.6658 101.651 13.6814 101.599 13.6793H99.6778C99.6424 13.6802 99.6073 13.6733 99.5751 13.6592C99.5426 13.6451 99.5136 13.6241 99.4903 13.5978C99.467 13.5714 99.4496 13.5402 99.4395 13.5064C99.4295 13.4726 99.4271 13.4371 99.4325 13.4023C99.7203 11.7074 101.127 10.4201 104.128 10.4201C107.315 10.4201 108.463 11.8965 108.463 14.7157V20.7062C108.464 20.7386 108.458 20.7707 108.445 20.8008C108.433 20.8308 108.415 20.8581 108.392 20.8812C108.37 20.9042 108.343 20.9225 108.312 20.935C108.282 20.9475 108.25 20.9539 108.218 20.9539H106.277C106.245 20.9539 106.213 20.9475 106.183 20.935C106.153 20.9225 106.126 20.9042 106.103 20.8812C106.08 20.8581 106.062 20.8308 106.05 20.8008C106.038 20.7707 106.031 20.7386 106.032 20.7062V20.2597C106.035 20.2205 106.026 20.1814 106.005 20.148C105.984 20.1146 105.953 20.0889 105.916 20.0746C105.879 20.0604 105.839 20.0583 105.801 20.0687C105.763 20.0792 105.729 20.1016 105.705 20.1326C105.126 20.7616 104.183 21.2179 102.682 21.2179C100.479 21.2244 99.0167 20.0772 99.0167 18.0956ZM106.052 16.7919V16.3291L103.532 16.4594C102.204 16.5279 101.428 17.0787 101.428 18.0043C101.428 18.8419 102.138 19.308 103.375 19.308C105.057 19.308 106.052 18.4019 106.052 16.7951V16.7919ZM110.413 23.7406V25.4842C110.41 25.5406 110.426 25.5964 110.459 25.6425C110.492 25.6886 110.539 25.7224 110.593 25.7384C110.935 25.8314 111.289 25.8742 111.644 25.8656C113.525 25.8656 115.243 25.1811 116.225 22.5151L120.543 11.0393C120.556 11.0024 120.559 10.963 120.553 10.9245C120.548 10.886 120.533 10.8494 120.51 10.8176C120.488 10.7859 120.458 10.7599 120.423 10.7418C120.389 10.7237 120.35 10.7139 120.311 10.7134H118.299C118.247 10.7129 118.195 10.7292 118.153 10.7596C118.111 10.7901 118.079 10.8333 118.063 10.8829L115.684 18.1509C115.666 18.1986 115.634 18.2396 115.592 18.2685C115.55 18.2975 115.5 18.313 115.449 18.313C115.398 18.313 115.348 18.2975 115.306 18.2685C115.264 18.2396 115.232 18.1986 115.213 18.1509L112.471 10.8633C112.453 10.8166 112.421 10.7765 112.38 10.748C112.338 10.7195 112.289 10.7041 112.239 10.7036H110.276C110.237 10.7042 110.198 10.7139 110.164 10.732C110.129 10.7501 110.099 10.7761 110.077 10.8079C110.054 10.8396 110.039 10.8762 110.034 10.9148C110.028 10.9533 110.031 10.9926 110.044 11.0295L114.081 21.3613C114.101 21.415 114.101 21.4739 114.081 21.5275L113.954 21.9284C113.805 22.4257 113.493 22.8589 113.067 23.1585C112.642 23.4581 112.128 23.6069 111.608 23.5809C111.306 23.5805 111.004 23.5521 110.708 23.4961C110.672 23.4894 110.635 23.4907 110.599 23.4999C110.564 23.5091 110.531 23.5259 110.503 23.5493C110.475 23.5726 110.452 23.6019 110.437 23.6349C110.421 23.668 110.413 23.7041 110.413 23.7406Z" fill="#5A31F4"/>
</svg>
