<svg width="76" height="30" viewBox="0 0 76 30" fill="none" xmlns="http://www.w3.org/2000/svg">
<path d="M35.9413 14.6567V23.4505H33.1348V1.73388H40.5781C41.4666 1.71543 42.35 1.87207 43.1772 2.19475C44.0045 2.51743 44.7593 2.99976 45.398 3.61392C46.0432 4.19078 46.5567 4.89825 46.904 5.68877C47.2513 6.47929 47.4243 7.33454 47.4114 8.19704C47.4299 9.06416 47.2595 9.925 46.912 10.7206C46.5645 11.5161 46.048 12.2276 45.398 12.8062C44.0965 14.0399 42.4898 14.6562 40.5781 14.655H35.9413V14.6567ZM35.9413 4.40752V11.9883H40.6479C41.1639 12.0035 41.6774 11.9115 42.1555 11.7182C42.6337 11.5248 43.066 11.2344 43.4248 10.8655C43.7817 10.5206 44.0654 10.108 44.2591 9.65218C44.4529 9.19638 44.5527 8.70659 44.5527 8.21177C44.5527 7.71696 44.4529 7.22716 44.2591 6.77136C44.0654 6.31555 43.7817 5.90299 43.4248 5.55806C43.0705 5.18138 42.6397 4.88384 42.1609 4.68519C41.6822 4.48653 41.1665 4.3913 40.6479 4.40578H35.9413V4.40752ZM53.8786 8.10694C55.953 8.10694 57.5904 8.65795 58.7909 9.75998C59.9914 10.862 60.591 12.373 60.5899 14.2929V23.4505H57.9054V21.3885H57.7833C56.6212 23.0866 55.0756 23.9356 53.1465 23.9356C51.4998 23.9356 50.1221 23.4505 49.0134 22.4801C48.4814 22.0348 48.056 21.477 47.7683 20.8475C47.4806 20.218 47.3378 19.5326 47.3504 18.8413C47.3504 17.3038 47.935 16.0811 49.104 15.1731C50.2731 14.2651 51.8339 13.81 53.7862 13.8077C55.4527 13.8077 56.8252 14.1109 57.9036 14.7174V14.0797C57.9068 13.6085 57.8044 13.1424 57.6039 12.7153C57.4034 12.2882 57.1098 11.9109 56.7444 11.6106C56.0022 10.945 55.035 10.5818 54.0355 10.5934C52.4678 10.5934 51.2272 11.2507 50.3138 12.5653L47.842 11.018C49.2017 9.07728 51.2139 8.10694 53.8786 8.10694ZM50.2476 18.902C50.2457 19.257 50.3292 19.6074 50.4911 19.9238C50.653 20.2403 50.8887 20.5138 51.1784 20.7214C51.7991 21.2067 52.5696 21.4638 53.3592 21.4491C54.5435 21.4472 55.6787 20.9786 56.5161 20.1461C57.4457 19.2763 57.9106 18.2557 57.9106 17.0843C57.0355 16.3912 55.8153 16.0447 54.2499 16.0447C53.1099 16.0447 52.1593 16.3179 51.3981 16.8643C50.6293 17.4187 50.2476 18.0928 50.2476 18.902ZM75.9996 8.59211L66.6282 30.0002H63.7311L67.2087 22.5096L61.0466 8.59211H64.0971L68.551 19.2659H68.612L72.9438 8.59211H75.9996Z" fill="#5F6368"/>
<path d="M24.6031 12.7604C24.6042 11.9102 24.5319 11.0615 24.387 10.2236H12.5508V15.0286H19.33C19.1913 15.796 18.8977 16.5275 18.4669 17.1791C18.0361 17.8307 17.477 18.3888 16.8233 18.8198V21.9388H20.8692C23.2382 19.7676 24.6031 16.5568 24.6031 12.7604Z" fill="#4285F4"/>
<path d="M12.5498 24.9523C15.9368 24.9523 18.7887 23.8468 20.8683 21.9408L16.8224 18.8219C15.6963 19.5808 14.2459 20.014 12.5498 20.014C9.27613 20.014 6.4975 17.8203 5.50388 14.8643H1.33594V18.0785C2.38057 20.1448 3.98239 21.8818 5.96258 23.0956C7.94277 24.3094 10.2234 24.9522 12.5498 24.9523Z" fill="#34A853"/>
<path d="M5.50439 14.8647C4.97911 13.3157 4.97911 11.6383 5.50439 10.0893V6.875H1.33645C0.457668 8.61322 0 10.5316 0 12.477C0 14.4223 0.457668 16.3408 1.33645 18.079L5.50439 14.8647Z" fill="#FBBC04"/>
<path d="M12.5498 4.93916C14.3397 4.91009 16.0692 5.58231 17.3645 6.81053L20.9467 3.24973C18.6752 1.12897 15.666 -0.0353597 12.5498 0.00081853C10.2234 0.000923925 7.94278 0.643764 5.96258 1.85757C3.98239 3.07138 2.38057 4.80837 1.33594 6.87464L5.50388 10.0889C6.4975 7.13282 9.27613 4.93916 12.5498 4.93916Z" fill="#EA4335"/>
</svg>
