<svg width="126" height="24" viewBox="0 0 126 24" fill="none" xmlns="http://www.w3.org/2000/svg">
<path d="M20.7104 0C21.5611 1.4075 21.9446 2.85724 21.9446 4.68855C21.9446 10.5295 16.9672 18.1173 12.9275 23.4454H3.70053L0 1.27885L8.07923 0.510447L10.0358 16.2833C11.8638 13.2999 14.1198 8.61131 14.1198 5.41472C14.1198 3.66503 13.8206 2.47325 13.353 1.49196L20.7104 0ZM31.1814 9.76086C32.6681 9.76086 36.411 9.07953 36.411 6.94847C36.411 5.92517 35.6887 5.41472 34.8376 5.41472C33.3485 5.41472 31.3943 7.20359 31.1814 9.76086ZM31.011 13.9814C31.011 16.5835 32.4554 17.6044 34.3702 17.6044C36.4554 17.6044 38.4518 17.094 41.0468 15.7729L40.0694 22.4216C38.2411 23.3165 35.3917 23.9136 32.626 23.9136C25.6104 23.9136 23.0995 19.6515 23.0995 14.3232C23.0995 7.41713 27.1838 0.0842359 35.6042 0.0842359C40.2402 0.0842359 42.8325 2.68614 42.8325 6.30916C42.8329 12.1499 35.3498 13.9392 31.011 13.9814ZM66.1481 5.20162C66.1481 6.05404 66.019 7.29045 65.8906 8.09846L63.4662 23.4451H55.5993L57.8107 9.37709C57.8526 8.99551 57.9815 8.22733 57.9815 7.80112C57.9815 6.77781 57.3433 6.52248 56.576 6.52248C55.5569 6.52248 54.5354 6.99092 53.855 7.3329L51.3468 23.4454H43.4355L47.0498 0.468658H53.897L53.9837 2.30259C55.599 1.23706 57.7261 0.0846734 60.7441 0.0846734C64.7426 0.0842359 66.1481 2.13106 66.1481 5.20162ZM89.5027 2.5995C91.7558 0.981293 93.8834 0.0842359 96.8168 0.0842359C100.856 0.0842359 102.261 2.13106 102.261 5.20162C102.261 6.05404 102.133 7.29045 102.004 8.09846L99.5828 23.4451H91.7137L93.9672 9.07975C94.0087 8.69577 94.0959 8.22733 94.0959 7.9302C94.0959 6.77803 93.4575 6.52248 92.6904 6.52248C91.7132 6.52248 90.7365 6.94869 90.0114 7.3329L87.5036 23.4454H79.6365L81.89 9.07997C81.9315 8.69598 82.016 8.22755 82.016 7.93042C82.016 6.77825 81.3774 6.5227 80.613 6.5227C79.5917 6.5227 78.5723 6.99114 77.892 7.33311L75.3818 23.4456H67.4732L71.087 0.468876H77.8505L78.063 2.38705C79.6364 1.2375 81.7618 0.085111 84.611 0.085111C87.0779 0.0842359 88.6931 1.14998 89.5027 2.5995ZM117.918 9.29286C117.918 7.41713 117.45 6.13828 116.047 6.13828C112.943 6.13828 112.305 11.6368 112.305 14.4496C112.305 16.5835 112.901 17.9042 114.303 17.9042C117.238 17.9042 117.918 12.1055 117.918 9.29286ZM104.31 14.1101C104.31 6.86424 108.137 0.0842359 116.941 0.0842359C123.575 0.0842359 126 4.007 126 9.42151C126 16.5833 122.215 24 113.198 24C106.521 24 104.31 19.6088 104.31 14.1101Z" fill="#3D95CE"/>
</svg>
