<svg width="126" height="30" viewBox="0 0 126 30" fill="none" xmlns="http://www.w3.org/2000/svg">
<path d="M22.5842 4.88715C22.1717 4.15946 21.5193 3.55929 20.7094 3.10861C19.8645 2.65353 18.8671 2.33475 17.7272 2.14569C16.5674 1.96102 15.2275 1.87748 13.6752 1.86429L6.50849 1.86868C5.76358 1.87747 5.03366 2.38751 4.85868 3.02067L0.0367249 21.492C-0.138255 22.1164 0.329192 22.6396 1.07411 22.6396H4.50622C5.25114 22.6396 5.98855 22.1318 6.15353 21.492L7.3309 17.0072C7.48838 16.3828 8.2233 15.8618 8.97572 15.8618H9.9581C14.1551 15.8574 17.4048 15.1033 19.7395 13.593C22.0867 12.0805 23.2441 10.0821 23.2441 7.60663C23.2416 6.52279 23.0391 5.61264 22.5842 4.88715ZM15.1825 10.9219C14.1451 11.5902 12.7028 11.9244 10.843 11.9244H10.0031C9.25568 11.9244 8.79823 11.4055 8.96072 10.7724L9.9931 6.85036C10.1381 6.22161 10.8905 5.70057 11.6279 5.70497L12.7528 5.69837C14.0651 5.69837 15.0675 5.89843 15.7375 6.28536C16.3999 6.66789 16.7323 7.27686 16.7273 8.08369C16.7473 9.31042 16.2149 10.2536 15.1825 10.9219ZM62.3622 8.51019L48.6887 28.848C48.2488 29.4834 47.2764 29.9956 46.5365 29.9956L42.9819 30C42.2445 30 42.002 29.4834 42.4519 28.8502L45.4916 24.1939C45.4916 24.1939 45.7366 23.9235 45.5191 22.4066C45.0516 19.6563 42.7169 7.97157 42.7169 7.97157C42.5494 7.33842 43.0044 6.81958 43.7443 6.81958L46.8189 6.81518C47.7613 6.81518 48.5188 7.3604 48.6887 7.99795L50.2186 16.1036L50.7885 16.1102C51.2659 15.3649 56.1804 7.94739 56.1804 7.94739C56.6503 7.32083 57.6002 6.7954 58.3401 6.7954C58.3401 6.7954 61.6423 6.80419 62.4547 6.7954C63.677 6.77122 62.3622 8.51019 62.3622 8.51019ZM84.9071 4.9553C84.4772 4.22322 83.8323 3.63184 83.0173 3.17016C82.1824 2.71289 81.1926 2.39191 80.0352 2.20724C78.8978 2.02917 77.5405 1.93243 75.9981 1.93024L68.8215 1.93464C68.074 1.94563 67.3566 2.45567 67.1841 3.08222L62.3572 21.5624C62.1822 22.1889 62.6622 22.7078 63.3921 22.7078L66.8292 22.7034C67.5591 22.7078 68.3065 22.1933 68.479 21.5602L69.6414 17.0731C69.8113 16.4488 70.5488 15.9233 71.2912 15.9277H72.2736C76.4756 15.9277 79.7327 15.1671 82.0775 13.6611C84.3947 12.1376 85.5671 10.1436 85.5671 7.66598C85.5546 6.58655 85.3421 5.67419 84.9071 4.9553ZM77.5055 10.9988C76.4706 11.654 75.0258 11.9881 73.176 11.9881H72.3211C71.5836 11.9947 71.1062 11.4671 71.2712 10.8383L72.3111 6.92291C72.4635 6.29635 73.2085 5.77092 73.9509 5.77752L75.0633 5.77092C76.3831 5.77752 77.373 5.96878 78.0479 6.35571C78.7203 6.74264 79.0378 7.34941 79.0453 8.15404C79.0528 9.38077 78.5354 10.3261 77.5055 10.9988ZM39.1323 7.52748C37.8375 6.88554 35.7927 6.56456 32.998 6.56456C31.6157 6.56456 30.2383 6.6591 28.846 6.84816C27.8186 6.98667 27.7186 7.01305 27.0862 7.13396C25.7813 7.38458 25.5763 8.52997 25.5763 8.52997L25.1564 10.0491C24.9189 11.0186 25.5538 10.9812 25.8188 10.8999C26.3888 10.7504 26.7062 10.5965 27.8711 10.3679C28.9835 10.1458 30.1558 9.97875 31.0857 9.98974C32.4581 9.98974 33.5079 10.1173 34.2079 10.3767C34.8978 10.6405 35.2428 11.0934 35.2428 11.7485L35.1828 12.175L34.6878 12.4432C32.7405 12.5509 31.3332 12.7092 29.6259 12.9269C27.9561 13.1313 26.4912 13.4897 25.2739 13.9799C23.9665 14.4856 22.9966 15.1649 22.3192 16.0289C21.6643 16.8973 21.3368 17.9503 21.3368 19.1858C21.3368 20.3488 21.8118 21.3095 22.7342 22.0526C23.6616 22.7825 24.8864 23.1386 26.3513 23.1386C27.2787 23.1343 27.9961 23.0705 28.506 22.9628L30.1683 22.4593L31.5757 21.7734L32.8705 21.0215L32.888 21.0435L32.758 21.5272L32.7505 21.547V21.5514C32.6105 22.1406 33.0155 22.6242 33.6679 22.6814L33.6804 22.6946H33.7404H36.3726H36.8676L36.9126 22.677C37.5975 22.6066 38.2399 22.123 38.3899 21.547L40.8921 12.0211L41.0221 11.2451L41.0821 10.5174C41.0921 9.16752 40.4297 8.16723 39.1323 7.52748ZM33.5979 18.2383L33.063 18.8583L31.7132 19.4716C31.0782 19.6981 30.4758 19.8124 29.9184 19.8124C29.0734 19.8124 28.411 19.7047 27.9636 19.4848L27.3011 18.3526C27.3011 17.7393 27.4611 17.2534 27.8036 16.8797L29.2584 16.0091C29.8809 15.8244 30.6408 15.6683 31.5207 15.5606C32.3056 15.4749 33.8554 15.3188 34.0579 15.3144L34.2954 15.6815C34.2504 15.8904 33.8104 17.5084 33.5979 18.2383ZM119.293 0.837609H120.441V1.25312H119.293V2.59637L119.298 2.95911L119.381 3.20094L119.561 3.35483L119.913 3.4032L120.201 3.36802L120.416 3.31086H120.446V3.75275L120.098 3.81211L119.771 3.83629L118.991 3.59007L118.726 2.81621V1.25312H118.341V0.837609H118.726V0H119.293V0.837609ZM101.468 7.54067C100.165 6.89873 98.1232 6.57555 95.336 6.57555C93.9536 6.57555 92.5738 6.67009 91.1864 6.86575C90.1565 6.99766 90.0541 7.02623 89.4191 7.14495C88.1168 7.39337 87.9143 8.54317 87.9143 8.54317L87.4943 10.0601C87.2594 11.0296 87.8793 10.9856 88.1693 10.9109C88.7417 10.7614 89.0492 10.6141 90.204 10.3767C91.3114 10.1568 92.4938 9.99414 93.4262 9.99853C94.7935 9.99853 95.8434 10.1282 96.5408 10.3877C97.2357 10.6515 97.5757 11.1088 97.5757 11.7573L97.5232 12.1816L97.0333 12.4564C95.066 12.5597 93.6562 12.718 91.9663 12.9357C90.3015 13.1401 88.8317 13.4963 87.6118 13.9887C86.3095 14.4966 85.3271 15.1759 84.6572 16.0421C83.9948 16.9104 83.6723 17.9613 83.6723 19.1858C83.6723 20.3576 84.1422 21.3183 85.0771 22.057C86.0095 22.7847 87.2219 23.1496 88.6867 23.1496C89.6091 23.1408 90.3265 23.0881 90.839 22.9716L92.4963 22.4747L93.9161 21.7888L95.201 21.0281L95.2235 21.0523L95.106 21.5404L95.0935 21.5492L95.0985 21.558C94.9435 22.1471 95.351 22.6352 96.0109 22.688L96.0159 22.699H96.0759C96.5083 22.699 98.0032 22.699 98.7156 22.699H99.2005L99.253 22.6836C99.9305 22.611 100.57 22.1274 100.713 21.5448L103.223 12.0321L103.355 11.2516L103.428 10.5218C103.43 9.17632 102.775 8.18042 101.468 7.54067ZM95.9459 18.2515L95.3885 18.8781L94.0511 19.487C93.4162 19.7113 92.8113 19.8278 92.2638 19.8278C91.3914 19.8278 90.7465 19.7179 90.3115 19.498L89.6416 18.3702C89.6416 17.7547 89.8041 17.2732 90.1316 16.8929C90.464 16.5345 90.9715 16.2399 91.6014 16.0245C92.2163 15.8398 92.9762 15.6903 93.8611 15.5782C94.641 15.4925 96.1859 15.332 96.3858 15.3298L96.6283 15.6969C96.5933 15.9058 96.1509 17.5172 95.9459 18.2515ZM114.336 3.22952L114.346 3.23172L109.752 21.547L109.587 21.7668C109.319 22.2813 108.732 22.699 108.107 22.699H104.915L104.862 22.6352C104.252 22.5539 103.857 22.1274 104 21.5624L103.995 21.5492L104.135 21.0215L108.432 3.84289L108.587 3.24491L108.757 3.01187C109.034 2.50623 109.602 2.09512 110.232 2.09512H113.306C114.044 2.08633 114.494 2.59857 114.336 3.22952ZM125.738 1.05086L126 1.87088V3.77693H125.44V2.09952L125.403 1.74117L125.333 1.45757L125.133 1.28829L124.765 1.22893L124.295 1.33226L123.82 1.59827L123.83 1.74117L123.84 1.89726V3.77473H123.283V2.09732L123.255 1.73458L123.173 1.45318L122.985 1.2839L122.605 1.22454L122.14 1.32566L121.673 1.58069V3.77254H121.118V0.837609H121.675V1.16298L122.203 0.863993L122.76 0.756269L123.34 0.87718L123.698 1.22673L124.313 0.861791L124.918 0.754068L125.738 1.05086Z" fill="#142329"/>
</svg>
