<svg width="24" height="30" viewBox="0 0 24 30" fill="none" xmlns="http://www.w3.org/2000/svg">
<path d="M0.277778 0C0.120773 0.0362319 0 0.181159 0 0.350242V29.6618C0 29.843 0.157005 30 0.338164 30C5.78502 30 17.0169 30 22.8382 30C23.0193 30 23.1763 29.843 23.1763 29.6618L23.1522 4.43237C23.1884 3.06763 21.872 2.36715 20.9541 1.76328C19.7222 0.966183 18.1522 0.350242 16.6908 0.350242C10.9662 0.241546 5.16908 0.0966183 0.277778 0ZM0.676328 0.700483L15.9662 1.01449C17.3551 1.1715 18.1884 2.16184 18.5749 3.26087C18.8647 4.17874 18.9614 5.07246 18.4903 5.89372C18.3213 6.0628 18.4058 6.38889 18.6232 6.46135C19.9034 6.8599 21.3768 6.36473 22.4758 5.35024L22.5 29.3237C16.7029 29.3237 6.13527 29.3237 0.67633 29.3237L0.676328 0.700483ZM18.0072 1.20773C18.901 1.4372 19.8188 1.84783 20.5797 2.343C21.3889 2.88647 22.5121 3.4058 22.4638 4.34783C21.6304 5.3744 20.3502 5.95411 19.2874 5.85749C19.6377 4.93961 19.5048 3.86473 19.215 3.04348C18.9734 2.36715 18.5749 1.71498 18.0072 1.20773ZM6.82367 5.7971V6.48551H16.3527V5.7971H6.82367ZM3.06763 10.5676V11.256H10.5556V10.5676H3.06763ZM12.5966 10.5676V11.256H20.0966V10.5676H12.5966ZM3.06763 13.2971V13.9855H10.5556V13.2971H3.06763ZM12.5966 13.2971V13.9855H20.0966V13.2971H12.5966ZM3.06763 16.0266V16.7029H10.5556V16.0266H3.06763ZM12.5966 16.0266V16.7029H20.0966V16.0266H12.5966ZM3.06763 18.756V19.4324H10.5556V18.756H3.06763ZM12.5966 18.756V19.4324H20.0966V18.756H12.5966ZM3.06763 21.4734V22.1618H10.5556V21.4734H3.06763ZM12.5966 21.4734V22.1618H20.0966V21.4734H12.5966ZM3.06763 24.2029V24.8913H10.5556V24.2029H3.06763ZM12.5966 24.2029V24.8913H20.0966V24.2029H12.5966Z" fill="#13AAA1"/>
</svg>
