<svg width="19" height="30" viewBox="0 0 19 30" fill="none" xmlns="http://www.w3.org/2000/svg">
<path d="M0.358766 30H17.9192C18.1241 30 18.2851 29.839 18.2851 29.6342V6.22022C18.2851 6.01535 18.1241 5.85437 17.9192 5.85437H16.8217V0.366732C16.8217 0.249663 16.7632 0.132593 16.668 0.0667411C16.5729 0.000889371 16.4485 -0.0210612 16.3315 0.02284L0.234379 5.87632C0.234379 5.87632 0.227062 5.87632 0.227062 5.88364C0.197795 5.89096 0.175844 5.91291 0.153894 5.92754C0.13926 5.93486 0.117309 5.94949 0.109992 5.95681C0.0953587 5.97144 0.0807254 5.99339 0.0660917 6.01535C0.051458 6.0373 0.0368241 6.05193 0.0295073 6.07388C0.0221904 6.09583 0.0221901 6.11046 0.0148732 6.13241C0.00755638 6.16168 0.000239887 6.18363 0.000239887 6.2129V6.22022V29.6342C-0.00707697 29.839 0.153894 30 0.358766 30ZM16.09 0.886229V5.85437H2.43675L16.09 0.886229ZM0.724608 6.58606H17.5534V29.2683H0.724608V6.58606Z" fill="#13AAA1"/>
<path d="M9.13901 21.2194C12.1682 21.2194 14.6267 18.761 14.6267 15.7318C14.6267 12.7026 12.1682 10.2441 9.13901 10.2441C6.10983 10.2441 3.65137 12.7026 3.65137 15.7318C3.65137 18.761 6.10983 21.2194 9.13901 21.2194ZM9.13901 20.4877C8.56098 20.4877 7.93904 19.6097 7.58784 18.1976C8.07806 18.2634 8.59024 18.2927 9.13901 18.2927C9.68777 18.2927 10.2 18.2561 10.6902 18.1976C10.339 19.6097 9.71704 20.4877 9.13901 20.4877ZM7.4415 17.4293C7.36101 16.9098 7.3098 16.3391 7.3098 15.7318C7.3098 15.1245 7.36101 14.5538 7.4415 14.0343C7.961 13.9538 8.53171 13.9026 9.13901 13.9026C9.74631 13.9026 10.317 13.9538 10.8365 14.0343C10.917 14.5538 10.9682 15.1245 10.9682 15.7318C10.9682 16.3391 10.917 16.9098 10.8365 17.4293C10.317 17.5098 9.74631 17.561 9.13901 17.561C8.53171 17.561 7.961 17.5098 7.4415 17.4293ZM10.6316 20.2463C10.9975 19.7048 11.2902 18.9512 11.4731 18.0659C12.3584 17.8829 13.1121 17.5903 13.6535 17.2244C13.1779 18.6439 12.0511 19.7707 10.6316 20.2463ZM11.6048 17.283C11.6706 16.7927 11.6999 16.2805 11.6999 15.7318C11.6999 15.183 11.6633 14.6708 11.6048 14.1806C13.0243 14.5318 13.895 15.1538 13.895 15.7318C13.895 16.3098 13.0169 16.9317 11.6048 17.283ZM13.6535 14.2391C13.1121 13.8733 12.3584 13.5806 11.4731 13.3977C11.2902 12.5124 10.9975 11.7587 10.6316 11.2173C12.0511 11.6929 13.1779 12.8197 13.6535 14.2391ZM9.13901 10.9758C9.71704 10.9758 10.339 11.8538 10.6902 13.266C10.2 13.2001 9.68777 13.1709 9.13901 13.1709C8.59024 13.1709 8.07806 13.2075 7.58784 13.266C7.93904 11.8538 8.56098 10.9758 9.13901 10.9758ZM7.64637 11.2173C7.28053 11.7587 6.98785 12.5124 6.80493 13.3977C5.91959 13.5806 5.16596 13.8733 4.62451 14.2391C5.1001 12.8197 6.2269 11.6929 7.64637 11.2173ZM6.67323 14.1806C6.60738 14.6708 6.57811 15.183 6.57811 15.7318C6.57811 16.2805 6.61469 16.7927 6.67323 17.283C5.26107 16.9317 4.38305 16.3098 4.38305 15.7318C4.38305 15.1538 5.26107 14.5318 6.67323 14.1806ZM6.80493 18.0659C6.98785 18.9512 7.28053 19.7048 7.64637 20.2463C6.21958 19.778 5.1001 18.6512 4.62451 17.2244C5.17327 17.5903 5.91959 17.8829 6.80493 18.0659Z" fill="#13AAA1"/>
<path d="M14.9927 23.415H3.28576C3.08089 23.415 2.91992 23.576 2.91992 23.7809V27.4393C2.91992 27.6442 3.08089 27.8052 3.28576 27.8052H14.9927C15.1976 27.8052 15.3586 27.6442 15.3586 27.4393V23.7809C15.3586 23.576 15.1976 23.415 14.9927 23.415ZM14.6269 27.0735H3.65161V24.1467H14.6269V27.0735Z" fill="#13AAA1"/>
</svg>
