<svg width="18" height="19" viewBox="0 0 18 19" fill="none" xmlns="http://www.w3.org/2000/svg">
<path d="M15.4563 10.3916C15.2988 10.1647 15.04 10.0289 14.7639 10.0289C14.4877 10.0289 14.2289 10.1647 14.0714 10.3916L12.1408 13.1809C11.7738 13.711 11.5795 14.3326 11.5795 14.9783C11.5795 16.0428 12.1107 16.9844 12.9204 17.5565H11.0005V9.44982H8.68463V17.5565H7.52668V11.187H5.21078V17.5565H4.05283V11.766H1.73693V17.5565H0.578975V12.1728L3.76334 8.99092L5.50027 10.7281L10.4216 5.80617L12.1585 7.54331L15.9218 3.77951L17.2844 5.14229L18.0001 0.133545L12.9919 0.849246L14.3545 2.21174L12.1585 4.40806L10.4216 2.67093L5.50027 7.59282L3.76334 5.85568L0.578975 9.04043V7.13363H2.3159V6.55459H0.578975V5.97554H1.73693V5.3965H0.578975V4.81745H2.3159V4.2384H0.578975V3.65936H1.73693V3.08031H0.578975V2.50126H2.3159V1.92222H0.578975V1.34317H1.73693V0.764126H0.578975V0.18508H0V18.1355H14.7364H14.7639H14.7914C16.5318 18.1355 17.9482 16.7189 17.9482 14.9783C17.9482 14.3329 17.754 13.711 17.3869 13.1809L15.4563 10.3916ZM3.76334 6.67445L5.50027 8.41159L10.4216 3.4897L12.1585 5.22683L15.1732 2.21174L14.2199 1.25834L17.3174 0.815951L16.8751 3.91385L15.9218 2.96045L12.1585 6.72425L10.4216 4.98711L5.50027 9.909L3.76334 8.17186L0.578975 11.354V9.85921L3.76334 6.67445ZM9.26361 10.0289H10.4216V17.5565H9.26361V10.0289ZM5.78975 11.766H6.94771V17.5565H5.78975V11.766ZM2.3159 12.3451H3.47385V17.5565H2.3159V12.3451ZM14.7914 17.5565H14.7639H14.7364C13.315 17.5565 12.1585 16.3998 12.1585 14.9783C12.1585 14.451 12.3171 13.9438 12.617 13.5107L14.5476 10.7214C14.6461 10.5795 14.8817 10.5795 14.9801 10.7214L16.9107 13.5107C17.2106 13.9435 17.3693 14.4508 17.3693 14.9783C17.3693 16.3998 16.2128 17.5565 14.7914 17.5565Z" fill="#9400FF"/>
</svg>
