<svg width="18" height="19" viewBox="0 0 18 19" fill="none" xmlns="http://www.w3.org/2000/svg">
<path d="M8.82512 13.8216H8.81988C8.80792 13.8216 8.79592 13.8216 8.78437 13.8213C8.57801 13.8198 8.41165 13.6511 8.41315 13.4448C8.41464 13.2403 8.58212 13.0739 8.78661 13.0739H8.7896C8.79974 13.0739 8.80979 13.0739 8.81992 13.0739H8.82366C8.82403 13.0739 8.82403 13.0739 8.82445 13.0739C9.03081 13.0739 9.19829 13.2413 9.19866 13.4474C9.19866 13.5472 9.16015 13.6411 9.0895 13.7117C9.01873 13.7824 8.92493 13.8216 8.82512 13.8216ZM9.94847 13.6784C9.77837 13.6784 9.62962 13.5633 9.58697 13.3984C9.56192 13.3016 9.57613 13.201 9.62663 13.115C9.67744 13.0286 9.75856 12.9677 9.85501 12.9427C9.86626 12.9397 9.87748 12.9367 9.88866 12.9337H9.88903C9.92084 12.9251 9.95333 12.921 9.98586 12.921C10.1545 12.921 10.3029 13.0347 10.3466 13.198C10.3552 13.2298 10.3593 13.2631 10.3593 13.296C10.3589 13.4642 10.2449 13.6123 10.0823 13.656C10.0692 13.6594 10.0558 13.6631 10.0427 13.6665C10.0117 13.6743 9.97991 13.6784 9.94847 13.6784ZM7.66397 13.6713C7.63145 13.6713 7.5993 13.6672 7.56752 13.6586C7.55444 13.6552 7.54098 13.6515 7.52789 13.6478C7.43182 13.6216 7.35144 13.5591 7.30209 13.472C7.25275 13.3853 7.24004 13.2843 7.26658 13.1882C7.31107 13.0264 7.45911 12.9134 7.62696 12.9134C7.66023 12.9134 7.69388 12.9179 7.7264 12.9269L7.735 12.9291C7.74322 12.9314 7.75145 12.9336 7.75967 12.9359C7.92267 12.9792 8.0371 13.1269 8.03781 13.2955C8.03781 13.3285 8.03333 13.3614 8.0251 13.3935C7.98136 13.5569 7.83295 13.6713 7.66397 13.6713ZM11.0341 13.238C10.8995 13.238 10.775 13.1658 10.7089 13.0489C10.6596 12.9621 10.6468 12.8611 10.6734 12.7651C10.6999 12.6686 10.7624 12.5886 10.8491 12.5393C10.8569 12.5348 10.8644 12.5303 10.8722 12.5258L10.879 12.5221C10.9362 12.4887 11.0009 12.4715 11.0663 12.4715C11.1994 12.4715 11.3235 12.543 11.39 12.6577C11.4229 12.7146 11.4401 12.7785 11.4405 12.8436C11.4409 12.9774 11.3695 13.1019 11.254 13.1688L11.2435 13.1752C11.2349 13.1797 11.2267 13.1845 11.2185 13.1894C11.1624 13.2212 11.0984 13.238 11.0341 13.238ZM6.58096 13.2242C6.51591 13.2242 6.45123 13.2066 6.39441 13.1741L6.39366 13.1733C6.38207 13.1666 6.37048 13.1602 6.35889 13.1531C6.18132 13.0488 6.12188 12.8192 6.22618 12.6413C6.2931 12.5276 6.41684 12.457 6.5488 12.457C6.61535 12.457 6.68077 12.4749 6.73797 12.5089C6.74806 12.5145 6.75816 12.5206 6.76825 12.5261L6.76862 12.5265C6.88377 12.5934 6.95554 12.7176 6.95517 12.8511C6.95517 12.9161 6.93797 12.9804 6.90507 13.0369C6.83853 13.1524 6.71442 13.2242 6.58096 13.2242ZM11.9676 12.5317C11.8667 12.5317 11.7721 12.4921 11.701 12.4203C11.6312 12.3493 11.593 12.2551 11.5938 12.1552C11.5945 12.0554 11.6342 11.9616 11.7051 11.8916C11.7134 11.8834 11.7216 11.8752 11.7298 11.867C11.7298 11.867 11.7298 11.867 11.7302 11.867C11.8005 11.7963 11.8943 11.7574 11.9942 11.7574C12.094 11.7574 12.1878 11.7963 12.2584 11.8666C12.3291 11.9373 12.368 12.0311 12.368 12.1309C12.3684 12.2308 12.3295 12.3249 12.2588 12.3956C12.2491 12.405 12.2394 12.4147 12.2297 12.4244C12.1594 12.4936 12.0663 12.5317 11.9676 12.5317ZM5.65196 12.5115C5.55215 12.5115 5.45869 12.473 5.38803 12.4027C5.38803 12.4027 5.38803 12.4027 5.38766 12.4024C5.38654 12.4012 5.38504 12.3998 5.38354 12.3983C5.37532 12.39 5.3671 12.3818 5.35887 12.3732C5.2142 12.2266 5.21606 11.9892 5.36261 11.8445C5.43289 11.7753 5.52635 11.7369 5.62505 11.7369C5.72598 11.7369 5.82056 11.7765 5.89122 11.8482C5.89944 11.8565 5.90767 11.8647 5.91589 11.8729C5.98655 11.9436 6.02543 12.0374 6.02543 12.1372C6.0258 12.2371 5.98692 12.3309 5.91664 12.4015C5.84599 12.4727 5.75178 12.5115 5.65196 12.5115ZM12.6876 11.6086C12.6211 11.6086 12.5557 11.5907 12.4984 11.557C12.4121 11.5062 12.3512 11.425 12.3261 11.3286C12.3011 11.2317 12.3153 11.1312 12.3658 11.0452C12.3717 11.0351 12.3777 11.025 12.3833 11.0153C12.4499 10.8997 12.5744 10.8279 12.7075 10.8279C12.7729 10.8279 12.8372 10.8455 12.894 10.8784C13.0099 10.945 13.0813 11.0695 13.0809 11.203C13.0809 11.268 13.0637 11.3323 13.0308 11.3892C13.0241 11.4011 13.017 11.4127 13.0103 11.4247C12.9433 11.5383 12.8196 11.6086 12.6876 11.6086ZM4.93793 11.5839H4.93755C4.80484 11.5839 4.68073 11.5129 4.61381 11.3981L4.60895 11.3891C4.60371 11.3802 4.59885 11.3712 4.59362 11.3622C4.54427 11.2754 4.53156 11.1745 4.55811 11.0784C4.58427 10.9819 4.64671 10.9019 4.73344 10.8526C4.78989 10.8204 4.85381 10.8032 4.91811 10.8032C5.05232 10.8032 5.17719 10.8758 5.24335 10.9924C5.24821 11.0007 5.25307 11.0093 5.25756 11.0175L5.26055 11.0224C5.26055 11.0227 5.26055 11.0227 5.26093 11.0227C5.29345 11.0792 5.31102 11.1435 5.31102 11.2082C5.31177 11.342 5.24036 11.4665 5.12485 11.5335C5.06802 11.5667 5.00335 11.5839 4.93793 11.5839ZM13.1452 10.5303C13.1116 10.5303 13.0783 10.5258 13.0458 10.5169C12.8469 10.4619 12.7299 10.2555 12.7845 10.057C12.7878 10.0458 12.7908 10.0345 12.7938 10.0234C12.8372 9.85998 12.9856 9.74594 13.1546 9.74594C13.187 9.74594 13.2196 9.75002 13.251 9.75865C13.414 9.80202 13.528 9.94967 13.5288 10.1179C13.5288 10.1512 13.5247 10.1841 13.5161 10.2159C13.5127 10.2293 13.509 10.2424 13.5052 10.2555C13.4607 10.4174 13.3127 10.5303 13.1452 10.5303ZM4.48708 10.503C4.31885 10.503 4.17043 10.3897 4.12669 10.2267C4.12632 10.2267 4.12632 10.2263 4.12632 10.2263C4.12557 10.2241 4.1252 10.2222 4.12482 10.22C4.12183 10.2087 4.11884 10.1979 4.11585 10.1867C4.0908 10.0898 4.10464 9.98927 4.15548 9.90327C4.20595 9.81687 4.28707 9.75596 4.38352 9.73054C4.41455 9.72269 4.44633 9.71857 4.4781 9.71857C4.64783 9.71857 4.79662 9.83373 4.83961 9.99861C4.84222 10.0098 4.84521 10.021 4.84858 10.0322V10.0326C4.85718 10.0648 4.86129 10.0973 4.86129 10.1302C4.86092 10.2984 4.74727 10.4465 4.58427 10.4902C4.5525 10.4989 4.5196 10.503 4.48708 10.503ZM13.306 9.37052H13.303C13.2032 9.36974 13.1093 9.33014 13.0394 9.25873C12.9695 9.18769 12.9313 9.09347 12.9321 8.99364C12.9321 8.9828 12.9321 8.97196 12.9321 8.96112V8.95925C12.9321 8.95925 12.9321 8.95925 12.9321 8.95883V8.95659C12.9321 8.95547 12.9321 8.95472 12.9321 8.95397L12.9329 8.93565V8.93528L12.9352 8.93005H12.9333L12.9337 8.92556C12.9337 8.92556 12.9337 8.92556 12.9337 8.92519C12.9419 8.83284 12.9838 8.74722 13.0522 8.68403C13.1213 8.62047 13.2107 8.58495 13.3045 8.58495H13.3056C13.4742 8.58495 13.6226 8.69786 13.6667 8.86013C13.6671 8.86162 13.6675 8.86275 13.6675 8.86387L13.6698 8.87172C13.6698 8.87247 13.6702 8.87321 13.6702 8.874C13.6705 8.87475 13.6705 8.87512 13.6705 8.87587L13.672 8.88335C13.6724 8.88372 13.6724 8.88409 13.6724 8.88447C13.6728 8.88522 13.6728 8.88671 13.6732 8.88783L13.6739 8.89232C13.6739 8.89269 13.6739 8.89269 13.6739 8.89307L13.6746 8.89684C13.6746 8.89722 13.6746 8.89759 13.6746 8.89759L13.6758 8.90208V8.90283L13.6761 8.90623C13.6761 8.9066 13.6761 8.90698 13.6761 8.90698L13.6773 8.91558V8.91595L13.6781 8.92044V8.92081C13.6784 8.9238 13.6784 8.92679 13.6788 8.92978V8.93053C13.6788 8.93203 13.6792 8.93315 13.6792 8.93464L13.6796 8.9395C13.6796 8.93988 13.6796 8.93988 13.6796 8.94025L13.68 8.95072C13.68 8.95184 13.68 8.95259 13.68 8.95371V8.95558C13.68 8.9567 13.68 8.95745 13.68 8.95857V8.96112C13.68 8.97383 13.68 8.98654 13.68 8.99925C13.6779 9.20414 13.5105 9.37052 13.306 9.37052ZM4.33455 9.34211H4.3338C4.12782 9.34211 3.96033 9.17498 3.95996 8.96897V8.96112C3.95996 8.9499 3.95996 8.93906 3.95996 8.92821C3.96146 8.72332 4.12894 8.55657 4.3338 8.55657H4.33642C4.43623 8.55732 4.52969 8.59695 4.59998 8.66799C4.67026 8.73903 4.70839 8.83325 4.70764 8.93307C4.70764 8.94242 4.70764 8.95177 4.70764 8.96112V8.96785C4.70802 9.17386 4.54054 9.34211 4.33455 9.34211ZM13.1632 8.20811C12.9927 8.20811 12.8443 8.09295 12.8013 7.92807C12.7983 7.91685 12.7957 7.90563 12.7927 7.89442C12.7841 7.86226 12.7796 7.82936 12.7796 7.79646C12.7803 7.62821 12.8944 7.48015 13.057 7.4364C13.0888 7.42818 13.1213 7.42369 13.1538 7.42369C13.3228 7.42369 13.4712 7.53773 13.5146 7.70112C13.5183 7.7142 13.5216 7.72729 13.525 7.74075C13.5501 7.83721 13.5363 7.93816 13.4854 8.02416C13.4345 8.11015 13.3534 8.17109 13.257 8.19614C13.2259 8.20437 13.1946 8.20811 13.1632 8.20811ZM4.48371 8.18119C4.45156 8.18119 4.41904 8.17707 4.38763 8.16848C4.22464 8.12548 4.11062 7.97742 4.1095 7.80917C4.1095 7.77627 4.11361 7.74337 4.12221 7.71121C4.1252 7.69962 4.12856 7.68803 4.13155 7.67644L4.13305 7.67158C4.17754 7.50969 4.32558 7.39677 4.49343 7.39677C4.5267 7.39677 4.55997 7.40126 4.5925 7.40986C4.79101 7.46482 4.90839 7.67083 4.85381 7.86974C4.85082 7.88054 4.84783 7.8918 4.84484 7.90302C4.80148 8.06678 4.65306 8.18119 4.48371 8.18119ZM12.7239 7.12309C12.5897 7.12309 12.4648 7.05055 12.3987 6.93353C12.3953 6.92754 12.3916 6.92119 12.3882 6.91521L12.3815 6.90362C12.3486 6.84716 12.3314 6.78285 12.331 6.71779C12.3306 6.58394 12.402 6.45944 12.5175 6.39251C12.5744 6.35961 12.639 6.34241 12.7045 6.34241C12.8375 6.34241 12.9617 6.41382 13.0286 6.52898C13.0334 6.53721 13.0379 6.54581 13.0428 6.55403L13.0488 6.5645C13.1505 6.74359 13.0876 6.97241 12.9082 7.07411C12.8521 7.10589 12.7882 7.12309 12.7239 7.12309ZM4.9297 7.09841C4.86465 7.09841 4.80035 7.08121 4.74353 7.04831C4.62801 6.98176 4.55624 6.85725 4.55624 6.72378C4.55624 6.65872 4.57343 6.59441 4.60633 6.53795C4.61306 6.52599 4.62016 6.51403 4.62689 6.50206C4.69381 6.3884 4.81755 6.31774 4.94952 6.31774C5.01569 6.31774 5.08111 6.33568 5.13868 6.36933C5.22466 6.41981 5.28597 6.50094 5.31102 6.5974C5.33607 6.69424 5.32223 6.79481 5.27139 6.88118L5.26803 6.88679C5.26354 6.89502 5.25868 6.90287 5.2542 6.91109C5.18765 7.02662 5.06316 7.09841 4.9297 7.09841ZM12.0181 6.18874C11.9172 6.18874 11.8222 6.14911 11.7515 6.07695C11.7474 6.07247 11.7429 6.06835 11.7384 6.06387C11.7347 6.06013 11.731 6.05601 11.7272 6.05228C11.6565 5.98198 11.6177 5.88777 11.6177 5.78794C11.6177 5.68811 11.6565 5.59426 11.7268 5.5236C11.7975 5.45293 11.8913 5.41405 11.9915 5.41405C12.0913 5.41405 12.1852 5.45293 12.2554 5.5236C12.2652 5.53332 12.2749 5.54304 12.2846 5.55276C12.3545 5.6238 12.3926 5.71802 12.3919 5.81785C12.3911 5.91768 12.3515 6.01152 12.2801 6.08144C12.2099 6.15061 12.1167 6.18874 12.0181 6.18874ZM5.64187 6.16818C5.54243 6.16818 5.44859 6.12967 5.37794 6.05938C5.30728 5.98871 5.2684 5.89487 5.26803 5.79504C5.26803 5.69521 5.30653 5.60137 5.37719 5.53033C5.38691 5.52061 5.39626 5.51126 5.40635 5.50154C5.47663 5.432 5.56972 5.39386 5.66879 5.39386C5.76972 5.39386 5.86393 5.43312 5.93496 5.5049C6.07964 5.65184 6.07814 5.88889 5.93122 6.03396C5.923 6.04181 5.91477 6.05003 5.90655 6.05826C5.83627 6.1293 5.74206 6.16818 5.64187 6.16818ZM11.095 5.46752C11.0285 5.46752 10.9631 5.44957 10.9055 5.41555L10.9014 5.4133C10.8929 5.40844 10.8842 5.40321 10.8753 5.39835C10.7601 5.33142 10.6883 5.20692 10.6887 5.07344C10.6887 5.00838 10.7063 4.94407 10.7392 4.88724C10.8058 4.77209 10.9299 4.70067 11.063 4.70067C11.1284 4.70067 11.193 4.71787 11.2499 4.75078C11.2618 4.75788 11.2734 4.76461 11.2854 4.77171C11.3714 4.82219 11.4323 4.90369 11.4574 5.00016C11.4824 5.09699 11.4682 5.19757 11.4174 5.28353C11.3504 5.39723 11.227 5.46752 11.095 5.46752ZM6.56937 5.45331C6.43628 5.45331 6.31254 5.3819 6.24562 5.26711C6.21272 5.21066 6.19553 5.14635 6.19515 5.08129C6.1944 4.94781 6.26581 4.82294 6.38095 4.75601L6.41647 4.73545C6.47292 4.70329 6.53684 4.68647 6.60152 4.68647C6.73535 4.68647 6.86021 4.75863 6.92638 4.87528C7.02844 5.05437 6.96601 5.28319 6.78694 5.38526C6.77722 5.3905 6.76788 5.3961 6.75853 5.40134L6.75703 5.40246C6.75703 5.40246 6.75703 5.40246 6.75666 5.40246C6.69984 5.43574 6.63479 5.45331 6.56937 5.45331ZM10.0173 5.00988C9.98399 5.00988 9.95038 5.00539 9.91785 4.99642C9.9066 4.99343 9.89539 4.99044 9.88454 4.98745C9.88417 4.98745 9.88417 4.98745 9.88417 4.98745C9.72118 4.9437 9.60716 4.79602 9.60678 4.62739C9.60678 4.59486 9.61089 4.56196 9.61949 4.52981C9.66323 4.36642 9.81168 4.25201 9.98062 4.25201C10.0128 4.25201 10.0453 4.2565 10.0771 4.2651C10.0905 4.26846 10.1036 4.2722 10.1167 4.27556C10.2132 4.30211 10.2932 4.36492 10.3425 4.45167C10.3918 4.53841 10.4042 4.63936 10.3776 4.73545C10.3328 4.89734 10.1848 5.00988 10.0173 5.00988ZM7.64939 5.00278C7.48079 5.00278 7.33237 4.88874 7.28863 4.7261C7.28004 4.69394 7.27555 4.66104 7.27555 4.62814C7.27592 4.45989 7.38957 4.31146 7.55219 4.26771L7.5578 4.26622C7.56902 4.26323 7.5806 4.26024 7.59182 4.25724C7.62285 4.24902 7.65462 4.24491 7.6864 4.24491C7.8565 4.24491 8.00491 4.36006 8.0479 4.52457C8.09987 4.72423 7.97987 4.92875 7.78024 4.98072C7.76902 4.98371 7.7578 4.9867 7.74696 4.98969C7.71481 4.99829 7.68192 5.00278 7.64939 5.00278ZM8.85764 4.84836H8.84867C8.83895 4.84836 8.8296 4.84836 8.81988 4.84836H8.81016C8.60455 4.84836 8.4367 4.68086 8.43632 4.47522C8.43595 4.37539 8.47483 4.28155 8.54511 4.21051C8.61577 4.13984 8.7096 4.10096 8.80942 4.10059H8.81988C8.83331 4.10059 8.84714 4.10059 8.86063 4.10059C9.06699 4.10246 9.23335 4.27145 9.23148 4.47784C9.22999 4.68235 9.0621 4.84836 8.85764 4.84836Z" fill="#FE6032"/>
<path d="M9.0802 3.38014C8.92556 3.38014 8.8002 3.25925 8.8002 3.11013V0.950121L7.6482 1.78327C7.52444 1.87272 7.34896 1.84853 7.2562 1.72927C7.16344 1.60997 7.18848 1.44075 7.3122 1.35127L8.9122 0.194117C8.99708 0.132788 9.11056 0.122913 9.20544 0.168621C9.30028 0.214367 9.36019 0.307865 9.36019 0.410118V3.11013C9.36019 3.25925 9.23484 3.38014 9.0802 3.38014Z" fill="#FE6032"/>
<path d="M10.5204 1.94014C10.4619 1.94014 10.403 1.92148 10.3526 1.88286L8.75263 0.655606C8.62891 0.560698 8.60387 0.381191 8.69663 0.254702C8.78943 0.128131 8.96495 0.102563 9.08863 0.19743L10.6886 1.42469C10.8123 1.5196 10.8374 1.6991 10.7446 1.82559C10.6896 1.90062 10.6055 1.94014 10.5204 1.94014Z" fill="#FE6032"/>
<path d="M9.08024 18.1419C9.02072 18.1419 8.9616 18.1236 8.9122 18.0879L7.3122 16.9307C7.18848 16.8413 7.16344 16.672 7.2562 16.5527C7.34896 16.4334 7.52448 16.4091 7.6482 16.4988L8.8002 17.3319V15.1719C8.8002 15.0227 8.92556 14.9019 9.0802 14.9019C9.23484 14.9019 9.36019 15.0227 9.36019 15.1719V17.8719C9.36019 17.9741 9.30028 18.0676 9.20544 18.1133C9.1658 18.1324 9.12288 18.1419 9.08024 18.1419Z" fill="#FE6032"/>
<path d="M8.92083 18.1416C8.83571 18.1416 8.75167 18.102 8.69663 18.027C8.60387 17.9005 8.62891 17.721 8.75263 17.6261L10.3526 16.3988C10.4764 16.304 10.6518 16.3295 10.7446 16.4561C10.8374 16.5826 10.8123 16.7621 10.6886 16.857L9.08867 18.0842C9.03823 18.1229 8.97931 18.1416 8.92083 18.1416Z" fill="#FE6032"/>
<path d="M13.2378 4.82005C13.1667 4.82005 13.0956 4.79562 13.0413 4.74684C12.9329 4.64925 12.9329 4.49095 13.0413 4.39335L14.6129 2.97931L13.1985 2.79751C13.0466 2.77798 12.9411 2.65135 12.9628 2.51473C12.9845 2.378 13.1253 2.28301 13.2771 2.30261L15.2415 2.55512C15.3456 2.56851 15.4325 2.63371 15.4657 2.72352C15.499 2.81333 15.473 2.91236 15.3986 2.97931L13.4343 4.74688C13.38 4.79562 13.3089 4.82005 13.2378 4.82005Z" fill="#FE6032"/>
<path d="M15.2403 5.1804C15.1231 5.1804 15.0209 5.08039 15.0038 4.94185L14.7622 2.97751C14.7435 2.82564 14.8344 2.68492 14.9651 2.66325C15.0961 2.64146 15.217 2.7471 15.2357 2.89898L15.4773 4.86331C15.496 5.01519 15.4052 5.15591 15.2744 5.17758C15.2629 5.17945 15.2515 5.1804 15.2403 5.1804Z" fill="#FE6032"/>
<path d="M2.6626 15.6216C2.63614 15.6216 2.6095 15.6169 2.58361 15.6073C2.49377 15.5741 2.4286 15.4872 2.41521 15.3831L2.1627 13.4187C2.14317 13.2668 2.23816 13.1261 2.37482 13.1044C2.51144 13.0827 2.63811 13.1883 2.6576 13.3401L2.8394 14.7545L4.25344 13.183C4.35104 13.0745 4.50934 13.0745 4.60693 13.1829C4.70456 13.2914 4.70456 13.4673 4.60693 13.5758L2.8394 15.5402C2.79177 15.5931 2.72788 15.6216 2.6626 15.6216Z" fill="#FE6032"/>
<path d="M4.76305 15.6219C4.74995 15.6219 4.73674 15.6211 4.72341 15.6194L2.75907 15.3778C2.60719 15.3591 2.50163 15.238 2.52334 15.1072C2.54505 14.9764 2.68597 14.8857 2.83761 14.9043L4.80194 15.1459C4.95382 15.1646 5.05939 15.2857 5.03768 15.4165C5.01791 15.5358 4.89906 15.6219 4.76305 15.6219Z" fill="#FE6032"/>
<path d="M17.7298 9.50082H15.0298C14.8806 9.50082 14.7598 9.37546 14.7598 9.22082C14.7598 9.06618 14.8806 8.94082 15.0298 8.94082H17.1898L16.3566 7.78882C16.2672 7.6651 16.2913 7.48962 16.4106 7.39682C16.5301 7.30402 16.6992 7.32918 16.7886 7.45282L17.9458 9.05282C18.0071 9.13766 18.017 9.25118 17.9713 9.34606C17.9255 9.4409 17.832 9.50082 17.7298 9.50082Z" fill="#FE6032"/>
<path d="M16.4864 10.941C16.4266 10.941 16.3663 10.9228 16.3148 10.885C16.1882 10.7922 16.1626 10.6167 16.2575 10.493L17.4847 8.89303C17.5796 8.76931 17.7591 8.74423 17.8856 8.83703C18.0122 8.92983 18.0378 9.10535 17.9429 9.22903L16.7156 10.829C16.6594 10.9023 16.5734 10.941 16.4864 10.941Z" fill="#FE6032"/>
<path d="M2.97 9.50082H0.270007C0.167755 9.50082 0.0742576 9.4409 0.028512 9.34606C-0.0172335 9.25118 -0.00735931 9.13766 0.0540077 9.05283L1.21115 7.45285C1.30059 7.32913 1.46981 7.30405 1.58915 7.39685C1.70845 7.48964 1.73259 7.66516 1.64315 7.78884L0.810006 8.94083H2.97C3.11912 8.94083 3.24 9.06619 3.24 9.22082C3.24 9.37546 3.11912 9.50082 2.97 9.50082Z" fill="#FE6032"/>
<path d="M1.51383 10.941C1.42678 10.941 1.34079 10.9024 1.28454 10.829L0.057281 9.22903C-0.0375862 9.10531 -0.0119774 8.92983 0.114553 8.83703C0.241084 8.74423 0.42055 8.76931 0.515458 8.89303L1.74272 10.493C1.83759 10.6167 1.81198 10.7922 1.68545 10.885C1.63394 10.9228 1.57364 10.941 1.51383 10.941Z" fill="#FE6032"/>
<path d="M14.9775 15.6216C14.9122 15.6216 14.8484 15.5931 14.8007 15.5402L13.0332 13.5758C12.9356 13.4673 12.9356 13.2914 13.0332 13.1829C13.1308 13.0745 13.2891 13.0745 13.3867 13.183L14.8007 14.7545L14.9825 13.3401C15.002 13.1882 15.1288 13.0827 15.2653 13.1044C15.402 13.1261 15.4969 13.2668 15.4774 13.4187L15.2249 15.3831C15.2115 15.4872 15.1463 15.5741 15.0565 15.6073C15.0306 15.6169 15.0039 15.6216 14.9775 15.6216Z" fill="#FE6032"/>
<path d="M13.2375 15.6219C13.1014 15.6219 12.9826 15.5358 12.9628 15.4165C12.9411 15.2857 13.0466 15.1646 13.1985 15.1459L15.1628 14.9043C15.315 14.8855 15.4554 14.9765 15.4771 15.1072C15.4988 15.238 15.3933 15.3591 15.2414 15.3778L13.2771 15.6194C13.2638 15.6211 13.2505 15.6219 13.2375 15.6219Z" fill="#FE6032"/>
<path d="M4.76269 4.82005C4.69157 4.82005 4.62049 4.79566 4.56624 4.74684L2.60188 2.97929C2.52746 2.91234 2.50151 2.81331 2.53477 2.7235C2.56802 2.63366 2.65486 2.56849 2.75903 2.5551L4.7234 2.3026C4.87508 2.28306 5.01601 2.37801 5.03768 2.51471C5.05939 2.65137 4.95382 2.778 4.80194 2.79749L3.38759 2.97929L4.9591 4.39332C5.0676 4.49095 5.0676 4.64921 4.9591 4.74681C4.90489 4.79562 4.83377 4.82005 4.76269 4.82005Z" fill="#FE6032"/>
<path d="M2.39968 5.1804C2.38841 5.1804 2.37703 5.17949 2.36555 5.17758C2.23479 5.15587 2.1439 5.01515 2.16259 4.86331L2.40419 2.89894C2.42288 2.74706 2.54421 2.64161 2.67476 2.6632C2.80552 2.68491 2.89641 2.8256 2.87772 2.97748L2.63612 4.94185C2.61911 5.08039 2.51677 5.1804 2.39968 5.1804Z" fill="#FE6032"/>
<path d="M9.08709 11.6609C9.05818 11.6609 9.0291 11.6564 9.00097 11.6473L6.6658 10.8857C6.55453 10.8494 6.47949 10.7476 6.47949 10.6329V7.96749C6.47949 7.88182 6.5216 7.80137 6.59263 7.75126C6.66366 7.70119 6.755 7.68748 6.83806 7.71463L9.17322 8.47616C9.28446 8.51245 9.35949 8.61426 9.35949 8.72903V11.3944C9.35949 11.4801 9.31738 11.5605 9.24635 11.6106C9.19942 11.6438 9.14353 11.6609 9.08709 11.6609ZM7.02436 10.4408L8.81466 11.0246V8.92112L7.02436 8.33729V10.4408Z" fill="#FE6032"/>
<path d="M8.9131 11.6609C8.85659 11.6609 8.80074 11.6438 8.75376 11.6106C8.68274 11.5605 8.64062 11.4801 8.64062 11.3944V8.72903C8.64062 8.61431 8.71566 8.51245 8.82693 8.47617L11.1621 7.71464C11.2452 7.68749 11.3365 7.70116 11.4075 7.75127C11.4785 7.80137 11.5206 7.88183 11.5206 7.9675V10.6329C11.5206 10.7476 11.4456 10.8494 11.3344 10.8857L8.99922 11.6473C8.97109 11.6564 8.94197 11.6609 8.9131 11.6609ZM9.18549 8.92113V11.0246L10.9758 10.4408V8.3373L9.18549 8.92113Z" fill="#FE6032"/>
<path d="M11.2482 8.4212C11.2197 8.4212 11.1906 8.41629 11.162 8.40591L8.82697 7.55896C8.68423 7.50722 8.60709 7.33931 8.65469 7.18402C8.70224 7.02873 8.85655 6.94463 8.99926 6.99655L11.3343 7.8435C11.477 7.89525 11.5541 8.06315 11.5066 8.21844C11.4686 8.34265 11.3623 8.4212 11.2482 8.4212Z" fill="#FE6032"/>
<path d="M6.75196 8.42096C6.6379 8.42096 6.53162 8.3424 6.49355 8.21816C6.44596 8.06288 6.52309 7.89498 6.66584 7.84323L9.00086 6.99631C9.14357 6.94439 9.29788 7.02845 9.34543 7.18377C9.39303 7.33906 9.31586 7.50696 9.17315 7.55871L6.83813 8.40563C6.80956 8.41604 6.78049 8.42096 6.75196 8.42096Z" fill="#FE6032"/>
</svg>
