<svg width="30" height="31" viewBox="0 0 30 31" fill="none" xmlns="http://www.w3.org/2000/svg">
<path d="M25.7605 17.4514C25.4981 17.0731 25.0667 16.8468 24.6065 16.8468C24.1462 16.8468 23.7148 17.0731 23.4524 17.4514L20.2347 22.1002C19.6229 22.9837 19.2992 24.0198 19.2992 25.0958C19.2992 26.8701 20.1845 28.4393 21.534 29.3928H18.3342V15.8817H14.4744V29.3928H12.5445V18.777H8.68463V29.3928H6.75471V19.742H2.89488V29.3928H0.964959V20.42L6.27223 15.1169L9.16711 18.0121L17.3693 9.80899L20.2641 12.7042L26.5364 6.43122L28.8074 8.70253L30.0001 0.354614L21.6532 1.54745L23.9242 3.81828L20.2641 7.47881L17.3693 4.58358L9.16711 12.7867L6.27223 9.89151L0.964959 15.1994V12.0214H3.85984V11.0564H0.964959V10.0913H2.89488V9.1262H0.964959V8.16112H3.85984V7.19604H0.964959V6.23097H2.89488V5.26589H0.964959V4.30081H3.85984V3.33574H0.964959V2.37066H2.89488V1.40558H0.964959V0.440506H0V30.3579H24.5606H24.6065H24.6523C27.553 30.3579 29.9137 27.9968 29.9137 25.0958C29.9137 24.0202 29.59 22.9837 28.9782 22.1002L25.7605 17.4514ZM6.27223 11.2561L9.16711 14.1514L17.3693 5.9482L20.2641 8.84343L25.2887 3.81828L23.6999 2.22928L28.8624 1.49196L28.1252 6.65512L26.5364 5.06612L20.2641 11.3391L17.3693 8.44389L9.16711 16.647L6.27223 13.7518L0.964959 19.0554V16.564L6.27223 11.2561ZM15.4393 16.8468H17.3693V29.3928H15.4393V16.8468ZM9.64959 19.742H11.5795V29.3928H9.64959V19.742ZM3.85984 20.7071H5.78975V29.3928H3.85984V20.7071ZM24.6523 29.3928H24.6065H24.5606C22.1916 29.3928 20.2641 27.4651 20.2641 25.0958C20.2641 24.2171 20.5285 23.3717 21.0284 22.6498L24.246 18.001C24.4101 17.7646 24.8028 17.7646 24.9669 18.001L28.1845 22.6498C28.6844 23.3712 28.9488 24.2166 28.9488 25.0958C28.9488 27.4651 27.0213 29.3928 24.6523 29.3928Z" fill="#FE6032"/>
<path d="M25.0508 23.2427C25.2992 23.2427 25.5008 23.4539 25.5008 23.7141H26.4008C26.4008 22.9343 25.7951 22.2998 25.0508 22.2998V21.3569H24.1508V22.2998H22.8008V23.7141C22.8008 24.4938 23.4065 25.1284 24.1508 25.1284H25.0508C25.2992 25.1284 25.5008 25.3396 25.5008 25.5998V26.0712H24.1508C23.9024 26.0712 23.7008 25.86 23.7008 25.5998H22.8008C22.8008 26.3796 23.4065 27.0141 24.1508 27.0141V27.957H25.0508V27.0141H26.4008V25.5998C26.4008 24.8201 25.7951 24.1855 25.0508 24.1855H24.1508C23.9024 24.1855 23.7008 23.9743 23.7008 23.7141V23.2427H25.0508Z" fill="#FE6032"/>
</svg>
