<svg width="41" height="50" viewBox="0 0 41 50" fill="none" xmlns="http://www.w3.org/2000/svg">
<path d="M2.8285 34.6961H6.20988C7.00835 34.6961 7.71245 35.0246 8.23266 35.5549C8.72263 34.9727 9.34084 34.5898 12.4778 33.6816C14.7002 33.0415 16.5379 31.7576 17.5529 31.045C18.4312 30.4326 18.643 30.278 19.3325 30.4387C19.2817 30.2297 19.243 30.0111 19.2225 29.7913H19.0882C18.6212 29.7913 18.2413 29.4108 18.2413 28.9458V26.1414C13.1251 22.8199 12.3194 15.6131 16.671 11.2723C20.4335 7.51606 26.5308 7.51606 30.2921 11.2723C34.449 15.4222 33.9336 22.245 29.2698 25.7549V28.9458C29.2698 29.4108 28.8887 29.7913 28.423 29.7913H28.2887C28.2512 30.1887 28.1616 30.5715 28.0286 30.9351C30.0344 30.6476 31.8249 32.2636 31.7293 34.3C31.7257 34.3785 31.7088 34.457 31.6846 34.5294C31.3144 35.707 28.8863 44.2872 28.752 44.5468H28.7557C27.6511 46.7341 24.6641 47.454 22.4042 47.768C22.3837 47.7716 22.3631 47.7716 22.3425 47.7753C11.5366 48.4975 8.82063 48.8876 8.39841 48.9528C8.38147 48.9637 7.64349 50 6.20747 50H2.82608C1.26908 50 0 48.7294 0 47.175V37.5163C0 35.9619 1.26908 34.6913 2.82608 34.6913L2.8285 34.6961ZM6.20988 36.387H2.8285C2.20788 36.387 1.69371 36.9003 1.69371 37.5199V47.1786C1.69371 47.7982 2.20788 48.3115 2.8285 48.3115H6.20988C6.83051 48.3115 7.34467 47.7982 7.34467 47.1786V37.5199C7.34467 36.9003 6.83051 36.387 6.20988 36.387ZM21.9022 33.5113C22.0183 35.6925 20.2145 38.055 18.603 39.5031C20.5641 39.5478 21.607 39.578 22.1865 39.1818C22.7938 38.764 23.2765 37.7059 24.2504 35.573C24.5081 35.0077 24.7996 34.3712 25.1117 33.6997C24.0556 34.0282 22.9063 33.9594 21.9022 33.5113ZM9.35415 36.8593C8.98032 37.3484 9.03476 37.1431 9.03476 37.5199V47.175C10.5603 46.9938 14.1921 46.6303 22.2107 46.0928C23.2535 45.9491 24.3713 45.716 25.321 45.3222C26.1606 44.9732 26.8611 44.5009 27.218 43.8499L30.0477 34.1333C30.0441 33.7879 29.9279 33.4654 29.7283 33.2057C29.0012 32.2467 27.5096 32.446 27.0535 33.5475H27.0498L27.0365 33.5813C26.5078 34.6877 26.1207 35.5392 25.7844 36.2723C24.6871 38.683 24.1379 39.8812 23.141 40.566C22.1187 41.2677 20.9537 41.2399 18.6284 41.1892C17.8711 41.1723 16.9819 41.1517 15.9427 41.1517C15.0269 41.1517 14.7704 39.8787 15.6233 39.5285C16.6795 39.0973 18.274 37.7108 19.3059 36.143C20.0197 35.0512 20.4371 33.9147 20.1044 33.0753C19.8854 32.5209 19.3809 32.1272 18.7906 32.0511C18.568 32.0233 18.8208 32.2153 18.5196 32.4279C17.4223 33.1948 15.437 34.5814 12.9472 35.3C9.8671 36.1902 9.70257 36.4027 9.35294 36.8581L9.35415 36.8593ZM6.81357 18.3342C6.34417 18.3342 5.96672 17.9538 5.96672 17.4888C5.96672 17.0238 6.34417 16.6433 6.81357 16.6433H11.7556C12.2214 16.6433 12.6025 17.0201 12.6025 17.4888C12.6025 17.9574 12.2214 18.3342 11.7556 18.3342H6.81357ZM11.0963 6.31673C10.7672 5.98459 10.7672 5.45075 11.0963 5.12223C11.4253 4.79009 11.9637 4.79009 12.2927 5.12223L15.7878 8.61153C16.1205 8.94005 16.1205 9.47389 15.7878 9.80603C15.4588 10.1345 14.9204 10.1345 14.5914 9.80603L11.0975 6.31673H11.0963ZM40.1531 16.6421C40.6201 16.6421 41 17.0189 41 17.4876C41 17.9562 40.6189 18.333 40.1531 18.333H35.2111C34.7454 18.333 34.3643 17.9526 34.3643 17.4876C34.3643 17.0226 34.7454 16.6421 35.2111 16.6421H40.1531ZM34.6728 5.12102C35.0018 4.78888 35.5366 4.78888 35.8693 5.12102C36.1983 5.44954 36.1983 5.98338 35.8693 6.31552L32.3742 9.80482C32.0415 10.1333 31.5067 10.1333 31.1777 9.80482C30.845 9.47268 30.845 8.93884 31.1777 8.61032L34.6728 5.12102ZM22.6353 0.841828C22.6353 0.376829 23.0164 0 23.4821 0C23.9479 0 24.329 0.376829 24.329 0.841828V5.77926C24.329 6.24426 23.9479 6.62472 23.4821 6.62472C23.0164 6.62472 22.6353 6.24426 22.6353 5.77926V0.843036V0.841828ZM25.7796 31.3771C26.1981 30.9556 26.4897 30.4048 26.5816 29.7925H20.9295C21.2791 32.0861 24.1185 33.0342 25.7783 31.3771H25.7796ZM19.9362 26.5013V28.1004H27.5773V26.5013H19.9362ZM29.0956 12.468C25.9949 9.37243 20.9682 9.37243 17.8675 12.468C15.3366 14.9947 14.8055 18.9284 16.5984 22.03C17.2505 23.163 18.1796 24.1183 19.2938 24.8104H27.6644C28.7823 24.1183 29.715 23.1569 30.3707 22.0204C32.1576 18.9188 31.6229 14.9911 29.0956 12.468Z" fill="#FF2640"/>
</svg>
