<svg width="30" height="31" viewBox="0 0 30 31" fill="none" xmlns="http://www.w3.org/2000/svg">
<path d="M15 8.72852C11.3459 8.72852 8.37305 11.7017 8.37305 15.3562C8.37305 16.1205 8.50967 16.852 8.7488 17.5357C8.75288 17.6087 8.77982 17.6732 8.81976 17.7292C9.77692 20.2134 12.1828 21.9839 15 21.9839C15.0001 21.9839 15.0005 21.9838 15.0005 21.9838C18.6544 21.9835 21.6269 19.0105 21.6269 15.3562C21.6269 11.7017 18.654 8.72852 15 8.72852ZM20.2517 12.7333H18.1794C17.6891 11.3219 16.8913 10.2709 16.2886 9.62546C18.0267 10.0163 19.472 11.1785 20.2517 12.7333ZM9.12305 15.3562C9.12305 14.7009 9.23547 14.0725 9.43423 13.4834H11.6063C11.4651 14.0599 11.3752 14.6817 11.3752 15.3562C11.3752 15.9947 11.4626 16.5869 11.5992 17.1406H9.4018C9.2219 16.5774 9.12305 15.9783 9.12305 15.3562ZM12.1252 15.3562C12.1252 14.6794 12.2242 14.0549 12.3823 13.4834H14.625V17.1406H12.3725C12.2194 16.5916 12.1252 15.9962 12.1252 15.3562ZM17.3726 12.7333H15.375V9.77508C15.8727 10.2451 16.7968 11.2601 17.3726 12.7333ZM14.625 9.80841V12.7333H12.6353C13.2047 11.301 14.1128 10.2947 14.625 9.80841ZM14.625 17.8906V20.7913C14.0452 20.235 13.175 19.2401 12.6291 17.8906H14.625ZM15.375 20.787V17.8906H17.3691C16.8219 19.2394 15.9541 20.2301 15.375 20.787ZM15.375 17.1406V13.4834H17.6233C17.7783 14.0544 17.8744 14.6792 17.8744 15.3562C17.8744 15.9965 17.7772 16.5907 17.6231 17.1406H15.375ZM18.3963 13.4834H20.5658C20.7645 14.0725 20.8769 14.7009 20.8769 15.3562C20.8769 15.9783 20.7781 16.5774 20.5982 17.1406H18.4005C18.5371 16.5869 18.6244 15.9947 18.6244 15.3562C18.6244 14.6818 18.5357 14.0599 18.3963 13.4834ZM13.7504 9.61539C13.1386 10.2604 12.3249 11.3153 11.8259 12.7333H9.74831C10.5339 11.1667 11.9948 9.99739 13.7504 9.61539ZM9.70564 17.8906H11.8234C12.3465 19.3511 13.2234 20.4492 13.8903 21.1254C12.0397 20.7699 10.5 19.5433 9.70564 17.8906ZM16.1096 21.1254C16.7764 20.4492 17.6532 19.3512 18.1763 17.8906H20.2944C19.5 19.5433 17.9602 20.7699 16.1096 21.1254Z" fill="#FE6032"/>
<path d="M29.4875 5.75175C29.4875 3.05798 27.2961 0.866333 24.6027 0.866333C21.9092 0.866333 19.7178 3.05798 19.7178 5.75175C19.7178 8.44553 21.9092 10.6372 24.6027 10.6372C27.2961 10.6372 29.4875 8.44553 29.4875 5.75175ZM22.1362 9.063C22.1818 8.01232 22.8682 7.11185 23.8827 6.80381C24.027 6.75986 24.1313 6.63332 24.1467 6.48297C24.1621 6.33263 24.0856 6.18777 23.953 6.11544C23.4758 5.85558 23.1792 5.3573 23.1792 4.8147C23.1792 3.99869 23.8431 3.33468 24.6591 3.33468C25.475 3.33468 26.1389 3.99869 26.1389 4.8147C26.1389 5.37341 25.8284 5.87847 25.3285 6.13302C25.1934 6.20151 25.1132 6.34453 25.1245 6.49542C25.1359 6.64632 25.2369 6.77561 25.3805 6.82322C26.3604 7.14797 27.024 8.04015 27.0692 9.06293C26.3796 9.57806 25.5276 9.88709 24.6027 9.88709C23.6777 9.88709 22.8257 9.57809 22.1362 9.063ZM20.4678 5.75175C20.4678 3.47147 22.3226 1.61641 24.6027 1.61641C26.8827 1.61641 28.7375 3.47147 28.7375 5.75175C28.7375 6.77801 28.3596 7.71609 27.7385 8.43976C27.5385 7.58074 26.9986 6.83803 26.236 6.39123C26.6487 5.98029 26.8889 5.41828 26.8889 4.8147C26.8889 3.58501 25.8884 2.5846 24.6591 2.5846C23.4297 2.5846 22.4292 3.58501 22.4292 4.8147C22.4292 5.39429 22.6537 5.94019 23.0404 6.34837C22.2376 6.78902 21.6714 7.54901 21.4665 8.43944C20.8456 7.71584 20.4678 6.77785 20.4678 5.75175Z" fill="#FE6032"/>
<path d="M5.3966 0.866333C2.70312 0.866333 0.511719 3.05798 0.511719 5.75175C0.511719 8.44553 2.70312 10.6372 5.3966 10.6372C8.09008 10.6372 10.2815 8.44553 10.2815 5.75175C10.2815 3.05798 8.09008 0.866333 5.3966 0.866333ZM2.92978 9.06273C2.97556 8.01232 3.66191 7.11182 4.67663 6.80381C4.82092 6.75986 4.92529 6.63332 4.94067 6.48297C4.95605 6.33263 4.87951 6.18777 4.74695 6.11544C4.26977 5.85558 3.97314 5.3573 3.97314 4.8147C3.97314 3.99869 4.63708 3.33468 5.45299 3.33468C6.26892 3.33468 6.93286 3.99869 6.93286 4.8147C6.93286 5.37323 6.62231 5.87847 6.12207 6.13302C5.9873 6.20169 5.9071 6.34471 5.91845 6.49561C5.92981 6.6465 6.03088 6.77561 6.17443 6.82322C7.15439 7.14797 7.81792 8.04015 7.86315 9.06293C7.17359 9.57806 6.32156 9.88709 5.3966 9.88709C4.47153 9.88709 3.61938 9.57797 2.92978 9.06273ZM8.53246 8.43973C8.3324 7.58067 7.79249 6.83805 7.02954 6.39123C7.44262 5.98011 7.68286 5.4181 7.68286 4.8147C7.68286 3.58501 6.68237 2.5846 5.45299 2.5846C4.22363 2.5846 3.22314 3.58501 3.22314 4.8147C3.22314 5.39429 3.44763 5.94019 3.83398 6.34837C3.03157 6.78897 2.46527 7.54885 2.26019 8.43914C1.63944 7.71556 1.26172 6.77771 1.26172 5.75175C1.26172 3.47147 3.11658 1.61641 5.3966 1.61641C7.67663 1.61641 9.53149 3.47147 9.53149 5.75175C9.53149 6.77801 9.15354 7.71609 8.53246 8.43973Z" fill="#FE6032"/>
<path d="M24.6027 29.8859C27.2961 29.8859 29.4875 27.6943 29.4875 25.0005C29.4875 22.3068 27.2961 20.1151 24.6027 20.1151C21.9092 20.1151 19.7178 22.3068 19.7178 25.0005C19.7178 27.6943 21.9092 29.8859 24.6027 29.8859ZM22.1362 28.3118C22.1818 27.2611 22.8682 26.3606 23.8827 26.0526C24.027 26.0086 24.1313 25.8821 24.1467 25.7318C24.1621 25.5814 24.0856 25.4366 23.953 25.3642C23.4758 25.1044 23.1792 24.6061 23.1792 24.0635C23.1792 23.2475 23.8431 22.5835 24.6591 22.5835C25.475 22.5835 26.1389 23.2475 26.1389 24.0635C26.1389 24.6222 25.8284 25.1273 25.3285 25.3818C25.1934 25.4503 25.1132 25.5933 25.1245 25.7442C25.1359 25.8951 25.2369 26.0244 25.3805 26.072C26.3604 26.3967 27.024 27.2889 27.0692 28.3117C26.3796 28.8268 25.5276 29.1359 24.6027 29.1359C23.6777 29.1359 22.8257 28.8269 22.1362 28.3118ZM24.6027 20.8652C26.8827 20.8652 28.7375 22.7203 28.7375 25.0005C28.7375 26.0268 28.3596 26.9649 27.7385 27.6885C27.5385 26.8295 26.9986 26.0868 26.236 25.64C26.6487 25.2291 26.8889 24.6671 26.8889 24.0635C26.8889 22.8338 25.8884 21.8334 24.6591 21.8334C23.4297 21.8334 22.4292 22.8338 22.4292 24.0635C22.4292 24.6431 22.6537 25.189 23.0404 25.5972C22.2376 26.0378 21.6714 26.7978 21.4665 27.6882C20.8456 26.9646 20.4678 26.0266 20.4678 25.0005C20.4678 22.7203 22.3226 20.8652 24.6027 20.8652Z" fill="#FE6032"/>
<path d="M5.3966 29.8859C8.09008 29.8859 10.2815 27.6943 10.2815 25.0005C10.2815 22.3068 8.09008 20.1151 5.3966 20.1151C2.70312 20.1151 0.511719 22.3068 0.511719 25.0005C0.511719 27.6943 2.70312 29.8859 5.3966 29.8859ZM2.92978 28.3115C2.97556 27.2611 3.66191 26.3606 4.67663 26.0526C4.82092 26.0086 4.92529 25.8821 4.94067 25.7318C4.95605 25.5814 4.87951 25.4366 4.74695 25.3642C4.26977 25.1044 3.97314 24.6061 3.97314 24.0635C3.97314 23.2475 4.63708 22.5835 5.45299 22.5835C6.26892 22.5835 6.93286 23.2475 6.93286 24.0635C6.93286 24.622 6.62231 25.1273 6.12207 25.3818C5.9873 25.4505 5.9071 25.5935 5.91845 25.7444C5.92981 25.8953 6.03088 26.0244 6.17443 26.072C7.15439 26.3967 7.81792 27.2889 7.86315 28.3117C7.17359 28.8268 6.32156 29.1359 5.3966 29.1359C4.47153 29.1359 3.61938 28.8268 2.92978 28.3115ZM5.3966 20.8652C7.67663 20.8652 9.53149 22.7203 9.53149 25.0005C9.53149 26.0268 9.15354 26.9649 8.53246 27.6885C8.3324 26.8294 7.79249 26.0868 7.02954 25.64C7.44262 25.2289 7.68286 24.6669 7.68286 24.0635C7.68286 22.8338 6.68237 21.8334 5.45299 21.8334C4.22363 21.8334 3.22314 22.8338 3.22314 24.0635C3.22314 24.6431 3.44763 25.189 3.83398 25.5972C3.03157 26.0378 2.46527 26.7976 2.26019 27.6879C1.63944 26.9643 1.26172 26.0265 1.26172 25.0005C1.26172 22.7203 3.11658 20.8652 5.3966 20.8652Z" fill="#FE6032"/>
<path d="M19.5617 1.41644C18.1335 0.711853 16.5987 0.354614 15.0002 0.354614C13.4017 0.354614 11.8669 0.711853 10.4387 1.41644C10.253 1.50818 10.1765 1.73303 10.2684 1.9187C10.36 2.10455 10.5848 2.18072 10.7705 2.08917C12.0947 1.43585 13.5178 1.10461 15.0002 1.10461C16.4826 1.10461 17.9057 1.43585 19.23 2.08917C19.2834 2.11536 19.3398 2.12781 19.3955 2.12781C19.5339 2.12781 19.6668 2.05109 19.732 1.9187C19.8239 1.73303 19.7474 1.50818 19.5617 1.41644Z" fill="#FE6032"/>
<path d="M1.06201 19.9181C1.1272 20.0505 1.26013 20.1272 1.39856 20.1272C1.45422 20.1272 1.51062 20.1148 1.56409 20.0886C1.74975 19.9968 1.82629 19.772 1.73437 19.5863C1.08105 18.2621 0.75 16.8389 0.75 15.3561C0.75 13.8733 1.08105 12.4501 1.73437 11.1259C1.82629 10.9402 1.74975 10.7153 1.56409 10.6236C1.37768 10.5327 1.15356 10.6086 1.06201 10.7941C0.357422 12.2224 0 13.7572 0 15.3561C0 16.955 0.357422 18.4897 1.06201 19.9181Z" fill="#FE6032"/>
<path d="M10.4387 29.2958C11.8669 30.0004 13.4017 30.3576 15.0002 30.3576C16.5987 30.3576 18.1335 30.0004 19.5617 29.2958C19.7474 29.2041 19.8239 28.9792 19.732 28.7935C19.6405 28.6079 19.416 28.5321 19.23 28.6231C17.9057 29.2764 16.4826 29.6076 15.0002 29.6076C13.5178 29.6076 12.0947 29.2764 10.7705 28.6231C10.5844 28.5324 10.36 28.6081 10.2684 28.7935C10.1765 28.9792 10.253 29.2041 10.4387 29.2958Z" fill="#FE6032"/>
<path d="M28.9378 10.7941C28.8467 10.6086 28.6222 10.5326 28.4358 10.6237C28.2501 10.7154 28.1736 10.9403 28.2655 11.126C28.9188 12.4502 29.2499 13.8734 29.2499 15.3562C29.2499 16.8389 28.9188 18.2622 28.2655 19.5864C28.1736 19.7721 28.2501 19.9969 28.4358 20.0887C28.4892 20.1149 28.5456 20.1273 28.6013 20.1273C28.7397 20.1273 28.8727 20.0506 28.9378 19.9182C29.6424 18.4898 29.9999 16.955 29.9999 15.3562C29.9999 13.7573 29.6424 12.2225 28.9378 10.7941Z" fill="#FE6032"/>
</svg>
