<svg width="67" height="50" viewBox="0 0 67 50" fill="none" xmlns="http://www.w3.org/2000/svg">
<path d="M16.0439 22.4388C16.372 22.47 16.6928 22.3166 16.868 22.0431C17.0432 21.7696 17.0444 21.4216 16.8691 21.146L14.2206 16.9736L16.2437 12.48C16.3765 12.1838 16.3265 11.8399 16.1132 11.5933C15.9007 11.3447 15.5631 11.237 15.2402 11.3136L10.3521 12.482L6.59496 9.21492C6.34649 8.99948 5.99493 8.94142 5.69012 9.06159C5.38324 9.1838 5.17291 9.46352 5.14849 9.78668L4.77682 14.6822L0.431159 17.1579C0.1455 17.3215 -0.0212619 17.6282 0.00218464 17.9513C0.0254925 18.2725 0.233737 18.5542 0.540623 18.6764L5.1983 20.5348L6.27088 25.3308C6.34094 25.6477 6.58942 25.8963 6.91018 25.9731C6.98024 25.9917 7.0503 26 7.1205 26C7.37328 26 7.61746 25.8923 7.78422 25.6996L11.0359 21.9518L16.0439 22.4388ZM10.0036 20.5142L7.59512 23.2903L6.80071 19.7373C6.74022 19.4638 6.54585 19.238 6.28031 19.1323L2.83103 17.7567L6.04876 15.9233C6.29613 15.7824 6.45651 15.5318 6.47773 15.2521L6.75271 11.6266L9.53508 14.0464C9.74957 14.2307 10.0384 14.3054 10.3209 14.237L13.9422 13.371L12.4438 16.7002C12.3291 16.9571 12.3503 17.2513 12.5011 17.4896L14.4626 20.5785L10.7532 20.218C10.4666 20.1993 10.1873 20.3008 10.0036 20.5142Z" fill="#FF2640"/>
<path d="M25.9769 32.0204C25.9 31.6988 25.6397 31.4469 25.307 31.3708L20.241 30.2239L18.3499 25.5515C18.2258 25.2447 17.9315 25.031 17.5899 25.0035C17.2362 24.9739 16.9189 25.1347 16.7431 25.4183L14.0437 29.7033L8.84808 29.9932C8.50647 30.0123 8.2046 30.2175 8.0716 30.5201C7.9376 30.8248 7.9947 31.1739 8.21766 31.4237L11.6155 35.222L10.2954 40.0722C10.2076 40.3917 10.3162 40.7303 10.5755 40.9462C10.8346 41.1621 11.2003 41.2192 11.5134 41.0921L16.3136 39.1517L20.6921 41.8625C20.8403 41.9534 21.0094 42 21.1786 42C21.339 42 21.4993 41.9577 21.642 41.8752C21.9353 41.7059 22.1033 41.3885 22.0747 41.0605L21.6432 36.0623L25.6703 32.886C25.9353 32.6765 26.0538 32.34 25.9769 32.0204ZM20.1378 35.0106C19.9083 35.1904 19.7865 35.4698 19.8117 35.7533L20.1312 39.4543L16.8882 37.4461C16.741 37.3552 16.572 37.3086 16.4017 37.3086C16.2842 37.3086 16.1655 37.3318 16.0536 37.3763L12.4988 38.8132L13.4761 35.222C13.5518 34.947 13.4815 34.6528 13.2883 34.4369L10.7712 31.6225L14.6193 31.4088C14.9147 31.3919 15.1837 31.2374 15.3364 30.9919L17.3362 27.8178L18.7364 31.2776C18.844 31.5422 19.0802 31.7411 19.3678 31.8066L23.1204 32.6572L20.1378 35.0106Z" fill="#FF2640"/>
<path d="M39.7143 38.963L40.2321 33.9573C40.2651 33.6281 40.1027 33.3074 39.8131 33.1333C39.5234 32.9549 39.1527 32.957 38.8631 33.1312L34.4445 35.7795L29.6847 33.7556C29.371 33.624 29.009 33.6728 28.7446 33.8852C28.4824 34.0996 28.3684 34.4373 28.4495 34.758L29.6868 39.6469L26.227 43.4037C26 43.6522 25.9374 44.0026 26.0658 44.3106C26.1942 44.6163 26.4903 44.8266 26.8315 44.8499L32.0168 45.2237L34.6397 49.5688C34.8009 49.8364 35.0971 50 35.4153 50C35.436 50 35.457 49.9979 35.4789 49.9979C35.8201 49.9746 36.1173 49.7643 36.2468 49.4586L38.2159 44.799L43.2927 43.7286C43.6283 43.6586 43.8916 43.4101 43.9728 43.0894C44.0562 42.7686 43.9443 42.4289 43.6832 42.2144L39.7143 38.963ZM37.3712 43.1977C37.0815 43.2572 36.8425 43.4526 36.7306 43.7181L35.2727 47.1692L33.3299 43.9496C33.1808 43.7032 32.9153 43.5419 32.6213 43.5227L28.7808 43.2467L31.3434 40.4645C31.5397 40.2501 31.6154 39.9569 31.5451 39.6788L30.6292 36.0578L34.1538 37.5571C34.4281 37.6718 34.7374 37.6527 34.9886 37.4998L38.262 35.5375L37.8781 39.2455C37.8496 39.5301 37.9658 39.8125 38.1918 39.9973L41.1317 42.4035L37.3712 43.1977Z" fill="#FF2640"/>
<path d="M58.0614 27.7073L53.0643 28.1159L49.8874 24.3116C49.6778 24.0585 49.3349 23.9506 49.0218 24.0212C48.7001 24.0938 48.4482 24.3386 48.372 24.6539L47.2249 29.4395L42.5517 31.2235C42.2447 31.3418 42.031 31.6197 42.0035 31.9413C41.9739 32.2649 42.1347 32.574 42.4184 32.742L46.7042 35.2935L46.9942 40.1993C47.0132 40.5209 47.2185 40.805 47.5212 40.9316C47.6312 40.9772 47.7456 41 47.8598 41C48.063 41 48.2661 40.9294 48.4248 40.7925L52.2218 37.5856L57.0749 38.8324C57.3882 38.9133 57.7311 38.8117 57.9491 38.569C58.1649 38.3243 58.2222 37.9798 58.0951 37.6832L56.1543 33.1486L58.8634 29.0123C59.0412 28.7406 59.0455 28.3921 58.8761 28.1162C58.7069 27.8401 58.402 27.6928 58.0614 27.7073ZM54.4484 32.6069C54.2938 32.8413 54.2685 33.1359 54.3786 33.3931L55.8157 36.7515L52.2219 35.8284C51.9489 35.7558 51.6505 35.8222 51.4367 36.0069L48.6239 38.3821L48.4102 34.7478C48.3933 34.4699 48.2387 34.2168 47.9932 34.0715L44.8185 32.1818L48.279 30.8604C48.5436 30.7588 48.7425 30.5348 48.8081 30.263L49.6589 26.72L52.0103 29.537C52.1901 29.7547 52.4632 29.873 52.7531 29.846L56.4549 29.5432L54.4484 32.6069Z" fill="#FF2640"/>
<path d="M66.4586 14.3226L61.7988 12.4622L60.7263 7.66807C60.6562 7.35112 60.4077 7.10251 60.087 7.02375C59.7642 6.94918 59.4265 7.05271 59.212 7.29929L55.9625 11.0472L50.9566 10.5582C50.6082 10.5293 50.3066 10.6804 50.1325 10.9539C49.9562 11.2274 49.9562 11.5755 50.1304 11.8511L52.7768 16.0236L50.7549 20.5194C50.6211 20.8156 50.672 21.1595 50.8844 21.4061C51.0968 21.6547 51.4366 21.7666 51.7573 21.6858L56.6464 20.5174L60.4034 23.7846C60.567 23.9254 60.773 24 60.9832 24C61.0936 24 61.2041 23.9793 61.3103 23.9379C61.6161 23.8157 61.8264 23.5359 61.8497 23.2128L62.2235 18.3171L66.5689 15.8413C66.8534 15.6777 67.0213 15.3711 66.9978 15.0479C66.9747 14.7266 66.7643 14.4448 66.4586 14.3226ZM60.9494 17.076C60.703 17.2169 60.5416 17.4675 60.5225 17.7472L60.2464 21.3728L57.4641 18.9529C57.3028 18.8141 57.0945 18.7375 56.8844 18.7375C56.8164 18.7375 56.7463 18.7457 56.6783 18.7624L53.0571 19.6284L54.5545 16.299C54.6692 16.0422 54.648 15.748 54.4972 15.5096L52.5369 12.4185L56.2451 12.7811C56.5446 12.7955 56.81 12.6961 56.9969 12.4848L59.4032 9.70861L60.1976 13.2596C60.2592 13.5331 60.4524 13.7588 60.718 13.8645L64.1692 15.2422L60.9494 17.076Z" fill="#FF2640"/>
<path d="M24.8574 29.1124C24.8633 29.1183 24.8709 29.1213 24.877 29.1269C27.4675 30.9327 30.6094 32 33.9999 32C37.3927 32 40.5362 30.9312 43.1278 29.1232C43.1319 29.1193 43.1372 29.1173 43.1413 29.1132C47.2812 26.2185 50 21.4248 50 16.0011C50 7.17883 42.8228 0 34 0C25.1772 0 18 7.17883 18 16.0011C17.9997 21.4243 20.7182 26.2175 24.8574 29.1124ZM41.6268 27.9902C39.4197 29.399 36.8072 30.2269 33.9999 30.2269C31.1918 30.2269 28.5785 29.3987 26.3707 27.9892V25.0179C26.3707 23.8265 27.0183 22.7259 28.0606 22.1399C28.8565 21.6944 29.6803 21.3355 30.5182 21.0717C30.7756 22.2696 31.4427 23.3464 32.4342 24.1227L33.4538 24.9206C33.7738 25.1715 34.2257 25.1715 34.5458 24.9206L35.5654 24.1227C36.5557 23.3464 37.224 22.2718 37.4814 21.0717C38.3204 21.3355 39.1421 21.6944 39.9379 22.1399C40.9803 22.7259 41.6268 23.8286 41.6268 25.0179V27.9902ZM33.9999 1.77306C41.8452 1.77306 48.2267 8.15625 48.2267 16.0011C48.2267 20.2414 46.3524 24.043 43.4001 26.6514V25.0179C43.4001 23.1887 42.4054 21.4934 40.8051 20.5959C39.5574 19.8954 38.247 19.3872 36.9106 19.0845C36.6446 19.0217 36.3721 19.0866 36.1602 19.2552C35.9505 19.4239 35.8283 19.6768 35.8283 19.9472C35.8283 21.0392 35.3342 22.0533 34.4735 22.7258L33.9999 23.0977L33.5262 22.7258C32.6644 22.0533 32.1703 21.0392 32.1703 19.9472C32.1703 19.6768 32.0481 19.4239 31.8372 19.2552C31.6286 19.0866 31.3517 19.0217 31.089 19.0845C29.7526 19.3872 28.4422 19.8954 27.1933 20.5959C25.593 21.4933 24.5995 23.1885 24.5995 25.0179V26.6523C21.6461 24.0439 19.7706 20.2418 19.7706 16.0011C19.7708 8.15625 26.1544 1.77306 33.9999 1.77306Z" fill="#FF2640"/>
<path d="M29.2083 14.3303C29.5989 15.7941 30.8362 17.9997 33.3675 17.9997C33.3975 17.9997 33.4276 17.9997 33.4588 17.9997C36.0759 18.0302 37.3743 15.8115 37.7863 14.3345C38.5139 13.8197 38.8058 13.211 38.9195 12.7638C39.132 11.926 38.8766 11.1756 38.6984 10.7938L38.6963 10.1764C38.7027 9.98006 38.7027 9.79466 38.6942 9.62236C38.7822 6.79928 36.5416 5.70411 36.4623 5.66492C33.5007 4.19011 31.3288 5.46855 30.3524 6.60519C30.0112 6.65321 29.6312 6.79287 29.2944 7.0786C28.5947 7.67414 28.2611 8.71915 28.304 10.1525L28.3019 10.7916C28.1248 11.1734 27.8673 11.9261 28.0808 12.7638C28.1953 13.2089 28.4851 13.8175 29.2083 14.3303ZM29.924 11.4898C30.0109 11.348 30.0581 11.1844 30.0581 11.0185L30.0613 10.1305C30.0259 8.91752 30.3177 8.54672 30.4079 8.46164C30.5066 8.37001 30.6107 8.37214 30.6053 8.37001C30.9518 8.44639 31.3167 8.29149 31.5173 7.99265C31.6621 7.7766 33.0046 5.92885 35.6936 7.2727C35.7473 7.30106 37.0006 7.94904 36.9362 9.59401C36.9341 9.62023 36.9341 9.64859 36.9362 9.67695C36.9427 9.81874 36.9427 9.97151 36.9383 10.159L36.9404 11.0164C36.9425 11.1757 36.9898 11.3436 37.0714 11.4811C37.1422 11.6011 37.3053 11.9894 37.2152 12.3232C37.1486 12.5697 36.9404 12.7922 36.595 12.9843C36.3675 13.1108 36.2045 13.3356 36.1551 13.5951C36.1508 13.6213 35.6272 16.2131 33.5111 16.2131C33.4746 16.2152 33.4403 16.2152 33.4059 16.2131C31.3575 16.2131 30.8671 13.7129 30.8467 13.6039C30.7984 13.3421 30.6353 13.1131 30.4056 12.9843C30.0591 12.7923 29.8509 12.5697 29.7843 12.3232C29.6943 11.9893 29.8585 11.6009 29.924 11.4898Z" fill="#FF2640"/>
</svg>
