<svg width="27" height="34" viewBox="0 0 27 34" fill="none" xmlns="http://www.w3.org/2000/svg">
<path d="M4.81443 1.10948L6.81651 0.527255C7.91327 0.207484 9.09289 0.284461 10.1353 0.743823C11.1776 1.20318 12.0115 2.01355 12.4814 3.0237L14.0288 6.35118C14.4328 7.22005 14.5453 8.18939 14.3505 9.12321C14.1558 10.057 13.6635 10.9085 12.9429 11.558L10.3798 13.8687C10.3049 13.9362 10.2574 14.0274 10.246 14.1258C10.1705 14.7843 10.632 16.0666 11.6956 17.8497C12.4694 19.1452 13.171 20.0559 13.7663 20.5651C14.1815 20.9218 14.4097 20.9981 14.5075 20.9715L17.9558 19.9514C18.8975 19.6729 19.9057 19.6863 20.8392 19.9897C21.7726 20.2931 22.5844 20.8714 23.1609 21.6433L25.3585 24.5893C26.0268 25.4852 26.3362 26.5851 26.2293 27.6848C26.1223 28.7846 25.6063 29.8095 24.777 30.5692L23.2569 31.9625C22.4502 32.7012 21.4594 33.2252 20.381 33.4837C19.3025 33.7421 18.1733 33.7261 17.1031 33.4372C12.3784 32.1616 8.14266 28.3066 4.34779 21.9519C0.547774 15.5888 -0.785234 10.1083 0.443123 5.50853C0.719633 4.47401 1.26709 3.52581 2.03274 2.75531C2.79838 1.9848 3.75639 1.41798 4.81443 1.10948ZM5.55728 3.49313C4.92264 3.678 4.34792 4.01777 3.88849 4.47971C3.42906 4.94165 3.1004 5.51018 2.93415 6.13057C1.90137 9.99881 3.08341 14.8573 6.57633 20.7078C10.0641 26.55 13.8195 29.967 17.7962 31.0419C18.4381 31.2148 19.1153 31.224 19.762 31.0688C20.4086 30.9136 21.0027 30.5992 21.4865 30.1561L23.0082 28.7628C23.3853 28.4174 23.6199 27.9514 23.6685 27.4514C23.7171 26.9514 23.5764 26.4513 23.2724 26.0441L21.0764 23.0997C20.8144 22.7484 20.4452 22.4853 20.0205 22.3472C19.5959 22.2092 19.1373 22.2032 18.7089 22.3301L15.252 23.3535C13.2448 23.9308 11.4229 22.3699 9.46709 19.0938C8.14952 16.8877 7.53534 15.1791 7.68803 13.8505C7.76866 13.1604 8.09977 12.5234 8.62474 12.049L11.1878 9.73838C11.5155 9.44314 11.7394 9.0561 11.828 8.63157C11.9166 8.20704 11.8655 7.76634 11.6819 7.37132L10.1345 4.04384C9.92089 3.58504 9.54209 3.21696 9.06863 3.00822C8.59518 2.79947 8.05937 2.76429 7.56108 2.90924L5.55728 3.49313Z" fill="#13AAA1"/>
</svg>
