<svg width="42" height="40" viewBox="0 0 42 40" fill="none" xmlns="http://www.w3.org/2000/svg">
<path d="M21.6164 22.3533C20.2726 22.3533 18.9591 21.9738 17.8418 21.2628C16.7245 20.5518 15.8537 19.5412 15.3394 18.3589C14.8252 17.1765 14.6907 15.8755 14.9528 14.6204C15.215 13.3652 15.862 12.2122 16.8122 11.3073C17.7624 10.4024 18.973 9.78611 20.2909 9.53644C21.6088 9.28677 22.9749 9.41491 24.2164 9.90466C25.4578 10.3944 26.5189 11.2238 27.2655 12.2878C28.012 13.3519 28.4105 14.6029 28.4105 15.8827C28.4083 17.5982 27.6918 19.2428 26.4182 20.4558C25.1445 21.6689 23.4176 22.3512 21.6164 22.3533ZM21.6164 12.0003C20.8101 12.0003 20.022 12.228 19.3516 12.6546C18.6812 13.0812 18.1588 13.6876 17.8502 14.397C17.5417 15.1064 17.461 15.887 17.6182 16.6401C17.7755 17.3932 18.1638 18.085 18.7339 18.6279C19.304 19.1709 20.0303 19.5407 20.8211 19.6905C21.6119 19.8403 22.4315 19.7634 23.1764 19.4695C23.9213 19.1757 24.5579 18.6781 25.0058 18.0396C25.4538 17.4012 25.6929 16.6506 25.6929 15.8827C25.6918 14.8534 25.2619 13.8665 24.4977 13.1386C23.7334 12.4107 22.6972 12.0014 21.6164 12.0003Z" fill="#E50114"/>
<path d="M20.3836 37.6467L9.48901 25.1059C9.33763 24.9176 9.18781 24.7281 9.03959 24.5374C7.17859 22.1447 6.17324 19.2221 6.17775 16.2181C6.17775 12.5407 7.67444 9.01396 10.3386 6.41366C13.0027 3.81337 16.616 2.35254 20.3836 2.35254C24.1512 2.35254 27.7646 3.81337 30.4287 6.41366C33.0928 9.01396 34.5895 12.5407 34.5895 16.2181C34.594 19.2208 33.5891 22.142 31.7289 24.5336L31.7276 24.5374C31.7276 24.5374 31.3402 25.0341 31.2821 25.1009L20.3836 37.6467ZM11.1007 23.0185C11.1033 23.0185 11.4029 23.4067 11.4714 23.4899L20.3836 33.7492L29.3075 23.4761C29.3643 23.4067 29.6665 23.016 29.6678 23.0147C31.188 21.0598 32.0096 18.6723 32.0066 16.2181C32.0066 13.2093 30.782 10.3238 28.6023 8.19629C26.4226 6.06877 23.4662 4.87355 20.3836 4.87355C17.301 4.87355 14.3447 6.06877 12.1649 8.19629C9.9852 10.3238 8.76063 13.2093 8.76063 16.2181C8.75792 18.6738 9.58041 21.0627 11.102 23.0185H11.1007Z" fill="#E50114"/>
</svg>
