<svg width="42" height="40" viewBox="0 0 42 40" fill="none" xmlns="http://www.w3.org/2000/svg">
<path d="M21.6164 22.3528C20.2726 22.3528 18.9591 21.9733 17.8418 21.2623C16.7245 20.5513 15.8537 19.5407 15.3394 18.3584C14.8252 17.1761 14.6907 15.875 14.9528 14.6199C15.215 13.3647 15.862 12.2117 16.8122 11.3068C17.7624 10.4019 18.973 9.78562 20.2909 9.53595C21.6088 9.28629 22.9749 9.41442 24.2164 9.90417C25.4578 10.3939 26.5189 11.2233 27.2655 12.2873C28.012 13.3514 28.4105 14.6024 28.4105 15.8822C28.4083 17.5977 27.6918 19.2423 26.4182 20.4553C25.1445 21.6684 23.4176 22.3507 21.6164 22.3528V22.3528ZM21.6164 11.9999C20.8101 11.9999 20.022 12.2276 19.3516 12.6542C18.6812 13.0808 18.1588 13.6871 17.8502 14.3965C17.5417 15.1059 17.461 15.8865 17.6182 16.6396C17.7755 17.3927 18.1638 18.0845 18.7339 18.6274C19.304 19.1704 20.0303 19.5402 20.8211 19.69C21.6119 19.8398 22.4315 19.7629 23.1764 19.469C23.9213 19.1752 24.5579 18.6776 25.0058 18.0391C25.4538 17.4007 25.6929 16.6501 25.6929 15.8822C25.6918 14.8529 25.2619 13.866 24.4977 13.1381C23.7334 12.4102 22.6972 12.0009 21.6164 11.9999V11.9999Z" fill="#DE8E59"/>
<path d="M20.3836 37.6467L9.48901 25.1059C9.33763 24.9176 9.18781 24.7281 9.03959 24.5374C7.17859 22.1447 6.17324 19.2221 6.17775 16.2181C6.17775 12.5407 7.67444 9.01396 10.3386 6.41366C13.0027 3.81337 16.616 2.35254 20.3836 2.35254C24.1512 2.35254 27.7646 3.81337 30.4287 6.41366C33.0928 9.01396 34.5895 12.5407 34.5895 16.2181C34.594 19.2208 33.5891 22.142 31.7289 24.5336L31.7276 24.5374C31.7276 24.5374 31.3402 25.0341 31.2821 25.1009L20.3836 37.6467ZM11.1007 23.0185C11.1033 23.0185 11.4029 23.4067 11.4714 23.4899L20.3836 33.7492L29.3075 23.4761C29.3643 23.4067 29.6665 23.016 29.6678 23.0147C31.188 21.0598 32.0096 18.6723 32.0066 16.2181C32.0066 13.2093 30.782 10.3238 28.6023 8.19629C26.4226 6.06877 23.4662 4.87355 20.3836 4.87355C17.301 4.87355 14.3447 6.06877 12.1649 8.19629C9.9852 10.3238 8.76063 13.2093 8.76063 16.2181C8.75792 18.6738 9.58041 21.0627 11.102 23.0185H11.1007Z" fill="#DE8E59"/>
</svg>
