<svg width="42" height="40" viewBox="0 0 42 40" fill="none" xmlns="http://www.w3.org/2000/svg">
<path d="M11.8144 4.10973L13.8165 3.5275C14.9133 3.20773 16.0929 3.28471 17.1353 3.74407C18.1776 4.20343 19.0115 5.01379 19.4814 6.02394L21.0288 9.35143C21.4328 10.2203 21.5453 11.1896 21.3505 12.1235C21.1558 13.0573 20.6635 13.9087 19.9429 14.5583L17.3798 16.869C17.3049 16.9365 17.2574 17.0277 17.246 17.1261C17.1705 17.7846 17.632 19.0668 18.6956 20.85C19.4694 22.1455 20.171 23.0561 20.7663 23.5654C21.1815 23.922 21.4097 23.9983 21.5075 23.9718L24.9558 22.9516C25.8975 22.6731 26.9057 22.6865 27.8392 22.99C28.7726 23.2934 29.5844 23.8716 30.1609 24.6436L32.3585 27.5896C33.0268 28.4854 33.3362 29.5853 33.2293 30.6851C33.1223 31.7848 32.6063 32.8097 31.777 33.5694L30.2569 34.9628C29.4502 35.7014 28.4594 36.2255 27.381 36.4839C26.3025 36.7423 25.1733 36.7263 24.1031 36.4374C19.3784 35.1618 15.1427 31.3068 11.3478 24.9521C7.54777 18.5891 6.21477 13.1085 7.44312 8.50877C7.71963 7.47426 8.26709 6.52605 9.03274 5.75555C9.79838 4.98505 10.7564 4.41823 11.8144 4.10973ZM12.5573 6.49337C11.9226 6.67825 11.3479 7.01802 10.8885 7.47995C10.4291 7.94189 10.1004 8.51043 9.93415 9.13081C8.90137 12.9991 10.0834 17.8576 13.5763 23.708C17.0641 29.5502 20.8195 32.9673 24.7962 34.0422C25.4381 34.215 26.1153 34.2243 26.762 34.069C27.4086 33.9138 28.0027 33.5994 28.4865 33.1564L30.0082 31.763C30.3853 31.4176 30.6199 30.9517 30.6685 30.4516C30.7171 29.9516 30.5764 29.4515 30.2724 29.0443L28.0764 26.1C27.8144 25.7487 27.4452 25.4855 27.0205 25.3475C26.5959 25.2094 26.1373 25.2034 25.7089 25.3303L22.252 26.3538C20.2448 26.931 18.4229 25.3701 16.4671 22.0941C15.1495 19.8879 14.5353 18.1794 14.688 16.8507C14.7687 16.1607 15.0998 15.5237 15.6247 15.0493L18.1878 12.7386C18.5155 12.4434 18.7394 12.0563 18.828 11.6318C18.9166 11.2073 18.8655 10.7666 18.6819 10.3716L17.1344 7.04408C16.9209 6.58528 16.5421 6.21721 16.0686 6.00846C15.5952 5.79972 15.0594 5.76454 14.5611 5.90949L12.5573 6.49337Z" fill="#B51DEE"/>
</svg>
