<svg width="24" height="25" viewBox="0 0 24 25" fill="none" xmlns="http://www.w3.org/2000/svg">
<path d="M6.7511 3.33898L7.89515 2.98961C8.52187 2.79772 9.19594 2.84392 9.79158 3.11956C10.3872 3.39521 10.8637 3.88148 11.1322 4.48764L12.0165 6.48435C12.2473 7.00572 12.3116 7.58739 12.2003 8.14774C12.089 8.7081 11.8077 9.21901 11.3959 9.60881L9.9313 10.9954C9.88849 11.0359 9.86137 11.0906 9.85484 11.1496C9.8117 11.5448 10.0754 12.3142 10.6832 13.3842C11.1253 14.1616 11.5263 14.7081 11.8665 15.0137C12.1037 15.2277 12.2341 15.2734 12.29 15.2575L14.2605 14.6454C14.7986 14.4783 15.3747 14.4863 15.9081 14.6684C16.4415 14.8504 16.9054 15.1974 17.2348 15.6606L18.4906 17.4284C18.8725 17.966 19.0493 18.626 18.9882 19.2859C18.927 19.9459 18.6322 20.5608 18.1583 21.0167L17.2897 21.8528C16.8287 22.2961 16.2625 22.6105 15.6463 22.7656C15.03 22.9207 14.3847 22.9111 13.7732 22.7377C11.0734 21.9723 8.65295 19.659 6.48445 15.8458C4.31301 12.0276 3.55129 8.73886 4.25321 5.9787C4.41122 5.35792 4.72405 4.78894 5.16156 4.32658C5.59907 3.86423 6.14651 3.5241 6.7511 3.33898ZM7.17559 4.76933C6.81293 4.88026 6.48453 5.08415 6.222 5.36134C5.95947 5.63853 5.77166 5.97969 5.67666 6.35196C5.0865 8.67316 5.76195 11.5886 7.7579 15.0993C9.75092 18.6049 11.8969 20.6554 14.1693 21.3004C14.5361 21.4041 14.923 21.4097 15.2926 21.3165C15.6621 21.2234 16.0016 21.0347 16.278 20.7689L17.1475 19.9328C17.363 19.7255 17.4971 19.4459 17.5249 19.1459C17.5526 18.8458 17.4722 18.5457 17.2985 18.3014L16.0437 16.5346C15.8939 16.3238 15.6829 16.1659 15.4403 16.083C15.1977 16.0002 14.9356 15.9966 14.6908 16.0727L12.7154 16.6869C11.5685 17.0333 10.5273 16.0966 9.40976 14.1308C8.65687 12.8069 8.30591 11.7817 8.39316 10.9844C8.43924 10.5703 8.62844 10.1881 8.92842 9.90344L10.393 8.51689C10.5803 8.33973 10.7082 8.10747 10.7589 7.85273C10.8095 7.59798 10.7803 7.33353 10.6754 7.0965L9.79111 5.09979C9.66908 4.82448 9.45262 4.60361 9.18208 4.47835C8.91153 4.35309 8.60535 4.33198 8.32061 4.41896L7.17559 4.76933Z" fill="#9400FF"/>
</svg>
