<svg width="42" height="40" viewBox="0 0 42 40" fill="none" xmlns="http://www.w3.org/2000/svg">
<path d="M11.8144 4.10997L13.8165 3.52774C14.9133 3.20797 16.0929 3.28495 17.1353 3.74431C18.1776 4.20367 19.0115 5.01404 19.4814 6.02419L21.0288 9.35167C21.4328 10.2205 21.5453 11.1899 21.3505 12.1237C21.1558 13.0575 20.6635 13.9089 19.9429 14.5585L17.3798 16.8692C17.3049 16.9367 17.2574 17.0279 17.246 17.1263C17.1705 17.7848 17.632 19.0671 18.6956 20.8502C19.4694 22.1457 20.171 23.0564 20.7663 23.5656C21.1815 23.9223 21.4097 23.9986 21.5075 23.972L24.9558 22.9519C25.8975 22.6734 26.9057 22.6868 27.8392 22.9902C28.7726 23.2936 29.5844 23.8718 30.1609 24.6438L32.3585 27.5898C33.0268 28.4857 33.3362 29.5856 33.2293 30.6853C33.1223 31.7851 32.6063 32.8099 31.777 33.5697L30.2569 34.963C29.4502 35.7017 28.4594 36.2257 27.381 36.4842C26.3025 36.7426 25.1733 36.7266 24.1031 36.4377C19.3784 35.1621 15.1427 31.3071 11.3478 24.9524C7.54777 18.5893 6.21477 13.1088 7.44312 8.50902C7.71963 7.4745 8.26709 6.5263 9.03274 5.75579C9.79838 4.98529 10.7564 4.41847 11.8144 4.10997ZM12.5573 6.49362C11.9226 6.67849 11.3479 7.01826 10.8885 7.4802C10.4291 7.94213 10.1004 8.51067 9.93415 9.13105C8.90137 12.9993 10.0834 17.8578 13.5763 23.7083C17.0641 29.5505 20.8195 32.9675 24.7962 34.0424C25.4381 34.2152 26.1153 34.2245 26.762 34.0693C27.4086 33.9141 28.0027 33.5997 28.4865 33.1566L30.0082 31.7633C30.3853 31.4179 30.6199 30.9519 30.6685 30.4519C30.7171 29.9519 30.5764 29.4518 30.2724 29.0445L28.0764 26.1002C27.8144 25.7489 27.4452 25.4858 27.0205 25.3477C26.5959 25.2097 26.1373 25.2037 25.7089 25.3306L22.252 26.354C20.2448 26.9313 18.4229 25.3704 16.4671 22.0943C15.1495 19.8882 14.5353 18.1796 14.688 16.8509C14.7687 16.1609 15.0998 15.5239 15.6247 15.0495L18.1878 12.7389C18.5155 12.4436 18.7394 12.0566 18.828 11.6321C18.9166 11.2075 18.8655 10.7668 18.6819 10.3718L17.1345 7.04433C16.9209 6.58552 16.5421 6.21745 16.0686 6.00871C15.5952 5.79996 15.0594 5.76478 14.5611 5.90973L12.5573 6.49362Z" fill="#DE8E59"/>
</svg>
