<svg width="42" height="40" viewBox="0 0 42 40" fill="none" xmlns="http://www.w3.org/2000/svg">
<path d="M11.8144 4.10948L13.8165 3.52725C14.9133 3.20748 16.0929 3.28446 17.1353 3.74382C18.1776 4.20318 19.0115 5.01355 19.4814 6.0237L21.0288 9.35118C21.4328 10.22 21.5453 11.1894 21.3505 12.1232C21.1558 13.057 20.6635 13.9085 19.9429 14.558L17.3798 16.8687C17.3049 16.9362 17.2574 17.0274 17.246 17.1258C17.1705 17.7843 17.632 19.0666 18.6956 20.8497C19.4694 22.1452 20.171 23.0559 20.7663 23.5651C21.1815 23.9218 21.4097 23.9981 21.5075 23.9715L24.9558 22.9514C25.8975 22.6729 26.9057 22.6863 27.8392 22.9897C28.7726 23.2931 29.5844 23.8714 30.1609 24.6433L32.3585 27.5893C33.0268 28.4852 33.3362 29.5851 33.2293 30.6848C33.1223 31.7846 32.6063 32.8095 31.777 33.5692L30.2569 34.9625C29.4502 35.7012 28.4594 36.2252 27.381 36.4837C26.3025 36.7421 25.1733 36.7261 24.1031 36.4372C19.3784 35.1616 15.1427 31.3066 11.3478 24.9519C7.54777 18.5888 6.21477 13.1083 7.44312 8.50853C7.71963 7.47401 8.26709 6.52581 9.03274 5.75531C9.79838 4.9848 10.7564 4.41798 11.8144 4.10948ZM12.5573 6.49313C11.9226 6.678 11.3479 7.01777 10.8885 7.47971C10.4291 7.94165 10.1004 8.51018 9.93415 9.13057C8.90137 12.9988 10.0834 17.8573 13.5763 23.7078C17.0641 29.55 20.8195 32.967 24.7962 34.0419C25.4381 34.2148 26.1153 34.224 26.762 34.0688C27.4086 33.9136 28.0027 33.5992 28.4865 33.1561L30.0082 31.7628C30.3853 31.4174 30.6199 30.9514 30.6685 30.4514C30.7171 29.9514 30.5764 29.4513 30.2724 29.0441L28.0764 26.0997C27.8144 25.7484 27.4452 25.4853 27.0205 25.3472C26.5959 25.2092 26.1373 25.2032 25.7089 25.3301L22.252 26.3535C20.2448 26.9308 18.4229 25.3699 16.4671 22.0938C15.1495 19.8877 14.5353 18.1791 14.688 16.8505C14.7687 16.1604 15.0998 15.5234 15.6247 15.049L18.1878 12.7384C18.5155 12.4431 18.7394 12.0561 18.828 11.6316C18.9166 11.207 18.8655 10.7663 18.6819 10.3713L17.1344 7.04384C16.9209 6.58504 16.5421 6.21696 16.0686 6.00822C15.5952 5.79947 15.0594 5.7643 14.5611 5.90924L12.5573 6.49313Z" fill="#E50114"/>
</svg>
