<svg width="42" height="40" viewBox="0 0 42 40" fill="none" xmlns="http://www.w3.org/2000/svg">
<path d="M37.9008 6.66675H4.10078C3.38172 6.66675 2.80078 7.2355 2.80078 7.93948V33.394C2.80078 34.098 3.38172 34.6667 4.10078 34.6667H37.9008C38.6198 34.6667 39.2008 34.098 39.2008 33.394V7.93948C39.2008 7.2355 38.6198 6.66675 37.9008 6.66675ZM36.2758 11.0736V31.8031H5.72578V11.0736L4.60453 10.2185L6.20109 8.20993L7.93984 9.53436H34.0658L35.8045 8.20993L37.4011 10.2185L36.2758 11.0736ZM34.0658 9.53038L21.0008 19.4736L7.93578 9.53038L6.19703 8.20595L4.60047 10.2145L5.72172 11.0696L19.5992 21.6332C19.9983 21.9368 20.4893 22.1016 20.9947 22.1016C21.5001 22.1016 21.9911 21.9368 22.3902 21.6332L36.2758 11.0736L37.397 10.2185L35.8005 8.20993L34.0658 9.53038Z" fill="#B51DEE"/>
</svg>
