<svg width="25" height="24" viewBox="0 0 25 24" fill="none" xmlns="http://www.w3.org/2000/svg">
<path d="M12.8683 13.4122C12.0685 13.4122 11.2866 13.1845 10.6215 12.7579C9.9565 12.3313 9.43815 11.7249 9.13206 11.0155C8.82597 10.3061 8.74588 9.52551 8.90193 8.77241C9.05797 8.0193 9.44314 7.32753 10.0087 6.78458C10.5743 6.24162 11.2949 5.87186 12.0794 5.72206C12.8639 5.57226 13.677 5.64914 14.416 5.94299C15.1549 6.23684 15.7865 6.73445 16.2309 7.3729C16.6753 8.01135 16.9125 8.76196 16.9125 9.52981C16.9112 10.5591 16.4847 11.5459 15.7265 12.2737C14.9684 13.0015 13.9405 13.4109 12.8683 13.4122ZM12.8683 7.2004C12.3884 7.2004 11.9193 7.33702 11.5203 7.59298C11.1212 7.84894 10.8102 8.21274 10.6266 8.63839C10.4429 9.06403 10.3949 9.5324 10.4885 9.98426C10.5821 10.4361 10.8132 10.8512 11.1526 11.177C11.4919 11.5027 11.9243 11.7246 12.395 11.8145C12.8656 11.9043 13.3535 11.8582 13.7969 11.6819C14.2403 11.5056 14.6193 11.207 14.8859 10.824C15.1525 10.4409 15.2948 9.99053 15.2948 9.52981C15.2942 8.91221 15.0383 8.32007 14.5834 7.88335C14.1285 7.44664 13.5117 7.20102 12.8683 7.2004Z" fill="#9400FF"/>
<path d="M12.1317 22.5886L5.64678 15.0641C5.55667 14.9511 5.4675 14.8374 5.37926 14.723C4.27153 13.2874 3.67311 11.5339 3.67579 9.73144C3.67579 7.52501 4.56667 5.40896 6.15246 3.84878C7.73824 2.28861 9.88903 1.41211 12.1317 1.41211C14.3743 1.41211 16.5251 2.28861 18.1109 3.84878C19.6967 5.40896 20.5875 7.52501 20.5875 9.73144C20.5902 11.5331 19.9921 13.2858 18.8848 14.7208L18.8841 14.723C18.8841 14.723 18.6534 15.021 18.6189 15.0611L12.1317 22.5886ZM6.60614 13.8117C6.60767 13.8117 6.78601 14.0446 6.82676 14.0945L12.1317 20.2501L17.4435 14.0862C17.4773 14.0446 17.6572 13.8102 17.658 13.8094C18.5629 12.6365 19.0519 11.204 19.0501 9.73144C19.0501 7.92618 18.3212 6.19486 17.0237 4.91836C15.7263 3.64185 13.9665 2.92471 12.1317 2.92471C10.2968 2.92471 8.53705 3.64185 7.23959 4.91836C5.94213 6.19486 5.21322 7.92618 5.21322 9.73144C5.21161 11.2049 5.70118 12.6382 6.6069 13.8117H6.60614Z" fill="#9400FF"/>
</svg>
