<svg width="42" height="40" viewBox="0 0 42 40" fill="none" xmlns="http://www.w3.org/2000/svg">
<path d="M21.6183 22.3533C20.2746 22.3533 18.961 21.9738 17.8437 21.2628C16.7264 20.5518 15.8556 19.5412 15.3414 18.3589C14.8272 17.1765 14.6926 15.8755 14.9548 14.6204C15.2169 13.3652 15.864 12.2122 16.8142 11.3073C17.7643 10.4024 18.9749 9.78611 20.2929 9.53644C21.6108 9.28677 22.9769 9.41491 24.2183 9.90466C25.4598 10.3944 26.5209 11.2238 27.2674 12.2878C28.014 13.3519 28.4125 14.6029 28.4125 15.8827C28.4103 17.5982 27.6938 19.2428 26.4201 20.4558C25.1464 21.6689 23.4196 22.3512 21.6183 22.3533ZM21.6183 12.0003C20.8121 12.0003 20.0239 12.228 19.3536 12.6546C18.6832 13.0812 18.1607 13.6876 17.8522 14.397C17.5436 15.1064 17.4629 15.887 17.6202 16.6401C17.7775 17.3932 18.1657 18.085 18.7358 18.6279C19.3059 19.1709 20.0323 19.5407 20.8231 19.6905C21.6138 19.8403 22.4335 19.7634 23.1783 19.4695C23.9232 19.1757 24.5599 18.6781 25.0078 18.0396C25.4557 17.4012 25.6948 16.6506 25.6948 15.8827C25.6937 14.8534 25.2639 13.8665 24.4996 13.1386C23.7354 12.4107 22.6992 12.0014 21.6183 12.0003Z" fill="#13AAA1"/>
<path d="M20.3817 37.6467L9.48706 25.1059C9.33567 24.9176 9.18586 24.7281 9.03763 24.5374C7.17664 22.1447 6.17129 19.2221 6.1758 16.2181C6.1758 12.5407 7.67248 9.01396 10.3366 6.41366C13.0007 3.81337 16.614 2.35254 20.3817 2.35254C24.1493 2.35254 27.7626 3.81337 30.4267 6.41366C33.0908 9.01396 34.5875 12.5407 34.5875 16.2181C34.592 19.2208 33.5871 22.142 31.727 24.5336L31.7257 24.5374C31.7257 24.5374 31.3383 25.0341 31.2801 25.1009L20.3817 37.6467ZM11.0988 23.0185C11.1014 23.0185 11.401 23.4067 11.4694 23.4899L20.3817 33.7492L29.3055 23.4761C29.3624 23.4067 29.6646 23.016 29.6658 23.0147C31.1861 21.0598 32.0076 18.6723 32.0046 16.2181C32.0046 13.2093 30.7801 10.3238 28.6004 8.19629C26.4206 6.06877 23.4643 4.87355 20.3817 4.87355C17.2991 4.87355 14.3427 6.06877 12.163 8.19629C9.98324 10.3238 8.75868 13.2093 8.75868 16.2181C8.75597 18.6738 9.57846 21.0627 11.1001 23.0185H11.0988Z" fill="#13AAA1"/>
</svg>
