<svg width="25" height="24" viewBox="0 0 25 24" fill="none" xmlns="http://www.w3.org/2000/svg">
<path d="M12.8675 13.4117C12.0676 13.4117 11.2857 13.184 10.6207 12.7574C9.95564 12.3308 9.4373 11.7244 9.13121 11.015C8.82512 10.3056 8.74503 9.52502 8.90107 8.77192C9.05712 8.01882 9.44228 7.32705 10.0079 6.78409C10.5734 6.24113 11.294 5.87137 12.0785 5.72157C12.863 5.57177 13.6761 5.64865 14.4151 5.9425C15.1541 6.23635 15.7857 6.73396 16.23 7.37241C16.6744 8.01086 16.9116 8.76147 16.9116 9.52933C16.9103 10.5586 16.4838 11.5454 15.7257 12.2732C14.9675 13.001 13.9397 13.4104 12.8675 13.4117ZM12.8675 7.19992C12.3876 7.19992 11.9184 7.33653 11.5194 7.59249C11.1204 7.84845 10.8094 8.21226 10.6257 8.6379C10.4421 9.06354 10.394 9.53191 10.4876 9.98377C10.5813 10.4356 10.8124 10.8507 11.1517 11.1765C11.4911 11.5022 11.9234 11.7241 12.3941 11.814C12.8648 11.9039 13.3527 11.8577 13.7961 11.6814C14.2394 11.5051 14.6184 11.2065 14.885 10.8235C15.1516 10.4404 15.294 9.99004 15.294 9.52933C15.2933 8.91172 15.0375 8.31958 14.5825 7.88287C14.1276 7.44615 13.5108 7.20053 12.8675 7.19992Z" fill="#FF2640"/>
<path d="M12.1324 22.5881L5.64751 15.0636C5.5574 14.9507 5.46823 14.837 5.38 14.7225C4.27226 13.2869 3.67384 11.5334 3.67652 9.73095C3.67652 7.52453 4.56741 5.40847 6.15319 3.8483C7.73898 2.28812 9.88976 1.41162 12.1324 1.41162C14.375 1.41162 16.5258 2.28812 18.1116 3.8483C19.6974 5.40847 20.5883 7.52453 20.5883 9.73095C20.591 11.5326 19.9928 13.2853 18.8856 14.7203L18.8848 14.7225C18.8848 14.7225 18.6542 15.0205 18.6196 15.0606L12.1324 22.5881ZM6.60687 13.8112C6.60841 13.8112 6.78675 14.0441 6.82749 14.0941L12.1324 20.2496L17.4442 14.0857C17.478 14.0441 17.6579 13.8097 17.6587 13.8089C18.5636 12.636 19.0526 11.2035 19.0508 9.73095C19.0508 7.92569 18.3219 6.19438 17.0245 4.91787C15.727 3.64136 13.9673 2.92423 12.1324 2.92423C10.2975 2.92423 8.53778 3.64136 7.24032 4.91787C5.94286 6.19438 5.21395 7.92569 5.21395 9.73095C5.21234 11.2044 5.70192 12.6377 6.60764 13.8112H6.60687Z" fill="#FF2640"/>
</svg>
