<svg width="25" height="24" viewBox="0 0 25 24" fill="none" xmlns="http://www.w3.org/2000/svg">
<path d="M12.8674 13.4118C12.0676 13.4118 11.2857 13.1841 10.6206 12.7575C9.95558 12.3309 9.43723 11.7246 9.13115 11.0152C8.82506 10.3058 8.74497 9.52514 8.90101 8.77204C9.05705 8.01894 9.44222 7.32717 10.0078 6.78421C10.5734 6.24125 11.294 5.8715 12.0785 5.72169C12.8629 5.57189 13.6761 5.64878 14.415 5.94262C15.154 6.23647 15.7856 6.73408 16.23 7.37253C16.6744 8.01098 16.9115 8.76159 16.9115 9.52945C16.9103 10.5587 16.4838 11.5455 15.7256 12.2733C14.9675 13.0011 13.9396 13.4106 12.8674 13.4118ZM12.8674 7.20004C12.3875 7.20004 11.9184 7.33666 11.5193 7.59261C11.1203 7.84857 10.8093 8.21238 10.6257 8.63802C10.442 9.06367 10.3939 9.53203 10.4876 9.98389C10.5812 10.4358 10.8123 10.8508 11.1516 11.1766C11.491 11.5024 11.9234 11.7242 12.394 11.8141C12.8647 11.904 13.3526 11.8579 13.796 11.6815C14.2394 11.5052 14.6183 11.2067 14.885 10.8236C15.1516 10.4405 15.2939 9.99016 15.2939 9.52945C15.2932 8.91184 15.0374 8.3197 14.5825 7.88299C14.1276 7.44627 13.5108 7.20065 12.8674 7.20004Z" fill="#6A6A9A"/>
<path d="M12.1324 22.5882L5.64748 15.0638C5.55737 14.9508 5.4682 14.8371 5.37997 14.7227C4.27223 13.287 3.67381 11.5335 3.67649 9.73107C3.67649 7.52465 4.56738 5.40859 6.15316 3.84842C7.73894 2.28824 9.88973 1.41174 12.1324 1.41174C14.375 1.41174 16.5258 2.28824 18.1116 3.84842C19.6974 5.40859 20.5882 7.52465 20.5882 9.73107C20.5909 11.5327 19.9928 13.2854 18.8855 14.7204L18.8848 14.7227C18.8848 14.7227 18.6542 15.0207 18.6196 15.0607L12.1324 22.5882ZM6.60684 13.8113C6.60837 13.8113 6.78672 14.0443 6.82746 14.0942L12.1324 20.2497L17.4442 14.0859C17.478 14.0443 17.6579 13.8098 17.6587 13.8091C18.5636 12.6361 19.0526 11.2036 19.0508 9.73107C19.0508 7.92582 18.3219 6.1945 17.0244 4.91799C15.727 3.64148 13.9673 2.92435 12.1324 2.92435C10.2975 2.92435 8.53775 3.64148 7.24029 4.91799C5.94283 6.1945 5.21392 7.92582 5.21392 9.73107C5.21231 11.2045 5.70189 12.6379 6.60761 13.8113H6.60684Z" fill="#6A6A9A"/>
</svg>
