<svg width="25" height="24" viewBox="0 0 25 24" fill="none" xmlns="http://www.w3.org/2000/svg">
<path d="M22.5595 4H2.44047C2.01245 4 1.66666 4.34125 1.66666 4.76364V20.0364C1.66666 20.4587 2.01245 20.8 2.44047 20.8H22.5595C22.9875 20.8 23.3333 20.4587 23.3333 20.0364V4.76364C23.3333 4.34125 22.9875 4 22.5595 4ZM21.5923 6.64409V19.0818H3.40773V6.64409L2.74032 6.13102L3.69065 4.92591L4.72562 5.72057H20.2768L21.3117 4.92591L22.2621 6.13102L21.5923 6.64409ZM20.2768 5.71818L12.5 11.6841L4.7232 5.71818L3.68823 4.92352L2.7379 6.12864L3.40531 6.6417L11.6657 12.9799C11.9033 13.162 12.1955 13.2609 12.4964 13.2609C12.7972 13.2609 13.0894 13.162 13.327 12.9799L21.5923 6.64409L22.2597 6.13102L21.3093 4.92591L20.2768 5.71818Z" fill="#6A6A9A"/>
</svg>
