<svg width="25" height="24" viewBox="0 0 25 24" fill="none" xmlns="http://www.w3.org/2000/svg">
<path d="M22.5595 4H2.44044C2.01242 4 1.66663 4.34125 1.66663 4.76364V20.0364C1.66663 20.4587 2.01242 20.8 2.44044 20.8H22.5595C22.9875 20.8 23.3333 20.4587 23.3333 20.0364V4.76364C23.3333 4.34125 22.9875 4 22.5595 4ZM21.5922 6.64409V19.0818H3.4077V6.64409L2.74029 6.13102L3.69062 4.92591L4.72559 5.72057H20.2767L21.3117 4.92591L22.262 6.13102L21.5922 6.64409ZM20.2767 5.71818L12.5 11.6841L4.72317 5.71818L3.6882 4.92352L2.73787 6.12864L3.40528 6.6417L11.6657 12.9799C11.9033 13.162 12.1955 13.2609 12.4963 13.2609C12.7972 13.2609 13.0894 13.162 13.327 12.9799L21.5922 6.64409L22.2596 6.13102L21.3093 4.92591L20.2767 5.71818Z" fill="#2B29A4"/>
</svg>
