<svg width="92" height="148" viewBox="0 0 92 148" fill="none" xmlns="http://www.w3.org/2000/svg">
<path d="M51.1853 146.444C68.1278 151.77 86.4547 139.329 90.531 122.648C95.0723 104.058 83.7102 84.7812 67.1787 76.5934C58.5469 72.4526 49.0204 70.5878 39.4986 71.1752C29.2183 71.7343 17.2593 74.7014 10.9268 83.5303C5.47032 91.1962 4.76732 102.685 12.5795 109.207C19.6052 115.095 30.2178 114.924 38.1968 111.352C54.567 103.988 63.7182 84.9548 61.385 67.2955C58.9029 48.7008 43.9754 35.0819 25.8787 32.0856C17.1694 30.5478 8.21745 31.5693 0.0976579 35.0273C-7.91588 38.5779 -15.3813 44.8263 -17.804 53.6817C-20.4684 63.594 -13.695 72.0919 -4.41362 74.7076C4.8678 77.3232 14.6798 74.3587 22.1312 68.9567C29.6604 63.5125 34.9876 55.5246 37.1479 46.4404C39.1221 37.0826 37.4589 27.3001 32.4991 19.0991C27.6766 10.8365 19.8762 4.75181 10.7284 2.11682C1.73658 -0.264449 -7.78845 0.671259 -16.1186 4.75425C-20.1078 6.6905 -23.7096 9.34267 -26.7482 12.5812C-30.3223 16.3553 -24.3398 21.774 -20.7215 18.036C-10.9875 7.734 6.48653 5.61054 17.9 14.5468C23.7645 19.0025 27.7818 25.4862 29.1694 32.7346C30.557 39.983 29.2153 47.477 25.4059 53.7566C21.6419 59.6989 15.9283 64.123 9.24967 66.2664C3.41102 68.1213 -6.02463 68.203 -9.44159 61.869C-12.4615 56.2252 -7.82156 49.7488 -3.54622 46.341C2.06526 42.0758 8.86623 39.6802 15.9137 39.4863C29.6517 38.8786 44.2348 45.6101 50.443 58.4648C56.4872 70.9952 53.3095 87.2498 44.049 97.2265C41.8066 99.7686 39.0741 101.826 36.0157 103.274C32.9573 104.723 29.6362 105.533 26.2517 105.656C19.8854 105.681 13.8166 101.863 14.6762 94.7622C15.7213 86.0818 24.2678 81.9317 31.8369 80.2553C39.398 78.5893 47.2481 78.698 54.7797 80.5729C69.0163 84.1551 81.2725 95.4501 82.9841 110.63C83.4541 113.976 83.2625 117.378 82.4204 120.642C81.5783 123.906 80.1023 126.966 78.0772 129.648C74.1086 134.755 68.3708 138.167 61.9994 139.208C58.8752 139.639 55.6907 139.355 52.6835 138.375C51.6349 138.152 50.5433 138.351 49.6427 138.928C48.742 139.506 48.104 140.417 47.8655 141.466C47.6626 142.515 47.8705 143.605 48.4457 144.508C49.021 145.411 49.9192 146.058 50.9534 146.314L51.1853 146.444Z" fill="white" fill-opacity="0.2"/>
</svg>
