<svg width="25" height="24" viewBox="0 0 25 24" fill="none" xmlns="http://www.w3.org/2000/svg">
<path d="M22.5608 4H2.44178C2.01376 4 1.66797 4.34125 1.66797 4.76364V20.0364C1.66797 20.4587 2.01376 20.8 2.44178 20.8H22.5608C22.9888 20.8 23.3346 20.4587 23.3346 20.0364V4.76364C23.3346 4.34125 22.9888 4 22.5608 4ZM21.5936 6.64409V19.0818H3.40904V6.64409L2.74163 6.13102L3.69196 4.92591L4.72693 5.72057H20.2781L21.3131 4.92591L22.2634 6.13102L21.5936 6.64409V6.64409ZM20.2781 5.71818L12.5013 11.6841L4.72452 5.71818L3.68955 4.92352L2.73921 6.12864L3.40662 6.6417L11.667 12.9799C11.9046 13.162 12.1969 13.2609 12.4977 13.2609C12.7985 13.2609 13.0908 13.162 13.3283 12.9799L21.5936 6.64409L22.261 6.13102L21.3106 4.92591L20.2781 5.71818Z" fill="#F5F5F5"/>
</svg>
