<svg width="25" height="24" viewBox="0 0 25 24" fill="none" xmlns="http://www.w3.org/2000/svg">
<path d="M12.8674 13.4122C12.0675 13.4122 11.2856 13.1845 10.6206 12.7579C9.95552 12.3313 9.43717 11.7249 9.13108 11.0155C8.82499 10.3061 8.74491 9.52551 8.90095 8.77241C9.05699 8.0193 9.44216 7.32753 10.0077 6.78458C10.5733 6.24162 11.2939 5.87186 12.0784 5.72206C12.8629 5.57226 13.676 5.64914 14.415 5.94299C15.1539 6.23684 15.7855 6.73445 16.2299 7.3729C16.6743 8.01135 16.9115 8.76196 16.9115 9.52981C16.9102 10.5591 16.4837 11.5459 15.7256 12.2737C14.9674 13.0015 13.9395 13.4109 12.8674 13.4122ZM12.8674 7.2004C12.3875 7.2004 11.9183 7.33702 11.5193 7.59298C11.1203 7.84894 10.8092 8.21274 10.6256 8.63839C10.4419 9.06403 10.3939 9.5324 10.4875 9.98426C10.5811 10.4361 10.8122 10.8512 11.1516 11.177C11.4909 11.5027 11.9233 11.7246 12.394 11.8145C12.8647 11.9043 13.3526 11.8582 13.7959 11.6819C14.2393 11.5056 14.6183 11.207 14.8849 10.824C15.1515 10.4409 15.2938 9.99053 15.2938 9.52981C15.2932 8.91221 15.0373 8.32007 14.5824 7.88335C14.1275 7.44664 13.5107 7.20102 12.8674 7.2004Z" fill="#0D4F51"/>
<path d="M12.1326 22.5886L5.64775 15.0641C5.55765 14.9511 5.46847 14.8374 5.38024 14.723C4.27251 13.2874 3.67408 11.5339 3.67677 9.73144C3.67677 7.52501 4.56765 5.40896 6.15344 3.84878C7.73922 2.28861 9.89 1.41211 12.1326 1.41211C14.3753 1.41211 16.5261 2.28861 18.1118 3.84878C19.6976 5.40896 20.5885 7.52501 20.5885 9.73144C20.5912 11.5331 19.993 13.2858 18.8858 14.7208L18.885 14.723C18.885 14.723 18.6544 15.021 18.6198 15.0611L12.1326 22.5886ZM6.60711 13.8117C6.60865 13.8117 6.78699 14.0446 6.82773 14.0945L12.1326 20.2501L17.4445 14.0862C17.4783 14.0446 17.6582 13.8102 17.6589 13.8094C18.5638 12.6365 19.0529 11.204 19.0511 9.73144C19.0511 7.92618 18.3222 6.19486 17.0247 4.91836C15.7273 3.64185 13.9675 2.92471 12.1326 2.92471C10.2978 2.92471 8.53802 3.64185 7.24056 4.91836C5.9431 6.19486 5.2142 7.92618 5.2142 9.73144C5.21259 11.2049 5.70216 12.6382 6.60788 13.8117H6.60711Z" fill="#0D4F51"/>
</svg>
