<svg width="42" height="40" viewBox="0 0 42 40" fill="none" xmlns="http://www.w3.org/2000/svg">
<path d="M21.6174 22.3533C20.2736 22.3533 18.96 21.9738 17.8428 21.2628C16.7255 20.5518 15.8546 19.5412 15.3404 18.3589C14.8262 17.1765 14.6916 15.8755 14.9538 14.6204C15.2159 13.3652 15.863 12.2122 16.8132 11.3073C17.7634 10.4024 18.974 9.78611 20.2919 9.53644C21.6098 9.28677 22.9759 9.41491 24.2174 9.90466C25.4588 10.3944 26.5199 11.2238 27.2665 12.2878C28.013 13.3519 28.4115 14.6029 28.4115 15.8827C28.4093 17.5982 27.6928 19.2428 26.4191 20.4558C25.1455 21.6689 23.4186 22.3512 21.6174 22.3533ZM21.6174 12.0003C20.8111 12.0003 20.023 12.228 19.3526 12.6546C18.6822 13.0812 18.1597 13.6876 17.8512 14.397C17.5427 15.1064 17.4619 15.887 17.6192 16.6401C17.7765 17.3932 18.1648 18.085 18.7349 18.6279C19.305 19.1709 20.0313 19.5407 20.8221 19.6905C21.6128 19.8403 22.4325 19.7634 23.1774 19.4695C23.9222 19.1757 24.5589 18.6781 25.0068 18.0396C25.4548 17.4012 25.6938 16.6506 25.6938 15.8827C25.6928 14.8534 25.2629 13.8665 24.4987 13.1386C23.7344 12.4107 22.6982 12.0014 21.6174 12.0003Z" fill="#13AAA1"/>
<path d="M20.3826 37.6467L9.48803 25.1059C9.33665 24.9176 9.18684 24.7281 9.03861 24.5374C7.17762 22.1447 6.17226 19.2221 6.17677 16.2181C6.17677 12.5407 7.67346 9.01396 10.3376 6.41366C13.0017 3.81337 16.615 2.35254 20.3826 2.35254C24.1503 2.35254 27.7636 3.81337 30.4277 6.41366C33.0918 9.01396 34.5885 12.5407 34.5885 16.2181C34.593 19.2208 33.5881 22.142 31.728 24.5336L31.7267 24.5374C31.7267 24.5374 31.3392 25.0341 31.2811 25.1009L20.3826 37.6467ZM11.0998 23.0185C11.1023 23.0185 11.4019 23.4067 11.4704 23.4899L20.3826 33.7492L29.3065 23.4761C29.3633 23.4067 29.6655 23.016 29.6668 23.0147C31.187 21.0598 32.0086 18.6723 32.0056 16.2181C32.0056 13.2093 30.7811 10.3238 28.6013 8.19629C26.4216 6.06877 23.4652 4.87355 20.3826 4.87355C17.3 4.87355 14.3437 6.06877 12.164 8.19629C9.98422 10.3238 8.75966 13.2093 8.75966 16.2181C8.75695 18.6738 9.57944 21.0627 11.101 23.0185H11.0998Z" fill="#13AAA1"/>
</svg>
