<svg width="40" height="40" viewBox="0 0 40 40" fill="none" xmlns="http://www.w3.org/2000/svg">
<g clip-path="url(#clip0_4513_1999)">
<g clip-path="url(#clip1_4513_1999)">
<path d="M15.9375 17.812V11.6445H20.3875C22.82 11.6445 24.2425 12.787 24.2425 14.737C24.2425 16.742 22.7325 17.812 19.8325 17.812H15.9375ZM15.9375 27.217H20.6825C23.6425 27.217 25.2075 26.017 25.2075 23.7745C25.2075 21.562 23.5825 20.4045 20.4925 20.4045H15.9375V27.217Z" fill="white"/>
<path d="M10 0C7.34783 0 4.8043 1.05357 2.92893 2.92893C1.05357 4.8043 0 7.34784 0 10V30C0 32.6522 1.05357 35.1957 2.92893 37.0711C4.8043 38.9464 7.34783 40 10 40H30C32.6522 40 35.1957 38.9464 37.0711 37.0711C38.9464 35.1957 40 32.6522 40 30V10C40 7.34784 38.9464 4.8043 37.0711 2.92893C35.1957 1.05357 32.6522 0 30 0L10 0ZM12.65 30V8.8625H21.1475C25.115 8.8625 27.505 10.885 27.505 14.1375C27.505 16.3475 25.88 18.325 23.7975 18.6775V18.9275C26.655 19.22 28.5575 21.255 28.5575 24.01C28.5575 27.73 25.8475 30 21.3375 30H12.65Z" fill="white"/>
</g>
</g>
<defs>
<clipPath id="clip0_4513_1999">
<rect width="40" height="40" fill="white"/>
</clipPath>
<clipPath id="clip1_4513_1999">
<rect width="40" height="40" fill="white"/>
</clipPath>
</defs>
</svg>
