<svg width="52" height="40" viewBox="0 0 52 40" fill="none" xmlns="http://www.w3.org/2000/svg">
<path d="M19.2174 0L26.113 24.3023L33.1217 0H49.9652V2.55814L43.8609 15.1163C46.6493 16.0465 48.6464 17.5194 49.8522 19.5349C51.2841 21.8605 52 24.4186 52 27.2093C52 30.9302 51.1333 33.9535 49.4 36.2791C47.4406 38.7597 45.029 40 42.1652 40C40.1304 40 38.2087 39.2636 36.4 37.7907C34.742 36.2403 33.5362 34.2636 32.7826 31.8605L36.7391 30.1163C37.342 31.8217 38.0957 33.0233 39 33.7209C39.829 34.5736 40.9217 35 42.2783 35C43.7101 35 44.8406 34.2248 45.6696 32.6744C46.5739 31.2016 47.0261 29.3798 47.0261 27.2093C47.0261 24.2636 46.5362 22.1705 45.5565 20.9302C44.1246 18.9147 42.3159 17.907 40.1304 17.907H36.8522V16.9767L44.9913 4.53488H36.4L26.6783 37.907H26.113L18.9913 13.1395L11.8696 37.907H11.4174L0 0H4.97391L11.8696 24.3023L16.5043 8.02326L14.2435 0H19.2174Z" fill="white"/>
</svg>
