<svg width="34" height="40" viewBox="0 0 34 40" fill="none" xmlns="http://www.w3.org/2000/svg">
<path d="M31.1667 14.2857H19.8333V2.85714H2.83333V37.1429H31.1667V14.2857ZM29.9937 11.4286L22.6667 4.04V11.4286H29.9937ZM1.41667 0H22.6667L34 11.4286V38.5714C34 38.9503 33.8507 39.3137 33.5851 39.5816C33.3194 39.8495 32.9591 40 32.5833 40H1.41667C1.04094 40 0.680609 39.8495 0.414932 39.5816C0.149256 39.3137 0 38.9503 0 38.5714V1.42857C0 1.04969 0.149256 0.686328 0.414932 0.418419C0.680609 0.15051 1.04094 0 1.41667 0ZM8.5 20H25.5V22.8571H8.5V20ZM8.5 11.4286H15.5833V14.2857H8.5V11.4286ZM8.5 28.5714H25.5V31.4286H8.5V28.5714Z" fill="white"/>
</svg>
