<svg width="40" height="40" viewBox="0 0 40 40" fill="none" xmlns="http://www.w3.org/2000/svg">
<path d="M17.0773 4.00563C16.9253 3.7781 16.7196 3.59156 16.4783 3.46249C16.237 3.33342 15.9676 3.2658 15.694 3.26562H3.31901C2.87698 3.26562 2.45306 3.44122 2.1405 3.75378C1.82794 4.06634 1.65234 4.49026 1.65234 4.93229V35.069C1.65233 35.455 1.78631 35.829 2.03141 36.1272C2.27651 36.4255 2.61753 36.6294 2.99624 36.7041C3.37494 36.7789 3.76786 36.7199 4.1079 36.5372C4.44793 36.3544 4.714 36.0594 4.86068 35.7023L17.2357 5.56729C17.3393 5.31423 17.379 5.03956 17.3514 4.76751C17.3238 4.49546 17.2297 4.23271 17.0773 4.00563ZM4.98568 26.6223V6.60062H13.2073L4.98568 26.6223ZM36.6523 3.26562H24.1223C23.8475 3.26581 23.577 3.33393 23.3349 3.46395C23.0928 3.59396 22.8866 3.78181 22.7347 4.01079C22.5828 4.23978 22.4898 4.50277 22.4641 4.77637C22.4384 5.04997 22.4807 5.32568 22.5873 5.57896L35.1157 35.329C35.2427 35.6312 35.4561 35.8893 35.7292 36.0707C36.0023 36.2522 36.3228 36.349 36.6507 36.349C36.7615 36.3483 36.872 36.3372 36.9807 36.3156C37.3579 36.2395 37.6972 36.0353 37.9411 35.7376C38.185 35.44 38.3185 35.0671 38.319 34.6823V4.93229C38.319 4.49026 38.1434 4.06634 37.8309 3.75378C37.5183 3.44122 37.0944 3.26562 36.6523 3.26562ZM34.9857 26.4306L26.6323 6.59896H34.9857V26.4306ZM21.5807 15.8673C21.4618 15.5532 21.2509 15.2824 20.9755 15.0903C20.7001 14.8982 20.3731 14.7937 20.0373 14.7906H20.0207C19.688 14.7906 19.363 14.8901 19.0873 15.0763C18.8117 15.2625 18.5981 15.527 18.474 15.8356L13.3757 28.554C13.2743 28.807 13.2365 29.081 13.2656 29.352C13.2947 29.623 13.3899 29.8827 13.5427 30.1084C13.6955 30.3341 13.9013 30.5189 14.1422 30.6465C14.383 30.7742 14.6514 30.8408 14.924 30.8406H18.6807L21.2173 35.824C21.3566 36.0985 21.5693 36.3291 21.8318 36.49C22.0942 36.6509 22.3961 36.736 22.704 36.7356H27.0573C27.327 36.7357 27.5926 36.6704 27.8315 36.5453C28.0703 36.4201 28.2752 36.2389 28.4286 36.0172C28.582 35.7954 28.6793 35.5398 28.7122 35.2721C28.7451 35.0045 28.7125 34.7329 28.6173 34.4806L21.5807 15.8673ZM23.7257 33.4023L21.1873 28.419C21.0483 28.1449 20.8361 27.9147 20.5743 27.7538C20.3125 27.5929 20.0113 27.5076 19.704 27.5073H17.3873L19.9757 21.049L24.6457 33.4023H23.7257Z" fill="white"/>
</svg>
