<svg width="40" height="40" viewBox="0 0 40 40" fill="none" xmlns="http://www.w3.org/2000/svg">
<path d="M6.66667 18.3333H16.6667C17.1087 18.3333 17.5326 18.1577 17.8452 17.8452C18.1577 17.5326 18.3333 17.1087 18.3333 16.6667V6.66667C18.3333 6.22464 18.1577 5.80072 17.8452 5.48816C17.5326 5.17559 17.1087 5 16.6667 5H6.66667C6.22464 5 5.80072 5.17559 5.48816 5.48816C5.17559 5.80072 5 6.22464 5 6.66667V16.6667C5 17.1087 5.17559 17.5326 5.48816 17.8452C5.80072 18.1577 6.22464 18.3333 6.66667 18.3333ZM8.33333 8.33333H15V15H8.33333V8.33333ZM33.3333 5H23.3333C22.8913 5 22.4674 5.17559 22.1548 5.48816C21.8423 5.80072 21.6667 6.22464 21.6667 6.66667V16.6667C21.6667 17.1087 21.8423 17.5326 22.1548 17.8452C22.4674 18.1577 22.8913 18.3333 23.3333 18.3333H33.3333C33.7754 18.3333 34.1993 18.1577 34.5118 17.8452C34.8244 17.5326 35 17.1087 35 16.6667V6.66667C35 6.22464 34.8244 5.80072 34.5118 5.48816C34.1993 5.17559 33.7754 5 33.3333 5ZM31.6667 15H25V8.33333H31.6667V15ZM16.6667 35C17.1087 35 17.5326 34.8244 17.8452 34.5118C18.1577 34.1993 18.3333 33.7754 18.3333 33.3333V23.3333C18.3333 22.8913 18.1577 22.4674 17.8452 22.1548C17.5326 21.8423 17.1087 21.6667 16.6667 21.6667H6.66667C6.22464 21.6667 5.80072 21.8423 5.48816 22.1548C5.17559 22.4674 5 22.8913 5 23.3333V33.3333C5 33.7754 5.17559 34.1993 5.48816 34.5118C5.80072 34.8244 6.22464 35 6.66667 35H16.6667ZM8.33333 25H15V31.6667H8.33333V25ZM30 23.3333H26.6667V26.6667H23.3333V30H26.6667V33.3333H30V30H33.3333V26.6667H30V23.3333Z" fill="white"/>
</svg>
