<svg width="45" height="40" viewBox="0 0 45 40" fill="none" xmlns="http://www.w3.org/2000/svg">
<path d="M42.55 20.4889C42.55 8.28889 33.178 0 22.75 0C12.432 0 2.95 8.11111 2.95 20.6222C1.63 21.3778 0.75 22.8 0.75 24.4444V28.8889C0.75 31.3333 2.73 33.3333 5.15 33.3333H7.35V19.7778C7.35 11.1778 14.236 4.22222 22.75 4.22222C31.264 4.22222 38.15 11.1778 38.15 19.7778V35.5556H20.55V40H38.15C40.57 40 42.55 38 42.55 35.5556V32.8444C43.848 32.1556 44.75 30.8 44.75 29.2V24.0889C44.75 22.5333 43.848 21.1778 42.55 20.4889Z" fill="white"/>
<path d="M16.1487 24.4444C17.3637 24.4444 18.3487 23.4495 18.3487 22.2222C18.3487 20.9949 17.3637 20 16.1487 20C14.9337 20 13.9487 20.9949 13.9487 22.2222C13.9487 23.4495 14.9337 24.4444 16.1487 24.4444Z" fill="white"/>
<path d="M29.3513 24.4444C30.5663 24.4444 31.5513 23.4495 31.5513 22.2222C31.5513 20.9949 30.5663 20 29.3513 20C28.1363 20 27.1513 20.9949 27.1513 22.2222C27.1513 23.4495 28.1363 24.4444 29.3513 24.4444Z" fill="white"/>
<path d="M35.9514 17.8448C35.4269 14.7206 33.8249 11.8847 31.4292 9.83895C29.0335 7.79321 25.9985 6.66959 22.8614 6.66699C16.1954 6.66699 9.02344 12.2448 9.59544 21.0003C12.3083 19.879 14.7044 18.097 16.5699 15.8132C18.4355 13.5294 19.7126 10.8148 20.2874 7.91144C23.1694 13.7559 29.0874 17.7781 35.9514 17.8448Z" fill="white"/>
</svg>
