<svg width="40" height="40" viewBox="0 0 40 40" fill="none" xmlns="http://www.w3.org/2000/svg">
<g clip-path="url(#clip0_4513_2010)">
<path d="M11.2914 35.2322C10.4158 35.5592 9.46471 35.6284 8.55097 35.4315C7.63722 35.2345 6.79908 34.7798 6.13586 34.1211C5.67881 33.6696 5.31658 33.1314 5.07044 32.538C4.8243 31.9446 4.69922 31.308 4.70253 30.6655C4.70744 30.214 4.77474 29.7653 4.90253 29.3322C4.42084 28.4314 4.04786 27.4766 3.79142 26.4878C2.7703 27.8962 2.30089 29.63 2.472 31.3612C2.64311 33.0924 3.44288 34.7009 4.71996 35.8821C5.99704 37.0634 7.66282 37.7355 9.40208 37.7714C11.1413 37.8072 12.8334 37.2043 14.1581 36.0767C13.1729 35.9078 12.2108 35.6244 11.2914 35.2322ZM20.4581 30.7544C18.8528 31.6492 16.9996 31.9966 15.1792 31.744C13.3588 31.4914 11.6702 30.6525 10.3692 29.3544C9.06955 28.0592 8.22842 26.375 7.97371 24.558C7.719 22.7409 8.06464 20.8904 8.95808 19.2878C8.71476 18.2487 8.57702 17.1878 8.54697 16.1211C6.65629 18.1382 5.6246 20.8118 5.67022 23.5761C5.71585 26.3405 6.8352 28.9786 8.79142 30.9322C10.7529 32.8822 13.3933 33.9969 16.1588 34.0425C18.9243 34.088 21.6 33.061 23.6247 31.1766C22.5578 31.1415 21.497 31 20.4581 30.7544Z" fill="white"/>
<path d="M24.0651 29.1233C20.9552 29.1186 17.9432 28.036 15.5419 26.0599C13.1406 24.0838 11.4987 21.3363 10.8958 18.2854C10.2928 15.2346 10.7662 12.0691 12.2352 9.32806C13.7042 6.58703 16.078 4.44003 18.9523 3.25275C21.8266 2.06547 25.0236 1.91134 27.9987 2.81661C30.9739 3.72188 33.5433 5.63057 35.2691 8.21757C36.995 10.8046 37.7707 13.9099 37.464 17.0046C37.1573 20.0993 35.7873 22.9919 33.5873 25.1899C32.3363 26.4389 30.8514 27.4291 29.2176 28.104C27.5837 28.7789 25.8329 29.1253 24.0651 29.1233ZM24.0651 4.44547C22.589 4.44401 21.127 4.7335 19.7629 5.29737C18.3987 5.86124 17.159 6.68845 16.1147 7.73171C15.0704 8.77497 14.242 10.0138 13.6768 11.3774C13.1116 12.741 12.8206 14.2027 12.8206 15.6788C12.8209 17.1564 13.1158 18.6191 13.6881 19.9813C14.2605 21.3435 15.0988 22.5778 16.154 23.6121C18.2626 25.7203 21.1223 26.9045 24.104 26.9045C27.0857 26.9045 29.9453 25.7203 32.054 23.6121C33.6244 22.0379 34.6922 20.0329 35.1223 17.8513C35.5523 15.6696 35.3252 13.4094 34.4697 11.357C33.6142 9.30448 32.1688 7.55208 30.3166 6.32171C28.4644 5.09134 26.2887 4.43836 24.0651 4.44547Z" fill="white"/>
</g>
<defs>
<clipPath id="clip0_4513_2010">
<rect width="40" height="40" fill="white"/>
</clipPath>
</defs>
</svg>
