<svg width="40" height="40" viewBox="0 0 40 40" fill="none" xmlns="http://www.w3.org/2000/svg">
<path d="M20 11.1641C15.1279 11.1641 11.1641 15.1279 11.1641 20C11.1641 21.019 11.3462 21.9941 11.6651 22.9057C11.6705 23.003 11.7064 23.089 11.7597 23.1637C13.0359 26.4756 16.2437 28.8359 20 28.8359C20.0001 28.8359 20.0006 28.8359 20.0007 28.8359C24.8725 28.8355 28.8359 24.8718 28.8359 20C28.8359 15.1279 24.8721 11.1641 20 11.1641ZM27.0022 16.5032H24.2392C23.5855 14.6216 22.5218 13.2204 21.7181 12.3599C24.0355 12.8809 25.9627 14.4304 27.0022 16.5032ZM12.1641 20C12.1641 19.1263 12.314 18.2885 12.579 17.5032H15.475C15.2868 18.2718 15.167 19.1008 15.167 20C15.167 20.8513 15.2834 21.6407 15.4655 22.3789H12.5357C12.2959 21.628 12.1641 20.8294 12.1641 20ZM16.167 20C16.167 19.0977 16.2989 18.2652 16.5098 17.5032H19.5V22.3789H16.4966C16.2926 21.647 16.167 20.8533 16.167 20ZM23.1635 16.5032H20.5V12.5593C21.1635 13.1859 22.3958 14.5392 23.1635 16.5032ZM19.5 12.6038V16.5032H16.8471C17.6063 14.5937 18.8171 13.2521 19.5 12.6038ZM19.5 23.3789V27.2461C18.7269 26.5043 17.5667 25.178 16.8387 23.3789H19.5ZM20.5 27.2403V23.3789H23.1587C22.4292 25.1771 21.2721 26.4978 20.5 27.2403ZM20.5 22.3789V17.5032H23.4977C23.7044 18.2644 23.8325 19.0974 23.8325 20C23.8325 20.8536 23.7029 21.6459 23.4975 22.3789H20.5ZM24.5284 17.5032H27.421C27.686 18.2885 27.8359 19.1263 27.8359 20C27.8359 20.8294 27.7041 21.628 27.4643 22.3789H24.534C24.7161 21.6407 24.8325 20.8513 24.8325 20C24.8325 19.1009 24.7143 18.2718 24.5284 17.5032ZM18.3339 12.3464C17.5181 13.2063 16.4332 14.6127 15.7679 16.5032H12.9977C14.0451 14.4147 15.9931 12.8557 18.3339 12.3464ZM12.9409 23.3789H15.7645C16.462 25.326 17.6312 26.79 18.5204 27.6914C16.0529 27.2175 13.9999 25.5821 12.9409 23.3789ZM21.4795 27.6914C22.3686 26.79 23.5376 25.326 24.235 23.3789H27.0591C26 25.5822 23.947 27.2175 21.4795 27.6914Z" fill="#0D4F51"/>
<path d="M39.3174 7.19482C39.3174 3.60351 36.3955 0.681641 32.8042 0.681641C29.2129 0.681641 26.291 3.60351 26.291 7.19482C26.291 10.7861 29.2129 13.708 32.8042 13.708C36.3955 13.708 39.3174 10.7861 39.3174 7.19482ZM29.5156 11.6093C29.5764 10.2086 30.4916 9.00808 31.8442 8.59741C32.0366 8.53881 32.1758 8.37011 32.1963 8.16967C32.2168 7.96923 32.1147 7.77612 31.938 7.67968C31.3018 7.33325 30.9062 6.66894 30.9062 5.94555C30.9062 4.85766 31.7915 3.97241 32.8794 3.97241C33.9673 3.97241 34.8525 4.85766 34.8525 5.94555C34.8525 6.69043 34.4385 7.36377 33.772 7.70312C33.5918 7.79443 33.4849 7.9851 33.5 8.18627C33.5151 8.38745 33.6499 8.55981 33.8413 8.62329C35.1479 9.05624 36.0326 10.2457 36.0929 11.6092C35.1735 12.296 34.0375 12.708 32.8042 12.708C31.571 12.708 30.435 12.296 29.5156 11.6093ZM27.291 7.19482C27.291 4.15478 29.7642 1.68164 32.8042 1.68164C35.8442 1.68164 38.3174 4.15478 38.3174 7.19482C38.3174 8.56301 37.8134 9.81365 36.9853 10.7784C36.7186 9.6332 35.9988 8.64303 34.9819 8.04736C35.5322 7.49951 35.8525 6.75024 35.8525 5.94555C35.8525 4.30615 34.5185 2.97241 32.8794 2.97241C31.2402 2.97241 29.9062 4.30615 29.9062 5.94555C29.9062 6.71826 30.2056 7.44604 30.7212 7.99023C29.6508 8.57769 28.8959 9.59091 28.6226 10.778C27.7948 9.81332 27.291 8.5628 27.291 7.19482Z" fill="#0D4F51"/>
<path d="M7.19482 0.681641C3.60351 0.681641 0.681641 3.60351 0.681641 7.19482C0.681641 10.7861 3.60351 13.708 7.19482 13.708C10.7861 13.708 13.708 10.7861 13.708 7.19482C13.708 3.60351 10.7861 0.681641 7.19482 0.681641ZM3.90573 11.609C3.96676 10.2086 4.88189 9.00805 6.23486 8.59741C6.42724 8.53881 6.5664 8.37011 6.58691 8.16967C6.60742 7.96923 6.50537 7.77612 6.32861 7.67968C5.69238 7.33325 5.29687 6.66894 5.29687 5.94555C5.29687 4.85766 6.18213 3.97241 7.27 3.97241C8.3579 3.97241 9.24316 4.85766 9.24316 5.94555C9.24316 6.69018 8.8291 7.36377 8.1621 7.70312C7.98242 7.79467 7.87548 7.98535 7.89062 8.18652C7.90576 8.38769 8.04052 8.55981 8.23193 8.62329C9.53854 9.05624 10.4232 10.2457 10.4835 11.6092C9.56414 12.296 8.4281 12.708 7.19482 12.708C5.96139 12.708 4.82519 12.2959 3.90573 11.609ZM11.376 10.7784C11.1092 9.63311 10.3893 8.64306 9.37206 8.04736C9.92285 7.49926 10.2432 6.75 10.2432 5.94555C10.2432 4.30615 8.90917 2.97241 7.27 2.97241C5.63086 2.97241 4.29687 4.30615 4.29687 5.94555C4.29687 6.71826 4.59619 7.44604 5.11133 7.99023C4.04144 8.57763 3.28638 9.59069 3.01294 10.7776C2.18527 9.81295 1.68164 8.56262 1.68164 7.19482C1.68164 4.15478 4.15478 1.68164 7.19482 1.68164C10.2349 1.68164 12.708 4.15478 12.708 7.19482C12.708 8.56301 12.2041 9.81365 11.376 10.7784Z" fill="#0D4F51"/>
<path d="M32.8042 39.3711C36.3955 39.3711 39.3174 36.4492 39.3174 32.8579C39.3174 29.2666 36.3955 26.3447 32.8042 26.3447C29.2129 26.3447 26.291 29.2666 26.291 32.8579C26.291 36.4492 29.2129 39.3711 32.8042 39.3711ZM29.5156 37.2724C29.5764 35.8717 30.4916 34.6712 31.8442 34.2605C32.0366 34.2019 32.1758 34.0332 32.1963 33.8328C32.2168 33.6323 32.1147 33.4392 31.938 33.3428C31.3018 32.9963 30.9062 32.332 30.9062 31.6086C30.9062 30.5207 31.7915 29.6355 32.8794 29.6355C33.9673 29.6355 34.8525 30.5207 34.8525 31.6086C34.8525 32.3535 34.4385 33.0269 33.772 33.3662C33.5918 33.4575 33.4849 33.6482 33.5 33.8494C33.5151 34.0505 33.6499 34.2229 33.8413 34.2864C35.1479 34.7193 36.0326 35.9088 36.0929 37.2723C35.1735 37.9591 34.0375 38.3711 32.8042 38.3711C31.571 38.3711 30.435 37.9591 29.5156 37.2724ZM32.8042 27.3447C35.8442 27.3447 38.3174 29.8179 38.3174 32.8579C38.3174 34.2261 37.8134 35.4767 36.9853 36.4415C36.7186 35.2963 35.9988 34.3061 34.9819 33.7104C35.5322 33.1626 35.8525 32.4133 35.8525 31.6086C35.8525 29.9692 34.5185 28.6355 32.8794 28.6355C31.2402 28.6355 29.9062 29.9692 29.9062 31.6086C29.9062 32.3813 30.2056 33.1091 30.7212 33.6533C29.6508 34.2408 28.8959 35.254 28.6226 36.4411C27.7948 35.4764 27.291 34.2259 27.291 32.8579C27.291 29.8179 29.7642 27.3447 32.8042 27.3447Z" fill="#0D4F51"/>
<path d="M7.19482 39.3711C10.7861 39.3711 13.708 36.4492 13.708 32.8579C13.708 29.2666 10.7861 26.3447 7.19482 26.3447C3.60351 26.3447 0.681641 29.2666 0.681641 32.8579C0.681641 36.4492 3.60351 39.3711 7.19482 39.3711ZM3.90573 37.2721C3.96676 35.8717 4.88189 34.6711 6.23486 34.2605C6.42724 34.2019 6.5664 34.0332 6.58691 33.8328C6.60742 33.6323 6.50537 33.4392 6.32861 33.3428C5.69238 32.9963 5.29687 32.332 5.29687 31.6086C5.29687 30.5207 6.18213 29.6355 7.27 29.6355C8.3579 29.6355 9.24316 30.5207 9.24316 31.6086C9.24316 32.3533 8.8291 33.0269 8.1621 33.3662C7.98242 33.4578 7.87548 33.6484 7.89062 33.8496C7.90576 34.0508 8.04052 34.2229 8.23193 34.2864C9.53854 34.7193 10.4232 35.9088 10.4835 37.2723C9.56414 37.9591 8.4281 38.3711 7.19482 38.3711C5.96139 38.3711 4.82519 37.959 3.90573 37.2721ZM7.19482 27.3447C10.2349 27.3447 12.708 29.8179 12.708 32.8579C12.708 34.2261 12.2041 35.4767 11.376 36.4415C11.1092 35.2962 10.3893 34.3061 9.37206 33.7104C9.92285 33.1623 10.2432 32.4131 10.2432 31.6086C10.2432 29.9692 8.90917 28.6355 7.27 28.6355C5.63086 28.6355 4.29687 29.9692 4.29687 31.6086C4.29687 32.3813 4.59619 33.1091 5.11133 33.6533C4.04144 34.2407 3.28638 35.2538 3.01294 36.4407C2.18527 35.476 1.68164 34.2257 1.68164 32.8579C1.68164 29.8179 4.15478 27.3447 7.19482 27.3447Z" fill="#0D4F51"/>
<path d="M26.0817 1.41577C24.1774 0.476318 22.131 0 19.9996 0C17.8683 0 15.8219 0.476318 13.9176 1.41577C13.6701 1.53808 13.568 1.83789 13.6906 2.08545C13.8126 2.33325 14.1124 2.43481 14.36 2.31274C16.1256 1.44165 18.0231 0.999999 19.9996 0.999999C21.9762 0.999999 23.8737 1.44165 25.6393 2.31274C25.7106 2.34765 25.7858 2.36426 25.86 2.36426C26.0446 2.36426 26.2218 2.26196 26.3087 2.08545C26.4313 1.83789 26.3292 1.53808 26.0817 1.41577Z" fill="#0D4F51"/>
<path d="M1.41601 26.0812C1.50293 26.2577 1.68017 26.36 1.86474 26.36C1.93896 26.36 2.01416 26.3434 2.08545 26.3085C2.333 26.1862 2.43506 25.8864 2.3125 25.6388C1.44141 23.8734 0.999999 21.976 0.999999 19.9992C0.999999 18.0223 1.44141 16.1249 2.3125 14.3595C2.43506 14.1119 2.333 13.8121 2.08545 13.6898C1.83691 13.5687 1.53808 13.6698 1.41601 13.9171C0.476562 15.8214 0 17.8676 0 19.9992C0 22.1307 0.476562 24.1769 1.41601 26.0812Z" fill="#0D4F51"/>
<path d="M13.9176 38.584C15.8219 39.5235 17.8683 39.9998 19.9996 39.9998C22.131 39.9998 24.1774 39.5235 26.0817 38.584C26.3292 38.4617 26.4313 38.1619 26.3087 37.9143C26.1866 37.6668 25.8873 37.5657 25.6393 37.687C23.8737 38.5581 21.9762 38.9998 19.9996 38.9998C18.0231 38.9998 16.1256 38.5581 14.36 37.687C14.1119 37.5662 13.8126 37.667 13.6906 37.9143C13.568 38.1619 13.6701 38.4617 13.9176 38.584Z" fill="#0D4F51"/>
<path d="M38.5841 13.9172C38.4625 13.6699 38.1632 13.5686 37.9147 13.6899C37.6671 13.8123 37.5651 14.1121 37.6876 14.3596C38.5587 16.125 39.0001 18.0225 39.0001 19.9993C39.0001 21.9761 38.5587 23.8735 37.6876 25.6389C37.5651 25.8865 37.6671 26.1863 37.9147 26.3086C37.986 26.3435 38.0612 26.3601 38.1354 26.3601C38.32 26.3601 38.4972 26.2578 38.5841 26.0813C39.5236 24.177 40.0001 22.1308 40.0001 19.9993C40.0001 17.8677 39.5236 15.8215 38.5841 13.9172Z" fill="#0D4F51"/>
</svg>
