<svg width="50" height="51" viewBox="0 0 50 51" fill="none" xmlns="http://www.w3.org/2000/svg">
<path d="M24.5138 38.998H24.4993C24.4661 38.998 24.4327 38.998 24.4007 38.997C23.8274 38.9929 23.3653 38.5244 23.3695 37.9513C23.3736 37.3832 23.8389 36.9211 24.4069 36.9211H24.4152C24.4433 36.9211 24.4713 36.9211 24.4994 36.9211H24.5098C24.5108 36.9211 24.5108 36.9211 24.512 36.9211C25.0852 36.9211 25.5504 37.3862 25.5515 37.9585C25.5515 38.2358 25.4445 38.4965 25.2482 38.6926C25.0517 38.889 24.7911 38.998 24.5138 38.998ZM27.6343 38.6003C27.1618 38.6003 26.7486 38.2805 26.6301 37.8225C26.5605 37.5535 26.6 37.2742 26.7403 37.0354C26.8814 36.7955 27.1067 36.6263 27.3747 36.5567C27.4059 36.5484 27.4371 36.5401 27.4681 36.5318H27.4692C27.5575 36.5079 27.6478 36.4965 27.7381 36.4965C28.2066 36.4965 28.6187 36.8122 28.7402 37.2659C28.7641 37.3543 28.7755 37.4466 28.7755 37.538C28.7745 38.0053 28.4578 38.4165 28.006 38.538C27.9697 38.5475 27.9323 38.5577 27.896 38.5671C27.8099 38.5889 27.7216 38.6003 27.6343 38.6003ZM21.2884 38.5805C21.1981 38.5805 21.1088 38.5692 21.0205 38.5452C20.9842 38.5358 20.9468 38.5255 20.9104 38.5151C20.6436 38.4424 20.4203 38.2689 20.2832 38.027C20.1461 37.7862 20.1108 37.5057 20.1846 37.2388C20.3081 36.7891 20.7194 36.4755 21.1856 36.4755C21.278 36.4755 21.3715 36.488 21.4619 36.5128L21.4857 36.5191C21.5086 36.5254 21.5314 36.5316 21.5543 36.5378C22.007 36.6583 22.3249 37.0685 22.3269 37.5368C22.3269 37.6282 22.3144 37.7196 22.2916 37.8089C22.1701 38.2628 21.7578 38.5805 21.2884 38.5805ZM30.6499 37.377C30.2761 37.377 29.9303 37.1766 29.7466 36.8517C29.6095 36.6107 29.5742 36.3302 29.6479 36.0635C29.7216 35.7955 29.8951 35.5732 30.136 35.4362C30.1578 35.4238 30.1785 35.4113 30.2003 35.3988L30.2191 35.3885C30.3778 35.2959 30.5576 35.2482 30.7393 35.2482C31.109 35.2482 31.4538 35.4465 31.6386 35.7653C31.73 35.9232 31.7778 36.1007 31.7788 36.2814C31.7798 36.6532 31.5816 36.999 31.2606 37.1849L31.2317 37.2025C31.2078 37.215 31.1849 37.2285 31.1621 37.242C31.0062 37.3303 30.8286 37.377 30.6499 37.377ZM18.2801 37.3386C18.0994 37.3386 17.9197 37.2898 17.7619 37.1994L17.7598 37.1974C17.7276 37.1786 17.6954 37.1609 17.6632 37.1413C17.17 36.8515 17.0048 36.2138 17.2946 35.7196C17.4805 35.4039 17.8242 35.2077 18.1907 35.2077C18.3756 35.2077 18.5573 35.2574 18.7162 35.352C18.7442 35.3676 18.7723 35.3843 18.8003 35.3998L18.8014 35.4008C19.1212 35.5867 19.3206 35.9315 19.3195 36.3023C19.3195 36.483 19.2718 36.6616 19.1804 36.8184C18.9955 37.1392 18.6508 37.3386 18.2801 37.3386ZM33.243 35.4154C32.9626 35.4154 32.6999 35.3053 32.5025 35.1059C32.3084 34.9087 32.2024 34.6469 32.2046 34.3696C32.2066 34.0924 32.3167 33.8317 32.5139 33.6375C32.5368 33.6147 32.5596 33.5918 32.5825 33.569C32.5825 33.569 32.5825 33.569 32.5835 33.569C32.7787 33.3727 33.0395 33.2647 33.3167 33.2647C33.594 33.2647 33.8547 33.3727 34.0508 33.5679C34.2472 33.7642 34.3552 34.0248 34.3552 34.3021C34.3562 34.5794 34.2482 34.841 34.052 35.0373C34.0249 35.0632 33.9979 35.0903 33.971 35.1173C33.7757 35.3093 33.5172 35.4154 33.243 35.4154ZM15.6995 35.3593C15.4223 35.3593 15.1626 35.2523 14.9664 35.0571C14.9664 35.0571 14.9664 35.0571 14.9653 35.056C14.9622 35.0529 14.9581 35.0488 14.9539 35.0446C14.9311 35.0218 14.9082 34.999 14.8854 34.975C14.4835 34.568 14.4887 33.9085 14.8958 33.5067C15.091 33.3144 15.3506 33.2076 15.6247 33.2076C15.9051 33.2076 16.1679 33.3177 16.3641 33.5169C16.387 33.5398 16.4098 33.5626 16.4327 33.5855C16.6289 33.7818 16.7369 34.0424 16.7369 34.3197C16.738 34.5969 16.63 34.8576 16.4347 35.0538C16.2385 35.2513 15.9768 35.3593 15.6995 35.3593ZM35.2431 32.8514C35.0582 32.8514 34.8765 32.8017 34.7175 32.7081C34.4776 32.5669 34.3085 32.3415 34.2389 32.0736C34.1693 31.8046 34.2088 31.5254 34.349 31.2865C34.3656 31.2584 34.3822 31.2305 34.3978 31.2034C34.5826 30.8825 34.9284 30.6831 35.2982 30.6831C35.4799 30.6831 35.6585 30.7319 35.8163 30.8234C36.1383 31.0081 36.3367 31.3539 36.3355 31.7248C36.3355 31.9055 36.2877 32.0841 36.1964 32.2419C36.1777 32.2752 36.1579 32.3073 36.1392 32.3406C35.9534 32.6562 35.6096 32.8514 35.2431 32.8514ZM13.7161 32.7827H13.715C13.3464 32.7827 13.0016 32.5855 12.8158 32.2666L12.8023 32.2417C12.7877 32.2169 12.7742 32.1919 12.7597 32.1669C12.6226 31.926 12.5873 31.6456 12.661 31.3787C12.7337 31.1108 12.9071 30.8886 13.1481 30.7515C13.3049 30.6622 13.4824 30.6144 13.661 30.6144C14.0339 30.6144 14.3807 30.8159 14.5645 31.14C14.578 31.1629 14.5915 31.1867 14.604 31.2096L14.6123 31.2231C14.6123 31.2241 14.6123 31.2241 14.6133 31.2241C14.7036 31.3809 14.7525 31.5595 14.7525 31.7392C14.7545 32.111 14.5562 32.4568 14.2353 32.6427C14.0775 32.7351 13.8978 32.7827 13.7161 32.7827ZM36.5141 29.8565C36.4207 29.8565 36.3282 29.844 36.2379 29.8191C35.6854 29.6664 35.3604 29.0933 35.512 28.5418C35.5214 28.5106 35.5297 28.4795 35.538 28.4484C35.6584 27.9946 36.0707 27.6779 36.5401 27.6779C36.6303 27.6779 36.7207 27.6892 36.808 27.7132C37.2607 27.8337 37.5774 28.2437 37.5796 28.711C37.5796 28.8036 37.5681 28.8949 37.5443 28.9831C37.5349 29.0205 37.5245 29.0569 37.5141 29.0932C37.3906 29.5429 36.9793 29.8565 36.5141 29.8565ZM12.4637 29.7807C11.9964 29.7807 11.5842 29.466 11.4627 29.0131C11.4616 29.0131 11.4616 29.0121 11.4616 29.0121C11.4595 29.0059 11.4585 29.0007 11.4575 28.9944C11.4492 28.9633 11.4409 28.9332 11.4325 28.902C11.363 28.633 11.4014 28.3537 11.5426 28.1149C11.6828 27.8749 11.9082 27.7057 12.1761 27.6351C12.2623 27.6133 12.3505 27.6019 12.4388 27.6019C12.9103 27.6019 13.3236 27.9217 13.443 28.3797C13.4502 28.4108 13.4586 28.442 13.4679 28.473V28.4742C13.4918 28.5634 13.5032 28.6537 13.5032 28.7451C13.5022 29.2124 13.1865 29.6236 12.7337 29.7451C12.6454 29.7692 12.5541 29.7807 12.4637 29.7807ZM36.9607 26.6352H36.9523C36.6751 26.633 36.4144 26.523 36.2202 26.3247C36.0261 26.1274 35.92 25.8657 35.9222 25.5884C35.9222 25.5583 35.9222 25.5282 35.9222 25.498V25.4929C35.9222 25.4929 35.9222 25.4929 35.9222 25.4917V25.4855C35.9222 25.4824 35.9222 25.4803 35.9222 25.4782L35.9243 25.4273V25.4263L35.9306 25.4118H35.9254L35.9265 25.3993C35.9265 25.3993 35.9265 25.3993 35.9265 25.3983C35.9493 25.1418 36.0656 24.9039 36.2557 24.7284C36.4478 24.5519 36.696 24.4532 36.9566 24.4532H36.9597C37.4281 24.4532 37.8402 24.7669 37.9628 25.2176C37.9639 25.2217 37.9649 25.2248 37.9649 25.2279L37.9712 25.2498C37.9712 25.2518 37.9723 25.2539 37.9723 25.2561C37.9733 25.2582 37.9733 25.2592 37.9733 25.2613L37.9775 25.282C37.9785 25.2831 37.9785 25.2841 37.9785 25.2852C37.9796 25.2872 37.9796 25.2914 37.9806 25.2945L37.9827 25.307C37.9827 25.308 37.9827 25.308 37.9827 25.309L37.9848 25.3195C37.9848 25.3206 37.9848 25.3216 37.9848 25.3216L37.9879 25.3341V25.3362L37.9889 25.3456C37.9889 25.3466 37.9889 25.3477 37.9889 25.3477L37.992 25.3716V25.3726L37.9942 25.3851V25.3861C37.9953 25.3944 37.9953 25.4027 37.9963 25.411V25.4131C37.9963 25.4173 37.9973 25.4204 37.9973 25.4245L37.9985 25.438C37.9985 25.4391 37.9985 25.4391 37.9985 25.4401L37.9995 25.4692C37.9995 25.4723 37.9995 25.4744 37.9995 25.4775V25.4827C37.9995 25.4858 37.9995 25.4879 37.9995 25.491V25.498C37.9995 25.5334 37.9995 25.5687 37.9995 25.604C37.9939 26.173 37.5287 26.6352 36.9607 26.6352ZM12.04 26.5562H12.038C11.4658 26.5562 11.0006 26.092 10.9995 25.5199V25.498C10.9995 25.4669 10.9995 25.4368 10.9995 25.4067C11.0037 24.8376 11.4689 24.3744 12.038 24.3744H12.0452C12.3225 24.3765 12.5821 24.4866 12.7773 24.6839C12.9726 24.8812 13.0785 25.1429 13.0764 25.4202C13.0764 25.4461 13.0764 25.4721 13.0764 25.498V25.5167C13.0774 26.0889 12.6122 26.5562 12.04 26.5562ZM36.564 23.4066C36.0904 23.4066 35.6782 23.0867 35.5588 22.6288C35.5504 22.5976 35.5432 22.5665 35.5349 22.5353C35.5111 22.446 35.4985 22.3546 35.4985 22.2632C35.5006 21.7959 35.8173 21.3847 36.269 21.2632C36.3573 21.2404 36.4477 21.2279 36.538 21.2279C37.0075 21.2279 37.4196 21.5446 37.5401 21.9984C37.5505 22.0348 37.5597 22.0711 37.5691 22.1085C37.6388 22.3764 37.6003 22.6568 37.459 22.8957C37.3178 23.1345 37.0924 23.3038 36.8245 23.3734C36.7383 23.3962 36.6512 23.4066 36.564 23.4066ZM12.4544 23.3318C12.3651 23.3318 12.2747 23.3204 12.1875 23.2965C11.7347 23.1771 11.418 22.7659 11.4149 22.2985C11.4149 22.2072 11.4263 22.1158 11.4502 22.0265C11.4585 21.9943 11.4679 21.9621 11.4762 21.9299L11.4803 21.9164C11.6039 21.4667 12.0151 21.1531 12.4814 21.1531C12.5738 21.1531 12.6662 21.1656 12.7566 21.1895C13.308 21.3421 13.634 21.9143 13.4824 22.4668C13.4741 22.4968 13.4658 22.528 13.4575 22.5592C13.3371 23.014 12.9248 23.3318 12.4544 23.3318ZM35.3438 20.393C34.971 20.393 34.6242 20.1915 34.4403 19.8665C34.431 19.8499 34.4207 19.8322 34.4114 19.8156L34.3926 19.7834C34.3012 19.6266 34.2534 19.448 34.2524 19.2673C34.2513 18.8955 34.4496 18.5497 34.7706 18.3638C34.9284 18.2724 35.1081 18.2247 35.2898 18.2247C35.6595 18.2247 36.0042 18.423 36.1901 18.7429C36.2036 18.7657 36.2161 18.7896 36.2296 18.8124L36.2462 18.8415C36.5287 19.3389 36.3542 19.9745 35.8556 20.2569C35.6999 20.3452 35.5223 20.393 35.3438 20.393ZM13.6932 20.3244C13.5126 20.3244 13.3339 20.2767 13.1761 20.1853C12.8552 20.0004 12.6558 19.6546 12.6558 19.2839C12.6558 19.1032 12.7036 18.9246 12.795 18.7678C12.8137 18.7345 12.8334 18.7013 12.8521 18.6681C13.038 18.3524 13.3817 18.1561 13.7483 18.1561C13.9321 18.1561 14.1138 18.206 14.2737 18.2994C14.5126 18.4396 14.6829 18.665 14.7525 18.9329C14.822 19.2019 14.7836 19.4812 14.6424 19.7211L14.633 19.7367C14.6206 19.7595 14.6071 19.7813 14.5946 19.8042C14.4098 20.125 14.064 20.3244 13.6932 20.3244ZM33.3832 17.7979C33.1028 17.7979 32.8391 17.6878 32.6428 17.4874C32.6314 17.4749 32.6189 17.4635 32.6063 17.451C32.596 17.4406 32.5857 17.4292 32.5752 17.4188C32.3789 17.2236 32.2709 16.9619 32.2709 16.6846C32.2709 16.4074 32.3789 16.1467 32.5742 15.9504C32.7704 15.7542 33.0311 15.6462 33.3094 15.6462C33.5866 15.6462 33.8473 15.7542 34.0425 15.9504C34.0696 15.9774 34.0966 16.0044 34.1235 16.0314C34.3177 16.2287 34.4236 16.4904 34.4215 16.7677C34.4195 17.045 34.3094 17.3056 34.1111 17.4998C33.9159 17.6919 33.6573 17.7979 33.3832 17.7979ZM15.6715 17.7407C15.3953 17.7407 15.1346 17.6338 14.9383 17.4385C14.7421 17.2423 14.6341 16.9816 14.633 16.7044C14.633 16.4271 14.74 16.1664 14.9363 15.9691C14.9633 15.9421 14.9892 15.9162 15.0173 15.8892C15.2125 15.696 15.4711 15.5901 15.7462 15.5901C16.0266 15.5901 16.2883 15.6991 16.4856 15.8985C16.8875 16.3066 16.8833 16.965 16.4752 17.3679C16.4524 17.3897 16.4295 17.4126 16.4067 17.4354C16.2115 17.6327 15.9498 17.7407 15.6715 17.7407ZM30.8192 15.7947C30.6344 15.7947 30.4527 15.7448 30.2928 15.6503L30.2814 15.6441C30.2576 15.6306 30.2336 15.616 30.2087 15.6025C29.8888 15.4167 29.6895 15.0709 29.6906 14.7001C29.6906 14.5194 29.7394 14.3408 29.8308 14.183C30.0156 13.8631 30.3604 13.6648 30.7301 13.6648C30.9118 13.6648 31.0914 13.7125 31.2493 13.8039C31.2824 13.8237 31.3147 13.8424 31.348 13.8621C31.5868 14.0023 31.7561 14.2287 31.8256 14.4966C31.8952 14.7655 31.8558 15.0449 31.7145 15.2836C31.5284 15.5994 31.1859 15.7947 30.8192 15.7947ZM18.2479 15.7552C17.8782 15.7552 17.5345 15.5569 17.3486 15.238C17.2572 15.0812 17.2094 14.9026 17.2084 14.7219C17.2063 14.3512 17.4046 14.0044 17.7245 13.8185L17.8231 13.7614C17.9799 13.672 18.1575 13.6253 18.3372 13.6253C18.7089 13.6253 19.0558 13.8257 19.2396 14.1497C19.5231 14.6472 19.3497 15.2827 18.8522 15.5662C18.8252 15.5807 18.7993 15.5963 18.7733 15.6109L18.7692 15.614C18.7692 15.614 18.7692 15.614 18.7681 15.614C18.6103 15.7064 18.4296 15.7552 18.2479 15.7552ZM27.8254 14.5236C27.7329 14.5236 27.6396 14.5111 27.5492 14.4862C27.518 14.4779 27.4868 14.4696 27.4567 14.4613C27.4557 14.4613 27.4557 14.4613 27.4557 14.4613C27.0029 14.3398 26.6862 13.9296 26.6851 13.4612C26.6851 13.3709 26.6966 13.2795 26.7204 13.1902C26.8419 12.7364 27.2543 12.4186 27.7236 12.4186C27.8129 12.4186 27.9032 12.4311 27.9915 12.455C28.0289 12.4643 28.0652 12.4747 28.1016 12.484C28.3695 12.5578 28.5918 12.7322 28.7288 12.9732C28.8659 13.2141 28.9001 13.4945 28.8264 13.7614C28.7019 14.211 28.2907 14.5236 27.8254 14.5236ZM21.2479 14.5039C20.7796 14.5039 20.3673 14.1871 20.2458 13.7354C20.2219 13.6461 20.2095 13.5547 20.2095 13.4633C20.2105 12.996 20.5262 12.5837 20.9779 12.4622L20.9935 12.4581C21.0247 12.4498 21.0569 12.4415 21.088 12.4332C21.1742 12.4103 21.2625 12.3989 21.3507 12.3989C21.8232 12.3989 22.2355 12.7187 22.3549 13.1757C22.4993 13.7302 22.1659 14.2982 21.6114 14.4426C21.5802 14.4509 21.5491 14.4592 21.519 14.4675C21.4297 14.4914 21.3383 14.5039 21.2479 14.5039ZM24.6042 14.075H24.5793C24.5523 14.075 24.5263 14.075 24.4993 14.075H24.4723C23.9012 14.075 23.4349 13.6097 23.4339 13.0386C23.4328 12.7613 23.5408 12.5007 23.736 12.3034C23.9323 12.1071 24.193 11.9991 24.4702 11.998H24.4993C24.5366 11.998 24.575 11.998 24.6125 11.998C25.1857 12.0032 25.6478 12.4726 25.6426 13.0459C25.6385 13.6139 25.1721 14.075 24.6042 14.075Z" fill="#FF2640"/>
<path d="M25.2217 9.99805C24.7922 9.99805 24.444 9.66226 24.444 9.24804V3.248L21.244 5.5623C20.9002 5.81077 20.4128 5.74359 20.1551 5.4123C19.8974 5.08091 19.967 4.61087 20.3106 4.3623L24.7551 1.14799C24.9908 0.977633 25.3061 0.950204 25.5696 1.07717C25.8331 1.20424 25.9995 1.46396 25.9995 1.748V9.24804C25.9995 9.66226 25.6513 9.99805 25.2217 9.99805Z" fill="#FF2640"/>
<path d="M29.2211 5.99805C29.0587 5.99805 28.8949 5.94623 28.755 5.83896L24.3106 2.42991C23.967 2.16627 23.8974 1.66764 24.1551 1.31628C24.4129 0.964696 24.9004 0.893674 25.244 1.15719L29.6884 4.56625C30.032 4.82988 30.1017 5.32851 29.8438 5.67987C29.6911 5.88828 29.4576 5.99805 29.2211 5.99805Z" fill="#FF2640"/>
<path d="M25.2218 50.998C25.0565 50.998 24.8923 50.9473 24.7551 50.848L20.3106 47.6338C19.967 47.3853 19.8974 46.9152 20.1551 46.5838C20.4128 46.2525 20.9003 46.185 21.244 46.4339L24.444 48.748V42.748C24.444 42.3338 24.7922 41.998 25.2217 41.998C25.6513 41.998 25.9995 42.3338 25.9995 42.748V50.248C25.9995 50.5321 25.8331 50.7918 25.5696 50.9189C25.4595 50.9719 25.3403 50.998 25.2218 50.998Z" fill="#FF2640"/>
<path d="M24.7779 50.998C24.5414 50.998 24.308 50.8883 24.1551 50.6799C23.8974 50.3284 23.967 49.8299 24.3106 49.5662L28.755 46.1572C29.0989 45.8937 29.5861 45.9647 29.8439 46.3161C30.1017 46.6676 30.032 47.1661 29.6884 47.4298L25.2441 50.8388C25.104 50.9462 24.9403 50.998 24.7779 50.998Z" fill="#FF2640"/>
<path d="M36.7712 13.998C36.5738 13.998 36.3762 13.9302 36.2255 13.7947C35.9243 13.5236 35.9243 13.0839 36.2255 12.8128L40.5909 8.88489L36.6621 8.3799C36.2402 8.32564 35.9471 7.9739 36.0074 7.59438C36.0677 7.21457 36.4588 6.95071 36.8805 7.00517L42.337 7.70657C42.6263 7.74376 42.8676 7.92489 42.9599 8.17437C43.0523 8.42384 42.9801 8.6989 42.7736 8.88489L37.317 13.7948C37.1662 13.9302 36.9687 13.998 36.7712 13.998Z" fill="#FF2640"/>
<path d="M42.3343 14.998C42.0089 14.998 41.7247 14.7203 41.6774 14.3354L41.0063 8.87892C40.9544 8.45704 41.2067 8.06614 41.5699 8.00595C41.9338 7.94543 42.2697 8.23888 42.3216 8.66076L42.9927 14.1173C43.0447 14.5391 42.7923 14.93 42.4291 14.9902C42.3972 14.9954 42.3655 14.998 42.3343 14.998Z" fill="#FF2640"/>
<path d="M7.3952 43.998C7.3217 43.998 7.2477 43.9851 7.17578 43.9585C6.92621 43.8661 6.74518 43.6249 6.70798 43.3356L6.00658 37.879C5.95232 37.4571 6.21618 37.0662 6.5958 37.0059C6.97531 36.9455 7.32715 37.2389 7.38131 37.6606L7.88631 41.5894L11.8142 37.2242C12.0853 36.9228 12.525 36.9229 12.7961 37.2241C13.0673 37.5255 13.0673 38.0141 12.7961 38.3153L7.88631 43.7719C7.75398 43.9191 7.57653 43.998 7.3952 43.998Z" fill="#FF2640"/>
<path d="M13.2288 43.998C13.1924 43.998 13.1557 43.9959 13.1187 43.9913L7.66219 43.3202C7.2403 43.2683 6.94707 42.9317 7.00737 42.5684C7.06767 42.2052 7.45913 41.9531 7.88035 42.0048L13.3368 42.6759C13.7587 42.7278 14.052 43.0644 13.9917 43.4276C13.9368 43.759 13.6066 43.998 13.2288 43.998Z" fill="#FF2640"/>
<path d="M49.2496 26.998H41.7495C41.3353 26.998 40.9995 26.6498 40.9995 26.2203C40.9995 25.7907 41.3353 25.4425 41.7495 25.4425H47.7496L45.4353 22.2425C45.1867 21.8988 45.2539 21.4114 45.5852 21.1536C45.917 20.8958 46.3867 20.9657 46.6352 21.3092L49.8495 25.7536C50.02 25.9893 50.0474 26.3046 49.9203 26.5682C49.7933 26.8316 49.5336 26.998 49.2496 26.998Z" fill="#FF2640"/>
<path d="M45.7944 30.998C45.6283 30.998 45.4608 30.9475 45.3177 30.8425C44.9663 30.5848 44.895 30.0973 45.1588 29.7536L48.5677 25.3092C48.8312 24.9656 49.3297 24.8959 49.6813 25.1537C50.0328 25.4114 50.104 25.899 49.8403 26.2425L46.4313 30.6869C46.2751 30.8906 46.0362 30.998 45.7944 30.998Z" fill="#FF2640"/>
<path d="M8.24951 26.998H0.749532C0.465497 26.998 0.205783 26.8316 0.0787119 26.5682C-0.0483592 26.3046 -0.0209308 25.9893 0.149533 25.7536L3.36381 21.3092C3.61227 20.9656 4.08231 20.8959 4.41381 21.1537C4.7452 21.4114 4.81227 21.899 4.56381 22.2425L2.24953 25.4425H8.24951C8.66373 25.4425 8.99951 25.7907 8.99951 26.2203C8.99951 26.6498 8.66373 26.998 8.24951 26.998Z" fill="#FF2640"/>
<path d="M4.20461 30.998C3.96279 30.998 3.72393 30.8907 3.56768 30.6869L0.158626 26.2425C-0.104894 25.8989 -0.0337588 25.4114 0.317715 25.1537C0.669189 24.8959 1.16771 24.9656 1.43134 25.3092L4.8404 29.7536C5.10392 30.0973 5.03278 30.5847 4.68131 30.8425C4.53824 30.9474 4.37074 30.998 4.20461 30.998Z" fill="#FF2640"/>
<path d="M41.6037 43.998C41.4225 43.998 41.245 43.9191 41.1126 43.7719L36.2028 38.3153C35.9317 38.014 35.9317 37.5254 36.2029 37.224C36.4741 36.9229 36.9138 36.923 37.1848 37.2241L41.1127 41.5894L41.6177 37.6606C41.672 37.2386 42.024 36.9458 42.4033 37.0059C42.7829 37.0662 43.0467 37.4571 42.9924 37.879L42.291 43.3356C42.2538 43.6249 42.0727 43.8662 41.8232 43.9585C41.7512 43.9851 41.6771 43.998 41.6037 43.998Z" fill="#FF2640"/>
<path d="M36.7703 43.998C36.3924 43.998 36.0624 43.7589 36.0074 43.4276C35.9471 43.0644 36.2402 42.7279 36.6621 42.676L42.1186 42.0049C42.5412 41.9526 42.9313 42.2054 42.9917 42.5685C43.052 42.9317 42.7588 43.2682 42.3369 43.3202L36.8805 43.9912C36.8434 43.9959 36.8066 43.998 36.7703 43.998Z" fill="#FF2640"/>
<path d="M13.2278 13.998C13.0302 13.998 12.8328 13.9303 12.6821 13.7947L7.22553 8.88483C7.01883 8.69885 6.94673 8.42378 7.03912 8.17431C7.1315 7.92474 7.3727 7.74371 7.66208 7.70652L13.1187 7.00512C13.54 6.95086 13.9315 7.21462 13.9917 7.59433C14.052 7.97394 13.7587 8.32568 13.3368 8.37984L9.40807 8.88483L13.7734 12.8127C14.0748 13.0839 14.0748 13.5235 13.7734 13.7946C13.6228 13.9302 13.4252 13.998 13.2278 13.998Z" fill="#FF2640"/>
<path d="M6.66486 14.998C6.63354 14.998 6.60193 14.9955 6.57004 14.9902C6.20682 14.9299 5.95436 14.539 6.00628 14.1172L6.67739 8.66065C6.7293 8.23877 7.06633 7.94586 7.42898 8.00583C7.7922 8.06613 8.04466 8.45693 7.99275 8.87881L7.32164 14.3354C7.27437 14.7202 6.99012 14.998 6.66486 14.998Z" fill="#FF2640"/>
<path d="M25.2429 32.998C25.1625 32.998 25.0818 32.9856 25.0036 32.9601L18.517 30.8447C18.2079 30.7439 17.9995 30.461 17.9995 30.1423V22.7385C17.9995 22.5005 18.1165 22.277 18.3138 22.1379C18.5111 21.9988 18.7648 21.9607 18.9955 22.0361L25.4821 24.1515C25.7911 24.2523 25.9995 24.5351 25.9995 24.8539V32.2577C25.9995 32.4956 25.8825 32.7191 25.6852 32.8583C25.5549 32.9503 25.3996 32.998 25.2429 32.998ZM19.513 29.6087L24.4861 31.2304V25.3875L19.513 23.7657V29.6087Z" fill="#FF2640"/>
<path d="M24.7564 32.998C24.5994 32.998 24.4443 32.9503 24.3138 32.8583C24.1165 32.7191 23.9995 32.4956 23.9995 32.2577V24.8539C23.9995 24.5352 24.2079 24.2523 24.517 24.1515L31.0035 22.0361C31.2344 21.9607 31.4879 21.9987 31.6853 22.1379C31.8825 22.2771 31.9995 22.5006 31.9995 22.7385V30.1423C31.9995 30.461 31.7911 30.7439 31.4821 30.8447L24.9956 32.9601C24.9175 32.9856 24.8366 32.998 24.7564 32.998ZM25.513 25.3875V31.2304L30.486 29.6087V23.7658L25.513 25.3875Z" fill="#FF2640"/>
<path d="M31.2428 23.998C31.1636 23.998 31.0828 23.9844 31.0034 23.9556L24.5171 21.6029C24.1206 21.4592 23.9064 20.9928 24.0386 20.5614C24.1707 20.1301 24.5993 19.8965 24.9957 20.0407L31.4819 22.3933C31.8783 22.5371 32.0926 23.0035 31.9605 23.4348C31.8549 23.7798 31.5597 23.998 31.2428 23.998Z" fill="#FF2640"/>
<path d="M18.7564 23.998C18.4395 23.998 18.1443 23.7798 18.0386 23.4347C17.9064 23.0034 18.1206 22.537 18.5171 22.3932L25.0033 20.0407C25.3997 19.8965 25.8284 20.13 25.9605 20.5614C26.0927 20.9928 25.8783 21.4592 25.4819 21.6029L18.9957 23.9555C18.9164 23.9844 18.8356 23.998 18.7564 23.998Z" fill="#FF2640"/>
</svg>
