<svg width="26" height="38" viewBox="0 0 26 38" fill="none" xmlns="http://www.w3.org/2000/svg">
<path d="M10.416 11.4756C9.91763 11.4756 9.51367 11.8734 9.51367 12.3641C9.51367 12.8548 9.91763 13.2526 10.416 13.2526C10.9142 13.2526 11.3182 12.8548 11.3182 12.3641C11.3182 11.8734 10.9142 11.4756 10.416 11.4756Z" fill="#4893FF"/>
<path d="M15.83 13.2526C16.3283 13.2526 16.7322 12.8548 16.7322 12.3641C16.7322 11.8734 16.3283 11.4756 15.83 11.4756C15.3317 11.4756 14.9277 11.8734 14.9277 12.3641C14.9277 12.8548 15.3317 13.2526 15.83 13.2526Z" fill="#4893FF"/>
<path d="M14.9273 15.918H11.3184C11.3184 16.8993 12.1262 17.6949 13.1228 17.6949C14.1194 17.6949 14.9273 16.8993 14.9273 15.918Z" fill="#4893FF"/>
<path d="M14.4801 6.80957C14.4691 6.84042 14.4524 6.8683 14.4404 6.89869L14.5525 6.85061C14.529 6.83588 14.5031 6.8249 14.4801 6.80957Z" fill="#4893FF"/>
<path d="M1.39371 38H24.8524C25.278 38 25.623 37.6606 25.623 37.2411V29.9493C25.623 28.4686 25.0596 27.0722 24.0648 25.9936C24.1173 25.7634 24.0634 25.5212 23.9079 25.3388L20.6491 21.5198C20.4639 21.3034 20.1701 21.207 19.892 21.2671L16.7982 21.9442C16.7972 21.9398 16.7988 21.9355 16.7976 21.9311L16.5775 21.0648C16.5757 21.0576 16.5703 21.0527 16.5682 21.0456C18.4175 19.9345 19.7251 17.962 19.9646 15.6588C19.997 15.6629 20.0256 15.6776 20.059 15.6776C21.4788 15.6776 22.6341 14.54 22.6341 13.1415C22.6341 11.7437 21.4788 10.6061 20.059 10.6061C20.0402 10.6061 20.0245 10.6153 20.006 10.6166V7.32538L22.7157 5.99118C22.9769 5.86223 23.1417 5.59987 23.1417 5.31232C23.1417 5.02477 22.9769 4.76241 22.7157 4.63346L13.4677 0.0800406C13.251 -0.0266802 12.9951 -0.0266802 12.7784 0.0800406L3.53036 4.63346C3.2692 4.76241 3.10438 5.02477 3.10438 5.31232C3.10438 5.59987 3.2692 5.86223 3.53036 5.99118L6.13399 7.27313V10.762C6.06052 10.7391 5.98634 10.7165 5.9052 10.7165C4.48503 10.7165 3.32979 11.8542 3.32979 13.2526C3.32979 14.6511 4.48503 15.7887 5.9052 15.7887C6.00492 15.7887 6.09885 15.7668 6.18634 15.7329C6.45032 18.0408 7.78323 20.012 9.65942 21.1008L9.44846 21.9311C9.44733 21.9355 9.44888 21.9398 9.44785 21.9442L6.35413 21.2671C6.07453 21.2063 5.78177 21.3034 5.59701 21.5198L2.33861 25.3388C2.1831 25.5211 2.12924 25.7631 2.18155 25.9933C1.18661 27.0719 0.623047 28.4685 0.623047 29.9493V37.2411C0.623047 37.6606 0.968116 38 1.39371 38ZM20.059 12.1239C20.6291 12.1239 21.0927 12.5805 21.0927 13.1415C21.0927 13.7032 20.6291 14.1598 20.059 14.1598C20.0402 14.1598 20.0245 14.169 20.006 14.1703V12.1134C20.0245 12.1147 20.0402 12.1239 20.059 12.1239ZM13.123 1.60748L20.648 5.31232L19.0195 6.11407C18.9352 6.13876 18.8606 6.17683 18.7911 6.22654L13.123 9.01716L5.59814 5.31232L13.123 1.60748ZM4.87112 13.2526C4.87112 12.6909 5.3351 12.2343 5.9052 12.2343C5.98634 12.2343 6.06052 12.2117 6.13399 12.1889V14.3164C6.06052 14.2935 5.98634 14.2709 5.9052 14.2709C5.3351 14.2709 4.87112 13.8144 4.87112 13.2526ZM7.67532 14.8927V8.03203L12.7784 10.5446C12.8867 10.598 13.0049 10.6246 13.123 10.6246C13.2412 10.6246 13.3594 10.598 13.4677 10.5446L18.4647 8.08428V14.8927C18.4647 17.9795 16.0721 20.4904 13.1309 20.4904H13.009C10.0679 20.4904 7.67532 17.9795 7.67532 14.8927ZM11.0911 21.7209C11.7006 21.9046 12.3429 22.0082 13.009 22.0082H13.1309C13.8328 22.0082 14.5099 21.8976 15.1483 21.6944L15.2953 22.2731L13.123 22.7486L10.9507 22.2731L11.0911 21.7209ZM6.47642 22.8486L12.956 24.2671C13.0658 24.2908 13.1802 24.2908 13.2901 24.2671L19.7697 22.8486L21.9688 25.4262L15.6593 27.2479L13.6709 25.2691C13.5261 25.1246 13.3289 25.0438 13.123 25.0438C12.9172 25.0438 12.72 25.1246 12.5752 25.2691L10.5868 27.2479L4.27769 25.4262L6.47642 22.8486ZM2.16438 29.9493C2.16438 28.7475 2.66166 27.6196 3.53459 26.7933L10.5943 28.8324C10.6658 28.8524 10.7384 28.8628 10.811 28.8628C11.0139 28.8628 11.2122 28.7835 11.3589 28.6375L13.123 26.8818L14.8871 28.6375C15.0862 28.8354 15.3797 28.9087 15.6518 28.8324L22.7116 26.7934C23.5845 27.6198 24.0817 28.7476 24.0817 29.9493V36.4822H21.1116V31.0224C21.1116 30.6029 20.7665 30.2635 20.3409 30.2635C19.9153 30.2635 19.5702 30.6029 19.5702 31.0224V36.4822H13.8937V32.6328C13.8937 32.2134 13.5486 31.8739 13.123 31.8739C12.6974 31.8739 12.3524 32.2134 12.3524 32.6328V36.4822H6.67586V31.0224C6.67586 30.6029 6.3308 30.2635 5.9052 30.2635C5.4796 30.2635 5.13453 30.6029 5.13453 31.0224V36.4822H2.16438V29.9493Z" fill="#4893FF"/>
<path d="M13.1232 31.1147C13.5488 31.1147 13.8939 30.7753 13.8939 30.3558V28.838C13.8939 28.4185 13.5488 28.0791 13.1232 28.0791C12.6976 28.0791 12.3525 28.4185 12.3525 28.838V30.3558C12.3525 30.7753 12.6976 31.1147 13.1232 31.1147Z" fill="#4893FF"/>
</svg>
