<svg width="50" height="50" viewBox="0 0 50 50" fill="none" xmlns="http://www.w3.org/2000/svg">
<path d="M12.4994 13.2808V12.4996C12.4994 9.97457 10.9916 7.79957 8.83142 6.81442C9.63689 6.09801 10.1556 5.06598 10.1556 3.90582C10.1556 1.75192 8.4033 -0.000427246 6.24939 -0.000427246C4.09548 -0.000427246 2.34314 1.75192 2.34314 3.90582C2.34314 5.06598 2.86189 6.09801 3.66736 6.81442C1.5072 7.79957 -0.000610352 9.97457 -0.000610352 12.4996V13.2808C-0.000610352 13.7129 0.34939 14.0621 0.78064 14.0621H11.7181C12.1494 14.0621 12.4994 13.7129 12.4994 13.2808ZM3.90564 3.90582C3.90564 2.61364 4.9572 1.56207 6.24939 1.56207C7.54158 1.56207 8.59314 2.61364 8.59314 3.90582C8.59314 5.19801 7.54158 6.24957 6.24939 6.24957C4.9572 6.24957 3.90564 5.19801 3.90564 3.90582ZM1.56189 12.4996C1.56189 9.91442 3.66423 7.81207 6.24939 7.81207C8.83455 7.81207 10.9369 9.91442 10.9369 12.4996H1.56189Z" fill="#FF2640"/>
<path d="M46.3314 42.7519C47.1369 42.0355 47.6556 41.0035 47.6556 39.8433C47.6556 37.6894 45.9033 35.9371 43.7494 35.9371C41.5955 35.9371 39.8431 37.6894 39.8431 39.8433C39.8431 41.0035 40.3619 42.0355 41.1674 42.7519C39.0072 43.7371 37.4994 45.9121 37.4994 48.4371V49.2183C37.4994 49.6504 37.8494 49.9996 38.2806 49.9996H49.2181C49.6494 49.9996 49.9994 49.6504 49.9994 49.2183V48.4371C49.9994 45.9121 48.4916 43.7371 46.3314 42.7519ZM41.4056 39.8433C41.4056 38.5511 42.4572 37.4996 43.7494 37.4996C45.0416 37.4996 46.0931 38.5511 46.0931 39.8433C46.0931 41.1355 45.0416 42.1871 43.7494 42.1871C42.4572 42.1871 41.4056 41.1355 41.4056 39.8433ZM39.0619 48.4371C39.0619 45.8519 41.1642 43.7496 43.7494 43.7496C46.3345 43.7496 48.4369 45.8519 48.4369 48.4371H39.0619Z" fill="#FF2640"/>
<path d="M26.5619 9.37457C17.515 9.37457 10.1556 16.7347 10.1556 25.7808C10.1556 34.8269 17.515 42.1871 26.5619 42.1871C35.6088 42.1871 42.9681 34.8269 42.9681 25.7808C42.9681 16.7347 35.6088 9.37457 26.5619 9.37457ZM25.7806 11.6035V18.2793C24.0877 18.2105 22.4017 17.9324 20.7697 17.4175C22.3463 14.4519 24.4775 12.5636 25.7806 11.6035ZM25.7806 19.8418V24.9996H18.7822C18.8767 22.6269 19.3791 20.5785 20.1064 18.8394C21.9517 19.4418 23.8619 19.7699 25.7806 19.8418ZM25.7806 26.5621V31.7199C23.8681 31.7918 21.965 32.1168 20.126 32.7152C19.3892 30.9738 18.8791 28.9254 18.783 26.5621H25.7806ZM25.7806 33.2824V39.9433C24.4885 38.9738 22.3705 37.0761 20.7955 34.1379C22.4197 33.6277 24.097 33.3511 25.7806 33.2824ZM27.3431 39.9582V33.2824C29.0361 33.3511 30.722 33.6293 32.3541 34.1441C30.7775 37.1097 28.6463 38.998 27.3431 39.9582ZM27.3431 31.7199V26.5621H34.3416C34.247 28.9347 33.7447 30.9832 33.0174 32.7222C31.172 32.1199 29.2619 31.7918 27.3431 31.7199ZM27.3431 24.9996V19.8418C29.2556 19.7699 31.1588 19.4449 32.9978 18.8464C33.7345 20.5879 34.2447 22.6363 34.3408 24.9996H27.3431ZM27.3431 18.2793V11.6183C28.6353 12.5879 30.7533 14.4855 32.3283 17.4238C30.7041 17.9339 29.0267 18.2105 27.3431 18.2793ZM29.3439 11.2074C32.29 11.7691 34.9299 13.198 36.983 15.2254C35.9736 15.8769 34.9236 16.4355 33.8361 16.8793C32.4916 14.28 30.7463 12.4168 29.3439 11.2074ZM19.2877 16.8793C18.201 16.4355 17.1502 15.8769 16.1408 15.2254C18.1939 13.198 20.8345 11.7683 23.7799 11.2074C22.3775 12.4168 20.6322 14.28 19.2877 16.8793ZM18.6306 18.2964C17.8463 20.1925 17.2994 22.4199 17.2056 24.9996H11.758C11.9283 21.7464 13.1345 18.7636 15.0752 16.3933C16.2119 17.148 17.3994 17.7886 18.6306 18.2964ZM17.2056 26.5621C17.2986 29.1425 17.8463 31.3691 18.6306 33.2652C17.4002 33.773 16.2119 34.4136 15.0752 35.1675C13.1345 32.7972 11.9283 29.8152 11.758 26.5613L17.2056 26.5621ZM19.2877 34.6824C20.6322 37.2816 22.3775 39.1457 23.7806 40.3543C20.8345 39.7925 18.1947 38.3636 16.1416 36.3363C17.1502 35.6847 18.2002 35.1261 19.2877 34.6824ZM33.8361 34.6824C34.9228 35.1261 35.9736 35.6847 36.983 36.3363C34.9299 38.3636 32.2892 39.7933 29.3439 40.3543C30.7463 39.1449 32.4916 37.2816 33.8361 34.6824ZM34.4931 33.2652C35.2775 31.3691 35.8244 29.1425 35.9181 26.5621H41.3658C41.1955 29.8152 39.9892 32.798 38.0486 35.1683C36.9119 34.4136 35.7244 33.773 34.4931 33.2652ZM35.9181 24.9996C35.8252 22.4191 35.2783 20.1925 34.4931 18.2964C35.7236 17.7886 36.9119 17.148 38.0486 16.3941C39.9892 18.7644 41.1955 21.7464 41.3658 25.0004L35.9181 24.9996Z" fill="#FF2640"/>
<path d="M17.4156 9.92689L18.5203 8.8222L16.7289 7.0308H38.2805C42.157 7.0308 45.3117 10.1847 45.3117 14.062V31.2495H46.8742V14.062C46.8742 9.32377 43.0188 5.4683 38.2805 5.4683H16.7289L18.5203 3.67689L17.4156 2.5722L14.2906 5.6972C13.9852 6.00267 13.9852 6.49642 14.2906 6.80189L17.4156 9.92689Z" fill="#FF2640"/>
<path d="M46.8744 32.8121H45.3119V34.3746H46.8744V32.8121Z" fill="#FF2640"/>
<path d="M33.3642 41.6347L32.2595 42.7394L34.051 44.5308H12.4994C8.62283 44.5308 5.46814 41.3769 5.46814 37.4996V18.7496H3.90564V37.4996C3.90564 42.2379 7.76111 46.0933 12.4994 46.0933H34.051L32.2595 47.8847L33.3642 48.9894L36.4892 45.8644C36.7947 45.5589 36.7947 45.0652 36.4892 44.7597L33.3642 41.6347Z" fill="#FF2640"/>
<path d="M5.46814 15.6246H3.90564V17.1871H5.46814V15.6246Z" fill="#FF2640"/>
</svg>
