<svg width="32" height="32" viewBox="0 0 32 32" fill="none" xmlns="http://www.w3.org/2000/svg">
<path d="M31.6154 14.9151C30.8276 13.9162 29.1539 13.3287 26.8182 14.6772L20.9041 18.0918C20.4255 17.1068 19.2548 16.2515 17.1041 16.2515H12.2923C6.92641 14.8414 5.40467 18.2918 4.67215 19.953C4.56294 20.201 4.46833 20.4153 4.38624 20.5572L3.37024 22.3172C3.06346 22.175 2.7212 22.1381 2.38972 22.2271C2.01511 22.3273 1.70276 22.567 1.50937 22.9016L0.194242 25.1791C0.00119869 25.5137 -0.0502796 25.9043 0.0502421 26.2786C0.150416 26.6532 0.390068 26.9656 0.724677 27.159L8.77372 31.8059C9.00119 31.9374 9.25024 32 9.49615 32C9.99737 32 10.4857 31.7402 10.7539 31.2755L12.069 28.9979C12.2621 28.6633 12.3135 28.2727 12.213 27.8984C12.1243 27.5666 11.9215 27.2887 11.6447 27.0943L12.6607 25.3343C13.1549 24.4783 13.4287 24.4376 14.2189 24.4376H17.4742C18.6495 24.4376 19.6711 24.1638 20.6892 23.576L31.1076 17.561C31.5574 17.3012 31.8714 16.8616 31.9688 16.3548C32.0659 15.8477 31.9372 15.3228 31.6154 14.9151ZM11.2833 28.5443L9.96815 30.8219C9.81859 31.081 9.48606 31.1701 9.22693 31.0205L1.17824 26.3736C1.05337 26.3016 0.963981 26.1843 0.926068 26.0438C0.888155 25.9033 0.907285 25.7572 0.979633 25.6323L2.29476 23.3548C2.36676 23.2299 2.48398 23.1405 2.6245 23.1026C2.67181 23.0901 2.71946 23.0838 2.76711 23.0838C2.86102 23.0838 2.9532 23.1082 3.03598 23.1562L3.31598 23.3179L11.0847 27.8031C11.3438 27.9527 11.4328 28.2852 11.2833 28.5443ZM31.0777 16.1833C31.0294 16.4351 30.8787 16.6452 30.6537 16.7753L20.2356 22.7903C19.3494 23.3019 18.4975 23.5301 17.4742 23.5301H14.2189C13.2457 23.5301 12.6026 23.6209 11.8753 24.8803L10.8655 26.6292L4.16224 22.7593L5.17198 21.0104C5.27841 20.8261 5.38207 20.591 5.50207 20.319C6.23215 18.664 7.45372 15.8936 12.116 17.143C12.1542 17.153 12.1939 17.1583 12.2332 17.1583H17.1041C19.1062 17.1583 20.0123 18.0017 20.2141 18.8403C20.2161 18.8518 20.2189 18.8633 20.2221 18.8748C20.2301 18.912 20.237 18.9492 20.2422 18.9861C20.2794 19.2431 20.2078 19.4915 20.0398 19.6856C19.8721 19.8793 19.6363 19.9861 19.3765 19.9861H14.1243C13.8739 19.9861 13.6708 20.1892 13.6708 20.4397C13.6708 20.6901 13.8739 20.8932 14.1243 20.8932H19.3765C19.8961 20.8932 20.3876 20.6696 20.7254 20.279C21.0328 19.9238 21.1852 19.4623 21.1542 18.9944L27.2714 15.4626C29.1059 14.4035 30.3501 14.7753 30.9031 15.4765C31.0641 15.6807 31.1261 15.9315 31.0777 16.1833ZM12.1967 14.7826C13.6746 14.7826 14.9713 14.0049 15.7083 12.8393H26.8495C27.5354 12.8393 28.0934 12.2814 28.0934 11.5955V3.69078C28.0934 3.00487 27.5354 2.44696 26.8495 2.44696H23.6697V1.63896C23.6697 0.735304 22.9344 0 22.0308 0H19.2836C18.38 0 17.6447 0.735304 17.6447 1.63896V2.44696H14.4648C13.7789 2.44696 13.221 3.00487 13.221 3.69078V6.60383C12.8927 6.52035 12.5511 6.47096 12.197 6.47096C9.90554 6.47096 8.04119 8.3353 8.04119 10.6268C8.04119 12.9183 9.90519 14.7826 12.1967 14.7826ZM18.5515 1.63896C18.5515 1.23513 18.8798 0.906783 19.2836 0.906783H22.0308C22.4346 0.906783 22.7629 1.23513 22.7629 1.63896V2.44696H18.5515V1.63896ZM14.4645 3.35374H26.8495C27.0353 3.35374 27.1866 3.50504 27.1866 3.69078V5.07548L20.6572 6.73426L14.1278 5.07548V3.69078C14.1275 3.50504 14.2788 3.35374 14.4645 3.35374ZM14.1275 6.01113L20.5452 7.64174C20.5817 7.65113 20.6193 7.65565 20.6568 7.65565C20.6944 7.65565 20.732 7.65113 20.7685 7.64174L27.1862 6.01113V11.5955C27.1862 11.7812 27.0349 11.9325 26.8492 11.9325H16.1393C16.276 11.5214 16.3525 11.0831 16.3525 10.6268C16.3525 9.03235 15.4485 7.64661 14.1275 6.94991V6.01113ZM12.1967 7.37774C13.9883 7.37774 15.4457 8.83513 15.4457 10.6268C15.4457 12.4184 13.9883 13.8758 12.1967 13.8758C10.405 13.8758 8.94763 12.4184 8.94763 10.6268C8.94763 8.83513 10.4054 7.37774 12.1967 7.37774ZM12.6927 11.3583C12.6927 11.2077 12.5654 11.0803 12.4148 11.0803H11.9793C11.3257 11.0803 10.7942 10.5489 10.7942 9.8953C10.7942 9.32278 11.2026 8.84348 11.7435 8.73391V8.42887C11.7435 8.17843 11.9466 7.9753 12.197 7.9753C12.4475 7.9753 12.6506 8.17843 12.6506 8.42887V8.71061H13.1462C13.3967 8.71061 13.5998 8.91374 13.5998 9.16417C13.5998 9.41461 13.3967 9.61774 13.1462 9.61774H11.9793C11.8287 9.61774 11.7014 9.74504 11.7014 9.89565C11.7014 10.0463 11.8287 10.1736 11.9793 10.1736H12.4148C13.0683 10.1736 13.5998 10.705 13.5998 11.3586C13.5998 11.9311 13.1915 12.4104 12.6506 12.52V12.825C12.6506 13.0755 12.4475 13.2786 12.197 13.2786C11.9466 13.2786 11.7435 13.0755 11.7435 12.825V12.5433H11.2478C10.9974 12.5433 10.7942 12.3402 10.7942 12.0897C10.7942 11.8393 10.9974 11.6362 11.2478 11.6362H12.4148C12.565 11.6365 12.6927 11.5092 12.6927 11.3583Z" fill="#9400FF"/>
</svg>
