<svg width="50" height="50" viewBox="0 0 50 50" fill="none" xmlns="http://www.w3.org/2000/svg">
<path d="M25 13.9543C18.9099 13.9543 13.9551 18.9091 13.9551 24.9992C13.9551 26.273 14.1828 27.4919 14.5813 28.6314C14.5881 28.753 14.633 28.8605 14.6996 28.9538C16.2949 33.0937 20.3047 36.0441 25 36.0441C25.0001 36.0441 25.0008 36.0441 25.0009 36.0441C31.0906 36.0435 36.0449 31.089 36.0449 24.9992C36.0449 18.9091 31.0901 13.9543 25 13.9543ZM33.7528 20.6282H30.2991C29.4818 18.2762 28.1522 16.5247 27.1476 15.449C30.0444 16.1004 32.4534 18.0372 33.7528 20.6282ZM15.2051 24.9992C15.2051 23.9071 15.3925 22.8599 15.7237 21.8782H19.3438C19.1085 22.8389 18.9587 23.8752 18.9587 24.9992C18.9587 26.0633 19.1043 27.0501 19.3319 27.9728H15.6697C15.3698 27.0343 15.2051 26.036 15.2051 24.9992ZM20.2087 24.9992C20.2087 23.8714 20.3736 22.8307 20.6372 21.8782H24.375V27.9728H20.6208C20.3657 27.0579 20.2087 26.0658 20.2087 24.9992ZM28.9544 20.6282H25.625V15.6984C26.4544 16.4816 27.9947 18.1731 28.9544 20.6282ZM24.375 15.7539V20.6282H21.0589C22.0078 18.2414 23.5213 16.5643 24.375 15.7539ZM24.375 29.2228V34.0568C23.4086 33.1296 21.9583 31.4717 21.0484 29.2228H24.375ZM25.625 34.0496V29.2228H28.9484C28.0365 31.4705 26.5902 33.1215 25.625 34.0496ZM25.625 27.9728V21.8782H29.3721C29.6305 22.8297 29.7906 23.871 29.7906 24.9992C29.7906 26.0662 29.6286 27.0565 29.3719 27.9728H25.625ZM30.6605 21.8782H34.2763C34.6075 22.8599 34.7949 23.9071 34.7949 24.9992C34.7949 26.036 34.6301 27.0343 34.3303 27.9728H30.6675C30.8951 27.0501 31.0406 26.0633 31.0406 24.9992C31.0406 23.8753 30.8928 22.8389 30.6605 21.8782ZM22.9174 15.4322C21.8976 16.5071 20.5415 18.2651 19.7098 20.6282H16.2472C17.5564 18.0175 19.9914 16.0688 22.9174 15.4322ZM16.1761 29.2228H19.7056C20.5775 31.6567 22.039 33.4867 23.1505 34.6134C20.0661 34.0211 17.4999 31.9769 16.1761 29.2228ZM26.8493 34.6134C27.9607 33.4867 29.4219 31.6568 30.2938 29.2228H33.8239C32.5 31.9769 29.9337 34.0211 26.8493 34.6134Z" fill="#FF2640"/>
<path d="M49.1473 8.99334C49.1473 4.50421 45.495 0.851868 41.0059 0.851868C36.5167 0.851868 32.8644 4.50421 32.8644 8.99334C32.8644 13.4825 36.5167 17.1348 41.0059 17.1348C45.495 17.1348 49.1473 13.4825 49.1473 8.99334ZM36.8951 14.5115C36.9711 12.7605 38.1152 11.2599 39.8059 10.7466C40.0464 10.6733 40.2203 10.4625 40.246 10.2119C40.2716 9.96136 40.144 9.71996 39.9231 9.59942C39.1278 9.16637 38.6334 8.33599 38.6334 7.43176C38.6334 6.07189 39.74 4.96533 41.0998 4.96533C42.4597 4.96533 43.5663 6.07189 43.5663 7.43176C43.5663 8.36285 43.0487 9.20452 42.2156 9.62871C41.9903 9.74285 41.8567 9.98119 41.8756 10.2327C41.8945 10.4841 42.063 10.6996 42.3022 10.7789C43.9355 11.3201 45.0414 12.8069 45.1168 14.5114C43.9675 15.3698 42.5474 15.8848 41.0059 15.8848C39.4643 15.8848 38.0443 15.3699 36.8951 14.5115ZM34.1144 8.99334C34.1144 5.19329 37.2058 2.10187 41.0059 2.10187C44.8059 2.10187 47.8973 5.19329 47.8973 8.99334C47.8973 10.7036 47.2674 12.2669 46.2323 13.4729C45.8988 12.0413 44.9991 10.8036 43.728 10.059C44.4159 9.3742 44.8163 8.43761 44.8163 7.43176C44.8163 5.3825 43.1488 3.71533 41.0998 3.71533C39.0509 3.71533 37.3834 5.3825 37.3834 7.43176C37.3834 8.39764 37.7576 9.30737 38.4021 9.9876C37.0641 10.7219 36.1205 11.9884 35.7789 13.4723C34.7441 12.2665 34.1144 10.7033 34.1144 8.99334Z" fill="#FF2640"/>
<path d="M8.99413 0.851868C4.505 0.851868 0.852661 4.50421 0.852661 8.99334C0.852661 13.4825 4.505 17.1348 8.99413 17.1348C13.4833 17.1348 17.1356 13.4825 17.1356 8.99334C17.1356 4.50421 13.4833 0.851868 8.99413 0.851868ZM4.88277 14.511C4.95906 12.7605 6.10298 11.2599 7.79418 10.7466C8.03466 10.6733 8.20861 10.4625 8.23425 10.2119C8.25988 9.96136 8.13232 9.71996 7.91137 9.59942C7.11608 9.16637 6.6217 8.33599 6.6217 7.43176C6.6217 6.07189 7.72826 4.96533 9.08811 4.96533C10.448 4.96533 11.5546 6.07189 11.5546 7.43176C11.5546 8.36254 11.037 9.20452 10.2032 9.62871C9.97863 9.74316 9.84496 9.9815 9.86388 10.233C9.8828 10.4844 10.0513 10.6996 10.2905 10.7789C11.9238 11.3201 13.0297 12.8069 13.105 14.5114C11.9558 15.3698 10.5357 15.8848 8.99413 15.8848C7.45235 15.8848 6.0321 15.3697 4.88277 14.511ZM14.2206 13.4728C13.8871 12.0412 12.9873 10.8036 11.7157 10.059C12.4042 9.37389 12.8046 8.43731 12.8046 7.43176C12.8046 5.3825 11.1371 3.71533 9.08811 3.71533C7.03918 3.71533 5.3717 5.3825 5.3717 7.43176C5.3717 8.39764 5.74584 9.30737 6.38977 9.9876C5.05241 10.7219 4.10858 11.9882 3.76678 13.4718C2.7322 12.266 2.10266 10.7031 2.10266 8.99334C2.10266 5.19329 5.19409 2.10187 8.99413 2.10187C12.7942 2.10187 15.8856 5.19329 15.8856 8.99334C15.8856 10.7036 15.2557 12.2669 14.2206 13.4728Z" fill="#FF2640"/>
<path d="M41.0059 49.2124C45.495 49.2124 49.1473 45.56 49.1473 41.0709C49.1473 36.5818 45.495 32.9294 41.0059 32.9294C36.5167 32.9294 32.8644 36.5818 32.8644 41.0709C32.8644 45.56 36.5167 49.2124 41.0059 49.2124ZM36.8951 46.5891C36.9711 44.8381 38.1152 43.3375 39.8059 42.8241C40.0464 42.7509 40.2203 42.54 40.246 42.2895C40.2716 42.0389 40.144 41.7975 39.9231 41.677C39.1278 41.2439 38.6334 40.4136 38.6334 39.5093C38.6334 38.1495 39.74 37.0429 41.0998 37.0429C42.4597 37.0429 43.5663 38.1495 43.5663 39.5093C43.5663 40.4404 43.0487 41.2821 42.2156 41.7063C41.9903 41.8204 41.8567 42.0588 41.8756 42.3102C41.8945 42.5617 42.063 42.7772 42.3022 42.8565C43.9355 43.3977 45.0414 44.8845 45.1168 46.5889C43.9675 47.4474 42.5474 47.9624 41.0059 47.9624C39.4643 47.9624 38.0443 47.4474 36.8951 46.5891ZM41.0059 34.1794C44.8059 34.1794 47.8973 37.2709 47.8973 41.0709C47.8973 42.7812 47.2674 44.3445 46.2323 45.5504C45.8988 44.1189 44.9991 42.8812 43.728 42.1366C44.4159 41.4518 44.8163 40.5152 44.8163 39.5093C44.8163 37.4601 43.1488 35.7929 41.0998 35.7929C39.0509 35.7929 37.3834 37.4601 37.3834 39.5093C37.3834 40.4752 37.7576 41.3849 38.4021 42.0652C37.0641 42.7995 36.1205 44.066 35.7789 45.5499C34.7441 44.344 34.1144 42.7809 34.1144 41.0709C34.1144 37.2709 37.2058 34.1794 41.0059 34.1794Z" fill="#FF2640"/>
<path d="M8.99413 49.2124C13.4833 49.2124 17.1356 45.56 17.1356 41.0709C17.1356 36.5818 13.4833 32.9294 8.99413 32.9294C4.505 32.9294 0.852661 36.5818 0.852661 41.0709C0.852661 45.56 4.505 49.2124 8.99413 49.2124ZM4.88277 46.5886C4.95906 44.8381 6.10298 43.3375 7.79418 42.8241C8.03466 42.7509 8.20861 42.54 8.23425 42.2895C8.25988 42.0389 8.13232 41.7975 7.91137 41.677C7.11608 41.2439 6.6217 40.4136 6.6217 39.5093C6.6217 38.1495 7.72826 37.0429 9.08811 37.0429C10.448 37.0429 11.5546 38.1495 11.5546 39.5093C11.5546 40.4401 11.037 41.2821 10.2032 41.7063C9.97863 41.8207 9.84496 42.0591 9.86388 42.3105C9.8828 42.562 10.0513 42.7772 10.2905 42.8565C11.9238 43.3977 13.0297 44.8845 13.105 46.5889C11.9558 47.4474 10.5357 47.9624 8.99413 47.9624C7.45235 47.9624 6.0321 47.4473 4.88277 46.5886ZM8.99413 34.1794C12.7942 34.1794 15.8856 37.2709 15.8856 41.0709C15.8856 42.7812 15.2557 44.3445 14.2206 45.5504C13.8871 44.1188 12.9873 42.8812 11.7157 42.1366C12.4042 41.4515 12.8046 40.5149 12.8046 39.5093C12.8046 37.4601 11.1371 35.7929 9.08811 35.7929C7.03918 35.7929 5.3717 37.4601 5.3717 39.5093C5.3717 40.4752 5.74584 41.3849 6.38977 42.0652C5.05241 42.7994 4.10858 44.0658 3.76678 45.5494C2.7322 44.3436 2.10266 42.7807 2.10266 41.0709C2.10266 37.2709 5.19409 34.1794 8.99413 34.1794Z" fill="#FF2640"/>
<path d="M32.6027 1.76892C30.2223 0.594604 27.6643 -0.000793457 25.0002 -0.000793457C22.336 -0.000793457 19.778 0.594604 17.3976 1.76892C17.0882 1.92181 16.9606 2.29657 17.1138 2.60602C17.2664 2.91577 17.6412 3.04272 17.9506 2.89013C20.1576 1.80127 22.5295 1.24921 25.0002 1.24921C27.4709 1.24921 29.8427 1.80127 32.0497 2.89013C32.1388 2.93377 32.2328 2.95453 32.3256 2.95453C32.5563 2.95453 32.7779 2.82666 32.8865 2.60602C33.0397 2.29657 32.9121 1.92181 32.6027 1.76892Z" fill="#FF2640"/>
<path d="M1.77002 32.6016C1.87866 32.8222 2.10022 32.9501 2.33093 32.9501C2.4237 32.9501 2.5177 32.9293 2.60681 32.8857C2.91624 32.7328 3.04382 32.3581 2.89062 32.0486C1.80176 29.8419 1.25 27.4701 1.25 24.9991C1.25 22.5281 1.80176 20.1562 2.89062 17.9495C3.04382 17.6401 2.91624 17.2653 2.60681 17.1124C2.29614 16.961 1.92261 17.0874 1.77002 17.3965C0.595703 19.7769 0 22.3346 0 24.9991C0 27.6635 0.595703 30.2212 1.77002 32.6016Z" fill="#FF2640"/>
<path d="M17.3976 48.2295C19.778 49.4038 22.336 49.9992 25.0002 49.9992C27.6643 49.9992 30.2223 49.4038 32.6027 48.2295C32.9121 48.0766 33.0397 47.7018 32.8865 47.3924C32.7339 47.0829 32.3598 46.9566 32.0497 47.1083C29.8427 48.1971 27.4709 48.7492 25.0002 48.7492C22.5295 48.7492 20.1576 48.1971 17.9506 47.1083C17.6405 46.9572 17.2664 47.0832 17.1138 47.3924C16.9606 47.7018 17.0882 48.0766 17.3976 48.2295Z" fill="#FF2640"/>
<path d="M48.23 17.3967C48.078 17.0876 47.7039 16.9609 47.3932 17.1126C47.0838 17.2655 46.9562 17.6403 47.1094 17.9497C48.1983 20.1564 48.75 22.5282 48.75 24.9993C48.75 27.4703 48.1983 29.8421 47.1094 32.0488C46.9562 32.3583 47.0838 32.733 47.3932 32.8859C47.4823 32.9295 47.5763 32.9503 47.6691 32.9503C47.8998 32.9503 48.1214 32.8224 48.23 32.6018C49.4043 30.2214 50 27.6637 50 24.9993C50 22.3348 49.4043 19.7771 48.23 17.3967Z" fill="#FF2640"/>
</svg>
