<svg width="35" height="32" viewBox="0 0 35 32" fill="none" xmlns="http://www.w3.org/2000/svg">
<path d="M34.4556 21.6254C33.5051 20.4549 32.7583 19.6955 31.1037 19.8041C29.5832 19.9033 27.2958 20.7493 22.9447 22.8211C20.5677 23.9536 19.5125 23.3961 18.2911 22.7531C17.7017 22.4094 17.0653 22.1539 16.402 21.9944C17.5862 21.6008 18.7626 21.7313 19.7833 21.8458C20.3041 21.9313 20.8338 21.9489 21.3592 21.8982C22.6184 21.6867 23.1427 21.0061 23.3616 20.4698C23.4988 20.1233 23.5604 19.7516 23.5423 19.3794C23.5242 19.0072 23.4267 18.6432 23.2564 18.3117C22.8915 17.8092 22.4222 17.8077 21.8285 17.8059C20.3506 17.8003 18.8824 17.5658 17.4762 17.1108C13.2269 15.8879 9.06458 17.7092 6.82436 20.0553C6.51817 20.3183 6.15231 20.5023 5.75869 20.5913L5.75535 20.5839C5.64331 20.3264 5.43378 20.1239 5.17271 20.0208C4.91164 19.9177 4.62034 19.9224 4.3627 20.0338L3.50362 20.4055C3.34547 20.2178 3.13138 20.0857 2.89274 20.0286C2.65409 19.9715 2.40343 19.9923 2.17748 20.088L0.688957 20.724C0.419719 20.8451 0.206311 21.0637 0.0916674 21.3358C-0.0229762 21.6079 -0.0303491 21.9134 0.0710319 22.1907L3.08894 31.2652C3.13551 31.405 3.21094 31.5336 3.31035 31.6424C3.40976 31.7513 3.53093 31.838 3.666 31.897C3.81334 31.9632 3.97277 31.9983 4.13428 31.9999C4.2958 32.0016 4.45592 31.9699 4.60459 31.9067L6.8121 30.9656C6.99727 30.8863 7.15827 30.7596 7.27883 30.5982C7.39939 30.4368 7.47526 30.2465 7.49877 30.0464L8.5139 29.6052C8.74021 29.5067 8.92505 29.3322 9.03656 29.112C9.14808 28.8917 9.17927 28.6395 9.12477 28.3987C10.4094 28.5465 11.676 28.8228 12.9055 29.2235C14.6419 29.7193 16.5235 30.2564 18.4932 30.2564C19.7181 30.2653 20.9328 30.0332 22.0681 29.5732C22.1081 29.5563 22.1456 29.534 22.1796 29.5071C29.2112 23.9648 34.1788 22.3873 34.2278 22.3706C34.3015 22.3479 34.3684 22.3076 34.4228 22.253C34.4772 22.1984 34.5173 22.1313 34.5397 22.0575C34.5621 21.9838 34.566 21.9057 34.5512 21.8301C34.5363 21.7545 34.5031 21.6837 34.4545 21.6239L34.4556 21.6254ZM6.55052 29.9865C6.5407 30.0113 6.52609 30.0339 6.50754 30.0531C6.48899 30.0722 6.46685 30.0875 6.44239 30.0981L4.23487 31.0392C4.20589 31.0514 4.17474 31.0577 4.14328 31.0577C4.11182 31.0577 4.08068 31.0514 4.05169 31.0392C4.03574 31.0332 4.02123 31.0239 4.00912 31.012C3.99701 31 3.98759 30.9856 3.98146 30.9697L0.964292 21.8933C0.939408 21.8402 0.935213 21.7797 0.952525 21.7236C0.969838 21.6675 1.00742 21.6199 1.05793 21.59L2.54645 20.9556C2.57098 20.945 2.5974 20.9396 2.62411 20.9396C2.65069 20.9397 2.67702 20.9448 2.70177 20.9545C2.7518 20.9745 2.79187 21.0135 2.81324 21.063L6.54977 29.8312C6.56015 29.8557 6.56559 29.8821 6.56578 29.9088C6.56597 29.9354 6.56091 29.9618 6.55089 29.9865H6.55052ZM8.2003 28.6763C8.18882 28.7052 8.16657 28.7286 8.13825 28.7414L7.26951 29.1201L3.91755 21.2529L4.73724 20.8976C4.75143 20.8917 4.76665 20.8886 4.78202 20.8886C4.79738 20.8886 4.8126 20.8917 4.82679 20.8976C4.85575 20.909 4.87909 20.9313 4.89182 20.9597L8.19881 28.5879C8.21101 28.616 8.21131 28.6477 8.2003 28.6763ZM21.6512 28.7258C18.7065 29.9003 15.8885 29.0975 13.163 28.3169C11.6087 27.8731 10.134 27.4524 8.7283 27.4386L6.13584 21.4611C6.64846 21.3282 7.11937 21.0684 7.50508 20.7054C9.54873 18.5645 13.3447 16.9019 17.2161 18.0155C18.7061 18.4959 20.2615 18.7425 21.827 18.7466C22.3881 18.7485 22.4245 18.7667 22.4884 18.8529C22.6467 19.2862 22.6358 19.7632 22.4579 20.1888C22.3291 20.4117 22.1474 20.5995 21.9289 20.7356C21.7104 20.8717 21.4618 20.952 21.205 20.9693C20.7653 21.0011 20.3234 20.981 19.8885 20.9095C18.2201 20.7236 15.6986 20.4445 13.5346 22.8222C13.4544 22.9107 13.4108 23.0263 13.4126 23.1458C13.4144 23.2652 13.4615 23.3795 13.5444 23.4655C13.6273 23.5514 13.7398 23.6027 13.859 23.6089C13.9783 23.615 14.0954 23.5757 14.1867 23.4987L14.9109 22.8858C16.1847 22.707 16.9962 23.1348 17.8538 23.5864C19.1171 24.2517 20.548 25.0059 23.3504 23.6715C30.8662 20.0932 32.0226 20.2575 33.2982 21.7049C31.7104 22.31 27.3961 24.2068 21.6512 28.7258ZM5.17681 28.9343C5.22348 29.0488 5.22327 29.177 5.17623 29.2913C5.12919 29.4057 5.03909 29.4969 4.92539 29.5454C4.81168 29.5938 4.68349 29.5956 4.56848 29.5503C4.45347 29.5051 4.36087 29.4164 4.31068 29.3034L3.99447 28.56C3.9492 28.4458 3.95031 28.3185 3.99755 28.2052C4.04479 28.0918 4.13443 28.0014 4.24735 27.9532C4.36028 27.905 4.48755 27.9029 4.60204 27.9472C4.71653 27.9915 4.80918 28.0789 4.86023 28.1905L5.17681 28.9343ZM22.0659 16.9907C23.7456 16.9907 25.3876 16.4925 26.7842 15.559C28.1808 14.6255 29.2693 13.2987 29.9121 11.7464C30.5549 10.1941 30.7231 8.48595 30.3954 6.83801C30.0677 5.19007 29.2588 3.67634 28.0711 2.48824C26.8834 1.30014 25.3702 0.491036 23.7227 0.16324C22.0753 -0.164556 20.3677 0.00368088 18.8159 0.646675C17.2641 1.28967 15.9377 2.37854 15.0045 3.7756C14.0713 5.17266 13.5732 6.81515 13.5732 8.49537C13.5759 10.7477 14.4715 12.907 16.0636 14.4996C17.6557 16.0922 19.8143 16.9881 22.0659 16.9907ZM22.0659 0.941497C23.5594 0.941497 25.0194 1.38452 26.2613 2.21455C27.5031 3.04459 28.471 4.22434 29.0426 5.60463C29.6141 6.98492 29.7636 8.50375 29.4723 9.96906C29.1809 11.4344 28.4617 12.7803 27.4056 13.8368C26.3495 14.8932 25.004 15.6126 23.5391 15.9041C22.0743 16.1956 20.5559 16.046 19.1761 15.4742C17.7962 14.9025 16.6169 13.9343 15.7871 12.6921C14.9573 11.4499 14.5144 9.98939 14.5144 8.49537C14.5167 6.49266 15.313 4.57261 16.7287 3.15648C18.1444 1.74034 20.0638 0.94376 22.0659 0.941497ZM22.0659 14.5476C23.2649 14.5583 24.44 14.2124 25.4421 13.5538C26.4442 12.8953 27.2281 11.9537 27.6943 10.8487C28.1605 9.74373 28.2881 8.52507 28.0607 7.34744C27.8333 6.16981 27.2613 5.0863 26.4172 4.23445C25.5732 3.38259 24.4951 2.80079 23.3199 2.56288C22.1448 2.32498 20.9254 2.44171 19.8166 2.89825C18.7079 3.35479 17.7597 4.13055 17.0925 5.12708C16.4253 6.12362 16.0691 7.29598 16.0691 8.49537C16.0639 10.0929 16.6923 11.6272 17.8165 12.7618C18.9407 13.8964 20.4689 14.5387 22.0659 14.5476ZM22.0659 3.38462C23.0787 3.37394 24.0718 3.6646 24.9192 4.2197C25.7665 4.7748 26.4297 5.56929 26.8247 6.50225C27.2197 7.43522 27.3286 8.46457 27.1376 9.45956C26.9465 10.4546 26.4641 11.3703 25.7517 12.0905C25.0393 12.8107 24.129 13.3028 23.1363 13.5044C22.1437 13.706 21.1136 13.6079 20.1769 13.2226C19.2401 12.8374 18.4389 12.1823 17.8751 11.3406C17.3113 10.4989 17.0103 9.50856 17.0103 8.49537C17.0047 7.14748 17.5339 5.85243 18.4817 4.89432C19.4295 3.93621 20.7185 3.39327 22.0659 3.38462ZM20.0642 10.3074V9.71563C20.0625 9.6527 20.0733 9.59005 20.0962 9.53139C20.119 9.47274 20.1534 9.41925 20.1973 9.37412C20.2412 9.32898 20.2936 9.2931 20.3516 9.2686C20.4096 9.2441 20.4719 9.23147 20.5348 9.23147C20.5978 9.23147 20.6601 9.2441 20.718 9.2686C20.776 9.2931 20.8285 9.32898 20.8724 9.37412C20.9162 9.41925 20.9506 9.47274 20.9735 9.53139C20.9963 9.59005 21.0072 9.6527 21.0054 9.71563V10.3074C21.0054 10.3995 21.3934 10.6898 22.0659 10.6898C22.7384 10.6898 23.1267 10.3995 23.1267 10.3074V9.3484C23.1267 9.28782 23.1267 9.23058 22.938 9.15215C22.6347 9.05358 22.3212 8.98973 22.0035 8.96185C21.6041 8.92618 21.2108 8.84077 20.8327 8.70761C20.6076 8.63532 20.4116 8.49288 20.2734 8.30112C20.1351 8.10937 20.0618 7.87839 20.0642 7.64197V6.68338C20.0642 6.03627 20.6959 5.52631 21.5955 5.39361V4.92008C21.5937 4.85714 21.6046 4.7945 21.6274 4.73584C21.6503 4.67718 21.6847 4.6237 21.7286 4.57856C21.7724 4.53342 21.8249 4.49754 21.8829 4.47304C21.9409 4.44854 22.0032 4.43592 22.0661 4.43592C22.129 4.43592 22.1913 4.44854 22.2493 4.47304C22.3073 4.49754 22.3598 4.53342 22.4036 4.57856C22.4475 4.6237 22.4819 4.67718 22.5047 4.73584C22.5276 4.7945 22.5385 4.85714 22.5367 4.92008V5.39361C23.4355 5.52631 24.0679 6.03627 24.0679 6.68338V7.27474C24.0697 7.33767 24.0588 7.40032 24.036 7.45898C24.0131 7.51764 23.9788 7.57112 23.9349 7.61626C23.891 7.6614 23.8385 7.69728 23.7806 7.72178C23.7226 7.74628 23.6603 7.7589 23.5973 7.7589C23.5344 7.7589 23.4721 7.74628 23.4141 7.72178C23.3562 7.69728 23.3037 7.6614 23.2598 7.61626C23.2159 7.57112 23.1815 7.51764 23.1587 7.45898C23.1358 7.40032 23.125 7.33767 23.1267 7.27474V6.68338C23.1267 6.5912 22.7388 6.30091 22.0659 6.30091C21.393 6.30091 21.0054 6.5912 21.0054 6.68338V7.64197C21.0054 7.70256 21.0054 7.7598 21.1942 7.83822C21.4975 7.9368 21.811 8.00064 22.1287 8.02853C22.528 8.0642 22.9213 8.1496 23.2995 8.28277C23.5246 8.35505 23.7206 8.4975 23.8588 8.68925C23.9971 8.881 24.0704 9.11199 24.0679 9.3484V10.3074C24.0679 10.9541 23.4363 11.4641 22.5367 11.5971V12.0703C22.5385 12.1332 22.5276 12.1959 22.5047 12.2545C22.4819 12.3132 22.4475 12.3667 22.4036 12.4118C22.3598 12.457 22.3073 12.4928 22.2493 12.5173C22.1913 12.5418 22.129 12.5545 22.0661 12.5545C22.0032 12.5545 21.9409 12.5418 21.8829 12.5173C21.8249 12.4928 21.7724 12.457 21.7286 12.4118C21.6847 12.3667 21.6503 12.3132 21.6274 12.2545C21.6046 12.1959 21.5937 12.1332 21.5955 12.0703V11.5971C20.6963 11.4648 20.0642 10.9541 20.0642 10.3074Z" fill="#9400FF"/>
</svg>
