<svg width="50" height="50" viewBox="0 0 50 50" fill="none" xmlns="http://www.w3.org/2000/svg">
<path d="M49.3989 23.3041C48.1679 21.7432 45.5527 20.8253 41.9033 22.9324L32.6625 28.2677C31.9147 26.7286 30.0853 25.3922 26.725 25.3922H19.2065C10.8223 23.1889 8.44456 28.5802 7.3 31.1759C7.12935 31.5634 6.98152 31.8981 6.85326 32.1199L5.26576 34.8699C4.78641 34.6476 4.25163 34.59 3.73369 34.7291C3.14837 34.8856 2.66032 35.2601 2.35815 35.7829L0.303259 39.3416C0.00162881 39.8644 -0.078806 40.4748 0.0782592 41.0596C0.234781 41.6449 0.609238 42.1329 1.13206 42.4351L13.7087 49.696C14.0641 49.9014 14.4533 49.9992 14.8375 49.9992C15.6207 49.9992 16.3837 49.5933 16.8027 48.8672L18.8576 45.3085C19.1592 44.7856 19.2397 44.1753 19.0826 43.5905C18.944 43.0721 18.6272 42.6378 18.1946 42.334L19.7821 39.584C20.5543 38.2465 20.9821 38.1829 22.2168 38.1829H27.3033C29.1397 38.1829 30.7359 37.7552 32.3266 36.8367L48.6054 27.4384C49.3082 27.0324 49.7989 26.3454 49.9511 25.5536C50.1027 24.7612 49.9016 23.9411 49.3989 23.3041ZM17.6299 44.5998L15.575 48.1585C15.3413 48.5634 14.8217 48.7025 14.4168 48.4688L1.84076 41.2079C1.64565 41.0954 1.50598 40.9123 1.44674 40.6927C1.3875 40.4731 1.41739 40.2449 1.53043 40.0498L3.58533 36.4911C3.69782 36.296 3.88098 36.1563 4.10054 36.097C4.17446 36.0775 4.24891 36.0677 4.32337 36.0677C4.47011 36.0677 4.61413 36.1057 4.74348 36.1807L5.18098 36.4335L17.3196 43.4416C17.7245 43.6753 17.8636 44.1949 17.6299 44.5998ZM48.5587 25.2856C48.4832 25.6791 48.2478 26.0074 47.8962 26.2106L31.6179 35.609C30.2332 36.4085 28.9022 36.765 27.3033 36.765H22.2168C20.6962 36.765 19.6913 36.9068 18.5549 38.8748L16.9772 41.6074L6.50326 35.5606L8.08098 32.828C8.24728 32.54 8.40924 32.1726 8.59674 31.7476C9.7375 29.1617 11.6462 24.8329 18.931 26.7851C18.9908 26.8008 19.0527 26.809 19.1141 26.809H26.725C29.8533 26.809 31.269 28.1269 31.5842 29.4373C31.5875 29.4552 31.5919 29.4731 31.5967 29.4911C31.6092 29.5492 31.6201 29.6074 31.6283 29.665C31.6864 30.0666 31.5745 30.4547 31.312 30.7579C31.05 31.0606 30.6815 31.2275 30.2755 31.2275H22.069C21.6777 31.2275 21.3603 31.5449 21.3603 31.9362C21.3603 32.3275 21.6777 32.6449 22.069 32.6449H30.2755C31.0875 32.6449 31.8554 32.2954 32.3832 31.6851C32.8636 31.1302 33.1016 30.409 33.0533 29.678L42.6114 24.1595C45.4777 22.5047 47.4217 23.0856 48.2859 24.1813C48.5375 24.5003 48.6342 24.8922 48.5587 25.2856ZM19.0571 23.097C21.3663 23.097 23.3924 21.8818 24.544 20.0606H41.9522C43.0239 20.0606 43.8957 19.1889 43.8957 18.1172V5.76606C43.8957 4.69432 43.0239 3.82258 41.9522 3.82258H36.9837V2.56008C36.9837 1.14812 35.8348 -0.000793457 34.4228 -0.000793457H30.1304C28.7185 -0.000793457 27.5696 1.14812 27.5696 2.56008V3.82258H22.6011C21.5293 3.82258 20.6576 4.69432 20.6576 5.76606V10.3177C20.1446 10.1873 19.6109 10.1101 19.0576 10.1101C15.4772 10.1101 12.5641 13.0231 12.5641 16.6036C12.5641 20.184 15.4766 23.097 19.0571 23.097ZM28.9864 2.56008C28.9864 1.9291 29.4995 1.41606 30.1304 1.41606H34.4228C35.0538 1.41606 35.5668 1.9291 35.5668 2.56008V3.82258H28.9864V2.56008ZM22.6005 5.23943H41.9522C42.2424 5.23943 42.4788 5.47584 42.4788 5.76606V7.92965L32.2766 10.5215L22.0745 7.92965V5.76606C22.0739 5.47584 22.3103 5.23943 22.6005 5.23943ZM22.0739 9.3916L32.1016 11.9394C32.1587 11.9541 32.2174 11.9612 32.2761 11.9612C32.3348 11.9612 32.3935 11.9541 32.4505 11.9394L42.4783 9.3916V18.1172C42.4783 18.4074 42.2418 18.6438 41.9516 18.6438H25.2174C25.431 18.0014 25.5505 17.3166 25.5505 16.6036C25.5505 14.1123 24.138 11.947 22.0739 10.8585V9.3916ZM19.0571 11.5269C21.8565 11.5269 24.1337 13.8041 24.1337 16.6036C24.1337 19.403 21.8565 21.6802 19.0571 21.6802C16.2576 21.6802 13.9804 19.403 13.9804 16.6036C13.9804 13.8041 16.2582 11.5269 19.0571 11.5269ZM19.8321 17.7465C19.8321 17.5112 19.6332 17.3123 19.3978 17.3123H18.7174C17.6962 17.3123 16.8658 16.4818 16.8658 15.4606C16.8658 14.5661 17.5038 13.8171 18.3489 13.646V13.1693C18.3489 12.778 18.6663 12.4606 19.0576 12.4606C19.4489 12.4606 19.7663 12.778 19.7663 13.1693V13.6095H20.5408C20.9321 13.6095 21.2495 13.9269 21.2495 14.3182C21.2495 14.7095 20.9321 15.0269 20.5408 15.0269H18.7174C18.4821 15.0269 18.2832 15.2258 18.2832 15.4612C18.2832 15.6965 18.4821 15.8954 18.7174 15.8954H19.3978C20.419 15.8954 21.2495 16.7258 21.2495 17.747C21.2495 18.6416 20.6114 19.3905 19.7663 19.5617V20.0383C19.7663 20.4297 19.4489 20.747 19.0576 20.747C18.6663 20.747 18.3489 20.4297 18.3489 20.0383V19.5981H17.5745C17.1832 19.5981 16.8658 19.2807 16.8658 18.8894C16.8658 18.4981 17.1832 18.1807 17.5745 18.1807H19.3978C19.6326 18.1813 19.8321 17.9824 19.8321 17.7465Z" fill="#FF2640"/>
</svg>
