<svg width="51" height="50" viewBox="0 0 51 50" fill="none" xmlns="http://www.w3.org/2000/svg">
<path d="M35.0038 22.0007L25.1443 39.1498H44.8602L35.0038 22.0007ZM23.345 39.4991L34.3989 20.2705C34.6682 19.7972 35.3353 19.8003 35.6015 20.2623L46.6381 39.4561C46.9614 39.9755 46.5769 40.545 46.0628 40.545H23.9438C23.4175 40.544 23.0737 39.9662 23.345 39.4991ZM35.6974 15.4641L50.9058 41.9197C51.1751 42.3848 50.8334 42.9626 50.3071 42.9626V42.9656H35.6974V46.9382C35.6974 48.6253 34.3296 49.999 32.6496 49.999H3.05086C1.3709 49.999 0 48.6253 0 46.9382V7.83656C0 7.79251 0.00612008 7.74641 0.0142802 7.70339C0.0173402 7.68597 0.0204003 7.67163 0.0255003 7.65422C0.0285604 7.63988 0.0346804 7.62246 0.0397805 7.60812L0.0989413 7.48212L0.206043 7.34281L7.30941 0.207997C7.43692 0.0768763 7.61338 -0.000976562 7.80718 -0.000976562H32.6496C34.3296 -0.000976562 35.6974 1.37272 35.6974 3.05987V15.4641ZM34.3092 42.9656H19.6995C19.1824 42.9656 18.7999 42.3961 19.1242 41.8767L34.3092 15.462V3.05987C34.3092 2.14203 33.5635 1.39321 32.6496 1.39321H8.50079V5.47331C8.50079 7.16047 7.13295 8.53416 5.45299 8.53416H1.3913V46.9392C1.3913 47.857 2.13693 48.6059 3.05086 48.6059H32.6496C33.5635 48.6059 34.3092 47.857 34.3092 46.9392V42.9656ZM49.1075 41.5694L35.0038 17.0355L20.9001 41.5694H49.1075ZM7.05849 39.1795C6.82695 38.8722 6.89121 38.4327 7.19721 38.2043C7.50628 37.9748 7.9408 38.0363 8.16827 38.3467L9.1026 39.6016L12.7512 34.6856C12.9797 34.3783 13.4162 34.3137 13.7222 34.5432C14.0282 34.7757 14.0925 35.2111 13.864 35.5184L9.66564 41.1719C9.39432 41.5469 8.83025 41.5674 8.54363 41.1832L7.05849 39.1795ZM12.3585 38.8394C12.2371 38.4768 12.4309 38.0814 12.795 37.9595C13.1561 37.8376 13.5499 38.0353 13.6712 38.3979C14.7147 41.5254 12.3758 44.6641 9.15462 44.6641C6.52094 44.6641 4.38708 42.518 4.38708 39.8761C4.38708 36.9023 7.05339 34.6466 9.98491 35.1578C10.2511 35.2039 10.5174 35.2766 10.7744 35.3729C11.1324 35.5061 11.315 35.9076 11.1824 36.2672C11.0467 36.6278 10.65 36.8101 10.2919 36.677C9.0975 36.2273 7.67254 36.5663 6.76779 37.475C5.44687 38.8015 5.44687 40.9507 6.76779 42.2752C8.09788 43.611 10.2399 43.5936 11.5588 42.2752C12.486 41.3481 12.7542 40.0277 12.3585 38.8394ZM15.8969 30.0472C15.5124 30.0472 15.2033 29.7337 15.2033 29.3475C15.2033 28.9644 15.5124 28.6509 15.8969 28.6509H22.1343C22.5158 28.6509 22.8279 28.9644 22.8279 29.3475C22.8279 29.7337 22.5158 30.0472 22.1343 30.0472H15.8969ZM15.8969 25.9824C15.5124 25.9824 15.2033 25.669 15.2033 25.2859C15.2033 24.8997 15.5124 24.5893 15.8969 24.5893H25.2392C25.6238 24.5893 25.9328 24.8997 25.9328 25.2859C25.9328 25.669 25.6238 25.9824 25.2392 25.9824H15.8969ZM7.05849 26.9607C6.82695 26.6534 6.89121 26.217 7.19721 25.9855C7.50628 25.756 7.9408 25.8196 8.16827 26.1279L9.1026 27.3828L12.7512 22.4698C12.9797 22.1594 13.4162 22.098 13.7222 22.3274C14.0282 22.5569 14.0925 22.9953 13.864 23.3027L9.66564 28.9531C9.39432 29.3311 8.83025 29.3475 8.54363 28.9644L7.05849 26.9607ZM12.3585 26.6237C12.2371 26.258 12.4309 25.8626 12.795 25.7407C13.1561 25.6188 13.5499 25.8165 13.6712 26.1822C14.7147 29.3065 12.3758 32.4452 9.15462 32.4452C6.52094 32.4452 4.38708 30.3022 4.38708 27.6573C4.38708 24.6835 7.05339 22.4309 9.98491 22.9421C10.2511 22.9882 10.5174 23.0578 10.7744 23.1572C11.1324 23.2904 11.315 23.6919 11.1824 24.0484C11.0467 24.408 10.65 24.5913 10.2919 24.4582C9.0975 24.0105 7.67254 24.3475 6.76779 25.2592C5.44687 26.5837 5.44687 28.7319 6.76779 30.0564C8.09788 31.3953 10.2399 31.3748 11.5588 30.0564C12.486 29.1293 12.7542 27.8089 12.3585 26.6237ZM7.05849 14.5872C6.82695 14.2799 6.89121 13.8435 7.19721 13.6141C7.50628 13.3815 7.9408 13.4461 8.16827 13.7534L9.1026 15.0103L12.7512 10.0943C12.9797 9.78698 13.4162 9.72244 13.7222 9.9519C14.0282 10.1814 14.0925 10.6198 13.864 10.9271L9.66564 16.5807C9.39432 16.9556 8.83025 16.9751 8.54363 16.5919L7.05849 14.5872ZM12.3585 14.2512C12.2371 13.8855 12.4309 13.4932 12.795 13.3713C13.1561 13.2494 13.5499 13.444 13.6712 13.8097C14.7147 16.9341 12.3758 20.0728 9.15462 20.0728C6.52094 20.0728 4.38708 17.9298 4.38708 15.2848C4.38708 12.3111 7.05339 10.0584 9.98491 10.5696C10.2511 10.6157 10.5174 10.6854 10.7744 10.7847C11.1324 10.9179 11.315 11.3195 11.1824 11.679C11.0467 12.0365 10.65 12.2189 10.2919 12.0857C9.0975 11.638 7.67254 11.9781 6.76779 12.8868C5.44687 14.2113 5.44687 16.3594 6.76779 17.687C8.09788 19.0228 10.2399 19.0023 11.5588 17.6839C12.486 16.7599 12.7542 15.4354 12.3585 14.2512ZM15.8969 42.2629C15.5124 42.2629 15.2033 41.9525 15.2033 41.5663C15.2033 41.1801 15.5124 40.8697 15.8969 40.8697H17.2301C17.6146 40.8697 17.9237 41.1801 17.9237 41.5663C17.9237 41.9525 17.6146 42.2629 17.2301 42.2629H15.8969ZM15.8969 38.2012C15.5124 38.2012 15.2033 37.8878 15.2033 37.5016C15.2033 37.1185 15.5124 36.805 15.8969 36.805H16.8455C17.2301 36.805 17.5391 37.1185 17.5391 37.5016C17.5391 37.8878 17.2301 38.2012 16.8455 38.2012H15.8969ZM15.8969 13.6089C15.5124 13.6089 15.2033 13.2986 15.2033 12.9124C15.2033 12.5262 15.5124 12.2158 15.8969 12.2158H29.0296C29.4141 12.2158 29.7262 12.5262 29.7262 12.9124C29.7262 13.2986 29.4141 13.6089 29.0296 13.6089H15.8969ZM15.8969 17.6747C15.5124 17.6747 15.2033 17.3612 15.2033 16.9781C15.2033 16.5919 15.5124 16.2785 15.8969 16.2785H21.9976C22.3821 16.2785 22.6912 16.5919 22.6912 16.9781C22.6912 17.3612 22.3821 17.6747 21.9976 17.6747H15.8969ZM2.37459 7.13998H5.45401C6.36488 7.13998 7.11357 6.39116 7.11357 5.47331V2.38071L2.37459 7.13998ZM35.6974 36.8214C35.6974 37.2076 35.3883 37.518 35.0038 37.518C34.6192 37.518 34.3102 37.2076 34.3102 36.8214V35.4446C34.3102 35.0584 34.6192 34.7481 35.0038 34.7481C35.3883 34.7481 35.6974 35.0584 35.6974 35.4446V36.8214ZM35.6974 33.233C35.6974 33.6192 35.3883 33.9326 35.0038 33.9326C34.6192 33.9326 34.3102 33.6192 34.3102 33.233V25.7704C34.3102 25.3842 34.6192 25.0707 35.0038 25.0707C35.3883 25.0707 35.6974 25.3842 35.6974 25.7704V33.233Z" fill="#FF2640"/>
</svg>
