<svg width="44" height="40" viewBox="0 0 44 40" fill="none" xmlns="http://www.w3.org/2000/svg">
<path d="M43.0695 27.0317C41.8814 25.5686 40.9478 24.6194 38.8796 24.7551C36.979 24.8791 34.1197 25.9366 28.6808 28.5264C25.7097 29.942 24.3906 29.2451 22.8639 28.4413C22.1272 28.0118 21.3316 27.6923 20.5025 27.4931C21.9828 27.001 23.4533 27.1641 24.7292 27.3072C25.3802 27.4142 26.0423 27.4362 26.699 27.3727C28.273 27.1084 28.9284 26.2577 29.202 25.5872C29.3735 25.1542 29.4506 24.6895 29.4279 24.2242C29.4052 23.759 29.2834 23.304 29.0705 22.8897C28.6144 22.2615 28.0278 22.2597 27.2856 22.2573C25.4382 22.2503 23.603 21.9573 21.8453 21.3885C16.5337 19.8599 11.3307 22.1365 8.53046 25.0692C8.14771 25.3978 7.69038 25.6279 7.19837 25.7391L7.19419 25.7299C7.05414 25.408 6.79223 25.1549 6.46589 25.026C6.13955 24.8971 5.77542 24.903 5.45337 25.0422L4.37953 25.5068C4.18183 25.2722 3.91423 25.1071 3.61592 25.0357C3.31761 24.9643 3.00428 24.9904 2.72185 25.1101L0.861196 25.905C0.524648 26.0564 0.257889 26.3296 0.114584 26.6698C-0.0287203 27.0099 -0.0379364 27.3917 0.0887898 27.7384L3.86118 39.0815C3.91939 39.2563 4.01368 39.417 4.13794 39.5531C4.2622 39.6891 4.41366 39.7975 4.5825 39.8713C4.76667 39.9541 4.96596 39.9978 5.16786 39.9999C5.36975 40.002 5.5699 39.9623 5.75574 39.8834L8.51513 38.707C8.74659 38.6079 8.94783 38.4495 9.09854 38.2478C9.24924 38.046 9.34407 37.8081 9.37346 37.558L10.6424 37.0065C10.9253 36.8833 11.1563 36.6653 11.2957 36.39C11.4351 36.1147 11.4741 35.7993 11.406 35.4984C13.0118 35.6832 14.595 36.0286 16.1319 36.5293C18.3024 37.1491 20.6544 37.8205 23.1165 37.8205C24.6476 37.8317 26.166 37.5415 27.5852 36.9665C27.6351 36.9454 27.682 36.9175 27.7245 36.8838C36.5141 29.956 42.7235 27.9842 42.7848 27.9632C42.8769 27.9349 42.9605 27.8844 43.0285 27.8162C43.0965 27.748 43.1467 27.6641 43.1746 27.5719C43.2026 27.4797 43.2075 27.3821 43.189 27.2876C43.1704 27.1931 43.1289 27.1046 43.0681 27.0298L43.0695 27.0317ZM8.18814 37.4832C8.17587 37.5142 8.15762 37.5424 8.13442 37.5663C8.11123 37.5902 8.08356 37.6094 8.05299 37.6226L5.29359 38.799C5.25736 38.8143 5.21843 38.8221 5.1791 38.8221C5.13977 38.8221 5.10085 38.8143 5.06461 38.799C5.04467 38.7915 5.02653 38.7799 5.0114 38.765C4.99627 38.75 4.98448 38.732 4.97683 38.7121L1.20537 27.3667C1.17426 27.3002 1.16902 27.2246 1.19066 27.1545C1.2123 27.0844 1.25927 27.0249 1.32241 26.9876L3.18306 26.1945C3.21372 26.1813 3.24675 26.1745 3.28013 26.1745C3.31336 26.1746 3.34627 26.1809 3.37721 26.1931C3.43974 26.2181 3.48984 26.2669 3.51655 26.3287L8.18721 37.289C8.20019 37.3197 8.20699 37.3526 8.20723 37.3859C8.20747 37.4193 8.20114 37.4523 8.18861 37.4832H8.18814ZM10.2504 35.8454C10.236 35.8816 10.2082 35.9107 10.1728 35.9267L9.08689 36.4002L4.89694 26.5662L5.92155 26.122C5.93929 26.1146 5.95831 26.1108 5.97752 26.1108C5.99673 26.1108 6.01575 26.1146 6.03349 26.122C6.06969 26.1362 6.09887 26.1641 6.11477 26.1996L10.2485 35.7348C10.2638 35.77 10.2641 35.8097 10.2504 35.8454ZM27.064 35.9072C23.3831 37.3754 19.8606 36.3718 16.4538 35.3961C14.5109 34.8414 12.6675 34.3154 10.9104 34.2983L7.6698 26.8263C8.31058 26.6603 8.89921 26.3354 9.38136 25.8818C11.9359 23.2056 16.6809 21.1274 21.5202 22.5194C23.3827 23.1198 25.3269 23.4281 27.2837 23.4333C27.9851 23.4356 28.0306 23.4584 28.1105 23.5661C28.3083 24.1077 28.2947 24.704 28.0724 25.236C27.9114 25.5146 27.6843 25.7494 27.4111 25.9195C27.138 26.0897 26.8272 26.19 26.5062 26.2117C25.9566 26.2514 25.4043 26.2263 24.8606 26.1369C22.7752 25.9045 19.6233 25.5556 16.9182 28.5278C16.818 28.6384 16.7635 28.7829 16.7657 28.9322C16.768 29.0815 16.8269 29.2244 16.9305 29.3318C17.0341 29.4393 17.1747 29.5034 17.3238 29.5111C17.4728 29.5188 17.6192 29.4696 17.7334 29.3734L18.6386 28.6072C20.2308 28.3837 21.2452 28.9185 22.3172 29.483C23.8964 30.3147 25.685 31.2574 29.188 29.5894C38.5828 25.1166 40.0282 25.3219 41.6227 27.1311C39.6381 27.8875 34.2451 30.2584 27.064 35.9072ZM6.47101 36.1679C6.52935 36.311 6.52909 36.4713 6.47029 36.6142C6.41149 36.7571 6.29887 36.8711 6.15674 36.9317C6.0146 36.9923 5.85436 36.9945 5.7106 36.9379C5.56684 36.8813 5.45109 36.7704 5.38834 36.6292L4.99308 35.7C4.93651 35.5573 4.93789 35.3981 4.99694 35.2565C5.05599 35.1148 5.16804 35.0018 5.30919 34.9415C5.45034 34.8813 5.60944 34.8786 5.75255 34.934C5.89566 34.9894 6.01147 35.0986 6.07529 35.2382L6.47101 36.1679ZM27.5824 21.2384C29.682 21.2384 31.7345 20.6156 33.4802 19.4488C35.226 18.2819 36.5866 16.6234 37.3901 14.683C38.1936 12.7426 38.4038 10.6074 37.9942 8.54751C37.5846 6.48759 36.5736 4.59542 35.0889 3.1103C33.6043 1.62518 31.7127 0.613795 29.6534 0.20405C27.5942 -0.205695 25.4597 0.0046011 23.5199 0.808344C21.5801 1.61209 19.9221 2.97318 18.7556 4.7195C17.5892 6.46582 16.9665 8.51894 16.9665 10.6192C16.9699 13.4346 18.0894 16.1337 20.0795 18.1245C22.0697 20.1152 24.7679 21.2351 27.5824 21.2384ZM27.5824 1.17687C29.4493 1.17687 31.2743 1.73066 32.8266 2.76819C34.3789 3.80573 35.5887 5.28042 36.3032 7.00579C37.0176 8.73115 37.2046 10.6297 36.8403 12.4613C36.4761 14.293 35.5771 15.9754 34.257 17.296C32.9369 18.6165 31.255 19.5158 29.4239 19.8801C27.5928 20.2445 25.6949 20.0575 23.9701 19.3428C22.2453 18.6281 20.7711 17.4179 19.7339 15.8651C18.6966 14.3123 18.143 12.4867 18.143 10.6192C18.1459 8.11582 19.1413 5.71576 20.9109 3.94559C22.6805 2.17542 25.0798 1.1797 27.5824 1.17687ZM27.5824 18.1845C29.0811 18.1979 30.55 17.7655 31.8026 16.9423C33.0552 16.1191 34.0351 14.9422 34.6179 13.5609C35.2007 12.1797 35.3601 10.6563 35.0758 9.1843C34.7916 7.71226 34.0766 6.35788 33.0215 5.29306C31.9665 4.22823 30.6189 3.50098 29.1499 3.20361C27.6809 2.90623 26.1567 3.05214 24.7708 3.62281C23.3849 4.19348 22.1997 5.16319 21.3656 6.40886C20.5316 7.65452 20.0863 9.11997 20.0864 10.6192C20.0798 12.6161 20.8653 14.534 22.2706 15.9523C23.6759 17.3706 25.5862 18.1733 27.5824 18.1845ZM27.5824 4.23078C28.8484 4.21742 30.0898 4.58076 31.1489 5.27463C32.2081 5.96851 33.0372 6.96161 33.5309 8.12782C34.0247 9.29403 34.1608 10.5807 33.9219 11.8245C33.6831 13.0682 33.0802 14.2129 32.1896 15.1131C31.2991 16.0134 30.1612 16.6285 28.9204 16.8805C27.6797 17.1325 26.392 17.0099 25.2211 16.5283C24.0501 16.0467 23.0486 15.2279 22.3439 14.1757C21.6391 13.1236 21.2628 11.8857 21.2629 10.6192C21.2559 8.93436 21.9174 7.31554 23.1021 6.1179C24.2868 4.92026 25.8981 4.24159 27.5824 4.23078ZM25.0803 12.8842V12.1445C25.0781 12.0659 25.0917 11.9876 25.1202 11.9142C25.1488 11.8409 25.1918 11.7741 25.2466 11.7176C25.3015 11.6612 25.3671 11.6164 25.4395 11.5857C25.512 11.5551 25.5899 11.5393 25.6685 11.5393C25.7472 11.5393 25.8251 11.5551 25.8976 11.5857C25.97 11.6164 26.0356 11.6612 26.0905 11.7176C26.1453 11.7741 26.1883 11.8409 26.2169 11.9142C26.2454 11.9876 26.259 12.0659 26.2568 12.1445V12.8842C26.2568 12.9994 26.7417 13.3623 27.5824 13.3623C28.4231 13.3623 28.9084 12.9994 28.9084 12.8842V11.6855C28.9084 11.6098 28.9084 11.5382 28.6725 11.4402C28.2933 11.317 27.9015 11.2372 27.5043 11.2023C27.0052 11.1577 26.5135 11.051 26.0408 10.8845C25.7595 10.7941 25.5145 10.6161 25.3417 10.3764C25.1689 10.1367 25.0773 9.84798 25.0803 9.55246V8.35423C25.0803 7.54533 25.8699 6.90788 26.9944 6.74201V6.1501C26.9922 6.07143 27.0057 5.99312 27.0343 5.9198C27.0629 5.84647 27.1058 5.77962 27.1607 5.7232C27.2155 5.66678 27.2811 5.62193 27.3536 5.5913C27.4261 5.56068 27.5039 5.5449 27.5826 5.5449C27.6613 5.5449 27.7392 5.56068 27.8116 5.5913C27.8841 5.62193 27.9497 5.66678 28.0045 5.7232C28.0594 5.77962 28.1024 5.84647 28.1309 5.9198C28.1595 5.99312 28.1731 6.07143 28.1709 6.1501V6.74201C29.2944 6.90788 30.0849 7.54533 30.0849 8.35423V9.09343C30.0871 9.17209 30.0736 9.2504 30.045 9.32372C30.0164 9.39705 29.9734 9.4639 29.9186 9.52032C29.8638 9.57675 29.7982 9.6216 29.7257 9.65222C29.6532 9.68285 29.5753 9.69863 29.4967 9.69863C29.418 9.69863 29.3401 9.68285 29.2677 9.65222C29.1952 9.6216 29.1296 9.57675 29.0748 9.52032C29.0199 9.4639 28.9769 9.39705 28.9484 9.32372C28.9198 9.2504 28.9062 9.17209 28.9084 9.09343V8.35423C28.9084 8.239 28.4235 7.87614 27.5824 7.87614C26.7412 7.87614 26.2568 8.239 26.2568 8.35423V9.55246C26.2568 9.62819 26.2568 9.69975 26.4927 9.79778C26.8719 9.92099 27.2638 10.0008 27.6609 10.0357C28.16 10.0802 28.6517 10.187 29.1244 10.3535C29.4057 10.4438 29.6507 10.6219 29.8235 10.8616C29.9964 11.1013 30.088 11.39 30.0849 11.6855V12.8842C30.0849 13.6926 29.2953 14.3301 28.1709 14.4964V15.0879C28.1731 15.1665 28.1595 15.2448 28.1309 15.3182C28.1024 15.3915 28.0594 15.4583 28.0045 15.5148C27.9497 15.5712 27.8841 15.616 27.8116 15.6467C27.7392 15.6773 27.6613 15.6931 27.5826 15.6931C27.5039 15.6931 27.4261 15.6773 27.3536 15.6467C27.2811 15.616 27.2155 15.5712 27.1607 15.5148C27.1058 15.4583 27.0629 15.3915 27.0343 15.3182C27.0057 15.2448 26.9922 15.1665 26.9944 15.0879V14.4964C25.8704 14.331 25.0803 13.6926 25.0803 12.8842Z" fill="#0D4F51"/>
</svg>
