<svg width="32" height="32" viewBox="0 0 32 32" fill="none" xmlns="http://www.w3.org/2000/svg">
<path d="M7.1123 17C7.38845 17 7.6123 16.7761 7.6123 16.5C7.6123 16.2239 7.38845 16 7.1123 16C6.83616 16 6.6123 16.2239 6.6123 16.5C6.6123 16.7761 6.83616 17 7.1123 17Z" fill="#FE6032"/>
<path d="M27.7488 20.065V11.935C27.7562 11.6288 27.642 11.3322 27.4311 11.1101C27.2203 10.888 26.9301 10.7585 26.624 10.75H25.3742C25.1653 10.751 24.9609 10.8106 24.7842 10.922C24.6075 11.0333 24.4655 11.192 24.3744 11.38C22.6247 11.0925 20.57 10.0825 20.54 10.0675C19.3302 9.49 18.5553 9.2025 18.5228 9.19C18.4945 9.17902 18.4652 9.17066 18.4354 9.165C17.8796 9.06159 17.3159 9.00639 16.7506 9C15.4509 9 14.896 9.3625 14.751 9.48L11.1166 12.1575C10.9226 12.2493 10.7533 12.3861 10.6229 12.5566C10.4925 12.7271 10.4046 12.9262 10.3667 13.1375C10.3517 13.3128 10.375 13.4892 10.435 13.6545C10.495 13.8199 10.5903 13.9702 10.7142 14.095C10.9593 14.3226 11.2481 14.498 11.563 14.6106C11.878 14.7232 12.2125 14.7706 12.5464 14.75C12.8828 14.7506 13.2183 14.7129 13.5462 14.6375C14.0136 14.5225 15.0984 13.7125 15.7958 13.1675L22.3872 20.6425C22.4774 20.7401 22.5868 20.818 22.7085 20.8714C22.8302 20.9247 22.9617 20.9523 23.0946 20.9525C23.1576 20.9529 23.2205 20.9462 23.282 20.9325L24.4094 20.6825C24.5043 20.8546 24.6431 20.9985 24.8117 21.0995C24.9803 21.2005 25.1727 21.255 25.3692 21.2575H26.619C26.7716 21.2539 26.9221 21.2202 27.0616 21.1583C27.2011 21.0963 27.3271 21.0073 27.4321 20.8965C27.5371 20.7856 27.6192 20.6551 27.6735 20.5124C27.7279 20.3697 27.7534 20.2176 27.7488 20.065ZM26.749 20.065C26.749 20.1725 26.684 20.25 26.624 20.25H25.3742C25.3142 20.25 25.2492 20.17 25.2492 20.065V19.5C25.2492 19.3674 25.1965 19.2402 25.1028 19.1464C25.009 19.0527 24.8819 19 24.7493 19C24.6167 19 24.4896 19.0527 24.3958 19.1464C24.302 19.2402 24.2494 19.3674 24.2494 19.5V19.6875L23.1121 19.9375L16.8931 12.8825L16.1857 12.15C16.099 12.0597 15.9815 12.0052 15.8566 11.9973C15.7316 11.9894 15.6082 12.0288 15.5109 12.1075C14.651 12.8 13.5562 13.595 13.2912 13.67C13.045 13.7249 12.7936 13.7526 12.5414 13.7525C12.1337 13.7808 11.7311 13.6489 11.419 13.385C11.419 13.385 11.3541 13.2975 11.3591 13.2575C11.3641 13.2175 11.4265 13.1275 11.634 13.0075C11.6515 13.0075 15.3459 10.2725 15.3459 10.2725L15.3659 10.2575C15.3659 10.2575 15.7283 10.0075 16.7406 10.0075C17.2362 10.0131 17.7304 10.0607 18.2179 10.15C18.3904 10.2175 19.0977 10.495 20.1051 10.975C20.2101 11.0275 22.3222 12.065 24.2394 12.375V15.5C24.2394 15.6326 24.292 15.7598 24.3858 15.8536C24.4796 15.9473 24.6067 16 24.7393 16C24.8719 16 24.999 15.9473 25.0928 15.8536C25.1865 15.7598 25.2392 15.6326 25.2392 15.5V11.935C25.2392 11.83 25.3042 11.75 25.3642 11.75H26.614C26.674 11.75 26.739 11.83 26.739 11.935L26.749 20.065Z" fill="#FE6032"/>
<path d="M3.9752 24.9876C3.89563 24.8815 3.77718 24.8114 3.64591 24.7926C3.51463 24.7739 3.38128 24.808 3.2752 24.8876C3.16911 24.9672 3.09898 25.0856 3.08022 25.2169C3.06147 25.3482 3.09563 25.4815 3.1752 25.5876C3.27853 25.7243 3.38353 25.8601 3.4902 25.9951C3.57455 26.0939 3.69405 26.156 3.82337 26.1682C3.9527 26.1804 4.08171 26.1418 4.18309 26.0606C4.28446 25.9794 4.35024 25.8619 4.3665 25.733C4.38276 25.6041 4.34822 25.474 4.2702 25.3701C4.1702 25.2434 4.07186 25.1159 3.9752 24.9876Z" fill="#FE6032"/>
<path d="M3.03826 23.5774C2.95659 23.439 2.87326 23.299 2.78826 23.1574C2.72494 23.0407 2.61785 22.9539 2.49056 22.9162C2.36327 22.8784 2.2262 22.8928 2.10951 22.9561C1.99281 23.0194 1.90605 23.1265 1.86831 23.2538C1.83057 23.3811 1.84494 23.5182 1.90826 23.6349C1.98992 23.7865 2.07326 23.9357 2.15826 24.0824C2.22968 24.186 2.33756 24.2589 2.46035 24.2864C2.58314 24.314 2.71182 24.2943 2.8207 24.2312C2.92958 24.168 3.01065 24.0662 3.04773 23.9459C3.08482 23.8257 3.07518 23.6958 3.02076 23.5824L3.03826 23.5774Z" fill="#FE6032"/>
<path d="M1.40768 19.5601C1.36934 19.4034 1.33351 19.2459 1.30018 19.0876C1.27299 18.9576 1.1953 18.8438 1.08418 18.7711C0.973067 18.6984 0.837634 18.6729 0.707678 18.7001C0.577722 18.7272 0.463888 18.8049 0.391217 18.9161C0.318547 19.0272 0.292993 19.1626 0.320178 19.2926C0.355178 19.4592 0.393511 19.6259 0.435178 19.7926C0.466673 19.9215 0.548107 20.0327 0.661566 20.1016C0.775026 20.1705 0.911217 20.1916 1.04018 20.1601C1.16914 20.1286 1.28031 20.0471 1.34923 19.9337C1.41815 19.8202 1.43917 19.684 1.40768 19.5551V19.5601Z" fill="#FE6032"/>
<path d="M2.07534 21.6275C2.01534 21.4792 1.95701 21.3292 1.90034 21.1775C1.85459 21.0529 1.7612 20.9515 1.64071 20.8957C1.52022 20.8399 1.3825 20.8343 1.25784 20.88C1.13319 20.9258 1.03182 21.0192 0.976027 21.1397C0.920235 21.2601 0.914594 21.3979 0.960343 21.5225C1.02034 21.6892 1.08201 21.85 1.14534 22.005C1.19507 22.128 1.29162 22.2262 1.41376 22.278C1.53589 22.3298 1.6736 22.331 1.79659 22.2813C1.91959 22.2315 2.01779 22.135 2.0696 22.0129C2.1214 21.8907 2.12257 21.753 2.07284 21.63L2.07534 21.6275Z" fill="#FE6032"/>
<path d="M4.93055 5.63752C4.99712 5.63757 5.06304 5.62434 5.12443 5.59858C5.18582 5.57282 5.24144 5.53506 5.28805 5.48752C5.40138 5.37252 5.51638 5.25918 5.63305 5.14752C5.68384 5.10307 5.72511 5.0488 5.75436 4.98798C5.78362 4.92716 5.80026 4.86104 5.80328 4.79362C5.8063 4.72619 5.79564 4.65885 5.77194 4.59566C5.74824 4.53247 5.71199 4.47472 5.66537 4.42591C5.61876 4.3771 5.56275 4.33824 5.50071 4.31165C5.43867 4.28507 5.37189 4.27132 5.3044 4.27124C5.23691 4.27116 5.1701 4.28474 5.10799 4.31117C5.04589 4.3376 4.98978 4.37632 4.94305 4.42502C4.81805 4.54335 4.69555 4.66418 4.57555 4.78752C4.5066 4.85786 4.45996 4.94701 4.44149 5.04376C4.42302 5.14051 4.43353 5.24057 4.47172 5.33136C4.50991 5.42216 4.57407 5.49966 4.65614 5.55412C4.73821 5.60859 4.83454 5.6376 4.93305 5.63752H4.93055Z" fill="#FE6032"/>
<path d="M7.44498 28.33C7.31165 28.2383 7.17998 28.1442 7.04998 28.0475C6.99729 28.0083 6.93738 27.9798 6.87369 27.9637C6.80999 27.9476 6.74375 27.9442 6.67875 27.9538C6.61375 27.9633 6.55126 27.9855 6.49485 28.0192C6.43844 28.0528 6.38921 28.0973 6.34998 28.15C6.31075 28.2027 6.28228 28.2626 6.2662 28.3263C6.25012 28.39 6.24674 28.4562 6.25625 28.5212C6.26577 28.5862 6.288 28.6487 6.32167 28.7051C6.35534 28.7615 6.39979 28.8108 6.45248 28.85C6.59081 28.9533 6.73081 29.0533 6.87248 29.15C6.98155 29.2256 7.11618 29.2547 7.24675 29.2311C7.37732 29.2074 7.49314 29.1328 7.56873 29.0237C7.64432 28.9147 7.67348 28.78 7.6498 28.6495C7.62613 28.5189 7.55155 28.4031 7.44248 28.3275L7.44498 28.33Z" fill="#FE6032"/>
<path d="M8.50208 2.92484C8.58944 2.92621 8.67564 2.90466 8.75208 2.86234C8.89208 2.78401 9.03458 2.70817 9.17958 2.63484C9.23769 2.60414 9.28918 2.5623 9.33112 2.5117C9.37306 2.46111 9.40463 2.40274 9.42401 2.33995C9.4434 2.27715 9.45022 2.21115 9.4441 2.14572C9.43798 2.08029 9.41903 2.0167 9.38833 1.95859C9.35763 1.90048 9.31579 1.84898 9.26519 1.80705C9.2146 1.76511 9.15623 1.73354 9.09344 1.71416C9.03064 1.69477 8.96464 1.68795 8.89921 1.69407C8.83378 1.70019 8.77019 1.71914 8.71208 1.74984C8.55875 1.82817 8.40708 1.91151 8.25708 1.99984C8.15946 2.05382 8.08269 2.13889 8.03899 2.24152C7.99529 2.34415 7.98716 2.45845 8.01591 2.56624C8.04465 2.67402 8.10861 2.76909 8.19761 2.83634C8.28661 2.90359 8.39554 2.93914 8.50708 2.93734L8.50208 2.92484Z" fill="#FE6032"/>
<path d="M5.40286 26.6275C5.3564 26.581 5.30125 26.5442 5.24055 26.519C5.17986 26.4939 5.1148 26.481 5.04911 26.481C4.98341 26.481 4.91835 26.4939 4.85766 26.519C4.79696 26.5442 4.74181 26.581 4.69536 26.6275C4.6489 26.6739 4.61205 26.7291 4.58691 26.7898C4.56177 26.8505 4.54883 26.9155 4.54883 26.9812C4.54883 27.0469 4.56177 27.112 4.58691 27.1727C4.61205 27.2334 4.6489 27.2885 4.69536 27.335C4.81702 27.4567 4.94119 27.5758 5.06786 27.6925C5.11502 27.7405 5.17139 27.7785 5.23359 27.8042C5.29579 27.8299 5.36254 27.8428 5.42984 27.8421C5.49713 27.8414 5.5636 27.8271 5.62524 27.8C5.68688 27.773 5.74243 27.7339 5.78857 27.6849C5.83471 27.6359 5.87048 27.578 5.89373 27.5149C5.91699 27.4517 5.92726 27.3845 5.92393 27.3173C5.92059 27.2501 5.90372 27.1842 5.87433 27.1237C5.84493 27.0632 5.80362 27.0092 5.75286 26.965C5.63286 26.855 5.51619 26.7425 5.40286 26.6275Z" fill="#FE6032"/>
<path d="M0.599142 17.9575C0.664683 17.9515 0.728402 17.9327 0.786645 17.902C0.844888 17.8714 0.89651 17.8295 0.93855 17.7789C0.980589 17.7283 1.01222 17.6698 1.03163 17.607C1.05103 17.5441 1.05784 17.478 1.05164 17.4125C1.03664 17.2458 1.02414 17.085 1.01414 16.93C1.00486 16.796 0.942752 16.6713 0.841482 16.5831C0.740213 16.495 0.608076 16.4507 0.474142 16.46C0.340208 16.4692 0.215447 16.5313 0.127304 16.6326C0.0391624 16.7339 -0.00514047 16.866 0.00414211 17C0.0224754 17.1666 0.0391421 17.3333 0.0541421 17.5C0.0659945 17.6242 0.123861 17.7395 0.216376 17.8232C0.308891 17.9069 0.429368 17.953 0.554142 17.9525L0.599142 17.9575Z" fill="#FE6032"/>
<path d="M6.61736 4.15233C6.72669 4.15216 6.83294 4.11615 6.91986 4.04983C7.04819 3.95317 7.17819 3.85817 7.30986 3.76483C7.36337 3.72675 7.40886 3.6785 7.44373 3.62284C7.4786 3.56717 7.50216 3.50519 7.51307 3.44042C7.52398 3.37565 7.52202 3.30937 7.50732 3.24535C7.49261 3.18134 7.46544 3.12085 7.42736 3.06733C7.38928 3.01382 7.34103 2.96833 7.28536 2.93347C7.2297 2.8986 7.16771 2.87504 7.10295 2.86413C7.03818 2.85322 6.97189 2.85517 6.90788 2.86987C6.84386 2.88458 6.78337 2.91175 6.72986 2.94983C6.58986 3.04983 6.45153 3.1515 6.31486 3.25483C6.23177 3.31824 6.17063 3.40608 6.14005 3.50603C6.10947 3.60597 6.11097 3.71299 6.14435 3.81203C6.17774 3.91108 6.24132 3.99717 6.32616 4.05821C6.411 4.11925 6.51284 4.15217 6.61736 4.15233Z" fill="#FE6032"/>
<path d="M1.2054 11.2877C1.26744 11.3099 1.33325 11.3195 1.39905 11.3162C1.46484 11.3129 1.52933 11.2966 1.58881 11.2682C1.64828 11.2399 1.70157 11.2001 1.7456 11.1511C1.78964 11.1021 1.82355 11.0448 1.8454 10.9827C1.89874 10.8277 1.95124 10.676 2.0029 10.5277C2.05131 10.404 2.0486 10.2662 1.99539 10.1445C1.94218 10.0229 1.84281 9.92733 1.71915 9.87893C1.5955 9.83053 1.45768 9.83323 1.33601 9.88644C1.21435 9.93966 1.11881 10.039 1.0704 10.1627C1.00707 10.3293 0.94707 10.491 0.890404 10.6477C0.868457 10.7103 0.859213 10.7768 0.863212 10.843C0.867212 10.9093 0.884374 10.9742 0.913698 11.0337C0.943022 11.0933 0.983919 11.1465 1.034 11.1901C1.08409 11.2337 1.14235 11.2668 1.2054 11.2877Z" fill="#FE6032"/>
<path d="M29.3135 9.08998C29.3885 9.23165 29.4601 9.37581 29.5285 9.52248C29.5858 9.64216 29.6884 9.73415 29.8136 9.77823C29.9387 9.8223 30.0763 9.81483 30.196 9.75748C30.3157 9.70013 30.4076 9.59758 30.4517 9.4724C30.4958 9.34722 30.4883 9.20966 30.431 9.08998C30.356 8.93498 30.2793 8.78165 30.201 8.62998C30.1396 8.51229 30.0341 8.42379 29.9075 8.38393C29.7809 8.34408 29.6437 8.35615 29.526 8.41748C29.4083 8.47881 29.3198 8.58438 29.2799 8.71097C29.2401 8.83756 29.2521 8.97479 29.3135 9.09248V9.08998Z" fill="#FE6032"/>
<path d="M0.478429 15.7122H0.503429C0.629789 15.7126 0.751597 15.6651 0.844358 15.5793C0.937119 15.4935 0.993953 15.3757 1.00343 15.2497C1.00343 15.0831 1.01426 14.9164 1.03593 14.7497C1.04687 14.6171 1.00468 14.4856 0.918651 14.3841C0.832618 14.2826 0.709787 14.2194 0.577179 14.2085C0.444571 14.1975 0.313048 14.2397 0.211544 14.3258C0.11004 14.4118 0.0468692 14.5346 0.035929 14.6672C0.0225957 14.8339 0.010929 15.0056 0.000929042 15.1822C-0.00311742 15.2485 0.00608185 15.315 0.0279898 15.3776C0.0498977 15.4403 0.0840753 15.498 0.128527 15.5474C0.172979 15.5967 0.226815 15.6367 0.286891 15.665C0.346967 15.6933 0.41208 15.7094 0.478429 15.7122Z" fill="#FE6032"/>
<path d="M31.1329 12.6026C31.0684 12.6149 31.007 12.6398 30.9521 12.6759C30.8972 12.7119 30.8499 12.7585 30.813 12.8128C30.7761 12.8671 30.7502 12.9282 30.7369 12.9925C30.7236 13.0568 30.7231 13.1231 30.7354 13.1876C30.7654 13.346 30.7929 13.5051 30.8179 13.6651C30.8366 13.7839 30.8974 13.892 30.9892 13.9696C31.081 14.0472 31.1977 14.0891 31.3179 14.0876H31.3954C31.4613 14.0768 31.5244 14.0529 31.5809 14.0173C31.6374 13.9817 31.6862 13.9352 31.7244 13.8804C31.7626 13.8256 31.7895 13.7638 31.8034 13.6985C31.8173 13.6332 31.818 13.5657 31.8054 13.5001C31.7788 13.3335 31.7496 13.1668 31.7179 13.0001C31.7057 12.9356 31.6808 12.8742 31.6447 12.8193C31.6086 12.7644 31.5621 12.7171 31.5078 12.6802C31.4535 12.6433 31.3924 12.6174 31.3281 12.6041C31.2638 12.5908 31.1975 12.5903 31.1329 12.6026Z" fill="#FE6032"/>
<path d="M20.365 1.1175C20.3826 1.05297 20.387 0.985567 20.3781 0.919281C20.3692 0.852996 20.3471 0.789175 20.313 0.731598C20.279 0.67402 20.2338 0.623856 20.18 0.584075C20.1262 0.544294 20.065 0.515705 20 0.5V1.4725C20.0871 1.45144 20.1669 1.40739 20.2311 1.34494C20.2953 1.28249 20.3415 1.20394 20.365 1.1175Z" fill="#FE6032"/>
<path d="M30.1735 11.0851C30.2268 11.2368 30.2768 11.3901 30.3235 11.5451C30.3626 11.6721 30.4506 11.7783 30.568 11.8405C30.6855 11.9026 30.8228 11.9155 30.9498 11.8764C31.0767 11.8373 31.183 11.7493 31.2451 11.6319C31.3072 11.5144 31.3201 11.3771 31.281 11.2501C31.2293 11.0835 31.176 10.9168 31.121 10.7501C31.0776 10.6248 30.9861 10.5219 30.8668 10.464C30.7475 10.4061 30.6101 10.398 30.4848 10.4414C30.3594 10.4848 30.2565 10.5762 30.1986 10.6956C30.1407 10.8149 30.1326 10.9523 30.176 11.0776L30.1735 11.0851Z" fill="#FE6032"/>
<path d="M0.68084 13.4749C0.810785 13.5006 0.945638 13.4738 1.05579 13.4002C1.16594 13.3266 1.24239 13.2123 1.26834 13.0824C1.30001 12.9157 1.33417 12.7582 1.37084 12.6099C1.40068 12.4806 1.37793 12.3447 1.3076 12.2322C1.23728 12.1197 1.12513 12.0397 0.99584 12.0099C0.866547 11.98 0.730697 12.0028 0.618175 12.0731C0.505653 12.1434 0.425677 12.2556 0.39584 12.3849C0.357506 12.5516 0.321673 12.7182 0.28834 12.8849C0.275225 12.9494 0.274983 13.0159 0.287627 13.0805C0.300272 13.1451 0.325555 13.2066 0.362024 13.2614C0.398493 13.3162 0.445431 13.3633 0.500142 13.4C0.554853 13.4366 0.616261 13.462 0.68084 13.4749Z" fill="#FE6032"/>
<path d="M3.17805 7.24997C3.23104 7.28897 3.2912 7.31713 3.35508 7.33284C3.41897 7.34855 3.48533 7.3515 3.55036 7.34151C3.61539 7.33152 3.67781 7.3088 3.73404 7.27465C3.79028 7.24049 3.83921 7.19557 3.87805 7.14247C3.97305 7.01247 4.07055 6.88413 4.17055 6.75747C4.24587 6.65258 4.27769 6.52263 4.25935 6.39481C4.24101 6.26699 4.17394 6.15123 4.07217 6.07175C3.9704 5.99228 3.84183 5.95525 3.71338 5.96843C3.58493 5.98161 3.46656 6.04398 3.38305 6.14247C3.27638 6.27747 3.17222 6.41497 3.07055 6.55497C2.99335 6.66163 2.96134 6.79444 2.98146 6.92456C3.00159 7.05468 3.07223 7.17161 3.17805 7.24997Z" fill="#FE6032"/>
<path d="M9.31692 29.44C9.17192 29.3683 9.02859 29.2941 8.88692 29.2175C8.82914 29.1863 8.76578 29.1668 8.70046 29.1601C8.63514 29.1534 8.56914 29.1596 8.50623 29.1784C8.44332 29.1972 8.38473 29.2282 8.3338 29.2697C8.28287 29.3111 8.24061 29.3622 8.20942 29.42C8.17823 29.4778 8.15873 29.5411 8.15203 29.6064C8.14532 29.6718 8.15155 29.7378 8.17036 29.8007C8.18916 29.8636 8.22017 29.9222 8.26162 29.9731C8.30307 30.024 8.35414 30.0663 8.41192 30.0975C8.56359 30.1791 8.71692 30.2625 8.87192 30.3475C8.93093 30.3791 8.99569 30.3986 9.06237 30.4047C9.12904 30.4109 9.19628 30.4036 9.26007 30.3832C9.32387 30.3629 9.38293 30.3299 9.43375 30.2864C9.48457 30.2428 9.52612 30.1894 9.55593 30.1294C9.58574 30.0695 9.60321 30.0042 9.60729 29.9373C9.61137 29.8705 9.60199 29.8035 9.5797 29.7404C9.55741 29.6772 9.52266 29.6192 9.47752 29.5698C9.43238 29.5203 9.37777 29.4804 9.31692 29.4525V29.44Z" fill="#FE6032"/>
<path d="M2.04359 9.19746C2.15968 9.26085 2.29615 9.27565 2.42313 9.23863C2.55011 9.20162 2.65725 9.1158 2.72109 8.99996C2.79609 8.85663 2.87442 8.71496 2.95609 8.57496C2.98892 8.51784 3.01018 8.45481 3.01865 8.38947C3.02712 8.32413 3.02264 8.25776 3.00546 8.19415C2.98828 8.13054 2.95874 8.07094 2.91853 8.01875C2.87831 7.96656 2.82822 7.92279 2.77109 7.88996C2.71397 7.85713 2.65093 7.83588 2.58559 7.82741C2.52025 7.81894 2.45388 7.82342 2.39028 7.8406C2.32667 7.85777 2.26707 7.88731 2.21487 7.92753C2.16268 7.96774 2.11892 8.01784 2.08609 8.07496C2.00109 8.22496 1.91776 8.3758 1.83609 8.52746C1.77585 8.64403 1.76384 8.77961 1.80266 8.90495C1.84147 9.03029 1.92801 9.13535 2.04359 9.19746Z" fill="#FE6032"/>
<path d="M27.2162 25.9548C27.1095 26.0748 27.0003 26.194 26.8887 26.3123C26.7975 26.4088 26.7484 26.5375 26.7522 26.6702C26.7559 26.8029 26.8122 26.9286 26.9087 27.0198C27.0052 27.111 27.1339 27.1601 27.2666 27.1563C27.3993 27.1526 27.525 27.0963 27.6162 26.9998C27.7345 26.8748 27.8503 26.7481 27.9637 26.6198C28.0519 26.5204 28.0969 26.3899 28.089 26.2573C28.081 26.1246 28.0206 26.0005 27.9212 25.9123C27.8217 25.8241 27.6913 25.7791 27.5586 25.787C27.4259 25.795 27.3019 25.8554 27.2137 25.9548H27.2162Z" fill="#FE6032"/>
<path d="M28.866 7.85751C28.9568 7.85765 29.0459 7.83304 29.1238 7.78632C29.2018 7.73961 29.2655 7.67255 29.3081 7.59236C29.3508 7.51217 29.3708 7.42187 29.366 7.33117C29.3612 7.24046 29.3318 7.15277 29.281 7.07751C29.1843 6.93418 29.086 6.79334 28.986 6.65501C28.9071 6.54727 28.7886 6.47528 28.6566 6.45488C28.5246 6.43449 28.39 6.46736 28.2822 6.54626C28.1745 6.62516 28.1025 6.74363 28.0821 6.87561C28.0617 7.00759 28.0946 7.14227 28.1735 7.25001C28.2668 7.38001 28.3585 7.51251 28.4485 7.64751C28.4957 7.71387 28.5584 7.76769 28.6312 7.80429C28.7039 7.84089 28.7845 7.85916 28.866 7.85751Z" fill="#FE6032"/>
<path d="M29.2334 24.0848C29.1226 24.0119 28.9875 23.986 28.8576 24.0127C28.7278 24.0394 28.6138 24.1166 28.5409 24.2273C28.4525 24.3623 28.3617 24.4957 28.2684 24.6273C28.1972 24.7359 28.1711 24.8678 28.1954 24.9953C28.2198 25.1228 28.2927 25.2358 28.3989 25.3104C28.505 25.3851 28.636 25.4156 28.7642 25.3954C28.8924 25.3752 29.0078 25.306 29.0859 25.2023C29.1842 25.0623 29.2809 24.9198 29.3759 24.7748C29.448 24.6643 29.4735 24.5297 29.4468 24.4005C29.4201 24.2712 29.3434 24.1578 29.2334 24.0848Z" fill="#FE6032"/>
<path d="M27.1093 5.92497C27.1985 6.02442 27.3236 6.08438 27.4569 6.09165C27.5903 6.09891 27.7211 6.05289 27.8206 5.96372C27.92 5.87454 27.98 5.7495 27.9873 5.61612C27.9945 5.48273 27.9485 5.35192 27.8593 5.25247C27.7443 5.1258 27.6268 5.0008 27.5068 4.87747C27.4147 4.78199 27.2884 4.72703 27.1557 4.72469C27.023 4.72234 26.8948 4.7728 26.7993 4.86497C26.7039 4.95713 26.6489 5.08344 26.6466 5.21613C26.6442 5.34881 26.6947 5.47699 26.7868 5.57247C26.8935 5.6908 27.001 5.8083 27.1093 5.92497Z" fill="#FE6032"/>
<path d="M25.6589 27.4725C25.5356 27.5759 25.4106 27.6775 25.2839 27.7775C25.2324 27.8183 25.1893 27.8687 25.1573 27.9261C25.1253 27.9834 25.1048 28.0465 25.0972 28.1117C25.0895 28.1769 25.0948 28.243 25.1127 28.3062C25.1305 28.3694 25.1607 28.4285 25.2014 28.48C25.2421 28.5316 25.2926 28.5746 25.3499 28.6067C25.4073 28.6387 25.4703 28.6591 25.5356 28.6668C25.6008 28.6745 25.6669 28.6692 25.7301 28.6513C25.7933 28.6334 25.8524 28.6033 25.9039 28.5625C26.0389 28.4559 26.1722 28.3475 26.3039 28.2375C26.3541 28.1952 26.3955 28.1434 26.4257 28.085C26.4559 28.0267 26.4743 27.9629 26.4799 27.8975C26.4855 27.832 26.4781 27.7661 26.4582 27.7035C26.4383 27.6409 26.4063 27.5828 26.3639 27.5325C26.3216 27.4823 26.2697 27.4409 26.2114 27.4107C26.153 27.3805 26.0893 27.3621 26.0238 27.3565C25.9584 27.351 25.8924 27.3583 25.8298 27.3782C25.7672 27.3982 25.7091 27.4302 25.6589 27.4725Z" fill="#FE6032"/>
<path d="M30.9984 19.9574C30.8714 19.9193 30.7345 19.9332 30.6178 19.996C30.5011 20.0588 30.4141 20.1654 30.3759 20.2924C30.3292 20.4474 30.2809 20.6007 30.2309 20.7524C30.2101 20.8147 30.2017 20.8806 30.2063 20.9462C30.2109 21.0118 30.2284 21.0759 30.2578 21.1347C30.3171 21.2536 30.4212 21.344 30.5472 21.3861C30.6731 21.4282 30.8107 21.4185 30.9295 21.3592C31.0484 21.2999 31.1388 21.1958 31.1809 21.0699C31.2359 20.9032 31.2876 20.7365 31.3359 20.5699C31.3709 20.4439 31.3551 20.3093 31.292 20.1948C31.229 20.0803 31.1236 19.9951 30.9984 19.9574Z" fill="#FE6032"/>
<path d="M30.2656 22.0849C30.2055 22.0574 30.1406 22.042 30.0746 22.0396C30.0086 22.0373 29.9428 22.048 29.8809 22.0713C29.8191 22.0945 29.7625 22.1298 29.7144 22.1751C29.6662 22.2203 29.6276 22.2746 29.6006 22.3349C29.5322 22.4816 29.4614 22.6266 29.3881 22.7699C29.3281 22.8883 29.3175 23.0256 29.3588 23.1517C29.4 23.2779 29.4897 23.3824 29.6081 23.4424C29.7264 23.5024 29.8638 23.513 29.9899 23.4717C30.116 23.4305 30.2206 23.3408 30.2806 23.2224C30.3589 23.0691 30.4339 22.9141 30.5056 22.7574C30.5346 22.6976 30.5515 22.6326 30.5551 22.5662C30.5588 22.4999 30.5491 22.4334 30.5268 22.3708C30.5044 22.3082 30.4698 22.2506 30.425 22.2015C30.3801 22.1525 30.3259 22.1128 30.2656 22.0849Z" fill="#FE6032"/>
<path d="M31.4086 17.7499C31.3436 17.7404 31.2773 17.7437 31.2136 17.7598C31.1499 17.7759 31.09 17.8043 31.0373 17.8436C30.9846 17.8828 30.9401 17.9321 30.9065 17.9885C30.8728 18.0449 30.8506 18.1074 30.8411 18.1724C30.8178 18.3391 30.7919 18.4983 30.7636 18.6499C30.7521 18.7146 30.7534 18.7809 30.7675 18.8451C30.7817 18.9093 30.8083 18.97 30.8459 19.0239C30.8835 19.0777 30.9314 19.1237 30.9868 19.159C31.0421 19.1944 31.1039 19.2185 31.1686 19.2299C31.2335 19.2414 31.3 19.24 31.3643 19.2257C31.4286 19.2114 31.4894 19.1846 31.5433 19.1467C31.5972 19.1089 31.6431 19.0607 31.6783 19.0051C31.7135 18.9494 31.7374 18.8874 31.7486 18.8224C31.7786 18.6558 31.8061 18.4891 31.8311 18.3224C31.8414 18.2571 31.8386 18.1903 31.8228 18.126C31.8071 18.0617 31.7788 18.0012 31.7395 17.9479C31.7002 17.8947 31.6507 17.8497 31.5939 17.8158C31.5371 17.7818 31.4741 17.7594 31.4086 17.7499Z" fill="#FE6032"/>
<path d="M31.9979 15.9101C32.0006 15.8802 32.0006 15.8501 31.9979 15.8201C31.9979 15.6535 31.9929 15.4818 31.9829 15.3051C31.9772 15.1725 31.9192 15.0476 31.8214 14.9578C31.7236 14.868 31.5942 14.8207 31.4616 14.8264C31.329 14.832 31.2041 14.8901 31.1143 14.9879C31.0245 15.0856 30.9772 15.215 30.9829 15.3476C30.9829 15.5143 30.987 15.6751 30.9954 15.8301C30.993 15.8584 30.993 15.8868 30.9954 15.9151C30.993 15.9434 30.993 15.9718 30.9954 16.0001C30.9954 16.1668 30.9954 16.3285 30.9954 16.4851C30.9913 16.6165 31.0391 16.7442 31.1285 16.8406C31.2178 16.937 31.3416 16.9943 31.4729 17.0001H31.4979C31.6279 17.0002 31.7529 16.9496 31.8462 16.859C31.9396 16.7685 31.994 16.6451 31.9979 16.5151C31.9979 16.3485 31.9979 16.1768 31.9979 16.0001C32.0006 15.9702 32.0006 15.9401 31.9979 15.9101Z" fill="#FE6032"/>
<path d="M25.1535 4.11995C25.2819 4.21829 25.4077 4.31912 25.531 4.42245C25.5818 4.46431 25.6402 4.49577 25.7031 4.51503C25.766 4.53429 25.8321 4.54098 25.8975 4.53471C25.963 4.52845 26.0266 4.50934 26.0847 4.4785C26.1427 4.44766 26.1942 4.40568 26.236 4.35495C26.2779 4.30423 26.3094 4.24576 26.3286 4.18288C26.3479 4.12 26.3546 4.05394 26.3483 3.98847C26.342 3.92301 26.3229 3.85942 26.2921 3.80133C26.2612 3.74325 26.2193 3.69181 26.1685 3.64995C26.0352 3.53995 25.901 3.43245 25.766 3.32745C25.714 3.28724 25.6546 3.25766 25.5911 3.24042C25.5276 3.22318 25.4614 3.2186 25.3961 3.22696C25.3309 3.23532 25.268 3.25644 25.2109 3.28913C25.1538 3.32181 25.1038 3.36542 25.0635 3.41745C25.0233 3.46949 24.9937 3.52894 24.9765 3.5924C24.9593 3.65587 24.9547 3.72211 24.963 3.78734C24.9714 3.85258 24.9925 3.91552 25.0252 3.97259C25.0579 4.02966 25.1015 4.07974 25.1535 4.11995Z" fill="#FE6032"/>
<path d="M11.3337 30.2626C11.1804 30.2126 11.0271 30.1601 10.8737 30.1051C10.8115 30.0806 10.7451 30.0688 10.6782 30.0705C10.6114 30.0721 10.5456 30.0871 10.4846 30.1146C10.4237 30.1421 10.3689 30.1816 10.3235 30.2307C10.2781 30.2797 10.243 30.3374 10.2202 30.4002C10.1975 30.4631 10.1876 30.5299 10.1911 30.5967C10.1946 30.6634 10.2115 30.7288 10.2407 30.7889C10.27 30.849 10.311 30.9027 10.3613 30.9467C10.4116 30.9907 10.4702 31.0242 10.5337 31.0451C10.7004 31.1035 10.8671 31.1593 11.0337 31.2126C11.0968 31.2359 11.164 31.2461 11.2311 31.2428C11.2983 31.2395 11.3641 31.2227 11.4246 31.1934C11.4851 31.1641 11.539 31.1228 11.5832 31.0722C11.6275 31.0215 11.661 30.9625 11.6818 30.8985C11.7027 30.8346 11.7105 30.7671 11.7046 30.7002C11.6988 30.6332 11.6796 30.5681 11.648 30.5087C11.6164 30.4493 11.5732 30.3969 11.5209 30.3547C11.4687 30.3124 11.4084 30.2811 11.3437 30.2626H11.3337Z" fill="#FE6032"/>
<path d="M10.5391 1.98508C10.5989 1.9848 10.6582 1.97379 10.7141 1.95258C10.8641 1.89591 11.0158 1.84174 11.1691 1.79008C11.2337 1.77114 11.2937 1.73938 11.3457 1.69669C11.3977 1.65401 11.4405 1.60127 11.4716 1.54165C11.5027 1.48202 11.5215 1.41673 11.5268 1.34969C11.5321 1.28264 11.5238 1.21521 11.5025 1.15144C11.4811 1.08767 11.4471 1.02886 11.4024 0.978543C11.3578 0.928224 11.3035 0.887426 11.2427 0.85859C11.182 0.829754 11.116 0.813473 11.0488 0.810721C10.9816 0.80797 10.9146 0.818804 10.8516 0.842576C10.685 0.897576 10.5233 0.955076 10.3666 1.01508C10.2574 1.05649 10.1662 1.13481 10.1087 1.23646C10.0512 1.3381 10.0311 1.45667 10.0519 1.57158C10.0727 1.68649 10.1331 1.7905 10.2225 1.86557C10.312 1.94064 10.4249 1.98204 10.5416 1.98258L10.5391 1.98508Z" fill="#FE6032"/>
<path d="M23.3395 2.91741C23.4812 2.99741 23.6204 3.08074 23.757 3.16741C23.8132 3.20409 23.8762 3.2291 23.9422 3.24093C24.0083 3.25275 24.0761 3.25117 24.1415 3.23626C24.2069 3.22136 24.2687 3.19343 24.3231 3.15416C24.3775 3.11489 24.4234 3.06506 24.4581 3.00766C24.4929 2.95025 24.5157 2.88644 24.5253 2.82003C24.5349 2.75362 24.531 2.68595 24.5138 2.62108C24.4967 2.5562 24.4667 2.49544 24.4256 2.44241C24.3844 2.38938 24.3331 2.34517 24.2745 2.31241C24.1279 2.22407 23.9787 2.14074 23.827 2.06241C23.7697 2.02958 23.7065 2.00835 23.641 1.99994C23.5756 1.99153 23.5091 1.99611 23.4453 2.0134C23.3816 2.0307 23.3219 2.06038 23.2697 2.10074C23.2174 2.1411 23.1736 2.19137 23.1408 2.24866C23.1079 2.30594 23.0867 2.36914 23.0783 2.43463C23.0699 2.50012 23.0745 2.56663 23.0918 2.63035C23.1091 2.69408 23.1387 2.75377 23.1791 2.80603C23.2195 2.85828 23.2697 2.90208 23.327 2.93491L23.3395 2.91741Z" fill="#FE6032"/>
<path d="M21.9724 29.7497C21.8257 29.813 21.6774 29.8747 21.5274 29.9347C21.4663 29.959 21.4106 29.9951 21.3635 30.0409C21.3164 30.0867 21.2787 30.1414 21.2527 30.2017C21.2267 30.2621 21.2129 30.327 21.212 30.3927C21.211 30.4584 21.2231 30.5236 21.2474 30.5847C21.2717 30.6458 21.3077 30.7015 21.3536 30.7486C21.3994 30.7957 21.454 30.8333 21.5144 30.8593C21.5747 30.8853 21.6396 30.8992 21.7053 30.9001C21.771 30.901 21.8363 30.889 21.8974 30.8647C22.064 30.8014 22.2224 30.7355 22.3724 30.6672C22.4326 30.6409 22.4871 30.6031 22.5327 30.5558C22.5783 30.5084 22.6141 30.4526 22.6382 30.3914C22.6622 30.3303 22.6739 30.2649 22.6727 30.1992C22.6715 30.1335 22.6574 30.0687 22.6311 30.0085C22.6049 29.9482 22.567 29.8937 22.5197 29.8481C22.4723 29.8025 22.4165 29.7667 22.3553 29.7427C22.2942 29.7186 22.2289 29.7069 22.1631 29.7081C22.0974 29.7093 22.0326 29.7234 21.9724 29.7497Z" fill="#FE6032"/>
<path d="M23.8997 28.75C23.763 28.835 23.6247 28.9183 23.4847 29C23.3759 29.0692 23.298 29.1777 23.2673 29.303C23.2366 29.4283 23.2555 29.5605 23.32 29.6722C23.3846 29.7838 23.4898 29.8662 23.6136 29.9022C23.7375 29.9381 23.8704 29.9248 23.9847 29.865C24.133 29.7783 24.2805 29.69 24.4272 29.6C24.5399 29.53 24.6202 29.4182 24.6505 29.289C24.6807 29.1598 24.6584 29.024 24.5884 28.9112C24.5185 28.7985 24.4066 28.7182 24.2775 28.688C24.1483 28.6577 24.0124 28.68 23.8997 28.75Z" fill="#FE6032"/>
<path d="M21.3692 1.99992C21.5209 2.05825 21.6709 2.11825 21.8192 2.17992C21.8803 2.20536 21.9457 2.21853 22.0119 2.21867C22.0781 2.21881 22.1436 2.20591 22.2048 2.18073C22.2659 2.15554 22.3215 2.11855 22.3684 2.07187C22.4153 2.02519 22.4525 1.96973 22.478 1.90867C22.5034 1.84761 22.5166 1.78213 22.5167 1.71597C22.5168 1.64982 22.504 1.58429 22.4788 1.52312C22.4536 1.46195 22.4166 1.40634 22.3699 1.35946C22.3232 1.31259 22.2678 1.27536 22.2067 1.24992C22.04 1.18325 21.88 1.11909 21.7267 1.05742C21.6648 1.03395 21.5989 1.02289 21.5328 1.02489C21.4666 1.02688 21.4015 1.04189 21.3411 1.06905C21.2808 1.09621 21.2264 1.135 21.181 1.18319C21.1356 1.23138 21.1002 1.28803 21.0767 1.34992C21.0532 1.41181 21.0422 1.47771 21.0442 1.54387C21.0462 1.61002 21.0612 1.67514 21.0883 1.7355C21.1155 1.79586 21.1543 1.85027 21.2025 1.89564C21.2507 1.94101 21.3073 1.97645 21.3692 1.99992Z" fill="#FE6032"/>
<path d="M16.001 6.5C16.1336 6.5 16.2608 6.44732 16.3545 6.35355C16.4483 6.25979 16.501 6.13261 16.501 6V0.5C16.501 0.367392 16.4483 0.240215 16.3545 0.146447C16.2608 0.0526784 16.1336 0 16.001 0C15.8684 0 15.7412 0.0526784 15.6474 0.146447C15.5537 0.240215 15.501 0.367392 15.501 0.5V6C15.501 6.13261 15.5537 6.25979 15.6474 6.35355C15.7412 6.44732 15.8684 6.5 16.001 6.5Z" fill="#FE6032"/>
<path d="M13.501 3.5C13.6336 3.5 13.7608 3.44732 13.8545 3.35355C13.9483 3.25979 14.001 3.13261 14.001 3V0.5C14.001 0.367392 13.9483 0.240215 13.8545 0.146447C13.7608 0.0526784 13.6336 0 13.501 0C13.3684 0 13.2412 0.0526784 13.1474 0.146447C13.0537 0.240215 13.001 0.367392 13.001 0.5V3C13.001 3.13261 13.0537 3.25979 13.1474 3.35355C13.2412 3.44732 13.3684 3.5 13.501 3.5Z" fill="#FE6032"/>
<path d="M18.501 3.5C18.6336 3.5 18.7608 3.44732 18.8545 3.35355C18.9483 3.25979 19.001 3.13261 19.001 3V0.5C19.001 0.367392 18.9483 0.240215 18.8545 0.146447C18.7608 0.0526784 18.6336 0 18.501 0C18.3684 0 18.2412 0.0526784 18.1474 0.146447C18.0537 0.240215 18.001 0.367392 18.001 0.5V3C18.001 3.13261 18.0537 3.25979 18.1474 3.35355C18.2412 3.44732 18.3684 3.5 18.501 3.5Z" fill="#FE6032"/>
<path d="M20 30.4675V31.5L20.19 31.4525C20.3097 31.4176 20.412 31.3393 20.4769 31.2328C20.5418 31.1264 20.5646 30.9995 20.5408 30.8771C20.5171 30.7547 20.4484 30.6456 20.3483 30.5713C20.2483 30.4969 20.1241 30.4626 20 30.475V30.4675Z" fill="#FE6032"/>
<path d="M16.001 25.5C15.8684 25.5 15.7412 25.5527 15.6474 25.6464C15.5537 25.7402 15.501 25.8674 15.501 26V31.5C15.501 31.6326 15.5537 31.7598 15.6474 31.8536C15.7412 31.9473 15.8684 32 16.001 32C16.1336 32 16.2608 31.9473 16.3545 31.8536C16.4483 31.7598 16.501 31.6326 16.501 31.5V26C16.501 25.8674 16.4483 25.7402 16.3545 25.6464C16.2608 25.5527 16.1336 25.5 16.001 25.5Z" fill="#FE6032"/>
<path d="M13.501 28.5C13.3684 28.5 13.2412 28.5527 13.1474 28.6464C13.0537 28.7402 13.001 28.8674 13.001 29V31.5C13.001 31.6326 13.0537 31.7598 13.1474 31.8536C13.2412 31.9473 13.3684 32 13.501 32C13.6336 32 13.7608 31.9473 13.8545 31.8536C13.9483 31.7598 14.001 31.6326 14.001 31.5V29C14.001 28.8674 13.9483 28.7402 13.8545 28.6464C13.7608 28.5527 13.6336 28.5 13.501 28.5Z" fill="#FE6032"/>
<path d="M18.501 28.5C18.3684 28.5 18.2412 28.5527 18.1474 28.6464C18.0537 28.7402 18.001 28.8674 18.001 29V31.5C18.001 31.6326 18.0537 31.7598 18.1474 31.8536C18.2412 31.9473 18.3684 32 18.501 32C18.6336 32 18.7608 31.9473 18.8545 31.8536C18.9483 31.7598 19.001 31.6326 19.001 31.5V29C19.001 28.8674 18.9483 28.7402 18.8545 28.6464C18.7608 28.5527 18.6336 28.5 18.501 28.5Z" fill="#FE6032"/>
<path d="M24.7441 18C25.0203 18 25.2441 17.7761 25.2441 17.5C25.2441 17.2239 25.0203 17 24.7441 17C24.468 17 24.2441 17.2239 24.2441 17.5C24.2441 17.7761 24.468 18 24.7441 18Z" fill="#FE6032"/>
<path d="M22.0269 21.6975C21.945 21.6362 21.8697 21.5667 21.8019 21.49L21.322 20.945C21.2898 21.0213 21.2412 21.0896 21.1795 21.145C21.14 21.1884 21.0923 21.2236 21.0391 21.2485C20.9859 21.2734 20.9283 21.2875 20.8696 21.29C20.6589 21.2628 20.4604 21.1761 20.2972 21.04L17.9551 18.54C17.8646 18.4429 17.7392 18.3857 17.6066 18.381C17.4739 18.3763 17.3448 18.4245 17.2477 18.515C17.1506 18.6055 17.0934 18.7309 17.0887 18.8636C17.084 18.9963 17.1322 19.1254 17.2227 19.2225L19.1249 21.2625C19.2148 21.3319 19.2851 21.4234 19.3289 21.5282C19.3727 21.6329 19.3885 21.7473 19.3748 21.86C19.3621 22.0075 19.2975 22.1457 19.1924 22.25C19.0768 22.3479 18.9283 22.3982 18.7771 22.3908C18.6258 22.3834 18.483 22.3187 18.3775 22.21L18.0326 21.83C18.012 21.7891 17.9859 21.7513 17.9551 21.7175L15.638 19.25C15.5472 19.1532 15.4216 19.0964 15.2889 19.0922C15.1563 19.088 15.0274 19.1367 14.9306 19.2275C14.8338 19.3183 14.7771 19.4439 14.7728 19.5766C14.7686 19.7093 14.8173 19.8382 14.9081 19.935L17.0802 22.25C17.1016 22.3456 17.0973 22.4452 17.0679 22.5387C17.0385 22.6322 16.985 22.7163 16.9128 22.7825C16.7981 22.8814 16.6502 22.933 16.4989 22.9269C16.3477 22.9209 16.2043 22.8577 16.0979 22.75L13.1309 19.75C13.0368 19.6565 12.9094 19.6043 12.7767 19.6047C12.644 19.6052 12.517 19.6583 12.4235 19.7525C12.33 19.8467 12.2778 19.9741 12.2783 20.1068C12.2787 20.2394 12.3319 20.3665 12.426 20.46L14.7506 22.7675L14.7806 22.79C14.8098 22.8899 14.81 22.996 14.7812 23.096C14.7524 23.196 14.6959 23.2858 14.6182 23.355C14.5364 23.443 14.4232 23.4951 14.3032 23.5C14.0962 23.4729 13.9016 23.3861 13.7433 23.25L8.4167 19.0875C8.32909 19.0183 8.22086 18.9805 8.10925 18.98H7.60933V18.565C7.60933 18.4324 7.55666 18.3052 7.46291 18.2114C7.36916 18.1177 7.242 18.065 7.10942 18.065C6.97683 18.065 6.84968 18.1177 6.75592 18.2114C6.66217 18.3052 6.6095 18.4324 6.6095 18.565V19.7975C6.6095 19.9225 6.53451 20 6.48452 20H5.23473C5.18474 20 5.10975 19.92 5.10975 19.7975V11.7025C5.10975 11.5775 5.18474 11.5 5.23473 11.5H6.48452C6.53451 11.5 6.6095 11.58 6.6095 11.7025V14.5C6.6095 14.6326 6.66217 14.7598 6.75592 14.8536C6.84968 14.9473 6.97683 15 7.10942 15C7.242 15 7.36916 14.9473 7.46291 14.8536C7.55666 14.7598 7.60933 14.6326 7.60933 14.5V12.5H9.50151C9.66723 12.0993 9.94169 11.7529 10.2939 11.5H7.59184C7.55628 11.2289 7.42529 10.9793 7.22235 10.796C7.01942 10.6127 6.75783 10.5078 6.48452 10.5H5.23473C4.92642 10.5111 4.63503 10.6438 4.42426 10.8691C4.21349 11.0945 4.10048 11.3941 4.10992 11.7025V19.7975C4.10049 20.1063 4.21384 20.4063 4.42515 20.6317C4.63645 20.8571 4.92848 20.9896 5.23723 21H6.48702C6.76298 20.9916 7.02672 20.8842 7.23003 20.6974C7.43334 20.5106 7.56265 20.2568 7.59434 19.9825H7.93678L13.1309 24.055C13.4618 24.3237 13.8699 24.4796 14.2957 24.5C14.662 24.4958 15.013 24.3529 15.278 24.1C15.4225 23.9709 15.5412 23.8157 15.628 23.6425C15.92 23.8449 16.2715 23.9431 16.6261 23.9213C16.9807 23.8995 17.3176 23.7591 17.5827 23.5225C17.7134 23.4052 17.8233 23.2666 17.9076 23.1125C18.1985 23.3152 18.5491 23.4144 18.9031 23.394C19.2571 23.3736 19.594 23.2348 19.8598 23C20.0988 22.7875 20.2664 22.5064 20.3397 22.195C20.5101 22.2583 20.6903 22.2913 20.8721 22.2925C21.2359 22.2872 21.5842 22.1442 21.8469 21.8925C21.9123 21.8327 21.9725 21.7674 22.0269 21.6975Z" fill="#FE6032"/>
</svg>
