<svg width="40" height="38" viewBox="0 0 40 38" fill="none" xmlns="http://www.w3.org/2000/svg">
<path fill-rule="evenodd" clip-rule="evenodd" d="M11.3747 16.893L6.43794 14.6591C6.43072 14.6561 6.42262 14.6561 6.4154 14.6591L6.40933 14.6613C6.40518 14.6641 6.40188 14.668 6.3998 14.6725L1.53759 25.3503C1.53481 25.3574 1.53481 25.3652 1.53759 25.3723C1.54 25.3791 1.54498 25.3847 1.55145 25.3879L6.48864 27.6222C6.49574 27.625 6.50363 27.625 6.51074 27.6222C6.51755 27.6198 6.52314 27.6148 6.52634 27.6084L11.3886 16.931C11.3916 16.9232 11.3916 16.9146 11.3886 16.9068C11.3873 16.9037 11.3854 16.9009 11.383 16.8985C11.3806 16.8962 11.3778 16.8943 11.3747 16.893ZM28.4951 16.3215C28.2786 16.4195 28.1075 16.5958 28.0163 16.8148C28.0111 16.8247 28.0072 16.8355 28.0028 16.8459C27.9591 16.9609 27.9386 17.0834 27.9425 17.2063C27.9464 17.3293 27.9748 17.4502 28.0258 17.5622L28.4024 18.3895C28.2354 18.4597 28.068 18.5251 27.9001 18.5856C27.5867 18.6979 27.267 18.7961 26.9411 18.8802C26.8302 18.9099 26.7124 18.8996 26.6083 18.8513C25.6845 18.4613 24.7204 18.174 23.7335 17.9946C22.571 17.7656 21.3928 17.6251 20.209 17.5743C19.7484 17.5511 19.2934 17.6827 18.9167 17.9479C18.33 18.3519 17.7389 18.7878 17.1755 19.2306C16.4715 19.1943 15.7871 19.1544 15.1223 19.1109C14.4746 19.0686 13.8435 19.0216 13.229 18.9701C13.0301 18.8755 12.4581 18.6007 11.782 18.2629L12.2184 17.3047C12.3207 17.0778 12.3287 16.8199 12.2409 16.5871C12.1531 16.3544 11.9764 16.1657 11.7495 16.0623L9.67464 15.1248V1.3742C9.6751 1.25159 9.72413 1.13413 9.81106 1.04739C9.89799 0.960648 10.0158 0.91166 10.1388 0.911092H30.1059C30.2289 0.91166 30.3467 0.960648 30.4336 1.04739C30.5205 1.13413 30.5696 1.25159 30.57 1.3742V15.384L28.4951 16.3215ZM31.4853 14.9689L33.4328 14.0871C33.5451 14.0364 33.6665 14.0083 33.7898 14.0045C33.9131 14.0006 34.0359 14.0211 34.1513 14.0647C34.1621 14.0686 34.1725 14.0729 34.1829 14.0776C34.4026 14.1687 34.5794 14.3395 34.6778 14.5554L39.54 25.2328C39.5906 25.3446 39.6187 25.4652 39.6226 25.5878C39.6264 25.7104 39.606 25.8326 39.5625 25.9473C39.5193 26.0632 39.4535 26.1693 39.3688 26.2597C39.2842 26.35 39.1824 26.4227 39.0694 26.4735L34.1326 28.7095C33.9052 28.8114 33.6466 28.8193 33.4133 28.7317C33.18 28.644 32.991 28.4678 32.8876 28.2417L32.6601 27.7423C32.4893 27.8054 32.3095 27.8615 32.1219 27.9112C31.8002 27.9944 31.4735 28.0568 31.1438 28.0978C30.5293 28.6485 29.9772 29.1217 29.4875 29.5174C29.1489 29.791 28.8359 30.0313 28.5484 30.2384L29.081 30.7693C29.4086 31.0968 29.606 31.5316 29.6366 31.993C29.6673 32.4545 29.529 32.9114 29.2475 33.2791C28.966 33.6467 28.5604 33.9001 28.1058 33.9924C27.6512 34.0846 27.1784 34.0095 26.7752 33.7808C26.7166 34.0816 26.5865 34.364 26.3957 34.6043C26.2049 34.8445 25.959 35.0356 25.6788 35.1614C25.3985 35.2873 25.0921 35.3442 24.7851 35.3275C24.4782 35.3107 24.1798 35.2208 23.915 35.0652C23.8473 35.4385 23.6668 35.7823 23.3976 36.0505C23.1137 36.3323 22.7486 36.5186 22.3534 36.5836C21.9581 36.6485 21.5524 36.5889 21.1927 36.413C21.1329 36.7581 20.9791 37.0803 20.7482 37.3443C20.5173 37.6083 20.2181 37.804 19.8832 37.9101C19.5484 38.0162 19.1907 38.0286 18.8493 37.946C18.5078 37.8634 18.1957 37.6889 17.9469 37.4416L17.3354 36.8325C17.0622 36.9978 16.7518 37.0924 16.4325 37.1076C16.1132 37.1228 15.7952 37.0581 15.5074 36.9195C15.2195 36.7808 14.9711 36.5726 14.7846 36.3138C14.5982 36.0549 14.4796 35.7537 14.4398 35.4375C14.2225 35.5187 13.9923 35.5602 13.7603 35.5602C13.2536 35.5606 12.7675 35.3605 12.4087 35.0038C12.1521 34.7483 11.974 34.4252 11.8951 34.0724C11.6405 34.2747 11.3349 34.4033 11.0119 34.4443C10.6888 34.4852 10.3607 34.4368 10.0634 34.3044C9.5756 34.0952 9.1868 33.7076 8.97695 33.2214C8.85392 32.9475 8.803 32.6468 8.82901 32.3479C8.85502 32.0489 8.9571 31.7615 9.12559 31.5128C8.78716 31.442 8.47419 31.2814 8.21977 31.048C7.96534 30.8145 7.77891 30.5169 7.68018 30.1865C7.58145 29.8561 7.57408 29.5053 7.65886 29.1711C7.74364 28.8369 7.91741 28.5318 8.16181 28.2879L8.31955 28.1307C8.10548 27.8879 7.9291 27.6814 7.79043 27.5112C7.74016 27.4498 7.69422 27.3919 7.65176 27.3384L7.35881 27.9821C7.25567 28.2084 7.06672 28.3849 6.83335 28.4726C6.59999 28.5604 6.34124 28.5524 6.11379 28.4503L1.1753 26.2143C1.06281 26.1637 0.961418 26.0915 0.876945 26.0018C0.792472 25.9121 0.726572 25.8067 0.683016 25.6916C0.639492 25.5764 0.619303 25.4537 0.623617 25.3307C0.627932 25.2077 0.656663 25.0868 0.708151 24.9749L5.56776 14.2975C5.66614 14.0817 5.843 13.9111 6.06265 13.8202L6.09429 13.8068C6.20968 13.7633 6.33254 13.743 6.45582 13.7469C6.57911 13.7509 6.70041 13.779 6.81279 13.8297L8.76287 14.711V1.3742C8.76322 1.00992 8.9085 0.66065 9.16685 0.403025C9.4252 0.145399 9.77551 0.000457477 10.1409 0H30.1059C30.4714 0.000457258 30.8217 0.145385 31.0801 0.402998C31.3386 0.660611 31.4839 1.00988 31.4844 1.3742V14.9706L31.4853 14.9689ZM32.2822 26.912L28.779 19.2189C28.5926 19.2972 28.402 19.3714 28.207 19.4414C27.8689 19.5629 27.5223 19.6695 27.1669 19.7611C26.8551 19.8462 26.523 19.8171 26.2309 19.679C25.372 19.3194 24.4761 19.0548 23.5593 18.8901C22.4425 18.6689 21.3105 18.533 20.173 18.4836C19.9102 18.4683 19.65 18.5437 19.4363 18.697C18.6208 19.2586 17.7896 19.8894 17.0338 20.5209C16.4455 21.0064 15.8861 21.5257 15.3585 22.0762C15.4287 22.9298 15.4699 23.7152 15.485 24.4021C15.5063 25.0246 15.4893 25.6478 15.4343 26.2683C15.426 26.3356 15.4318 26.404 15.4513 26.469C15.4707 26.534 15.5035 26.5942 15.5475 26.646C15.5915 26.6977 15.6458 26.7398 15.707 26.7696C15.7681 26.7994 15.8348 26.8163 15.9028 26.8191C16.1264 26.8281 16.3491 26.7846 16.5528 26.6921L16.5749 26.6826C17.0088 26.4459 17.3331 26.05 17.4789 25.5788C17.7722 24.7341 17.9269 23.8478 17.9369 22.954C17.9397 22.8941 17.9545 22.8353 17.9803 22.7812C18.0215 22.6776 18.0711 22.5775 18.1285 22.4818C18.1917 22.3773 18.2642 22.2787 18.3452 22.1872C18.5374 21.97 18.7917 21.8167 19.0738 21.7476C19.356 21.6786 19.6526 21.6972 19.9239 21.801C20.1029 21.8725 20.2652 21.9802 20.4005 22.1172L27.8958 29.5878C28.198 29.375 28.5369 29.1166 28.9125 28.8128C29.4302 28.3946 30.0068 27.8993 30.6424 27.3267C30.7134 27.2627 30.8029 27.2226 30.8981 27.2122C31.2327 27.1765 31.5642 27.1165 31.89 27.0325C32.027 26.9967 32.1578 26.9565 32.2826 26.9128L32.2822 26.912ZM33.8072 14.9183L28.87 17.1526C28.8653 17.1546 28.8614 17.1579 28.8587 17.1621L28.8561 17.1682C28.8547 17.1717 28.8539 17.1754 28.8539 17.1792C28.8539 17.183 28.8547 17.1867 28.8561 17.1902L33.7196 27.8676C33.7228 27.8741 33.7284 27.879 33.7352 27.8814C33.7424 27.8844 33.7505 27.8844 33.7578 27.8814L38.6945 25.6475C38.701 25.6444 38.706 25.6388 38.7084 25.632C38.7112 25.6247 38.7112 25.6167 38.7084 25.6095L33.8449 14.9308C33.8429 14.9261 33.8396 14.922 33.8353 14.9192L33.8293 14.917C33.8258 14.9155 33.822 14.9148 33.8182 14.9148C33.8144 14.9148 33.8107 14.9155 33.8072 14.917V14.9183ZM11.405 19.0923C12.2193 19.4984 12.914 19.8267 12.9161 19.8267C12.9655 19.8505 13.0188 19.8651 13.0734 19.8699C13.6732 19.9209 14.3377 19.9701 15.0668 20.0177C15.4092 20.0401 15.7666 20.062 16.139 20.0833C15.5777 20.5603 15.0456 21.0704 14.5455 21.6109C14.5039 21.657 14.4722 21.711 14.4523 21.7698C14.4325 21.8286 14.425 21.8908 14.4303 21.9526C14.5117 22.8961 14.5581 23.7281 14.5733 24.4193C14.5934 25.004 14.5777 25.5893 14.526 26.172C14.5036 26.3632 14.5212 26.5569 14.5776 26.741C14.6341 26.9251 14.7281 27.0956 14.8538 27.2417C14.9796 27.3878 15.1343 27.5063 15.3083 27.5899C15.4822 27.6734 15.6717 27.7202 15.8646 27.7272C16.0483 27.736 16.2323 27.7228 16.4128 27.6879C16.5936 27.6523 16.7695 27.5955 16.9368 27.5185L16.9493 27.5125C17.6031 27.1829 18.0988 26.6079 18.3274 25.9141C18.6522 25.0008 18.8278 24.0415 18.8474 23.0728C18.8669 23.0304 18.8887 22.9892 18.9128 22.9492C18.9475 22.8913 18.9874 22.8366 19.032 22.7859C19.1003 22.7092 19.1904 22.6549 19.2903 22.6304C19.3902 22.6059 19.4953 22.6122 19.5915 22.6486C19.6547 22.6744 19.7118 22.7131 19.7592 22.7622L28.4349 31.4134C28.5757 31.5529 28.6717 31.731 28.7107 31.9249C28.7498 32.1189 28.7302 32.3201 28.6544 32.5029C28.5785 32.6858 28.4499 32.842 28.2849 32.9519C28.1198 33.0617 27.9257 33.1202 27.7272 33.1198C27.4592 33.1205 27.2017 33.0155 27.0109 32.8278L26.3557 32.1798C26.3223 32.1405 26.2868 32.1016 26.2491 32.0645C26.2292 32.0445 26.2074 32.0264 26.1841 32.0105L22.9001 28.7756C22.8135 28.6934 22.6979 28.6485 22.5783 28.6505C22.4587 28.6524 22.3447 28.7012 22.2608 28.7862C22.1769 28.8712 22.1299 28.9857 22.13 29.105C22.13 29.2242 22.177 29.3387 22.2609 29.4236L25.6653 32.7807C25.8291 32.979 25.9102 33.2325 25.8918 33.4887C25.8734 33.7449 25.757 33.9843 25.5666 34.1573C25.3761 34.3304 25.1262 34.4238 24.8686 34.4184C24.611 34.413 24.3653 34.3091 24.1824 34.1281L21.5021 31.4562C21.4164 31.3708 21.3002 31.3228 21.1791 31.3228C21.0579 31.3228 20.9417 31.3708 20.856 31.4562C20.7703 31.5416 20.7222 31.6575 20.7222 31.7783C20.7222 31.8991 20.7703 32.0149 20.856 32.1003L22.2341 33.4719L22.2276 33.4784L22.735 33.9843C22.9268 34.1749 23.0358 34.4331 23.0384 34.7031C23.0402 34.8332 23.0159 34.9623 22.9669 35.0829C22.918 35.2034 22.8453 35.313 22.7532 35.4051C22.5642 35.5917 22.3089 35.6963 22.043 35.6963C21.777 35.6963 21.5217 35.5917 21.3327 35.4051L20.6614 34.736L19.3284 33.4071C19.1994 33.0301 18.955 32.7028 18.6297 32.4715C18.3044 32.2401 17.9145 32.1162 17.5149 32.1172C17.4624 32.1172 17.4104 32.1172 17.3584 32.1232C17.3623 32.0714 17.3649 32.0195 17.3649 31.9673C17.365 31.7164 17.3155 31.468 17.2192 31.2363C17.1229 31.0046 16.9817 30.7941 16.8036 30.6168C16.6256 30.4396 16.4142 30.2991 16.1816 30.2034C15.949 30.1077 15.6998 30.0587 15.4482 30.0591C15.4049 30.0591 15.3615 30.0591 15.3182 30.0639C15.337 29.7718 15.2857 29.4795 15.1687 29.2111C14.9588 28.7249 14.57 28.3373 14.0823 28.1281C13.813 28.0116 13.5198 27.9605 13.2268 27.979C13.2299 27.9358 13.2316 27.8926 13.2316 27.8494C13.2312 27.4716 13.1185 27.1023 12.9078 26.7882C12.6971 26.4742 12.3978 26.2293 12.0476 26.0847C11.6974 25.94 11.3122 25.902 10.9403 25.9754C10.5685 26.0489 10.2269 26.2305 9.95849 26.4973L8.96178 27.4909C8.77775 27.2806 8.62203 27.0976 8.49463 26.9418C8.37674 26.8066 8.27007 26.6622 8.17568 26.5098C8.15245 26.4639 8.12153 26.4222 8.08424 26.3867L11.4037 19.0966L11.405 19.0923ZM12.0251 28.5562L10.225 30.3507C10.0352 30.5321 9.78153 30.6321 9.51858 30.6291C9.25564 30.6261 9.00434 30.5205 8.81865 30.3349C8.63296 30.1493 8.52769 29.8985 8.52544 29.6363C8.5232 29.3742 8.62416 29.1216 8.80664 28.9329L10.6046 27.1405C10.7942 26.9588 11.0477 26.8585 11.3106 26.8611C11.5735 26.8636 11.825 26.9689 12.011 27.1542C12.1969 27.3396 12.3026 27.5902 12.3052 27.8523C12.3079 28.1144 12.2073 28.3672 12.0251 28.5562ZM14.7379 31.2609L13.0518 32.9419C12.8649 33.1296 12.7598 33.3831 12.7592 33.6475C12.7585 33.9119 12.8624 34.1659 13.0483 34.3545L13.0544 34.3601C13.2431 34.546 13.4978 34.6503 13.7631 34.6503C14.0285 34.6503 14.2831 34.546 14.4719 34.3601L14.9862 33.8473L16.1563 32.6809C16.3446 32.4932 16.4504 32.2386 16.4504 31.9731C16.4504 31.7076 16.3446 31.453 16.1563 31.2653C15.968 31.0775 15.7126 30.9721 15.4462 30.9721C15.1799 30.9721 14.9245 31.0775 14.7362 31.2653L14.7379 31.2609ZM12.6713 29.2007L10.8733 30.9931L10.0508 31.813C9.90583 31.9413 9.8049 32.1117 9.76222 32.3002C9.71953 32.4887 9.73726 32.6858 9.81288 32.8637C9.93169 33.132 10.1464 33.3467 10.4152 33.4659C10.5937 33.5413 10.7913 33.5591 10.9804 33.5166C11.1695 33.4741 11.3404 33.3736 11.4692 33.2291L12.4035 32.2977L14.0901 30.6164C14.235 30.4881 14.3358 30.3177 14.3784 30.1292C14.421 29.9407 14.4032 29.7436 14.3275 29.5658C14.2083 29.2971 13.9929 29.0824 13.7235 28.9636C13.545 28.8882 13.3473 28.8705 13.1582 28.9131C12.9691 28.9556 12.7982 29.0562 12.6695 29.2007H12.6713ZM16.8046 33.3207L15.6345 34.4897C15.4524 34.6788 15.3519 34.9316 15.3547 35.1937C15.3574 35.4558 15.4631 35.7064 15.6492 35.8917C15.8352 36.077 16.0867 36.1821 16.3496 36.1846C16.6125 36.1871 16.866 36.0867 17.0555 35.905L18.2256 34.7386C18.4078 34.5496 18.5084 34.2969 18.5059 34.0348C18.5033 33.7727 18.3977 33.522 18.2118 33.3366C18.0259 33.1512 17.7745 33.0459 17.5115 33.0432C17.2486 33.0406 16.9951 33.1408 16.8055 33.3225L16.8046 33.3207ZM19.318 34.6846C19.223 34.9465 19.0712 35.1842 18.8734 35.3809L18.0249 36.2268L18.5969 36.7975C18.7859 36.9823 19.0405 37.0853 19.3052 37.0841C19.57 37.0828 19.8236 36.9774 20.0108 36.7908C20.198 36.6042 20.3037 36.3514 20.305 36.0875C20.3062 35.8235 20.2029 35.5698 20.0175 35.3814L19.318 34.6846ZM15.5912 13.9675C15.9888 13.5997 16.4297 13.2815 16.9043 13.0197C16.7567 12.3207 16.6709 11.6103 16.6477 10.8964H14.3943C14.4822 12.0154 14.8993 13.0837 15.5934 13.9675H15.5912ZM17.7558 12.6283C19.2815 12.0505 20.9667 12.0505 22.4923 12.6283C22.601 12.058 22.6656 11.4803 22.6856 10.9003H17.5608C17.5808 11.4803 17.6454 12.058 17.7541 12.6283H17.7558ZM23.346 13.0218C23.8207 13.2834 24.2617 13.6017 24.6591 13.9696C25.3531 13.0858 25.7703 12.0175 25.8582 10.8985H23.6048C23.5818 11.6124 23.496 12.3229 23.3482 13.0218H23.346ZM24.0385 14.6367C23.7513 14.3701 23.4375 14.1334 23.1021 13.9303C22.9863 14.3017 22.843 14.664 22.6735 15.0142C22.5455 15.279 22.3968 15.5334 22.2289 15.775C22.8982 15.5118 23.5121 15.1256 24.0385 14.6367ZM22.2744 13.5165C20.893 12.9652 19.3517 12.9652 17.9703 13.5165C18.0805 13.8939 18.2217 14.2616 18.3924 14.6159C18.8626 15.5771 19.4758 16.1711 20.1223 16.1711C20.7689 16.1711 21.3821 15.5767 21.8523 14.6159C22.023 14.2616 22.1642 13.8939 22.2744 13.5165ZM17.1426 13.9303C16.8073 14.1336 16.4936 14.3703 16.2061 14.6367C16.7327 15.1256 17.3465 15.5117 18.0158 15.775C17.848 15.5333 17.6994 15.2789 17.5712 15.0142C17.4017 14.664 17.2584 14.3017 17.1426 13.9303ZM24.6552 6.91376C24.2578 7.28171 23.8168 7.6 23.3421 7.86157C23.4899 8.56047 23.5757 9.27097 23.5987 9.98486H25.8521C25.764 8.86589 25.3469 7.79766 24.653 6.91376H24.6552ZM22.4906 8.25555C20.9649 8.83288 19.2798 8.83288 17.7541 8.25555C17.6454 8.82578 17.5808 9.40348 17.5608 9.98356H22.6839C22.6639 9.40348 22.5993 8.82578 22.4906 8.25555ZM16.9004 7.86157C16.4258 7.59979 15.9849 7.28152 15.5873 6.91376C14.8934 7.79766 14.4763 8.86589 14.3882 9.98486H16.6416C16.6648 9.27098 16.7507 8.56051 16.8982 7.86157H16.9004ZM16.204 6.24372C16.4913 6.51022 16.8051 6.74688 17.1404 6.95005C17.2563 6.57871 17.3996 6.21643 17.569 5.86615C17.6973 5.60163 17.8459 5.34743 18.0136 5.10583C17.3443 5.36898 16.7305 5.75495 16.204 6.24372ZM17.9681 7.3639C19.3495 7.91514 20.8908 7.91514 22.2722 7.3639C22.1621 6.98661 22.0209 6.61903 21.8501 6.26489C21.3795 5.30325 20.7667 4.70968 20.1202 4.70968C19.4736 4.70968 18.8604 5.30412 18.3902 6.26489C18.2194 6.61903 18.0783 6.98661 17.9681 7.3639ZM23.0999 6.95005C23.4354 6.74709 23.7492 6.51042 24.0364 6.24372C23.5099 5.75486 22.896 5.36888 22.2267 5.10583C22.3946 5.34733 22.5432 5.60154 22.6713 5.86615C22.8408 6.21643 22.984 6.57871 23.0999 6.95005ZM20.1223 3.79773C18.5805 3.79815 17.0866 4.3315 15.895 5.3069C14.7035 6.28231 13.8881 7.63941 13.5877 9.14696C13.2874 10.6545 13.5207 12.2192 14.2479 13.5745C14.9752 14.9298 16.1513 15.9918 17.5759 16.5795C19.0006 17.1672 20.5856 17.2443 22.0608 16.7977C23.5361 16.351 24.8103 15.4082 25.6665 14.1299C26.5226 12.8517 26.9076 11.317 26.7559 9.78748C26.6042 8.25793 25.9252 6.82815 24.8346 5.74174C24.2164 5.12418 23.4818 4.63453 22.6731 4.30091C21.8644 3.96729 20.9975 3.79629 20.1223 3.79773Z" fill="#4893FF"/>
</svg>
