<svg width="25" height="38" viewBox="0 0 25 38" fill="none" xmlns="http://www.w3.org/2000/svg">
<path d="M9.79339 11.4756C9.29507 11.4756 8.89111 11.8734 8.89111 12.3641C8.89111 12.8548 9.29507 13.2526 9.79339 13.2526C10.2917 13.2526 10.6956 12.8548 10.6956 12.3641C10.6956 11.8734 10.2917 11.4756 9.79339 11.4756Z" fill="#6A6A9A"/>
<path d="M15.2065 13.2526C15.7048 13.2526 16.1088 12.8548 16.1088 12.3641C16.1088 11.8734 15.7048 11.4756 15.2065 11.4756C14.7082 11.4756 14.3043 11.8734 14.3043 12.3641C14.3043 12.8548 14.7082 13.2526 15.2065 13.2526Z" fill="#6A6A9A"/>
<path d="M14.3045 15.918H10.6955C10.6955 16.8993 11.5034 17.6949 12.5 17.6949C13.4965 17.6949 14.3045 16.8993 14.3045 15.918Z" fill="#6A6A9A"/>
<path d="M13.857 6.80957C13.8461 6.84042 13.8293 6.8683 13.8174 6.89869L13.9294 6.85061C13.906 6.83588 13.88 6.8249 13.857 6.80957Z" fill="#6A6A9A"/>
<path d="M0.770666 38H24.2293C24.6549 38 25 37.6606 25 37.2411V29.9493C25 28.4686 24.4365 27.0722 23.4418 25.9936C23.4943 25.7634 23.4404 25.5212 23.2848 25.3388L20.026 21.5198C19.8409 21.3034 19.547 21.207 19.2689 21.2671L16.1752 21.9442C16.1742 21.9398 16.1757 21.9355 16.1746 21.9311L15.9545 21.0648C15.9526 21.0576 15.9472 21.0527 15.9452 21.0456C17.7945 19.9345 19.1021 17.962 19.3415 15.6588C19.3739 15.6629 19.4025 15.6776 19.436 15.6776C20.8558 15.6776 22.011 14.54 22.011 13.1415C22.011 11.7437 20.8558 10.6061 19.436 10.6061C19.4172 10.6061 19.4014 10.6153 19.3829 10.6166V7.32538L22.0927 5.99118C22.3538 5.86223 22.5187 5.59987 22.5187 5.31232C22.5187 5.02477 22.3538 4.76241 22.0927 4.63346L12.8447 0.0800406C12.6279 -0.0266802 12.3721 -0.0266802 12.1553 0.0800406L2.90731 4.63346C2.64616 4.76241 2.48134 5.02477 2.48134 5.31232C2.48134 5.59987 2.64616 5.86223 2.90731 5.99118L5.51094 7.27313V10.762C5.43747 10.7391 5.36329 10.7165 5.28215 10.7165C3.86199 10.7165 2.70674 11.8542 2.70674 13.2526C2.70674 14.6511 3.86199 15.7887 5.28215 15.7887C5.38187 15.7887 5.47581 15.7668 5.5633 15.7329C5.82727 18.0408 7.16018 20.012 9.03638 21.1008L8.82541 21.9311C8.82428 21.9355 8.82583 21.9398 8.8248 21.9442L5.73108 21.2671C5.45149 21.2063 5.15872 21.3034 4.97396 21.5198L1.71556 25.3388C1.56005 25.5211 1.5062 25.7631 1.5585 25.9933C0.563559 27.0719 0 28.4685 0 29.9493V37.2411C0 37.6606 0.345069 38 0.770666 38ZM19.436 12.1239C20.0061 12.1239 20.4697 12.5805 20.4697 13.1415C20.4697 13.7032 20.0061 14.1598 19.436 14.1598C19.4172 14.1598 19.4014 14.169 19.3829 14.1703V12.1134C19.4014 12.1147 19.4172 12.1239 19.436 12.1239ZM12.5 1.60748L20.0249 5.31232L18.3965 6.11407C18.3121 6.13876 18.2376 6.17683 18.168 6.22654L12.5 9.01716L4.97509 5.31232L12.5 1.60748ZM4.24807 13.2526C4.24807 12.6909 4.71205 12.2343 5.28215 12.2343C5.36329 12.2343 5.43747 12.2117 5.51094 12.1889V14.3164C5.43747 14.2935 5.36329 14.2709 5.28215 14.2709C4.71205 14.2709 4.24807 13.8144 4.24807 13.2526ZM7.05228 14.8927V8.03203L12.1553 10.5446C12.2637 10.598 12.3818 10.6246 12.5 10.6246C12.6182 10.6246 12.7363 10.598 12.8447 10.5446L17.8416 8.08428V14.8927C17.8416 17.9795 15.4491 20.4904 12.5079 20.4904H12.386C9.4448 20.4904 7.05228 17.9795 7.05228 14.8927ZM10.468 21.7209C11.0776 21.9046 11.7199 22.0082 12.386 22.0082H12.5079C13.2098 22.0082 13.8869 21.8976 14.5252 21.6944L14.6723 22.2731L12.5 22.7486L10.3277 22.2731L10.468 21.7209ZM5.85338 22.8486L12.3329 24.2671C12.4428 24.2908 12.5572 24.2908 12.6671 24.2671L19.1466 22.8486L21.3457 25.4262L15.0363 27.2479L13.0479 25.2691C12.903 25.1246 12.7058 25.0438 12.5 25.0438C12.2942 25.0438 12.097 25.1246 11.9521 25.2691L9.96372 27.2479L3.65464 25.4262L5.85338 22.8486ZM1.54133 29.9493C1.54133 28.7475 2.03862 27.6196 2.91154 26.7933L9.97125 28.8324C10.0427 28.8524 10.1154 28.8628 10.188 28.8628C10.3908 28.8628 10.5891 28.7835 10.7359 28.6375L12.5 26.8818L14.2641 28.6375C14.4632 28.8354 14.7567 28.9087 15.0287 28.8324L22.0886 26.7934C22.9614 27.6198 23.4587 28.7476 23.4587 29.9493V36.4822H20.4885V31.0224C20.4885 30.6029 20.1434 30.2635 19.7178 30.2635C19.2922 30.2635 18.9472 30.6029 18.9472 31.0224V36.4822H13.2707V32.6328C13.2707 32.2134 12.9256 31.8739 12.5 31.8739C12.0744 31.8739 11.7293 32.2134 11.7293 32.6328V36.4822H6.05282V31.0224C6.05282 30.6029 5.70775 30.2635 5.28215 30.2635C4.85655 30.2635 4.51148 30.6029 4.51148 31.0224V36.4822H1.54133V29.9493Z" fill="#6A6A9A"/>
<path d="M12.5 31.1147C12.9256 31.1147 13.2706 30.7753 13.2706 30.3558V28.838C13.2706 28.4185 12.9256 28.0791 12.5 28.0791C12.0744 28.0791 11.7293 28.4185 11.7293 28.838V30.3558C11.7293 30.7753 12.0744 31.1147 12.5 31.1147Z" fill="#6A6A9A"/>
</svg>
