<svg width="26" height="38" viewBox="0 0 26 38" fill="none" xmlns="http://www.w3.org/2000/svg">
<path d="M24.05 38H1.95002C0.877515 38 1.52588e-05 37.1114 1.52588e-05 36.0254V5.74816C1.52588e-05 5.44539 0.208016 5.17553 0.500516 5.10971L21.801 0.0349783C22.191 -0.0571698 22.594 0.0349784 22.906 0.285095C23.218 0.535211 23.4 0.910385 23.4 1.31847V5.09654H24.05C25.1225 5.09654 26 5.98511 26 7.07115V36.0254C26 37.1114 25.1225 38 24.05 38ZM1.30002 6.40636V36.0254C1.30002 36.3874 1.59252 36.6836 1.95002 36.6836H24.05C24.4075 36.6836 24.7 36.3874 24.7 36.0254V7.06456C24.7 6.70255 24.4075 6.40636 24.05 6.40636H1.30002ZM6.25302 5.08996H22.1V1.31189L6.25302 5.08996Z" fill="#6A6A9A"/>
<path d="M13 9.03906C8.33953 9.03906 4.55003 12.8764 4.55003 17.5957C4.55003 22.315 8.33953 26.1523 13 26.1523C17.6605 26.1523 21.45 22.315 21.45 17.5957C21.45 12.8764 17.6605 9.03906 13 9.03906ZM18.7525 21.8806C18.291 21.716 17.8165 21.5646 17.329 21.4461C17.5955 20.4786 17.771 19.3991 17.8165 18.2539H20.124C20.0005 19.6032 19.513 20.8472 18.759 21.8806H18.7525ZM5.88903 18.2539H8.19653C8.24203 19.3991 8.41103 20.4786 8.68403 21.4461C8.19653 21.5712 7.72203 21.716 7.26053 21.8806C6.50653 20.8472 6.01253 19.6032 5.89553 18.2539H5.88903ZM7.24753 13.3239C7.70903 13.4951 8.19003 13.6399 8.67753 13.7649C8.41103 14.7259 8.24203 15.7988 8.19653 16.9375H5.88903C6.01253 15.5947 6.50003 14.3573 7.24753 13.3239ZM12.3565 14.2915V16.9375H9.49653C9.54203 15.8975 9.70453 14.9168 9.95153 14.0414C10.738 14.1796 11.544 14.2652 12.3565 14.2915ZM10.413 12.7579C10.92 11.6126 11.6025 10.7965 12.3565 10.4937V12.9422C11.7 12.9159 11.05 12.8632 10.413 12.7645V12.7579ZM12.3565 18.2539V20.9393C11.5505 20.9657 10.7445 21.0381 9.95803 21.1697C9.70453 20.2877 9.54203 19.3004 9.49653 18.2539H12.3565ZM12.3565 22.2492V24.6977C11.596 24.3949 10.92 23.5721 10.413 22.4269C11.05 22.3281 11.7 22.2689 12.3565 22.2426V22.2492ZM13.6565 22.2492C14.313 22.2755 14.963 22.3347 15.6 22.4334C15.093 23.5787 14.4105 24.4015 13.6565 24.7042V22.2557V22.2492ZM13.6565 20.9328V18.2473H16.5165C16.471 19.2938 16.302 20.2811 16.055 21.1631C15.2685 21.0315 14.4625 20.9591 13.6565 20.9328ZM13.6565 16.9309V14.2849C14.469 14.2586 15.275 14.173 16.0615 14.0348C16.3085 14.9102 16.471 15.8909 16.5165 16.9309H13.6565ZM13.6565 12.929V10.4805C14.417 10.7833 15.093 11.606 15.6 12.7513C14.963 12.85 14.313 12.9093 13.6565 12.9356V12.929ZM16.1915 11.1124C16.783 11.4086 17.3225 11.7903 17.81 12.2379C17.511 12.3301 17.212 12.4156 16.9065 12.488C16.6985 11.9812 16.458 11.5205 16.1915 11.1124ZM9.11303 12.4815C8.80753 12.4091 8.50853 12.3169 8.21603 12.2248C8.69703 11.7838 9.23653 11.4086 9.82803 11.1058C9.56153 11.5139 9.32753 11.9746 9.11953 12.4749L9.11303 12.4815ZM9.11303 22.6836C9.32103 23.1904 9.56153 23.6511 9.82803 24.0592C9.23653 23.763 8.69703 23.3813 8.20953 22.9337C8.50853 22.8415 8.80753 22.756 9.11303 22.6836ZM16.9065 22.6836C17.212 22.756 17.5175 22.8415 17.81 22.9337C17.329 23.3813 16.783 23.7564 16.1915 24.0592C16.458 23.6511 16.6985 23.1904 16.9065 22.6836ZM17.823 16.9243C17.7775 15.7856 17.6085 14.7128 17.342 13.7518C17.8295 13.6267 18.3105 13.4819 18.772 13.3108C19.5195 14.3442 20.007 15.5816 20.1305 16.9243H17.823Z" fill="#6A6A9A"/>
<path d="M18.2001 30.7598H7.80005C7.44255 30.7598 7.15005 30.4636 7.15005 30.1016C7.15005 29.7395 7.44255 29.4434 7.80005 29.4434H18.2001C18.5576 29.4434 18.8501 29.7395 18.8501 30.1016C18.8501 30.4636 18.5576 30.7598 18.2001 30.7598Z" fill="#6A6A9A"/>
<path d="M20.475 34.051H5.52501C5.16751 34.051 4.87501 33.7548 4.87501 33.3928C4.87501 33.0308 5.16751 32.7346 5.52501 32.7346H20.475C20.8325 32.7346 21.125 33.0308 21.125 33.3928C21.125 33.7548 20.8325 34.051 20.475 34.051Z" fill="#6A6A9A"/>
</svg>
