<svg width="50" height="51" viewBox="0 0 50 51" fill="none" xmlns="http://www.w3.org/2000/svg">
<path d="M42.9341 29.4886C42.4967 28.8581 41.7778 28.481 41.0106 28.481C40.2435 28.481 39.5246 28.8581 39.0872 29.4886L33.7244 37.2357C32.7048 38.708 32.1652 40.4345 32.1652 42.2278C32.1652 45.1846 33.6408 47.7996 35.8899 49.3886H30.5569V26.8727H24.1239V49.3886H20.9074V31.6975H14.4743V49.3886H11.2578V33.3058H4.82478V49.3886H1.60826V34.4356L10.4537 25.5981L15.2785 30.423L28.9487 16.7526L33.7735 21.5774L44.2271 11.1236L48.0122 14.9087L50 0.99707L36.0886 2.98491L39.8736 6.76919L33.7735 12.8694L28.9487 8.04456L15.2785 21.7149L10.4537 16.8901L1.60826 25.7356V20.4396H6.43304V18.8313H1.60826V17.223H4.82478V15.6147H1.60826V14.0065H6.43304V12.3982H1.60826V10.7899H4.82478V9.18161H1.60826V7.57333H6.43304V5.96505H1.60826V4.35677H4.82478V2.74849H1.60826V1.14021H0V50.9969H40.9342H41.0106H41.087C45.9215 50.9969 49.8561 47.0623 49.8561 42.2278C49.8561 40.4353 49.3165 38.708 48.2969 37.2357L42.9341 29.4886ZM10.4537 19.1642L15.2785 23.989L28.9487 10.3187L33.7735 15.1435L42.1477 6.76919L39.4997 4.12116L48.1039 2.89243L46.8751 11.4967L44.2271 8.8487L33.7735 19.3025L28.9487 14.4777L15.2785 28.1481L10.4537 23.3232L1.60826 32.1615V28.0098L10.4537 19.1642ZM25.7322 28.481H28.9487V49.3886H25.7322V28.481ZM16.0826 33.3058H19.2991V49.3886H16.0826V33.3058ZM6.43304 34.9141H9.64956V49.3886H6.43304V34.9141ZM41.087 49.3886H41.0106H40.9342C36.986 49.3886 33.7735 46.1761 33.7735 42.2278C33.7735 40.7634 34.2141 39.3546 35.0472 38.1516L40.4099 30.4045C40.6833 30.0105 41.3379 30.0105 41.6113 30.4045L46.9741 38.1516C47.8071 39.3538 48.2478 40.7626 48.2478 42.2278C48.2478 46.1761 45.0353 49.3886 41.087 49.3886Z" fill="#FF2640"/>
<path d="M41.75 39.1399C42.164 39.1399 42.5 39.4919 42.5 39.9256H44C44 38.6261 42.9905 37.5685 41.75 37.5685V35.9971H40.25V37.5685H38V39.9256C38 41.2252 39.0095 42.2828 40.25 42.2828H41.75C42.164 42.2828 42.5 42.6348 42.5 43.0685V43.8542H40.25C39.836 43.8542 39.5 43.5022 39.5 43.0685H38C38 44.3681 39.0095 45.4257 40.25 45.4257V46.9971H41.75V45.4257H44V43.0685C44 41.7689 42.9905 40.7114 41.75 40.7114H40.25C39.836 40.7114 39.5 40.3594 39.5 39.9256V39.1399H41.75Z" fill="#FF2640"/>
</svg>
