<svg width="41" height="32" viewBox="0 0 41 32" fill="none" xmlns="http://www.w3.org/2000/svg">
<path d="M29.25 16C29.25 20.9711 25.2211 25 20.25 25C15.2789 25 11.25 20.9711 11.25 16C11.25 11.0289 15.2789 7 20.25 7C25.2211 7 29.25 11.0289 29.25 16ZM20.25 9.25C16.4602 9.25 13.5 12.2102 13.5 16C13.5 19.7266 16.4602 22.75 20.25 22.75C23.9766 22.75 27 19.7266 27 16C27 12.2102 23.9766 9.25 20.25 9.25ZM33.7922 5.91719C37.0828 8.96875 39.2836 12.5617 40.3242 15.1352C40.5563 15.6906 40.5563 16.3094 40.3242 16.8648C39.2836 19.375 37.0828 22.968 33.7922 26.0828C30.4805 29.1625 25.9313 31.75 20.25 31.75C14.5688 31.75 10.0195 29.1625 6.70923 26.0828C3.4186 22.968 1.21923 19.375 0.173048 16.8648C-0.0576826 16.3094 -0.0576826 15.6906 0.173048 15.1352C1.21923 12.5617 3.4186 8.96875 6.70923 5.91719C10.0195 2.84031 14.5688 0.25 20.25 0.25C25.9313 0.25 30.4805 2.84031 33.7922 5.91719ZM2.25001 16C3.18727 18.25 5.21227 21.625 8.24063 24.4375C11.2711 27.25 15.3 29.5 20.25 29.5C25.2 29.5 29.2289 27.25 32.2594 24.4375C35.2899 21.625 37.3149 18.25 38.25 16C37.3149 13.6867 35.2899 10.3117 32.2594 7.5625C29.2289 4.7493 25.2 2.5 20.25 2.5C15.3 2.5 11.2711 4.7493 8.24063 7.5625C5.21227 10.3117 3.18727 13.6867 2.25001 16Z" fill="white"/>
</svg>
