<svg width="16" height="16" viewBox="0 0 16 16" fill="none" xmlns="http://www.w3.org/2000/svg">
<g clip-path="url(#clip0_4019_2611)">
<path d="M15.5 7.51475C15.225 7.51475 15 7.73936 15 8.01388C15 10.4911 12.9816 12.506 10.5 12.506H6V10.5095C6 10.3155 5.88769 10.1402 5.71191 10.0572C5.64375 10.026 5.57188 10.0104 5.5 10.0104C5.38525 10.0104 5.2715 10.0494 5.17969 10.1264L2.17969 12.6221C2.06594 12.7182 2 12.8585 2 13.0052C2 13.1518 2.06591 13.2938 2.17969 13.3886L5.17969 15.8842C5.32909 16.009 5.5375 16.0343 5.71187 15.9534C5.8875 15.872 6 15.6942 6 15.5008V13.5043H10.5C13.5328 13.5043 16 11.0408 16 8.01388C16 7.73936 15.775 7.51475 15.5 7.51475ZM5 14.4339L3.28125 13.0052L5 11.5764V14.4339ZM5.5 3.52173L9.97188 3.52167L10 5.51824C10 5.71225 10.1123 5.8876 10.2881 5.97058C10.3562 6.00177 10.4281 6.01737 10.5 6.01737C10.6147 6.01737 10.7285 5.97838 10.8203 5.90135L13.8203 3.40571C13.9344 3.3096 14 3.16922 14 2.99452C14 2.81983 13.9341 2.70587 13.8203 2.61144L10.8203 0.115803C10.6709 -0.00897861 10.4625 -0.0343094 10.2881 0.0465806C10.1125 0.157231 10 0.332706 10 0.526648L9.97188 2.52347H5.5C2.46719 2.52347 0 4.95984 0 8.01388C0 8.28977 0.223625 8.51301 0.5 8.51301C0.776375 8.51301 1 8.2884 1 8.01388C1 5.53696 3.01844 3.52173 5.5 3.52173ZM11 1.59229L12.7188 3.0226L11 4.45136V1.59229Z" fill="#161540"/>
</g>
<defs>
<clipPath id="clip0_4019_2611">
<rect width="16" height="16" fill="white"/>
</clipPath>
</defs>
</svg>
