<svg width="16" height="16" viewBox="0 0 16 16" fill="none" xmlns="http://www.w3.org/2000/svg">
<path d="M7.97188 2.72176L8.34688 2.3387C9.39375 1.29473 10.8438 0.819589 12.2688 1.06228C14.4219 1.42934 16 3.33567 16 5.57069V5.75615C16 7.08309 15.4625 8.35248 14.5125 9.25736L8.86563 14.6515C8.63125 14.8753 8.32187 15 8 15C7.67812 15 7.36875 14.8753 7.13438 14.6515L1.48719 9.25736C0.538437 8.35248 0 7.08309 0 5.75615V5.57069C0 3.33567 1.57875 1.42934 3.73125 1.06228C5.12813 0.819589 6.60625 1.29473 7.625 2.3387L7.97188 2.72176ZM7.97188 4.17021L6.91875 3.06069C6.12812 2.25205 5 1.88306 3.89687 2.07139C2.22531 2.35661 0.971875 3.83767 0.971875 5.57069V5.75615C0.971875 6.80171 1.42344 7.79612 2.16937 8.50916L7.81563 13.9033C7.86563 13.9512 7.93125 13.9768 7.97188 13.9768C8.06875 13.9768 8.13437 13.9512 8.18437 13.9033L13.8313 8.50916C14.575 7.79612 15 6.80171 15 5.75615V5.57069C15 3.83767 13.775 2.35661 12.1031 2.07139C10.9719 1.88306 9.87187 2.25205 9.08125 3.06069L7.97188 4.17021Z" fill="#161540"/>
</svg>
