<svg width="48" height="48" viewBox="0 0 48 48" fill="none" xmlns="http://www.w3.org/2000/svg">
<circle cx="24" cy="24" r="24" fill="white"/>
<g clip-path="url(#clip0_4513_1115)">
<path d="M32.3065 28.6166H34.1527C34.6423 28.6166 35.1119 28.4221 35.4581 28.0758C35.8043 27.7296 35.9988 27.26 35.9988 26.7704V24.0012C35.9988 23.5116 35.8043 23.042 35.4581 22.6958C35.1119 22.3495 34.6423 22.155 34.1527 22.155H32.3065C32.0617 22.155 31.8269 22.2523 31.6538 22.4254C31.4807 22.5985 31.3834 22.8333 31.3834 23.0781V27.6935C31.3834 27.9383 31.4807 28.1731 31.6538 28.3462C31.8269 28.5193 32.0617 28.6166 32.3065 28.6166ZM32.3065 28.6166V30.0012C32.3065 30.9804 31.9175 31.9196 31.225 32.612C30.5326 33.3045 29.5935 33.6935 28.6142 33.6935M13.845 22.155H15.6911C15.9359 22.155 16.1707 22.2523 16.3438 22.4254C16.5169 22.5985 16.6142 22.8333 16.6142 23.0781V27.6935C16.6142 27.9383 16.5169 28.1731 16.3438 28.3462C16.1707 28.5193 15.9359 28.6166 15.6911 28.6166H13.845C13.3553 28.6166 12.8858 28.4221 12.5395 28.0758C12.1933 27.7296 11.9988 27.26 11.9988 26.7704V24.0012C11.9988 23.5116 12.1933 23.042 12.5395 22.6958C12.8858 22.3495 13.3553 22.155 13.845 22.155Z" stroke="#181A1C" stroke-width="1.38462" stroke-linecap="round" stroke-linejoin="round"/>
<path d="M15.6902 22.1546V20.3084C15.6902 18.1051 16.5655 15.992 18.1235 14.434C19.6815 12.876 21.7946 12.0007 23.9979 12.0007C26.2012 12.0007 28.3143 12.876 29.8723 14.434C31.4303 15.992 32.3056 18.1051 32.3056 20.3084V22.1546M21.2287 18.4623V21.2315M26.7671 18.4623V21.2315M21.2287 24.9238C21.2287 27.3792 26.7671 27.3792 26.7671 24.9238M26.3056 31.3853C26.9176 31.3853 27.5046 31.6285 27.9374 32.0613C28.3702 32.494 28.6133 33.081 28.6133 33.693C28.6133 34.3051 28.3702 34.892 27.9374 35.3248C27.5046 35.7576 26.9176 36.0007 26.3056 36.0007H23.5364C22.9243 36.0007 22.3374 35.7576 21.9046 35.3248C21.4718 34.892 21.2287 34.3051 21.2287 33.693C21.2287 33.081 21.4718 32.494 21.9046 32.0613C22.3374 31.6285 22.9243 31.3853 23.5364 31.3853H26.3056Z" stroke="#181A1C" stroke-width="1.38462" stroke-linecap="round" stroke-linejoin="round"/>
</g>
<defs>
<clipPath id="clip0_4513_1115">
<rect width="25.8462" height="25.8462" fill="white" transform="translate(11.0769 11.0769)"/>
</clipPath>
</defs>
</svg>
