<svg width="33" height="40" viewBox="0 0 33 40" fill="none" xmlns="http://www.w3.org/2000/svg">
<path d="M2.2628 27.7569H4.96791C5.60668 27.7569 6.16996 28.0197 6.58613 28.4439C6.97811 27.9782 7.47267 27.6719 9.98227 26.9453C11.7602 26.4332 13.2303 25.4061 14.0423 24.836C14.745 24.3461 14.9144 24.2224 15.466 24.3509C15.4254 24.1838 15.3944 24.0089 15.378 23.833H15.2705C14.8969 23.833 14.593 23.5287 14.593 23.1567V20.9131C10.5001 18.256 9.85548 12.4905 13.3368 9.01783C16.3468 6.01285 21.2247 6.01285 24.2337 9.01783C27.5592 12.3378 27.1469 17.796 23.4159 20.6039V23.1567C23.4159 23.5287 23.111 23.833 22.7384 23.833H22.6309C22.6009 24.1509 22.5293 24.4572 22.4228 24.7481C24.0275 24.5181 25.4599 25.8109 25.3835 27.44C25.3806 27.5028 25.367 27.5656 25.3477 27.6236C25.0515 28.5656 23.109 35.4297 23.0016 35.6375H23.0045C22.1209 37.3873 19.7313 37.9632 17.9234 38.2144C17.9069 38.2173 17.8905 38.2173 17.874 38.2202C9.22929 38.798 7.0565 39.1101 6.71873 39.1623C6.70518 39.171 6.1148 40 4.96597 40H2.26087C1.01526 40 0 38.9835 0 37.74V30.013C0 28.7695 1.01526 27.753 2.26087 27.753L2.2628 27.7569ZM4.96791 29.1096H2.2628C1.7663 29.1096 1.35497 29.5203 1.35497 30.0159V37.7429C1.35497 38.2386 1.7663 38.6492 2.2628 38.6492H4.96791C5.46441 38.6492 5.87574 38.2386 5.87574 37.7429V30.0159C5.87574 29.5203 5.46441 29.1096 4.96791 29.1096ZM17.5217 26.809C17.6146 28.554 16.1716 30.444 14.8824 31.6025C16.4513 31.6382 17.2856 31.6624 17.7492 31.3455C18.235 31.0112 18.6212 30.1647 19.4003 28.4584C19.6064 28.0062 19.8397 27.497 20.0894 26.9598C19.2445 27.2226 18.325 27.1675 17.5217 26.809ZM7.48332 29.4874C7.18426 29.8787 7.22781 29.7145 7.22781 30.0159V37.74C8.44825 37.5951 11.3537 37.3042 17.7685 36.8742C18.6028 36.7593 19.4971 36.5728 20.2568 36.2578C20.9285 35.9785 21.4889 35.6008 21.7744 35.08L24.0382 27.3066C24.0353 27.0303 23.9424 26.7723 23.7827 26.5646C23.201 25.7974 22.0076 25.9568 21.6428 26.838H21.6399L21.6292 26.8651C21.2063 27.7501 20.8966 28.4313 20.6275 29.0178C19.7497 30.9464 19.3103 31.9049 18.5128 32.4528C17.695 33.0142 16.7629 32.9919 14.9028 32.9514C14.2969 32.9378 13.5855 32.9214 12.7542 32.9214C12.0215 32.9214 11.8163 31.903 12.4986 31.6228C13.3436 31.2778 14.6192 30.1686 15.4447 28.9144C16.0158 28.041 16.3497 27.1317 16.0835 26.4602C15.9083 26.0167 15.5048 25.7017 15.0324 25.6409C14.8544 25.6186 15.0566 25.7723 14.8156 25.9423C13.9378 26.5559 12.3496 27.6651 10.3578 28.24C7.89368 28.9521 7.76205 29.1222 7.48235 29.4865L7.48332 29.4874ZM5.45086 14.6674C5.07534 14.6674 4.77337 14.363 4.77337 13.991C4.77337 13.619 5.07534 13.3147 5.45086 13.3147H9.40447C9.77709 13.3147 10.082 13.6161 10.082 13.991C10.082 14.3659 9.77709 14.6674 9.40447 14.6674H5.45086ZM8.877 5.05338C8.61375 4.78767 8.61375 4.3606 8.877 4.09778C9.14025 3.83207 9.57094 3.83207 9.83419 4.09778L12.6303 6.88922C12.8964 7.15204 12.8964 7.57911 12.6303 7.84482C12.367 8.10764 11.9363 8.10764 11.6731 7.84482L8.87797 5.05338H8.877ZM32.1225 13.3137C32.4961 13.3137 32.8 13.6151 32.8 13.99C32.8 14.3649 32.4951 14.6664 32.1225 14.6664H28.1689C27.7963 14.6664 27.4914 14.362 27.4914 13.99C27.4914 13.618 27.7963 13.3137 28.1689 13.3137H32.1225ZM27.7382 4.09682C28.0015 3.8311 28.4292 3.8311 28.6954 4.09682C28.9587 4.35963 28.9587 4.7867 28.6954 5.05242L25.8993 7.84386C25.6332 8.10667 25.2054 8.10667 24.9421 7.84386C24.676 7.57814 24.676 7.15107 24.9421 6.88825L27.7382 4.09682ZM18.1082 0.673462C18.1082 0.301464 18.4131 0 18.7857 0C19.1583 0 19.4632 0.301464 19.4632 0.673462V4.62341C19.4632 4.99541 19.1583 5.29977 18.7857 5.29977C18.4131 5.29977 18.1082 4.99541 18.1082 4.62341V0.674429V0.673462ZM20.6236 25.1017C20.9585 24.7645 21.1918 24.3239 21.2653 23.834H16.7436C17.0233 25.6689 19.2948 26.4274 20.6227 25.1017H20.6236ZM15.949 21.201V22.4803H22.0618V21.201H15.949ZM23.2765 9.97439C20.7959 7.49795 16.7746 7.49795 14.294 9.97439C12.2693 11.9957 11.8444 15.1428 13.2787 17.624C13.8004 18.5304 14.5437 19.2947 15.4351 19.8483H22.1315C23.0258 19.2947 23.772 18.5255 24.2966 17.6163C25.7261 15.135 25.2983 11.9928 23.2765 9.97439Z" fill="#4893FF"/>
</svg>
